M48
; DRILL file {KiCad 8.0.1} date 2024-04-10T12:10:00+0700
; FORMAT={-:-/ absolute / inch / decimal}
; #@! TF.CreationDate,2024-04-10T12:10:00+07:00
; #@! TF.GenerationSoftware,Kicad,Pcbnew,8.0.1
; #@! TF.FileFunction,Plated,1,2,PTH
FMAT,2
INCH
; #@! TA.AperFunction,Plated,PTH,ViaDrill
T1C0.0157
; #@! TA.AperFunction,Plated,PTH,ComponentDrill
T2C0.0157
; #@! TA.AperFunction,Plated,PTH,ViaDrill
T3C0.0197
; #@! TA.AperFunction,Plated,PTH,ComponentDrill
T4C0.0276
; #@! TA.AperFunction,Plated,PTH,ComponentDrill
T5C0.0295
; #@! TA.AperFunction,Plated,PTH,ComponentDrill
T6C0.0315
; #@! TA.AperFunction,Plated,PTH,ComponentDrill
T7C0.0394
; #@! TA.AperFunction,Plated,PTH,ComponentDrill
T8C0.0512
%
G90
G05
T1
X1.145Y-3.175
X1.185Y-3.225
X1.2Y-1.15
X1.2Y-1.35
X1.2Y-3.45
X1.21Y-2.315
X1.21Y-2.4
X1.335Y-1.81
X1.445Y-3.535
X1.45Y-1.825
X1.45Y-2.55
X1.485Y-2.3
X1.525Y-2.265
X1.55Y-3.5
X1.57Y-2.65
X1.575Y-2.305
X1.575Y-2.53
X1.58Y-1.98
X1.6Y-1.15
X1.6Y-1.35
X1.64Y-2.6115
X1.725Y-2.3
X1.75Y-2.9614
X1.8Y-2.35
X1.835Y-2.51
X2.0Y-1.15
X2.0Y-1.35
X2.09Y-3.125
X2.14Y-2.8
X2.155Y-2.85
X2.155Y-2.955
X2.2Y-3.155
X2.225Y-2.875
X2.24Y-3.57
X2.255Y-3.0014
X2.295Y-2.285
X2.3Y-3.57
X2.31Y-2.075
X2.35Y-2.81
X2.38Y-1.335
X2.4Y-1.15
X2.4Y-1.55
X2.4Y-2.11
X2.4Y-2.755
X2.4Y-3.26
X2.445Y-1.83
X2.45Y-2.035
X2.45Y-2.83
X2.45Y-3.375
X2.45Y-3.575
X2.5Y-2.08
X2.5Y-2.44
X2.5Y-2.795
X2.5Y-3.225
X2.6Y-2.84
X2.65Y-3.035
X2.65Y-3.575
X2.7Y-2.04
X2.7Y-2.2
X2.7Y-3.43
X2.7006Y-2.8356
X2.7006Y-3.0356
X2.775Y-1.7
X2.785Y-1.34
X2.8Y-1.15
X2.8Y-1.55
X2.9Y-2.2
X2.9Y-3.4
X3.05Y-2.24
X3.05Y-2.835
X3.1Y-2.875
X3.115Y-2.24
X3.2Y-2.16
X3.2Y-2.6
X3.2Y-3.0015
X3.2Y-3.4
X3.22Y-1.56
X3.25Y-2.775
X3.275Y-2.42
X3.35Y-2.33
X3.35Y-2.835
X3.35Y-3.575
X3.45Y-3.0414
X3.5Y-2.875
X3.5Y-3.4
X3.55Y-2.775
X3.6Y-2.335
X3.6Y-2.605
X3.6Y-3.4
X3.65Y-2.775
X3.65Y-3.195
X3.7Y-2.325
X3.75Y-2.975
X3.77Y-2.04
X3.8Y-1.45
X3.8Y-3.4
X3.9Y-1.7
X3.9Y-3.175
X3.925Y-1.05
X3.935Y-1.215
X4.0Y-2.375
X4.0Y-3.4
X4.05Y-3.175
X4.065Y-2.61
X4.1Y-2.25
X4.125Y-2.025
X4.325Y-1.675
X4.325Y-1.9
X4.325Y-2.2
X4.345Y-2.135
X4.35Y-3.525
X4.5Y-2.7
X4.5Y-3.175
X4.7Y-2.0
X4.7Y-2.3
X4.7Y-2.9
X4.75Y-1.6
T3
X1.825Y-3.525
X2.5485Y-3.5235
X2.555Y-1.975
T4
X1.25Y-3.025
X1.25Y-3.325
X1.275Y-1.89
X1.575Y-1.89
X2.125Y-1.45
X2.125Y-1.75
X2.225Y-1.45
X2.225Y-1.75
X2.325Y-1.45
X2.325Y-1.75
X2.425Y-1.45
X2.425Y-1.75
X2.525Y-1.45
X2.525Y-1.75
X2.625Y-1.45
X2.625Y-1.75
X2.725Y-1.45
X2.725Y-1.75
X2.825Y-1.45
X2.825Y-1.75
X2.92Y-1.45
X2.92Y-1.75
X3.125Y-1.45
X3.125Y-1.75
X3.225Y-1.45
X3.225Y-1.75
X3.375Y-1.45
X3.375Y-1.75
X3.575Y-1.45
X3.575Y-1.75
X4.45Y-1.95
X4.45Y-2.05
X4.45Y-2.25
X4.45Y-2.35
X4.45Y-2.45
X4.45Y-2.55
X4.45Y-2.65
X4.45Y-2.75
X4.45Y-2.85
X4.45Y-2.955
X4.75Y-1.95
X4.75Y-2.05
X4.75Y-2.25
X4.75Y-2.35
X4.75Y-2.45
X4.75Y-2.55
X4.75Y-2.65
X4.75Y-2.75
X4.75Y-2.85
X4.75Y-2.955
T5
X1.45Y-3.325
X1.5Y-3.325
X1.55Y-3.325
T6
X1.175Y-1.725
X1.175Y-1.9219
X1.3Y-2.2
X1.3Y-2.3
X1.3Y-2.4
X1.3Y-2.5
X1.3Y-2.6
X1.3Y-2.7
X1.4Y-2.1
X1.4Y-2.2
X1.4Y-2.3
X1.4Y-2.4
X1.4Y-2.5
X1.4Y-2.6
X1.4Y-2.7
X1.4Y-2.8
X1.4781Y-3.0
X1.4781Y-3.1
X1.5Y-2.1
X1.5Y-2.2
X1.5Y-2.7
X1.5Y-2.8
X1.6Y-2.1
X1.6Y-2.2
X1.6Y-2.7
X1.6Y-2.8
X1.675Y-3.0
X1.675Y-3.1
X1.7Y-1.89
X1.7Y-2.1
X1.7Y-2.2
X1.7Y-2.7
X1.7Y-2.8
X1.7781Y-3.4
X1.8Y-2.1
X1.8Y-2.2
X1.8Y-2.7
X1.8Y-2.8
X1.8969Y-1.89
X1.9Y-2.1
X1.9Y-2.2
X1.9Y-2.3
X1.9Y-2.4
X1.9Y-2.5
X1.9Y-2.6
X1.9Y-2.7
X1.9Y-2.8
X1.975Y-3.4
X2.0Y-2.2
X2.0Y-2.3
X2.0Y-2.4
X2.0Y-2.5
X2.0Y-2.6
X2.0Y-2.7
X2.25Y-1.9
X2.25Y-2.5
X2.25Y-2.7
X2.25Y-3.3
X2.35Y-1.9
X2.35Y-2.5
X2.35Y-2.7
X2.35Y-3.3
X2.45Y-1.9
X2.45Y-2.5
X2.45Y-2.7
X2.45Y-3.3
X2.55Y-1.9
X2.55Y-2.5
X2.55Y-2.7
X2.55Y-3.3
X2.65Y-1.9
X2.65Y-2.5
X2.65Y-2.7
X2.65Y-3.3
X2.75Y-1.9
X2.75Y-2.5
X2.75Y-2.7
X2.75Y-3.3
X2.85Y-1.9
X2.85Y-2.5
X2.85Y-2.7
X2.85Y-3.3
X2.95Y-1.9
X2.95Y-2.5
X2.95Y-2.7
X2.95Y-3.3
X3.025Y-1.5031
X3.025Y-1.7
X3.05Y-1.9
X3.05Y-2.5
X3.05Y-2.7
X3.05Y-3.3
X3.15Y-1.9
X3.15Y-2.5
X3.15Y-2.7
X3.15Y-3.3
X3.25Y-1.9
X3.25Y-2.5
X3.25Y-2.7
X3.25Y-3.3
X3.35Y-1.9
X3.35Y-2.5
X3.35Y-2.7
X3.35Y-3.3
X3.42Y-1.139
X3.42Y-1.2374
X3.45Y-1.9
X3.45Y-2.5
X3.45Y-2.7
X3.45Y-3.3
X3.475Y-1.5
X3.475Y-1.6969
X3.55Y-1.9
X3.55Y-2.5
X3.55Y-2.7
X3.55Y-3.3
X3.6Y-1.0981
X3.6Y-1.295
X3.65Y-1.9
X3.65Y-2.5
X3.65Y-2.7
X3.65Y-3.3
X3.69Y-1.4
X3.69Y-1.5
X3.69Y-1.6
X3.69Y-1.7
X3.75Y-1.9
X3.75Y-2.5
X3.75Y-2.7
X3.75Y-3.3
X3.8Y-1.15
X3.8031Y-1.275
X3.85Y-1.9
X3.85Y-2.5
X3.85Y-2.7
X3.85Y-3.3
X3.95Y-1.9
X3.95Y-2.5
X3.95Y-2.7
X3.95Y-3.3
X3.99Y-1.4
X3.99Y-1.5
X3.99Y-1.6
X3.99Y-1.7
X3.9969Y-1.15
X4.0Y-1.275
X4.05Y-1.9
X4.05Y-2.5
X4.05Y-2.7
X4.05Y-3.3
X4.15Y-1.9
X4.15Y-2.5
X4.15Y-2.7
X4.15Y-3.3
X4.275Y-2.3031
X4.275Y-2.5
X4.275Y-3.1031
X4.275Y-3.3
X4.5031Y-2.15
X4.7Y-2.15
T7
X1.45Y-1.55
X1.45Y-1.65
X1.55Y-1.55
X1.55Y-1.65
X1.65Y-1.55
X1.65Y-1.65
X1.75Y-1.55
X1.75Y-1.65
X1.85Y-1.55
X1.85Y-1.65
X4.175Y-1.1504
X4.175Y-1.2504
X4.175Y-1.3504
X4.175Y-1.4504
X4.425Y-1.75
X4.525Y-1.75
X4.625Y-1.75
X4.725Y-1.75
T8
X2.9931Y-1.19
X3.19Y-1.19
T2
G00X4.4457Y-1.1031
M15
G01X4.4063Y-1.1031
M16
G05
G00X4.4063Y-1.4969
M15
G01X4.4457Y-1.4969
M16
G05
G00X4.6228Y-1.3197
M15
G01X4.6228Y-1.2803
M16
G05
T6
G00X4.4398Y-1.2016
M15
G01X4.4122Y-1.2016
M16
G05
G00X4.4122Y-1.3984
M15
G01X4.4398Y-1.3984
M16
G05
M30
