%TF.GenerationSoftware,KiCad,Pcbnew,8.0.3*%
%TF.CreationDate,2024-07-04T14:48:44+07:00*%
%TF.ProjectId,TS_Ext_EPM3032,54535f45-7874-45f4-9550-4d333033322e,1.5*%
%TF.SameCoordinates,Original*%
%TF.FileFunction,Drillmap*%
%TF.FilePolarity,Positive*%
%FSLAX45Y45*%
G04 Gerber Fmt 4.5, Leading zero omitted, Abs format (unit mm)*
G04 Created by KiCad (PCBNEW 8.0.3) date 2024-07-04 14:48:44*
%MOMM*%
%LPD*%
G01*
G04 APERTURE LIST*
%ADD10C,0.100000*%
%ADD11C,0.120000*%
%ADD12C,0.200000*%
%ADD13C,0.130000*%
G04 APERTURE END LIST*
D10*
X3454400Y-9017000D02*
X3454400Y-9906000D01*
X2794000Y-9017000D02*
X3454400Y-9017000D01*
X11531600Y-9017000D02*
X12192000Y-9017000D01*
X11277600Y-9017000D02*
X11277600Y-9906000D01*
X11353800Y-9969500D02*
X11468100Y-9969500D01*
X11531600Y-9017000D02*
X11531600Y-9906000D01*
X11468100Y-9969500D02*
X11531600Y-9906000D01*
X11214100Y-9969500D02*
X11277600Y-9906000D01*
X11277600Y-9017000D02*
X11353800Y-9017000D01*
X2794000Y-2540000D02*
X2794000Y-9017000D01*
X12192000Y-2540000D02*
X12192000Y-2652000D01*
X3517900Y-9969500D02*
X11214100Y-9969500D01*
X3517900Y-9969500D02*
X3454400Y-9906000D01*
X12192000Y-9017000D02*
X12192000Y-3952000D01*
X2794000Y-2540000D02*
X12192000Y-2540000D01*
X11353800Y-9017000D02*
X11353800Y-9969500D01*
D11*
X12052000Y-3122000D02*
X12052000Y-3482000D01*
X12092000Y-3082000D02*
X12192000Y-3082000D01*
X12092000Y-3522000D02*
X12192000Y-3522000D01*
X12192000Y-3082000D02*
X12192000Y-2652000D01*
X12192000Y-3522000D02*
X12192000Y-3952000D01*
X12052000Y-3122000D02*
G75*
G02*
X12092000Y-3082000I40000J0D01*
G01*
X12092000Y-3522000D02*
G75*
G02*
X12052000Y-3482000I0J40000D01*
G01*
D12*
D10*
X2888300Y-8044500D02*
X2928300Y-8084500D01*
X2928300Y-8044500D02*
X2888300Y-8084500D01*
X2989900Y-8171500D02*
X3029900Y-8211500D01*
X3029900Y-8171500D02*
X2989900Y-8211500D01*
X3028000Y-2901000D02*
X3068000Y-2941000D01*
X3068000Y-2901000D02*
X3028000Y-2941000D01*
X3028000Y-3409000D02*
X3068000Y-3449000D01*
X3068000Y-3409000D02*
X3028000Y-3449000D01*
X3028000Y-8743000D02*
X3068000Y-8783000D01*
X3068000Y-8743000D02*
X3028000Y-8783000D01*
X3053400Y-5860100D02*
X3093400Y-5900100D01*
X3093400Y-5860100D02*
X3053400Y-5900100D01*
X3053400Y-6076000D02*
X3093400Y-6116000D01*
X3093400Y-6076000D02*
X3053400Y-6116000D01*
X3370900Y-4577400D02*
X3410900Y-4617400D01*
X3410900Y-4577400D02*
X3370900Y-4617400D01*
X3650300Y-8958900D02*
X3690300Y-8998900D01*
X3690300Y-8958900D02*
X3650300Y-8998900D01*
X3663000Y-4615500D02*
X3703000Y-4655500D01*
X3703000Y-4615500D02*
X3663000Y-4655500D01*
X3663000Y-6457000D02*
X3703000Y-6497000D01*
X3703000Y-6457000D02*
X3663000Y-6497000D01*
X3751900Y-5822000D02*
X3791900Y-5862000D01*
X3791900Y-5822000D02*
X3751900Y-5862000D01*
X3853500Y-5733100D02*
X3893500Y-5773100D01*
X3893500Y-5733100D02*
X3853500Y-5773100D01*
X3917000Y-8870000D02*
X3957000Y-8910000D01*
X3957000Y-8870000D02*
X3917000Y-8910000D01*
X3967800Y-6711000D02*
X4007800Y-6751000D01*
X4007800Y-6711000D02*
X3967800Y-6751000D01*
X3980500Y-5834700D02*
X4020500Y-5874700D01*
X4020500Y-5834700D02*
X3980500Y-5874700D01*
X3980500Y-6406200D02*
X4020500Y-6446200D01*
X4020500Y-6406200D02*
X3980500Y-6446200D01*
X3993200Y-5009200D02*
X4033200Y-5049200D01*
X4033200Y-5009200D02*
X3993200Y-5049200D01*
X4044000Y-2901000D02*
X4084000Y-2941000D01*
X4084000Y-2901000D02*
X4044000Y-2941000D01*
X4044000Y-3409000D02*
X4084000Y-3449000D01*
X4084000Y-3409000D02*
X4044000Y-3449000D01*
X4145600Y-6613150D02*
X4185600Y-6653150D01*
X4185600Y-6613150D02*
X4145600Y-6653150D01*
X4361500Y-5822000D02*
X4401500Y-5862000D01*
X4401500Y-5822000D02*
X4361500Y-5862000D01*
X4425000Y-7501950D02*
X4465000Y-7541950D01*
X4465000Y-7501950D02*
X4425000Y-7541950D01*
X4552000Y-5949000D02*
X4592000Y-5989000D01*
X4592000Y-5949000D02*
X4552000Y-5989000D01*
X4640900Y-6355400D02*
X4680900Y-6395400D01*
X4680900Y-6355400D02*
X4640900Y-6395400D01*
X5060000Y-2901000D02*
X5100000Y-2941000D01*
X5100000Y-2901000D02*
X5060000Y-2941000D01*
X5060000Y-3409000D02*
X5100000Y-3449000D01*
X5100000Y-3409000D02*
X5060000Y-3449000D01*
X5288600Y-7917500D02*
X5328600Y-7957500D01*
X5328600Y-7917500D02*
X5288600Y-7957500D01*
X5415600Y-7092000D02*
X5455600Y-7132000D01*
X5455600Y-7092000D02*
X5415600Y-7132000D01*
X5453700Y-7219000D02*
X5493700Y-7259000D01*
X5493700Y-7219000D02*
X5453700Y-7259000D01*
X5453700Y-7485700D02*
X5493700Y-7525700D01*
X5493700Y-7485700D02*
X5453700Y-7525700D01*
X5568000Y-7993700D02*
X5608000Y-8033700D01*
X5608000Y-7993700D02*
X5568000Y-8033700D01*
X5631500Y-7282500D02*
X5671500Y-7322500D01*
X5671500Y-7282500D02*
X5631500Y-7322500D01*
X5669600Y-9047800D02*
X5709600Y-9087800D01*
X5709600Y-9047800D02*
X5669600Y-9087800D01*
X5707700Y-7603550D02*
X5747700Y-7643550D01*
X5747700Y-7603550D02*
X5707700Y-7643550D01*
X5809300Y-5783900D02*
X5849300Y-5823900D01*
X5849300Y-5783900D02*
X5809300Y-5823900D01*
X5822000Y-9047800D02*
X5862000Y-9087800D01*
X5862000Y-9047800D02*
X5822000Y-9087800D01*
X5847400Y-5250500D02*
X5887400Y-5290500D01*
X5887400Y-5250500D02*
X5847400Y-5290500D01*
X5949000Y-7117400D02*
X5989000Y-7157400D01*
X5989000Y-7117400D02*
X5949000Y-7157400D01*
X6025200Y-3370900D02*
X6065200Y-3410900D01*
X6065200Y-3370900D02*
X6025200Y-3410900D01*
X6076000Y-2901000D02*
X6116000Y-2941000D01*
X6116000Y-2901000D02*
X6076000Y-2941000D01*
X6076000Y-3917000D02*
X6116000Y-3957000D01*
X6116000Y-3917000D02*
X6076000Y-3957000D01*
X6076000Y-5339400D02*
X6116000Y-5379400D01*
X6116000Y-5339400D02*
X6076000Y-5379400D01*
X6076000Y-6977700D02*
X6116000Y-7017700D01*
X6116000Y-6977700D02*
X6076000Y-7017700D01*
X6076000Y-8260400D02*
X6116000Y-8300400D01*
X6116000Y-8260400D02*
X6076000Y-8300400D01*
X6190300Y-4628200D02*
X6230300Y-4668200D01*
X6230300Y-4628200D02*
X6190300Y-4668200D01*
X6203000Y-5148900D02*
X6243000Y-5188900D01*
X6243000Y-5148900D02*
X6203000Y-5188900D01*
X6203000Y-7168200D02*
X6243000Y-7208200D01*
X6243000Y-7168200D02*
X6203000Y-7208200D01*
X6203000Y-8552500D02*
X6243000Y-8592500D01*
X6243000Y-8552500D02*
X6203000Y-8592500D01*
X6203000Y-9060500D02*
X6243000Y-9100500D01*
X6243000Y-9060500D02*
X6203000Y-9100500D01*
X6330000Y-5263200D02*
X6370000Y-5303200D01*
X6370000Y-5263200D02*
X6330000Y-5303200D01*
X6330000Y-6177600D02*
X6370000Y-6217600D01*
X6370000Y-6177600D02*
X6330000Y-6217600D01*
X6330000Y-7079300D02*
X6370000Y-7119300D01*
X6370000Y-7079300D02*
X6330000Y-7119300D01*
X6330000Y-8171500D02*
X6370000Y-8211500D01*
X6370000Y-8171500D02*
X6330000Y-8211500D01*
X6584000Y-7193600D02*
X6624000Y-7233600D01*
X6624000Y-7193600D02*
X6584000Y-7233600D01*
X6711000Y-7688900D02*
X6751000Y-7728900D01*
X6751000Y-7688900D02*
X6711000Y-7728900D01*
X6711000Y-9060500D02*
X6751000Y-9100500D01*
X6751000Y-9060500D02*
X6711000Y-9100500D01*
X6838000Y-5161600D02*
X6878000Y-5201600D01*
X6878000Y-5161600D02*
X6838000Y-5201600D01*
X6838000Y-5568000D02*
X6878000Y-5608000D01*
X6878000Y-5568000D02*
X6838000Y-5608000D01*
X6838000Y-8692200D02*
X6878000Y-8732200D01*
X6878000Y-8692200D02*
X6838000Y-8732200D01*
X6839600Y-7182500D02*
X6879600Y-7222500D01*
X6879600Y-7182500D02*
X6839600Y-7222500D01*
X6839600Y-7690500D02*
X6879600Y-7730500D01*
X6879600Y-7690500D02*
X6839600Y-7730500D01*
X7028500Y-4298000D02*
X7068500Y-4338000D01*
X7068500Y-4298000D02*
X7028500Y-4338000D01*
X7053900Y-3383600D02*
X7093900Y-3423600D01*
X7093900Y-3383600D02*
X7053900Y-3423600D01*
X7092000Y-2901000D02*
X7132000Y-2941000D01*
X7132000Y-2901000D02*
X7092000Y-2941000D01*
X7092000Y-3917000D02*
X7132000Y-3957000D01*
X7132000Y-3917000D02*
X7092000Y-3957000D01*
X7346000Y-5568000D02*
X7386000Y-5608000D01*
X7386000Y-5568000D02*
X7346000Y-5608000D01*
X7346000Y-8616000D02*
X7386000Y-8656000D01*
X7386000Y-8616000D02*
X7346000Y-8656000D01*
X7727000Y-5669600D02*
X7767000Y-5709600D01*
X7767000Y-5669600D02*
X7727000Y-5709600D01*
X7727000Y-7180900D02*
X7767000Y-7220900D01*
X7767000Y-7180900D02*
X7727000Y-7220900D01*
X7854000Y-7282500D02*
X7894000Y-7322500D01*
X7894000Y-7282500D02*
X7854000Y-7322500D01*
X7892100Y-5669600D02*
X7932100Y-5709600D01*
X7932100Y-5669600D02*
X7892100Y-5709600D01*
X8108000Y-5466400D02*
X8148000Y-5506400D01*
X8148000Y-5466400D02*
X8108000Y-5506400D01*
X8108000Y-6584000D02*
X8148000Y-6624000D01*
X8148000Y-6584000D02*
X8108000Y-6624000D01*
X8108000Y-7603750D02*
X8148000Y-7643750D01*
X8148000Y-7603750D02*
X8108000Y-7643750D01*
X8108000Y-8616000D02*
X8148000Y-8656000D01*
X8148000Y-8616000D02*
X8108000Y-8656000D01*
X8158800Y-3942400D02*
X8198800Y-3982400D01*
X8198800Y-3942400D02*
X8158800Y-3982400D01*
X8235000Y-7028500D02*
X8275000Y-7068500D01*
X8275000Y-7028500D02*
X8235000Y-7068500D01*
X8298500Y-6126800D02*
X8338500Y-6166800D01*
X8338500Y-6126800D02*
X8298500Y-6166800D01*
X8489000Y-5898200D02*
X8529000Y-5938200D01*
X8529000Y-5898200D02*
X8489000Y-5938200D01*
X8489000Y-7180900D02*
X8529000Y-7220900D01*
X8529000Y-7180900D02*
X8489000Y-7220900D01*
X8489000Y-9060500D02*
X8529000Y-9100500D01*
X8529000Y-9060500D02*
X8489000Y-9100500D01*
X8743000Y-7705150D02*
X8783000Y-7745150D01*
X8783000Y-7705150D02*
X8743000Y-7745150D01*
X8870000Y-7282500D02*
X8910000Y-7322500D01*
X8910000Y-7282500D02*
X8870000Y-7322500D01*
X8870000Y-8616000D02*
X8910000Y-8656000D01*
X8910000Y-8616000D02*
X8870000Y-8656000D01*
X8997000Y-7028500D02*
X9037000Y-7068500D01*
X9037000Y-7028500D02*
X8997000Y-7068500D01*
X9124000Y-5910900D02*
X9164000Y-5950900D01*
X9164000Y-5910900D02*
X9124000Y-5950900D01*
X9124000Y-6596700D02*
X9164000Y-6636700D01*
X9164000Y-6596700D02*
X9124000Y-6636700D01*
X9124000Y-8616000D02*
X9164000Y-8656000D01*
X9164000Y-8616000D02*
X9124000Y-8656000D01*
X9251000Y-7028500D02*
X9291000Y-7068500D01*
X9291000Y-7028500D02*
X9251000Y-7068500D01*
X9251000Y-8095300D02*
X9291000Y-8135300D01*
X9291000Y-8095300D02*
X9251000Y-8135300D01*
X9378000Y-5885500D02*
X9418000Y-5925500D01*
X9418000Y-5885500D02*
X9378000Y-5925500D01*
X9505000Y-7536500D02*
X9545000Y-7576500D01*
X9545000Y-7536500D02*
X9505000Y-7576500D01*
X9555800Y-5161600D02*
X9595800Y-5201600D01*
X9595800Y-5161600D02*
X9555800Y-5201600D01*
X9632000Y-3663000D02*
X9672000Y-3703000D01*
X9672000Y-3663000D02*
X9632000Y-3703000D01*
X9632000Y-8616000D02*
X9672000Y-8656000D01*
X9672000Y-8616000D02*
X9632000Y-8656000D01*
X9886000Y-4298000D02*
X9926000Y-4338000D01*
X9926000Y-4298000D02*
X9886000Y-4338000D01*
X9886000Y-8044500D02*
X9926000Y-8084500D01*
X9926000Y-8044500D02*
X9886000Y-8084500D01*
X9949500Y-2647000D02*
X9989500Y-2687000D01*
X9989500Y-2647000D02*
X9949500Y-2687000D01*
X9974900Y-3066100D02*
X10014900Y-3106100D01*
X10014900Y-3066100D02*
X9974900Y-3106100D01*
X10140000Y-6012500D02*
X10180000Y-6052500D01*
X10180000Y-6012500D02*
X10140000Y-6052500D01*
X10140000Y-8616000D02*
X10180000Y-8656000D01*
X10180000Y-8616000D02*
X10140000Y-8656000D01*
X10267000Y-8044500D02*
X10307000Y-8084500D01*
X10307000Y-8044500D02*
X10267000Y-8084500D01*
X10305100Y-6609400D02*
X10345100Y-6649400D01*
X10345100Y-6609400D02*
X10305100Y-6649400D01*
X10394000Y-5695000D02*
X10434000Y-5735000D01*
X10434000Y-5695000D02*
X10394000Y-5735000D01*
X10457500Y-5123500D02*
X10497500Y-5163500D01*
X10497500Y-5123500D02*
X10457500Y-5163500D01*
X10965500Y-4450400D02*
X11005500Y-4490400D01*
X11005500Y-4450400D02*
X10965500Y-4490400D01*
X10965500Y-4806000D02*
X11005500Y-4846000D01*
X11005500Y-4806000D02*
X10965500Y-4846000D01*
X10965500Y-5568000D02*
X11005500Y-5608000D01*
X11005500Y-5568000D02*
X10965500Y-5608000D01*
X11016300Y-5402900D02*
X11056300Y-5442900D01*
X11056300Y-5402900D02*
X11016300Y-5442900D01*
X11029000Y-8933500D02*
X11069000Y-8973500D01*
X11069000Y-8933500D02*
X11029000Y-8973500D01*
X11410000Y-6838000D02*
X11450000Y-6878000D01*
X11450000Y-6838000D02*
X11410000Y-6878000D01*
X11410000Y-8044500D02*
X11450000Y-8084500D01*
X11450000Y-8044500D02*
X11410000Y-8084500D01*
X11918000Y-5060000D02*
X11958000Y-5100000D01*
X11958000Y-5060000D02*
X11918000Y-5100000D01*
X11918000Y-5822000D02*
X11958000Y-5862000D01*
X11958000Y-5822000D02*
X11918000Y-5862000D01*
X11918000Y-7346000D02*
X11958000Y-7386000D01*
X11958000Y-7346000D02*
X11918000Y-7386000D01*
X12070400Y-4259900D02*
X12110400Y-4299900D01*
X12110400Y-4259900D02*
X12070400Y-4299900D01*
X11262000Y-2802000D02*
G75*
G02*
X11222000Y-2802000I-20000J0D01*
G01*
X11222000Y-2802000D02*
G75*
G02*
X11262000Y-2802000I20000J0D01*
G01*
X11292000Y-2782000D02*
X11192000Y-2782000D01*
X11192000Y-2822000D02*
G75*
G02*
X11192000Y-2782000I0J20000D01*
G01*
X11192000Y-2822000D02*
X11292000Y-2822000D01*
X11292000Y-2822000D02*
G75*
G03*
X11292000Y-2782000I0J20000D01*
G01*
X11262000Y-3802000D02*
G75*
G02*
X11222000Y-3802000I-20000J0D01*
G01*
X11222000Y-3802000D02*
G75*
G02*
X11262000Y-3802000I20000J0D01*
G01*
X11192000Y-3822000D02*
X11292000Y-3822000D01*
X11292000Y-3782000D02*
G75*
G02*
X11292000Y-3822000I0J-20000D01*
G01*
X11292000Y-3782000D02*
X11192000Y-3782000D01*
X11192000Y-3782000D02*
G75*
G03*
X11192000Y-3822000I0J-20000D01*
G01*
X11762000Y-3302000D02*
G75*
G02*
X11722000Y-3302000I-20000J0D01*
G01*
X11722000Y-3302000D02*
G75*
G02*
X11762000Y-3302000I20000J0D01*
G01*
X11762000Y-3352000D02*
X11762000Y-3252000D01*
X11722000Y-3252000D02*
G75*
G02*
X11762000Y-3252000I20000J0D01*
G01*
X11722000Y-3252000D02*
X11722000Y-3352000D01*
X11722000Y-3352000D02*
G75*
G03*
X11762000Y-3352000I20000J0D01*
G01*
X4635500Y-8928500D02*
X4635500Y-8978500D01*
X4610500Y-8953500D02*
X4660500Y-8953500D01*
X6473077Y-8924577D02*
X6473077Y-8974577D01*
X6448077Y-8949577D02*
X6498077Y-8949577D01*
X6489700Y-4991500D02*
X6489700Y-5041500D01*
X6464700Y-5016500D02*
X6514700Y-5016500D01*
X3199749Y-7708249D02*
X3199749Y-7658751D01*
X3150251Y-7658751D01*
X3150251Y-7708249D01*
X3199749Y-7708249D01*
X3199749Y-8470249D02*
X3199749Y-8420751D01*
X3150251Y-8420751D01*
X3150251Y-8470249D01*
X3199749Y-8470249D01*
X3263249Y-4825349D02*
X3263249Y-4775851D01*
X3213751Y-4775851D01*
X3213751Y-4825349D01*
X3263249Y-4825349D01*
X4025249Y-4825349D02*
X4025249Y-4775851D01*
X3975751Y-4775851D01*
X3975751Y-4825349D01*
X4025249Y-4825349D01*
X5422249Y-3707749D02*
X5422249Y-3658251D01*
X5372751Y-3658251D01*
X5372751Y-3707749D01*
X5422249Y-3707749D01*
X5422249Y-4469749D02*
X5422249Y-4420251D01*
X5372751Y-4420251D01*
X5372751Y-4469749D01*
X5422249Y-4469749D01*
X5676249Y-3707749D02*
X5676249Y-3658251D01*
X5626751Y-3658251D01*
X5626751Y-3707749D01*
X5676249Y-3707749D01*
X5676249Y-4469749D02*
X5676249Y-4420251D01*
X5626751Y-4420251D01*
X5626751Y-4469749D01*
X5676249Y-4469749D01*
X5930249Y-3707749D02*
X5930249Y-3658251D01*
X5880751Y-3658251D01*
X5880751Y-3707749D01*
X5930249Y-3707749D01*
X5930249Y-4469749D02*
X5930249Y-4420251D01*
X5880751Y-4420251D01*
X5880751Y-4469749D01*
X5930249Y-4469749D01*
X6184249Y-3707749D02*
X6184249Y-3658251D01*
X6134751Y-3658251D01*
X6134751Y-3707749D01*
X6184249Y-3707749D01*
X6184249Y-4469749D02*
X6184249Y-4420251D01*
X6134751Y-4420251D01*
X6134751Y-4469749D01*
X6184249Y-4469749D01*
X6438249Y-3707749D02*
X6438249Y-3658251D01*
X6388751Y-3658251D01*
X6388751Y-3707749D01*
X6438249Y-3707749D01*
X6438249Y-4469749D02*
X6438249Y-4420251D01*
X6388751Y-4420251D01*
X6388751Y-4469749D01*
X6438249Y-4469749D01*
X6692249Y-3707749D02*
X6692249Y-3658251D01*
X6642751Y-3658251D01*
X6642751Y-3707749D01*
X6692249Y-3707749D01*
X6692249Y-4469749D02*
X6692249Y-4420251D01*
X6642751Y-4420251D01*
X6642751Y-4469749D01*
X6692249Y-4469749D01*
X6946249Y-3707749D02*
X6946249Y-3658251D01*
X6896751Y-3658251D01*
X6896751Y-3707749D01*
X6946249Y-3707749D01*
X6946249Y-4469749D02*
X6946249Y-4420251D01*
X6896751Y-4420251D01*
X6896751Y-4469749D01*
X6946249Y-4469749D01*
X7200249Y-3707749D02*
X7200249Y-3658251D01*
X7150751Y-3658251D01*
X7150751Y-3707749D01*
X7200249Y-3707749D01*
X7200249Y-4469749D02*
X7200249Y-4420251D01*
X7150751Y-4420251D01*
X7150751Y-4469749D01*
X7200249Y-4469749D01*
X7441549Y-3707749D02*
X7441549Y-3658251D01*
X7392051Y-3658251D01*
X7392051Y-3707749D01*
X7441549Y-3707749D01*
X7441549Y-4469749D02*
X7441549Y-4420251D01*
X7392051Y-4420251D01*
X7392051Y-4469749D01*
X7441549Y-4469749D01*
X7962249Y-3707749D02*
X7962249Y-3658251D01*
X7912751Y-3658251D01*
X7912751Y-3707749D01*
X7962249Y-3707749D01*
X7962249Y-4469749D02*
X7962249Y-4420251D01*
X7912751Y-4420251D01*
X7912751Y-4469749D01*
X7962249Y-4469749D01*
X8216249Y-3707749D02*
X8216249Y-3658251D01*
X8166751Y-3658251D01*
X8166751Y-3707749D01*
X8216249Y-3707749D01*
X8216249Y-4469749D02*
X8216249Y-4420251D01*
X8166751Y-4420251D01*
X8166751Y-4469749D01*
X8216249Y-4469749D01*
X8597249Y-3707749D02*
X8597249Y-3658251D01*
X8547751Y-3658251D01*
X8547751Y-3707749D01*
X8597249Y-3707749D01*
X8597249Y-4469749D02*
X8597249Y-4420251D01*
X8547751Y-4420251D01*
X8547751Y-4469749D01*
X8597249Y-4469749D01*
X9105249Y-3707749D02*
X9105249Y-3658251D01*
X9055751Y-3658251D01*
X9055751Y-3707749D01*
X9105249Y-3707749D01*
X9105249Y-4469749D02*
X9105249Y-4420251D01*
X9055751Y-4420251D01*
X9055751Y-4469749D01*
X9105249Y-4469749D01*
X11327749Y-4977749D02*
X11327749Y-4928251D01*
X11278251Y-4928251D01*
X11278251Y-4977749D01*
X11327749Y-4977749D01*
X11327749Y-5231749D02*
X11327749Y-5182251D01*
X11278251Y-5182251D01*
X11278251Y-5231749D01*
X11327749Y-5231749D01*
X11327749Y-5739749D02*
X11327749Y-5690251D01*
X11278251Y-5690251D01*
X11278251Y-5739749D01*
X11327749Y-5739749D01*
X11327749Y-5993749D02*
X11327749Y-5944251D01*
X11278251Y-5944251D01*
X11278251Y-5993749D01*
X11327749Y-5993749D01*
X11327749Y-6247749D02*
X11327749Y-6198251D01*
X11278251Y-6198251D01*
X11278251Y-6247749D01*
X11327749Y-6247749D01*
X11327749Y-6501749D02*
X11327749Y-6452251D01*
X11278251Y-6452251D01*
X11278251Y-6501749D01*
X11327749Y-6501749D01*
X11327749Y-6755749D02*
X11327749Y-6706251D01*
X11278251Y-6706251D01*
X11278251Y-6755749D01*
X11327749Y-6755749D01*
X11327749Y-7009749D02*
X11327749Y-6960251D01*
X11278251Y-6960251D01*
X11278251Y-7009749D01*
X11327749Y-7009749D01*
X11327749Y-7263749D02*
X11327749Y-7214251D01*
X11278251Y-7214251D01*
X11278251Y-7263749D01*
X11327749Y-7263749D01*
X11327749Y-7530449D02*
X11327749Y-7480951D01*
X11278251Y-7480951D01*
X11278251Y-7530449D01*
X11327749Y-7530449D01*
X12089749Y-4977749D02*
X12089749Y-4928251D01*
X12040251Y-4928251D01*
X12040251Y-4977749D01*
X12089749Y-4977749D01*
X12089749Y-5231749D02*
X12089749Y-5182251D01*
X12040251Y-5182251D01*
X12040251Y-5231749D01*
X12089749Y-5231749D01*
X12089749Y-5739749D02*
X12089749Y-5690251D01*
X12040251Y-5690251D01*
X12040251Y-5739749D01*
X12089749Y-5739749D01*
X12089749Y-5993749D02*
X12089749Y-5944251D01*
X12040251Y-5944251D01*
X12040251Y-5993749D01*
X12089749Y-5993749D01*
X12089749Y-6247749D02*
X12089749Y-6198251D01*
X12040251Y-6198251D01*
X12040251Y-6247749D01*
X12089749Y-6247749D01*
X12089749Y-6501749D02*
X12089749Y-6452251D01*
X12040251Y-6452251D01*
X12040251Y-6501749D01*
X12089749Y-6501749D01*
X12089749Y-6755749D02*
X12089749Y-6706251D01*
X12040251Y-6706251D01*
X12040251Y-6755749D01*
X12089749Y-6755749D01*
X12089749Y-7009749D02*
X12089749Y-6960251D01*
X12040251Y-6960251D01*
X12040251Y-7009749D01*
X12089749Y-7009749D01*
X12089749Y-7263749D02*
X12089749Y-7214251D01*
X12040251Y-7214251D01*
X12040251Y-7263749D01*
X12089749Y-7263749D01*
X12089749Y-7530449D02*
X12089749Y-7480951D01*
X12040251Y-7480951D01*
X12040251Y-7530449D01*
X12089749Y-7530449D01*
X3683000Y-8483000D02*
X3720500Y-8445500D01*
X3683000Y-8408000D01*
X3645500Y-8445500D01*
X3683000Y-8483000D01*
X3810000Y-8483000D02*
X3847500Y-8445500D01*
X3810000Y-8408000D01*
X3772500Y-8445500D01*
X3810000Y-8483000D01*
X3937000Y-8483000D02*
X3974500Y-8445500D01*
X3937000Y-8408000D01*
X3899500Y-8445500D01*
X3937000Y-8483000D01*
X2944500Y-4341500D02*
X3024500Y-4421500D01*
X3024500Y-4341500D02*
X2944500Y-4421500D01*
X3024500Y-4381500D02*
G75*
G02*
X2944500Y-4381500I-40000J0D01*
G01*
X2944500Y-4381500D02*
G75*
G02*
X3024500Y-4381500I40000J0D01*
G01*
X2944500Y-4841500D02*
X3024500Y-4921500D01*
X3024500Y-4841500D02*
X2944500Y-4921500D01*
X3024500Y-4881500D02*
G75*
G02*
X2944500Y-4881500I-40000J0D01*
G01*
X2944500Y-4881500D02*
G75*
G02*
X3024500Y-4881500I40000J0D01*
G01*
X3262000Y-5548000D02*
X3342000Y-5628000D01*
X3342000Y-5548000D02*
X3262000Y-5628000D01*
X3342000Y-5588000D02*
G75*
G02*
X3262000Y-5588000I-40000J0D01*
G01*
X3262000Y-5588000D02*
G75*
G02*
X3342000Y-5588000I40000J0D01*
G01*
X3262000Y-5802000D02*
X3342000Y-5882000D01*
X3342000Y-5802000D02*
X3262000Y-5882000D01*
X3342000Y-5842000D02*
G75*
G02*
X3262000Y-5842000I-40000J0D01*
G01*
X3262000Y-5842000D02*
G75*
G02*
X3342000Y-5842000I40000J0D01*
G01*
X3262000Y-6056000D02*
X3342000Y-6136000D01*
X3342000Y-6056000D02*
X3262000Y-6136000D01*
X3342000Y-6096000D02*
G75*
G02*
X3262000Y-6096000I-40000J0D01*
G01*
X3262000Y-6096000D02*
G75*
G02*
X3342000Y-6096000I40000J0D01*
G01*
X3262000Y-6310000D02*
X3342000Y-6390000D01*
X3342000Y-6310000D02*
X3262000Y-6390000D01*
X3342000Y-6350000D02*
G75*
G02*
X3262000Y-6350000I-40000J0D01*
G01*
X3262000Y-6350000D02*
G75*
G02*
X3342000Y-6350000I40000J0D01*
G01*
X3262000Y-6564000D02*
X3342000Y-6644000D01*
X3342000Y-6564000D02*
X3262000Y-6644000D01*
X3342000Y-6604000D02*
G75*
G02*
X3262000Y-6604000I-40000J0D01*
G01*
X3262000Y-6604000D02*
G75*
G02*
X3342000Y-6604000I40000J0D01*
G01*
X3262000Y-6818000D02*
X3342000Y-6898000D01*
X3342000Y-6818000D02*
X3262000Y-6898000D01*
X3342000Y-6858000D02*
G75*
G02*
X3262000Y-6858000I-40000J0D01*
G01*
X3262000Y-6858000D02*
G75*
G02*
X3342000Y-6858000I40000J0D01*
G01*
X3516000Y-5294000D02*
X3596000Y-5374000D01*
X3596000Y-5294000D02*
X3516000Y-5374000D01*
X3596000Y-5334000D02*
G75*
G02*
X3516000Y-5334000I-40000J0D01*
G01*
X3516000Y-5334000D02*
G75*
G02*
X3596000Y-5334000I40000J0D01*
G01*
X3516000Y-5548000D02*
X3596000Y-5628000D01*
X3596000Y-5548000D02*
X3516000Y-5628000D01*
X3596000Y-5588000D02*
G75*
G02*
X3516000Y-5588000I-40000J0D01*
G01*
X3516000Y-5588000D02*
G75*
G02*
X3596000Y-5588000I40000J0D01*
G01*
X3516000Y-5802000D02*
X3596000Y-5882000D01*
X3596000Y-5802000D02*
X3516000Y-5882000D01*
X3596000Y-5842000D02*
G75*
G02*
X3516000Y-5842000I-40000J0D01*
G01*
X3516000Y-5842000D02*
G75*
G02*
X3596000Y-5842000I40000J0D01*
G01*
X3516000Y-6056000D02*
X3596000Y-6136000D01*
X3596000Y-6056000D02*
X3516000Y-6136000D01*
X3596000Y-6096000D02*
G75*
G02*
X3516000Y-6096000I-40000J0D01*
G01*
X3516000Y-6096000D02*
G75*
G02*
X3596000Y-6096000I40000J0D01*
G01*
X3516000Y-6310000D02*
X3596000Y-6390000D01*
X3596000Y-6310000D02*
X3516000Y-6390000D01*
X3596000Y-6350000D02*
G75*
G02*
X3516000Y-6350000I-40000J0D01*
G01*
X3516000Y-6350000D02*
G75*
G02*
X3596000Y-6350000I40000J0D01*
G01*
X3516000Y-6564000D02*
X3596000Y-6644000D01*
X3596000Y-6564000D02*
X3516000Y-6644000D01*
X3596000Y-6604000D02*
G75*
G02*
X3516000Y-6604000I-40000J0D01*
G01*
X3516000Y-6604000D02*
G75*
G02*
X3596000Y-6604000I40000J0D01*
G01*
X3516000Y-6818000D02*
X3596000Y-6898000D01*
X3596000Y-6818000D02*
X3516000Y-6898000D01*
X3596000Y-6858000D02*
G75*
G02*
X3516000Y-6858000I-40000J0D01*
G01*
X3516000Y-6858000D02*
G75*
G02*
X3596000Y-6858000I40000J0D01*
G01*
X3516000Y-7072000D02*
X3596000Y-7152000D01*
X3596000Y-7072000D02*
X3516000Y-7152000D01*
X3596000Y-7112000D02*
G75*
G02*
X3516000Y-7112000I-40000J0D01*
G01*
X3516000Y-7112000D02*
G75*
G02*
X3596000Y-7112000I40000J0D01*
G01*
X3714500Y-7580000D02*
X3794500Y-7660000D01*
X3794500Y-7580000D02*
X3714500Y-7660000D01*
X3794500Y-7620000D02*
G75*
G02*
X3714500Y-7620000I-40000J0D01*
G01*
X3714500Y-7620000D02*
G75*
G02*
X3794500Y-7620000I40000J0D01*
G01*
X3714500Y-7834000D02*
X3794500Y-7914000D01*
X3794500Y-7834000D02*
X3714500Y-7914000D01*
X3794500Y-7874000D02*
G75*
G02*
X3714500Y-7874000I-40000J0D01*
G01*
X3714500Y-7874000D02*
G75*
G02*
X3794500Y-7874000I40000J0D01*
G01*
X3770000Y-5294000D02*
X3850000Y-5374000D01*
X3850000Y-5294000D02*
X3770000Y-5374000D01*
X3850000Y-5334000D02*
G75*
G02*
X3770000Y-5334000I-40000J0D01*
G01*
X3770000Y-5334000D02*
G75*
G02*
X3850000Y-5334000I40000J0D01*
G01*
X3770000Y-5548000D02*
X3850000Y-5628000D01*
X3850000Y-5548000D02*
X3770000Y-5628000D01*
X3850000Y-5588000D02*
G75*
G02*
X3770000Y-5588000I-40000J0D01*
G01*
X3770000Y-5588000D02*
G75*
G02*
X3850000Y-5588000I40000J0D01*
G01*
X3770000Y-6818000D02*
X3850000Y-6898000D01*
X3850000Y-6818000D02*
X3770000Y-6898000D01*
X3850000Y-6858000D02*
G75*
G02*
X3770000Y-6858000I-40000J0D01*
G01*
X3770000Y-6858000D02*
G75*
G02*
X3850000Y-6858000I40000J0D01*
G01*
X3770000Y-7072000D02*
X3850000Y-7152000D01*
X3850000Y-7072000D02*
X3770000Y-7152000D01*
X3850000Y-7112000D02*
G75*
G02*
X3770000Y-7112000I-40000J0D01*
G01*
X3770000Y-7112000D02*
G75*
G02*
X3850000Y-7112000I40000J0D01*
G01*
X4024000Y-5294000D02*
X4104000Y-5374000D01*
X4104000Y-5294000D02*
X4024000Y-5374000D01*
X4104000Y-5334000D02*
G75*
G02*
X4024000Y-5334000I-40000J0D01*
G01*
X4024000Y-5334000D02*
G75*
G02*
X4104000Y-5334000I40000J0D01*
G01*
X4024000Y-5548000D02*
X4104000Y-5628000D01*
X4104000Y-5548000D02*
X4024000Y-5628000D01*
X4104000Y-5588000D02*
G75*
G02*
X4024000Y-5588000I-40000J0D01*
G01*
X4024000Y-5588000D02*
G75*
G02*
X4104000Y-5588000I40000J0D01*
G01*
X4024000Y-6818000D02*
X4104000Y-6898000D01*
X4104000Y-6818000D02*
X4024000Y-6898000D01*
X4104000Y-6858000D02*
G75*
G02*
X4024000Y-6858000I-40000J0D01*
G01*
X4024000Y-6858000D02*
G75*
G02*
X4104000Y-6858000I40000J0D01*
G01*
X4024000Y-7072000D02*
X4104000Y-7152000D01*
X4104000Y-7072000D02*
X4024000Y-7152000D01*
X4104000Y-7112000D02*
G75*
G02*
X4024000Y-7112000I-40000J0D01*
G01*
X4024000Y-7112000D02*
G75*
G02*
X4104000Y-7112000I40000J0D01*
G01*
X4214500Y-7580000D02*
X4294500Y-7660000D01*
X4294500Y-7580000D02*
X4214500Y-7660000D01*
X4294500Y-7620000D02*
G75*
G02*
X4214500Y-7620000I-40000J0D01*
G01*
X4214500Y-7620000D02*
G75*
G02*
X4294500Y-7620000I40000J0D01*
G01*
X4214500Y-7834000D02*
X4294500Y-7914000D01*
X4294500Y-7834000D02*
X4214500Y-7914000D01*
X4294500Y-7874000D02*
G75*
G02*
X4214500Y-7874000I-40000J0D01*
G01*
X4214500Y-7874000D02*
G75*
G02*
X4294500Y-7874000I40000J0D01*
G01*
X4278000Y-4760600D02*
X4358000Y-4840600D01*
X4358000Y-4760600D02*
X4278000Y-4840600D01*
X4358000Y-4800600D02*
G75*
G02*
X4278000Y-4800600I-40000J0D01*
G01*
X4278000Y-4800600D02*
G75*
G02*
X4358000Y-4800600I40000J0D01*
G01*
X4278000Y-5294000D02*
X4358000Y-5374000D01*
X4358000Y-5294000D02*
X4278000Y-5374000D01*
X4358000Y-5334000D02*
G75*
G02*
X4278000Y-5334000I-40000J0D01*
G01*
X4278000Y-5334000D02*
G75*
G02*
X4358000Y-5334000I40000J0D01*
G01*
X4278000Y-5548000D02*
X4358000Y-5628000D01*
X4358000Y-5548000D02*
X4278000Y-5628000D01*
X4358000Y-5588000D02*
G75*
G02*
X4278000Y-5588000I-40000J0D01*
G01*
X4278000Y-5588000D02*
G75*
G02*
X4358000Y-5588000I40000J0D01*
G01*
X4278000Y-6818000D02*
X4358000Y-6898000D01*
X4358000Y-6818000D02*
X4278000Y-6898000D01*
X4358000Y-6858000D02*
G75*
G02*
X4278000Y-6858000I-40000J0D01*
G01*
X4278000Y-6858000D02*
G75*
G02*
X4358000Y-6858000I40000J0D01*
G01*
X4278000Y-7072000D02*
X4358000Y-7152000D01*
X4358000Y-7072000D02*
X4278000Y-7152000D01*
X4358000Y-7112000D02*
G75*
G02*
X4278000Y-7112000I-40000J0D01*
G01*
X4278000Y-7112000D02*
G75*
G02*
X4358000Y-7112000I40000J0D01*
G01*
X4476500Y-8596000D02*
X4556500Y-8676000D01*
X4556500Y-8596000D02*
X4476500Y-8676000D01*
X4556500Y-8636000D02*
G75*
G02*
X4476500Y-8636000I-40000J0D01*
G01*
X4476500Y-8636000D02*
G75*
G02*
X4556500Y-8636000I40000J0D01*
G01*
X4532000Y-5294000D02*
X4612000Y-5374000D01*
X4612000Y-5294000D02*
X4532000Y-5374000D01*
X4612000Y-5334000D02*
G75*
G02*
X4532000Y-5334000I-40000J0D01*
G01*
X4532000Y-5334000D02*
G75*
G02*
X4612000Y-5334000I40000J0D01*
G01*
X4532000Y-5548000D02*
X4612000Y-5628000D01*
X4612000Y-5548000D02*
X4532000Y-5628000D01*
X4612000Y-5588000D02*
G75*
G02*
X4532000Y-5588000I-40000J0D01*
G01*
X4532000Y-5588000D02*
G75*
G02*
X4612000Y-5588000I40000J0D01*
G01*
X4532000Y-6818000D02*
X4612000Y-6898000D01*
X4612000Y-6818000D02*
X4532000Y-6898000D01*
X4612000Y-6858000D02*
G75*
G02*
X4532000Y-6858000I-40000J0D01*
G01*
X4532000Y-6858000D02*
G75*
G02*
X4612000Y-6858000I40000J0D01*
G01*
X4532000Y-7072000D02*
X4612000Y-7152000D01*
X4612000Y-7072000D02*
X4532000Y-7152000D01*
X4612000Y-7112000D02*
G75*
G02*
X4532000Y-7112000I-40000J0D01*
G01*
X4532000Y-7112000D02*
G75*
G02*
X4612000Y-7112000I40000J0D01*
G01*
X4778000Y-4760600D02*
X4858000Y-4840600D01*
X4858000Y-4760600D02*
X4778000Y-4840600D01*
X4858000Y-4800600D02*
G75*
G02*
X4778000Y-4800600I-40000J0D01*
G01*
X4778000Y-4800600D02*
G75*
G02*
X4858000Y-4800600I40000J0D01*
G01*
X4786000Y-5294000D02*
X4866000Y-5374000D01*
X4866000Y-5294000D02*
X4786000Y-5374000D01*
X4866000Y-5334000D02*
G75*
G02*
X4786000Y-5334000I-40000J0D01*
G01*
X4786000Y-5334000D02*
G75*
G02*
X4866000Y-5334000I40000J0D01*
G01*
X4786000Y-5548000D02*
X4866000Y-5628000D01*
X4866000Y-5548000D02*
X4786000Y-5628000D01*
X4866000Y-5588000D02*
G75*
G02*
X4786000Y-5588000I-40000J0D01*
G01*
X4786000Y-5588000D02*
G75*
G02*
X4866000Y-5588000I40000J0D01*
G01*
X4786000Y-5802000D02*
X4866000Y-5882000D01*
X4866000Y-5802000D02*
X4786000Y-5882000D01*
X4866000Y-5842000D02*
G75*
G02*
X4786000Y-5842000I-40000J0D01*
G01*
X4786000Y-5842000D02*
G75*
G02*
X4866000Y-5842000I40000J0D01*
G01*
X4786000Y-6056000D02*
X4866000Y-6136000D01*
X4866000Y-6056000D02*
X4786000Y-6136000D01*
X4866000Y-6096000D02*
G75*
G02*
X4786000Y-6096000I-40000J0D01*
G01*
X4786000Y-6096000D02*
G75*
G02*
X4866000Y-6096000I40000J0D01*
G01*
X4786000Y-6310000D02*
X4866000Y-6390000D01*
X4866000Y-6310000D02*
X4786000Y-6390000D01*
X4866000Y-6350000D02*
G75*
G02*
X4786000Y-6350000I-40000J0D01*
G01*
X4786000Y-6350000D02*
G75*
G02*
X4866000Y-6350000I40000J0D01*
G01*
X4786000Y-6564000D02*
X4866000Y-6644000D01*
X4866000Y-6564000D02*
X4786000Y-6644000D01*
X4866000Y-6604000D02*
G75*
G02*
X4786000Y-6604000I-40000J0D01*
G01*
X4786000Y-6604000D02*
G75*
G02*
X4866000Y-6604000I40000J0D01*
G01*
X4786000Y-6818000D02*
X4866000Y-6898000D01*
X4866000Y-6818000D02*
X4786000Y-6898000D01*
X4866000Y-6858000D02*
G75*
G02*
X4786000Y-6858000I-40000J0D01*
G01*
X4786000Y-6858000D02*
G75*
G02*
X4866000Y-6858000I40000J0D01*
G01*
X4786000Y-7072000D02*
X4866000Y-7152000D01*
X4866000Y-7072000D02*
X4786000Y-7152000D01*
X4866000Y-7112000D02*
G75*
G02*
X4786000Y-7112000I-40000J0D01*
G01*
X4786000Y-7112000D02*
G75*
G02*
X4866000Y-7112000I40000J0D01*
G01*
X4976500Y-8596000D02*
X5056500Y-8676000D01*
X5056500Y-8596000D02*
X4976500Y-8676000D01*
X5056500Y-8636000D02*
G75*
G02*
X4976500Y-8636000I-40000J0D01*
G01*
X4976500Y-8636000D02*
G75*
G02*
X5056500Y-8636000I40000J0D01*
G01*
X5040000Y-5548000D02*
X5120000Y-5628000D01*
X5120000Y-5548000D02*
X5040000Y-5628000D01*
X5120000Y-5588000D02*
G75*
G02*
X5040000Y-5588000I-40000J0D01*
G01*
X5040000Y-5588000D02*
G75*
G02*
X5120000Y-5588000I40000J0D01*
G01*
X5040000Y-5802000D02*
X5120000Y-5882000D01*
X5120000Y-5802000D02*
X5040000Y-5882000D01*
X5120000Y-5842000D02*
G75*
G02*
X5040000Y-5842000I-40000J0D01*
G01*
X5040000Y-5842000D02*
G75*
G02*
X5120000Y-5842000I40000J0D01*
G01*
X5040000Y-6056000D02*
X5120000Y-6136000D01*
X5120000Y-6056000D02*
X5040000Y-6136000D01*
X5120000Y-6096000D02*
G75*
G02*
X5040000Y-6096000I-40000J0D01*
G01*
X5040000Y-6096000D02*
G75*
G02*
X5120000Y-6096000I40000J0D01*
G01*
X5040000Y-6310000D02*
X5120000Y-6390000D01*
X5120000Y-6310000D02*
X5040000Y-6390000D01*
X5120000Y-6350000D02*
G75*
G02*
X5040000Y-6350000I-40000J0D01*
G01*
X5040000Y-6350000D02*
G75*
G02*
X5120000Y-6350000I40000J0D01*
G01*
X5040000Y-6564000D02*
X5120000Y-6644000D01*
X5120000Y-6564000D02*
X5040000Y-6644000D01*
X5120000Y-6604000D02*
G75*
G02*
X5040000Y-6604000I-40000J0D01*
G01*
X5040000Y-6604000D02*
G75*
G02*
X5120000Y-6604000I40000J0D01*
G01*
X5040000Y-6818000D02*
X5120000Y-6898000D01*
X5120000Y-6818000D02*
X5040000Y-6898000D01*
X5120000Y-6858000D02*
G75*
G02*
X5040000Y-6858000I-40000J0D01*
G01*
X5040000Y-6858000D02*
G75*
G02*
X5120000Y-6858000I40000J0D01*
G01*
X5675000Y-4786000D02*
X5755000Y-4866000D01*
X5755000Y-4786000D02*
X5675000Y-4866000D01*
X5755000Y-4826000D02*
G75*
G02*
X5675000Y-4826000I-40000J0D01*
G01*
X5675000Y-4826000D02*
G75*
G02*
X5755000Y-4826000I40000J0D01*
G01*
X5675000Y-6310000D02*
X5755000Y-6390000D01*
X5755000Y-6310000D02*
X5675000Y-6390000D01*
X5755000Y-6350000D02*
G75*
G02*
X5675000Y-6350000I-40000J0D01*
G01*
X5675000Y-6350000D02*
G75*
G02*
X5755000Y-6350000I40000J0D01*
G01*
X5675000Y-6818000D02*
X5755000Y-6898000D01*
X5755000Y-6818000D02*
X5675000Y-6898000D01*
X5755000Y-6858000D02*
G75*
G02*
X5675000Y-6858000I-40000J0D01*
G01*
X5675000Y-6858000D02*
G75*
G02*
X5755000Y-6858000I40000J0D01*
G01*
X5675000Y-8342000D02*
X5755000Y-8422000D01*
X5755000Y-8342000D02*
X5675000Y-8422000D01*
X5755000Y-8382000D02*
G75*
G02*
X5675000Y-8382000I-40000J0D01*
G01*
X5675000Y-8382000D02*
G75*
G02*
X5755000Y-8382000I40000J0D01*
G01*
X5929000Y-4786000D02*
X6009000Y-4866000D01*
X6009000Y-4786000D02*
X5929000Y-4866000D01*
X6009000Y-4826000D02*
G75*
G02*
X5929000Y-4826000I-40000J0D01*
G01*
X5929000Y-4826000D02*
G75*
G02*
X6009000Y-4826000I40000J0D01*
G01*
X5929000Y-6310000D02*
X6009000Y-6390000D01*
X6009000Y-6310000D02*
X5929000Y-6390000D01*
X6009000Y-6350000D02*
G75*
G02*
X5929000Y-6350000I-40000J0D01*
G01*
X5929000Y-6350000D02*
G75*
G02*
X6009000Y-6350000I40000J0D01*
G01*
X5929000Y-6818000D02*
X6009000Y-6898000D01*
X6009000Y-6818000D02*
X5929000Y-6898000D01*
X6009000Y-6858000D02*
G75*
G02*
X5929000Y-6858000I-40000J0D01*
G01*
X5929000Y-6858000D02*
G75*
G02*
X6009000Y-6858000I40000J0D01*
G01*
X5929000Y-8342000D02*
X6009000Y-8422000D01*
X6009000Y-8342000D02*
X5929000Y-8422000D01*
X6009000Y-8382000D02*
G75*
G02*
X5929000Y-8382000I-40000J0D01*
G01*
X5929000Y-8382000D02*
G75*
G02*
X6009000Y-8382000I40000J0D01*
G01*
X6183000Y-4786000D02*
X6263000Y-4866000D01*
X6263000Y-4786000D02*
X6183000Y-4866000D01*
X6263000Y-4826000D02*
G75*
G02*
X6183000Y-4826000I-40000J0D01*
G01*
X6183000Y-4826000D02*
G75*
G02*
X6263000Y-4826000I40000J0D01*
G01*
X6183000Y-6310000D02*
X6263000Y-6390000D01*
X6263000Y-6310000D02*
X6183000Y-6390000D01*
X6263000Y-6350000D02*
G75*
G02*
X6183000Y-6350000I-40000J0D01*
G01*
X6183000Y-6350000D02*
G75*
G02*
X6263000Y-6350000I40000J0D01*
G01*
X6183000Y-6818000D02*
X6263000Y-6898000D01*
X6263000Y-6818000D02*
X6183000Y-6898000D01*
X6263000Y-6858000D02*
G75*
G02*
X6183000Y-6858000I-40000J0D01*
G01*
X6183000Y-6858000D02*
G75*
G02*
X6263000Y-6858000I40000J0D01*
G01*
X6183000Y-8342000D02*
X6263000Y-8422000D01*
X6263000Y-8342000D02*
X6183000Y-8422000D01*
X6263000Y-8382000D02*
G75*
G02*
X6183000Y-8382000I-40000J0D01*
G01*
X6183000Y-8382000D02*
G75*
G02*
X6263000Y-8382000I40000J0D01*
G01*
X6437000Y-4786000D02*
X6517000Y-4866000D01*
X6517000Y-4786000D02*
X6437000Y-4866000D01*
X6517000Y-4826000D02*
G75*
G02*
X6437000Y-4826000I-40000J0D01*
G01*
X6437000Y-4826000D02*
G75*
G02*
X6517000Y-4826000I40000J0D01*
G01*
X6437000Y-6310000D02*
X6517000Y-6390000D01*
X6517000Y-6310000D02*
X6437000Y-6390000D01*
X6517000Y-6350000D02*
G75*
G02*
X6437000Y-6350000I-40000J0D01*
G01*
X6437000Y-6350000D02*
G75*
G02*
X6517000Y-6350000I40000J0D01*
G01*
X6437000Y-6818000D02*
X6517000Y-6898000D01*
X6517000Y-6818000D02*
X6437000Y-6898000D01*
X6517000Y-6858000D02*
G75*
G02*
X6437000Y-6858000I-40000J0D01*
G01*
X6437000Y-6858000D02*
G75*
G02*
X6517000Y-6858000I40000J0D01*
G01*
X6437000Y-8342000D02*
X6517000Y-8422000D01*
X6517000Y-8342000D02*
X6437000Y-8422000D01*
X6517000Y-8382000D02*
G75*
G02*
X6437000Y-8382000I-40000J0D01*
G01*
X6437000Y-8382000D02*
G75*
G02*
X6517000Y-8382000I40000J0D01*
G01*
X6691000Y-4786000D02*
X6771000Y-4866000D01*
X6771000Y-4786000D02*
X6691000Y-4866000D01*
X6771000Y-4826000D02*
G75*
G02*
X6691000Y-4826000I-40000J0D01*
G01*
X6691000Y-4826000D02*
G75*
G02*
X6771000Y-4826000I40000J0D01*
G01*
X6691000Y-6310000D02*
X6771000Y-6390000D01*
X6771000Y-6310000D02*
X6691000Y-6390000D01*
X6771000Y-6350000D02*
G75*
G02*
X6691000Y-6350000I-40000J0D01*
G01*
X6691000Y-6350000D02*
G75*
G02*
X6771000Y-6350000I40000J0D01*
G01*
X6691000Y-6818000D02*
X6771000Y-6898000D01*
X6771000Y-6818000D02*
X6691000Y-6898000D01*
X6771000Y-6858000D02*
G75*
G02*
X6691000Y-6858000I-40000J0D01*
G01*
X6691000Y-6858000D02*
G75*
G02*
X6771000Y-6858000I40000J0D01*
G01*
X6691000Y-8342000D02*
X6771000Y-8422000D01*
X6771000Y-8342000D02*
X6691000Y-8422000D01*
X6771000Y-8382000D02*
G75*
G02*
X6691000Y-8382000I-40000J0D01*
G01*
X6691000Y-8382000D02*
G75*
G02*
X6771000Y-8382000I40000J0D01*
G01*
X6945000Y-4786000D02*
X7025000Y-4866000D01*
X7025000Y-4786000D02*
X6945000Y-4866000D01*
X7025000Y-4826000D02*
G75*
G02*
X6945000Y-4826000I-40000J0D01*
G01*
X6945000Y-4826000D02*
G75*
G02*
X7025000Y-4826000I40000J0D01*
G01*
X6945000Y-6310000D02*
X7025000Y-6390000D01*
X7025000Y-6310000D02*
X6945000Y-6390000D01*
X7025000Y-6350000D02*
G75*
G02*
X6945000Y-6350000I-40000J0D01*
G01*
X6945000Y-6350000D02*
G75*
G02*
X7025000Y-6350000I40000J0D01*
G01*
X6945000Y-6818000D02*
X7025000Y-6898000D01*
X7025000Y-6818000D02*
X6945000Y-6898000D01*
X7025000Y-6858000D02*
G75*
G02*
X6945000Y-6858000I-40000J0D01*
G01*
X6945000Y-6858000D02*
G75*
G02*
X7025000Y-6858000I40000J0D01*
G01*
X6945000Y-8342000D02*
X7025000Y-8422000D01*
X7025000Y-8342000D02*
X6945000Y-8422000D01*
X7025000Y-8382000D02*
G75*
G02*
X6945000Y-8382000I-40000J0D01*
G01*
X6945000Y-8382000D02*
G75*
G02*
X7025000Y-8382000I40000J0D01*
G01*
X7199000Y-4786000D02*
X7279000Y-4866000D01*
X7279000Y-4786000D02*
X7199000Y-4866000D01*
X7279000Y-4826000D02*
G75*
G02*
X7199000Y-4826000I-40000J0D01*
G01*
X7199000Y-4826000D02*
G75*
G02*
X7279000Y-4826000I40000J0D01*
G01*
X7199000Y-6310000D02*
X7279000Y-6390000D01*
X7279000Y-6310000D02*
X7199000Y-6390000D01*
X7279000Y-6350000D02*
G75*
G02*
X7199000Y-6350000I-40000J0D01*
G01*
X7199000Y-6350000D02*
G75*
G02*
X7279000Y-6350000I40000J0D01*
G01*
X7199000Y-6818000D02*
X7279000Y-6898000D01*
X7279000Y-6818000D02*
X7199000Y-6898000D01*
X7279000Y-6858000D02*
G75*
G02*
X7199000Y-6858000I-40000J0D01*
G01*
X7199000Y-6858000D02*
G75*
G02*
X7279000Y-6858000I40000J0D01*
G01*
X7199000Y-8342000D02*
X7279000Y-8422000D01*
X7279000Y-8342000D02*
X7199000Y-8422000D01*
X7279000Y-8382000D02*
G75*
G02*
X7199000Y-8382000I-40000J0D01*
G01*
X7199000Y-8382000D02*
G75*
G02*
X7279000Y-8382000I40000J0D01*
G01*
X7453000Y-4786000D02*
X7533000Y-4866000D01*
X7533000Y-4786000D02*
X7453000Y-4866000D01*
X7533000Y-4826000D02*
G75*
G02*
X7453000Y-4826000I-40000J0D01*
G01*
X7453000Y-4826000D02*
G75*
G02*
X7533000Y-4826000I40000J0D01*
G01*
X7453000Y-6310000D02*
X7533000Y-6390000D01*
X7533000Y-6310000D02*
X7453000Y-6390000D01*
X7533000Y-6350000D02*
G75*
G02*
X7453000Y-6350000I-40000J0D01*
G01*
X7453000Y-6350000D02*
G75*
G02*
X7533000Y-6350000I40000J0D01*
G01*
X7453000Y-6818000D02*
X7533000Y-6898000D01*
X7533000Y-6818000D02*
X7453000Y-6898000D01*
X7533000Y-6858000D02*
G75*
G02*
X7453000Y-6858000I-40000J0D01*
G01*
X7453000Y-6858000D02*
G75*
G02*
X7533000Y-6858000I40000J0D01*
G01*
X7453000Y-8342000D02*
X7533000Y-8422000D01*
X7533000Y-8342000D02*
X7453000Y-8422000D01*
X7533000Y-8382000D02*
G75*
G02*
X7453000Y-8382000I-40000J0D01*
G01*
X7453000Y-8382000D02*
G75*
G02*
X7533000Y-8382000I40000J0D01*
G01*
X7643500Y-3778000D02*
X7723500Y-3858000D01*
X7723500Y-3778000D02*
X7643500Y-3858000D01*
X7723500Y-3818000D02*
G75*
G02*
X7643500Y-3818000I-40000J0D01*
G01*
X7643500Y-3818000D02*
G75*
G02*
X7723500Y-3818000I40000J0D01*
G01*
X7643500Y-4278000D02*
X7723500Y-4358000D01*
X7723500Y-4278000D02*
X7643500Y-4358000D01*
X7723500Y-4318000D02*
G75*
G02*
X7643500Y-4318000I-40000J0D01*
G01*
X7643500Y-4318000D02*
G75*
G02*
X7723500Y-4318000I40000J0D01*
G01*
X7707000Y-4786000D02*
X7787000Y-4866000D01*
X7787000Y-4786000D02*
X7707000Y-4866000D01*
X7787000Y-4826000D02*
G75*
G02*
X7707000Y-4826000I-40000J0D01*
G01*
X7707000Y-4826000D02*
G75*
G02*
X7787000Y-4826000I40000J0D01*
G01*
X7707000Y-6310000D02*
X7787000Y-6390000D01*
X7787000Y-6310000D02*
X7707000Y-6390000D01*
X7787000Y-6350000D02*
G75*
G02*
X7707000Y-6350000I-40000J0D01*
G01*
X7707000Y-6350000D02*
G75*
G02*
X7787000Y-6350000I40000J0D01*
G01*
X7707000Y-6818000D02*
X7787000Y-6898000D01*
X7787000Y-6818000D02*
X7707000Y-6898000D01*
X7787000Y-6858000D02*
G75*
G02*
X7707000Y-6858000I-40000J0D01*
G01*
X7707000Y-6858000D02*
G75*
G02*
X7787000Y-6858000I40000J0D01*
G01*
X7707000Y-8342000D02*
X7787000Y-8422000D01*
X7787000Y-8342000D02*
X7707000Y-8422000D01*
X7787000Y-8382000D02*
G75*
G02*
X7707000Y-8382000I-40000J0D01*
G01*
X7707000Y-8382000D02*
G75*
G02*
X7787000Y-8382000I40000J0D01*
G01*
X7961000Y-4786000D02*
X8041000Y-4866000D01*
X8041000Y-4786000D02*
X7961000Y-4866000D01*
X8041000Y-4826000D02*
G75*
G02*
X7961000Y-4826000I-40000J0D01*
G01*
X7961000Y-4826000D02*
G75*
G02*
X8041000Y-4826000I40000J0D01*
G01*
X7961000Y-6310000D02*
X8041000Y-6390000D01*
X8041000Y-6310000D02*
X7961000Y-6390000D01*
X8041000Y-6350000D02*
G75*
G02*
X7961000Y-6350000I-40000J0D01*
G01*
X7961000Y-6350000D02*
G75*
G02*
X8041000Y-6350000I40000J0D01*
G01*
X7961000Y-6818000D02*
X8041000Y-6898000D01*
X8041000Y-6818000D02*
X7961000Y-6898000D01*
X8041000Y-6858000D02*
G75*
G02*
X7961000Y-6858000I-40000J0D01*
G01*
X7961000Y-6858000D02*
G75*
G02*
X8041000Y-6858000I40000J0D01*
G01*
X7961000Y-8342000D02*
X8041000Y-8422000D01*
X8041000Y-8342000D02*
X7961000Y-8422000D01*
X8041000Y-8382000D02*
G75*
G02*
X7961000Y-8382000I-40000J0D01*
G01*
X7961000Y-8382000D02*
G75*
G02*
X8041000Y-8382000I40000J0D01*
G01*
X8215000Y-4786000D02*
X8295000Y-4866000D01*
X8295000Y-4786000D02*
X8215000Y-4866000D01*
X8295000Y-4826000D02*
G75*
G02*
X8215000Y-4826000I-40000J0D01*
G01*
X8215000Y-4826000D02*
G75*
G02*
X8295000Y-4826000I40000J0D01*
G01*
X8215000Y-6310000D02*
X8295000Y-6390000D01*
X8295000Y-6310000D02*
X8215000Y-6390000D01*
X8295000Y-6350000D02*
G75*
G02*
X8215000Y-6350000I-40000J0D01*
G01*
X8215000Y-6350000D02*
G75*
G02*
X8295000Y-6350000I40000J0D01*
G01*
X8215000Y-6818000D02*
X8295000Y-6898000D01*
X8295000Y-6818000D02*
X8215000Y-6898000D01*
X8295000Y-6858000D02*
G75*
G02*
X8215000Y-6858000I-40000J0D01*
G01*
X8215000Y-6858000D02*
G75*
G02*
X8295000Y-6858000I40000J0D01*
G01*
X8215000Y-8342000D02*
X8295000Y-8422000D01*
X8295000Y-8342000D02*
X8215000Y-8422000D01*
X8295000Y-8382000D02*
G75*
G02*
X8215000Y-8382000I-40000J0D01*
G01*
X8215000Y-8382000D02*
G75*
G02*
X8295000Y-8382000I40000J0D01*
G01*
X8469000Y-4786000D02*
X8549000Y-4866000D01*
X8549000Y-4786000D02*
X8469000Y-4866000D01*
X8549000Y-4826000D02*
G75*
G02*
X8469000Y-4826000I-40000J0D01*
G01*
X8469000Y-4826000D02*
G75*
G02*
X8549000Y-4826000I40000J0D01*
G01*
X8469000Y-6310000D02*
X8549000Y-6390000D01*
X8549000Y-6310000D02*
X8469000Y-6390000D01*
X8549000Y-6350000D02*
G75*
G02*
X8469000Y-6350000I-40000J0D01*
G01*
X8469000Y-6350000D02*
G75*
G02*
X8549000Y-6350000I40000J0D01*
G01*
X8469000Y-6818000D02*
X8549000Y-6898000D01*
X8549000Y-6818000D02*
X8469000Y-6898000D01*
X8549000Y-6858000D02*
G75*
G02*
X8469000Y-6858000I-40000J0D01*
G01*
X8469000Y-6858000D02*
G75*
G02*
X8549000Y-6858000I40000J0D01*
G01*
X8469000Y-8342000D02*
X8549000Y-8422000D01*
X8549000Y-8342000D02*
X8469000Y-8422000D01*
X8549000Y-8382000D02*
G75*
G02*
X8469000Y-8382000I-40000J0D01*
G01*
X8469000Y-8382000D02*
G75*
G02*
X8549000Y-8382000I40000J0D01*
G01*
X8646800Y-2853111D02*
X8726800Y-2933111D01*
X8726800Y-2853111D02*
X8646800Y-2933111D01*
X8726800Y-2893111D02*
G75*
G02*
X8646800Y-2893111I-40000J0D01*
G01*
X8646800Y-2893111D02*
G75*
G02*
X8726800Y-2893111I40000J0D01*
G01*
X8646800Y-3103111D02*
X8726800Y-3183111D01*
X8726800Y-3103111D02*
X8646800Y-3183111D01*
X8726800Y-3143111D02*
G75*
G02*
X8646800Y-3143111I-40000J0D01*
G01*
X8646800Y-3143111D02*
G75*
G02*
X8726800Y-3143111I40000J0D01*
G01*
X8723000Y-4786000D02*
X8803000Y-4866000D01*
X8803000Y-4786000D02*
X8723000Y-4866000D01*
X8803000Y-4826000D02*
G75*
G02*
X8723000Y-4826000I-40000J0D01*
G01*
X8723000Y-4826000D02*
G75*
G02*
X8803000Y-4826000I40000J0D01*
G01*
X8723000Y-6310000D02*
X8803000Y-6390000D01*
X8803000Y-6310000D02*
X8723000Y-6390000D01*
X8803000Y-6350000D02*
G75*
G02*
X8723000Y-6350000I-40000J0D01*
G01*
X8723000Y-6350000D02*
G75*
G02*
X8803000Y-6350000I40000J0D01*
G01*
X8723000Y-6818000D02*
X8803000Y-6898000D01*
X8803000Y-6818000D02*
X8723000Y-6898000D01*
X8803000Y-6858000D02*
G75*
G02*
X8723000Y-6858000I-40000J0D01*
G01*
X8723000Y-6858000D02*
G75*
G02*
X8803000Y-6858000I40000J0D01*
G01*
X8723000Y-8342000D02*
X8803000Y-8422000D01*
X8803000Y-8342000D02*
X8723000Y-8422000D01*
X8803000Y-8382000D02*
G75*
G02*
X8723000Y-8382000I-40000J0D01*
G01*
X8723000Y-8382000D02*
G75*
G02*
X8803000Y-8382000I40000J0D01*
G01*
X8786500Y-3770000D02*
X8866500Y-3850000D01*
X8866500Y-3770000D02*
X8786500Y-3850000D01*
X8866500Y-3810000D02*
G75*
G02*
X8786500Y-3810000I-40000J0D01*
G01*
X8786500Y-3810000D02*
G75*
G02*
X8866500Y-3810000I40000J0D01*
G01*
X8786500Y-4270000D02*
X8866500Y-4350000D01*
X8866500Y-4270000D02*
X8786500Y-4350000D01*
X8866500Y-4310000D02*
G75*
G02*
X8786500Y-4310000I-40000J0D01*
G01*
X8786500Y-4310000D02*
G75*
G02*
X8866500Y-4310000I40000J0D01*
G01*
X8977000Y-4786000D02*
X9057000Y-4866000D01*
X9057000Y-4786000D02*
X8977000Y-4866000D01*
X9057000Y-4826000D02*
G75*
G02*
X8977000Y-4826000I-40000J0D01*
G01*
X8977000Y-4826000D02*
G75*
G02*
X9057000Y-4826000I40000J0D01*
G01*
X8977000Y-6310000D02*
X9057000Y-6390000D01*
X9057000Y-6310000D02*
X8977000Y-6390000D01*
X9057000Y-6350000D02*
G75*
G02*
X8977000Y-6350000I-40000J0D01*
G01*
X8977000Y-6350000D02*
G75*
G02*
X9057000Y-6350000I40000J0D01*
G01*
X8977000Y-6818000D02*
X9057000Y-6898000D01*
X9057000Y-6818000D02*
X8977000Y-6898000D01*
X9057000Y-6858000D02*
G75*
G02*
X8977000Y-6858000I-40000J0D01*
G01*
X8977000Y-6858000D02*
G75*
G02*
X9057000Y-6858000I40000J0D01*
G01*
X8977000Y-8342000D02*
X9057000Y-8422000D01*
X9057000Y-8342000D02*
X8977000Y-8422000D01*
X9057000Y-8382000D02*
G75*
G02*
X8977000Y-8382000I-40000J0D01*
G01*
X8977000Y-8382000D02*
G75*
G02*
X9057000Y-8382000I40000J0D01*
G01*
X9104000Y-2749300D02*
X9184000Y-2829300D01*
X9184000Y-2749300D02*
X9104000Y-2829300D01*
X9184000Y-2789300D02*
G75*
G02*
X9104000Y-2789300I-40000J0D01*
G01*
X9104000Y-2789300D02*
G75*
G02*
X9184000Y-2789300I40000J0D01*
G01*
X9104000Y-3249300D02*
X9184000Y-3329300D01*
X9184000Y-3249300D02*
X9104000Y-3329300D01*
X9184000Y-3289300D02*
G75*
G02*
X9104000Y-3289300I-40000J0D01*
G01*
X9104000Y-3289300D02*
G75*
G02*
X9184000Y-3289300I40000J0D01*
G01*
X9231000Y-4786000D02*
X9311000Y-4866000D01*
X9311000Y-4786000D02*
X9231000Y-4866000D01*
X9311000Y-4826000D02*
G75*
G02*
X9231000Y-4826000I-40000J0D01*
G01*
X9231000Y-4826000D02*
G75*
G02*
X9311000Y-4826000I40000J0D01*
G01*
X9231000Y-6310000D02*
X9311000Y-6390000D01*
X9311000Y-6310000D02*
X9231000Y-6390000D01*
X9311000Y-6350000D02*
G75*
G02*
X9231000Y-6350000I-40000J0D01*
G01*
X9231000Y-6350000D02*
G75*
G02*
X9311000Y-6350000I40000J0D01*
G01*
X9231000Y-6818000D02*
X9311000Y-6898000D01*
X9311000Y-6818000D02*
X9231000Y-6898000D01*
X9311000Y-6858000D02*
G75*
G02*
X9231000Y-6858000I-40000J0D01*
G01*
X9231000Y-6858000D02*
G75*
G02*
X9311000Y-6858000I40000J0D01*
G01*
X9231000Y-8342000D02*
X9311000Y-8422000D01*
X9311000Y-8342000D02*
X9231000Y-8422000D01*
X9311000Y-8382000D02*
G75*
G02*
X9231000Y-8382000I-40000J0D01*
G01*
X9231000Y-8382000D02*
G75*
G02*
X9311000Y-8382000I40000J0D01*
G01*
X9332600Y-3516000D02*
X9412600Y-3596000D01*
X9412600Y-3516000D02*
X9332600Y-3596000D01*
X9412600Y-3556000D02*
G75*
G02*
X9332600Y-3556000I-40000J0D01*
G01*
X9332600Y-3556000D02*
G75*
G02*
X9412600Y-3556000I40000J0D01*
G01*
X9332600Y-3770000D02*
X9412600Y-3850000D01*
X9412600Y-3770000D02*
X9332600Y-3850000D01*
X9412600Y-3810000D02*
G75*
G02*
X9332600Y-3810000I-40000J0D01*
G01*
X9332600Y-3810000D02*
G75*
G02*
X9412600Y-3810000I40000J0D01*
G01*
X9332600Y-4024000D02*
X9412600Y-4104000D01*
X9412600Y-4024000D02*
X9332600Y-4104000D01*
X9412600Y-4064000D02*
G75*
G02*
X9332600Y-4064000I-40000J0D01*
G01*
X9332600Y-4064000D02*
G75*
G02*
X9412600Y-4064000I40000J0D01*
G01*
X9332600Y-4278000D02*
X9412600Y-4358000D01*
X9412600Y-4278000D02*
X9332600Y-4358000D01*
X9412600Y-4318000D02*
G75*
G02*
X9332600Y-4318000I-40000J0D01*
G01*
X9332600Y-4318000D02*
G75*
G02*
X9412600Y-4318000I40000J0D01*
G01*
X9485000Y-4786000D02*
X9565000Y-4866000D01*
X9565000Y-4786000D02*
X9485000Y-4866000D01*
X9565000Y-4826000D02*
G75*
G02*
X9485000Y-4826000I-40000J0D01*
G01*
X9485000Y-4826000D02*
G75*
G02*
X9565000Y-4826000I40000J0D01*
G01*
X9485000Y-6310000D02*
X9565000Y-6390000D01*
X9565000Y-6310000D02*
X9485000Y-6390000D01*
X9565000Y-6350000D02*
G75*
G02*
X9485000Y-6350000I-40000J0D01*
G01*
X9485000Y-6350000D02*
G75*
G02*
X9565000Y-6350000I40000J0D01*
G01*
X9485000Y-6818000D02*
X9565000Y-6898000D01*
X9565000Y-6818000D02*
X9485000Y-6898000D01*
X9565000Y-6858000D02*
G75*
G02*
X9485000Y-6858000I-40000J0D01*
G01*
X9485000Y-6858000D02*
G75*
G02*
X9565000Y-6858000I40000J0D01*
G01*
X9485000Y-8342000D02*
X9565000Y-8422000D01*
X9565000Y-8342000D02*
X9485000Y-8422000D01*
X9565000Y-8382000D02*
G75*
G02*
X9485000Y-8382000I-40000J0D01*
G01*
X9485000Y-8382000D02*
G75*
G02*
X9565000Y-8382000I40000J0D01*
G01*
X9739000Y-4786000D02*
X9819000Y-4866000D01*
X9819000Y-4786000D02*
X9739000Y-4866000D01*
X9819000Y-4826000D02*
G75*
G02*
X9739000Y-4826000I-40000J0D01*
G01*
X9739000Y-4826000D02*
G75*
G02*
X9819000Y-4826000I40000J0D01*
G01*
X9739000Y-6310000D02*
X9819000Y-6390000D01*
X9819000Y-6310000D02*
X9739000Y-6390000D01*
X9819000Y-6350000D02*
G75*
G02*
X9739000Y-6350000I-40000J0D01*
G01*
X9739000Y-6350000D02*
G75*
G02*
X9819000Y-6350000I40000J0D01*
G01*
X9739000Y-6818000D02*
X9819000Y-6898000D01*
X9819000Y-6818000D02*
X9739000Y-6898000D01*
X9819000Y-6858000D02*
G75*
G02*
X9739000Y-6858000I-40000J0D01*
G01*
X9739000Y-6858000D02*
G75*
G02*
X9819000Y-6858000I40000J0D01*
G01*
X9739000Y-8342000D02*
X9819000Y-8422000D01*
X9819000Y-8342000D02*
X9739000Y-8422000D01*
X9819000Y-8382000D02*
G75*
G02*
X9739000Y-8382000I-40000J0D01*
G01*
X9739000Y-8382000D02*
G75*
G02*
X9819000Y-8382000I40000J0D01*
G01*
X9853300Y-2881000D02*
X9933300Y-2961000D01*
X9933300Y-2881000D02*
X9853300Y-2961000D01*
X9933300Y-2921000D02*
G75*
G02*
X9853300Y-2921000I-40000J0D01*
G01*
X9853300Y-2921000D02*
G75*
G02*
X9933300Y-2921000I40000J0D01*
G01*
X9993000Y-4786000D02*
X10073000Y-4866000D01*
X10073000Y-4786000D02*
X9993000Y-4866000D01*
X10073000Y-4826000D02*
G75*
G02*
X9993000Y-4826000I-40000J0D01*
G01*
X9993000Y-4826000D02*
G75*
G02*
X10073000Y-4826000I40000J0D01*
G01*
X9993000Y-6310000D02*
X10073000Y-6390000D01*
X10073000Y-6310000D02*
X9993000Y-6390000D01*
X10073000Y-6350000D02*
G75*
G02*
X9993000Y-6350000I-40000J0D01*
G01*
X9993000Y-6350000D02*
G75*
G02*
X10073000Y-6350000I40000J0D01*
G01*
X9993000Y-6818000D02*
X10073000Y-6898000D01*
X10073000Y-6818000D02*
X9993000Y-6898000D01*
X10073000Y-6858000D02*
G75*
G02*
X9993000Y-6858000I-40000J0D01*
G01*
X9993000Y-6858000D02*
G75*
G02*
X10073000Y-6858000I40000J0D01*
G01*
X9993000Y-8342000D02*
X10073000Y-8422000D01*
X10073000Y-8342000D02*
X9993000Y-8422000D01*
X10073000Y-8382000D02*
G75*
G02*
X9993000Y-8382000I-40000J0D01*
G01*
X9993000Y-8382000D02*
G75*
G02*
X10073000Y-8382000I40000J0D01*
G01*
X10094600Y-3516000D02*
X10174600Y-3596000D01*
X10174600Y-3516000D02*
X10094600Y-3596000D01*
X10174600Y-3556000D02*
G75*
G02*
X10094600Y-3556000I-40000J0D01*
G01*
X10094600Y-3556000D02*
G75*
G02*
X10174600Y-3556000I40000J0D01*
G01*
X10094600Y-3770000D02*
X10174600Y-3850000D01*
X10174600Y-3770000D02*
X10094600Y-3850000D01*
X10174600Y-3810000D02*
G75*
G02*
X10094600Y-3810000I-40000J0D01*
G01*
X10094600Y-3810000D02*
G75*
G02*
X10174600Y-3810000I40000J0D01*
G01*
X10094600Y-4024000D02*
X10174600Y-4104000D01*
X10174600Y-4024000D02*
X10094600Y-4104000D01*
X10174600Y-4064000D02*
G75*
G02*
X10094600Y-4064000I-40000J0D01*
G01*
X10094600Y-4064000D02*
G75*
G02*
X10174600Y-4064000I40000J0D01*
G01*
X10094600Y-4278000D02*
X10174600Y-4358000D01*
X10174600Y-4278000D02*
X10094600Y-4358000D01*
X10174600Y-4318000D02*
G75*
G02*
X10094600Y-4318000I-40000J0D01*
G01*
X10094600Y-4318000D02*
G75*
G02*
X10174600Y-4318000I40000J0D01*
G01*
X10103300Y-2881000D02*
X10183300Y-2961000D01*
X10183300Y-2881000D02*
X10103300Y-2961000D01*
X10183300Y-2921000D02*
G75*
G02*
X10103300Y-2921000I-40000J0D01*
G01*
X10103300Y-2921000D02*
G75*
G02*
X10183300Y-2921000I40000J0D01*
G01*
X10247000Y-4786000D02*
X10327000Y-4866000D01*
X10327000Y-4786000D02*
X10247000Y-4866000D01*
X10327000Y-4826000D02*
G75*
G02*
X10247000Y-4826000I-40000J0D01*
G01*
X10247000Y-4826000D02*
G75*
G02*
X10327000Y-4826000I40000J0D01*
G01*
X10247000Y-6310000D02*
X10327000Y-6390000D01*
X10327000Y-6310000D02*
X10247000Y-6390000D01*
X10327000Y-6350000D02*
G75*
G02*
X10247000Y-6350000I-40000J0D01*
G01*
X10247000Y-6350000D02*
G75*
G02*
X10327000Y-6350000I40000J0D01*
G01*
X10247000Y-6818000D02*
X10327000Y-6898000D01*
X10327000Y-6818000D02*
X10247000Y-6898000D01*
X10327000Y-6858000D02*
G75*
G02*
X10247000Y-6858000I-40000J0D01*
G01*
X10247000Y-6858000D02*
G75*
G02*
X10327000Y-6858000I40000J0D01*
G01*
X10247000Y-8342000D02*
X10327000Y-8422000D01*
X10327000Y-8342000D02*
X10247000Y-8422000D01*
X10327000Y-8382000D02*
G75*
G02*
X10247000Y-8382000I-40000J0D01*
G01*
X10247000Y-8382000D02*
G75*
G02*
X10327000Y-8382000I40000J0D01*
G01*
X10501000Y-4786000D02*
X10581000Y-4866000D01*
X10581000Y-4786000D02*
X10501000Y-4866000D01*
X10581000Y-4826000D02*
G75*
G02*
X10501000Y-4826000I-40000J0D01*
G01*
X10501000Y-4826000D02*
G75*
G02*
X10581000Y-4826000I40000J0D01*
G01*
X10501000Y-6310000D02*
X10581000Y-6390000D01*
X10581000Y-6310000D02*
X10501000Y-6390000D01*
X10581000Y-6350000D02*
G75*
G02*
X10501000Y-6350000I-40000J0D01*
G01*
X10501000Y-6350000D02*
G75*
G02*
X10581000Y-6350000I40000J0D01*
G01*
X10501000Y-6818000D02*
X10581000Y-6898000D01*
X10581000Y-6818000D02*
X10501000Y-6898000D01*
X10581000Y-6858000D02*
G75*
G02*
X10501000Y-6858000I-40000J0D01*
G01*
X10501000Y-6858000D02*
G75*
G02*
X10581000Y-6858000I40000J0D01*
G01*
X10501000Y-8342000D02*
X10581000Y-8422000D01*
X10581000Y-8342000D02*
X10501000Y-8422000D01*
X10581000Y-8382000D02*
G75*
G02*
X10501000Y-8382000I-40000J0D01*
G01*
X10501000Y-8382000D02*
G75*
G02*
X10581000Y-8382000I40000J0D01*
G01*
X10564500Y-3989900D02*
X10644500Y-4069900D01*
X10644500Y-3989900D02*
X10564500Y-4069900D01*
X10644500Y-4029900D02*
G75*
G02*
X10564500Y-4029900I-40000J0D01*
G01*
X10564500Y-4029900D02*
G75*
G02*
X10644500Y-4029900I40000J0D01*
G01*
X10564500Y-4239900D02*
X10644500Y-4319900D01*
X10644500Y-4239900D02*
X10564500Y-4319900D01*
X10644500Y-4279900D02*
G75*
G02*
X10564500Y-4279900I-40000J0D01*
G01*
X10564500Y-4279900D02*
G75*
G02*
X10644500Y-4279900I40000J0D01*
G01*
X10818500Y-5810000D02*
X10898500Y-5890000D01*
X10898500Y-5810000D02*
X10818500Y-5890000D01*
X10898500Y-5850000D02*
G75*
G02*
X10818500Y-5850000I-40000J0D01*
G01*
X10818500Y-5850000D02*
G75*
G02*
X10898500Y-5850000I40000J0D01*
G01*
X10818500Y-6310000D02*
X10898500Y-6390000D01*
X10898500Y-6310000D02*
X10818500Y-6390000D01*
X10898500Y-6350000D02*
G75*
G02*
X10818500Y-6350000I-40000J0D01*
G01*
X10818500Y-6350000D02*
G75*
G02*
X10898500Y-6350000I40000J0D01*
G01*
X10818500Y-7842000D02*
X10898500Y-7922000D01*
X10898500Y-7842000D02*
X10818500Y-7922000D01*
X10898500Y-7882000D02*
G75*
G02*
X10818500Y-7882000I-40000J0D01*
G01*
X10818500Y-7882000D02*
G75*
G02*
X10898500Y-7882000I40000J0D01*
G01*
X10818500Y-8342000D02*
X10898500Y-8422000D01*
X10898500Y-8342000D02*
X10818500Y-8422000D01*
X10898500Y-8382000D02*
G75*
G02*
X10818500Y-8382000I-40000J0D01*
G01*
X10818500Y-8382000D02*
G75*
G02*
X10898500Y-8382000I40000J0D01*
G01*
X11202000Y-3012000D02*
X11282000Y-3092000D01*
X11282000Y-3012000D02*
X11202000Y-3092000D01*
X11282000Y-3052000D02*
G75*
G02*
X11202000Y-3052000I-40000J0D01*
G01*
X11202000Y-3052000D02*
G75*
G02*
X11282000Y-3052000I40000J0D01*
G01*
X11277000Y-3012000D02*
X11207000Y-3012000D01*
X11207000Y-3092000D02*
G75*
G02*
X11207000Y-3012000I0J40000D01*
G01*
X11207000Y-3092000D02*
X11277000Y-3092000D01*
X11277000Y-3092000D02*
G75*
G03*
X11277000Y-3012000I0J40000D01*
G01*
X11202000Y-3512000D02*
X11282000Y-3592000D01*
X11282000Y-3512000D02*
X11202000Y-3592000D01*
X11282000Y-3552000D02*
G75*
G02*
X11202000Y-3552000I-40000J0D01*
G01*
X11202000Y-3552000D02*
G75*
G02*
X11282000Y-3552000I40000J0D01*
G01*
X11207000Y-3592000D02*
X11277000Y-3592000D01*
X11277000Y-3512000D02*
G75*
G02*
X11277000Y-3592000I0J-40000D01*
G01*
X11277000Y-3512000D02*
X11207000Y-3512000D01*
X11207000Y-3512000D02*
G75*
G03*
X11207000Y-3592000I0J-40000D01*
G01*
X11398000Y-5421000D02*
X11478000Y-5501000D01*
X11478000Y-5421000D02*
X11398000Y-5501000D01*
X11478000Y-5461000D02*
G75*
G02*
X11398000Y-5461000I-40000J0D01*
G01*
X11398000Y-5461000D02*
G75*
G02*
X11478000Y-5461000I40000J0D01*
G01*
X11898000Y-5421000D02*
X11978000Y-5501000D01*
X11978000Y-5421000D02*
X11898000Y-5501000D01*
X11978000Y-5461000D02*
G75*
G02*
X11898000Y-5461000I-40000J0D01*
G01*
X11898000Y-5461000D02*
G75*
G02*
X11978000Y-5461000I40000J0D01*
G01*
X3633000Y-3887000D02*
X3733000Y-3987000D01*
X3733000Y-3887000D02*
X3633000Y-3987000D01*
X3683000Y-3887000D02*
X3683000Y-3987000D01*
X3633000Y-3937000D02*
X3733000Y-3937000D01*
X3633000Y-4141000D02*
X3733000Y-4241000D01*
X3733000Y-4141000D02*
X3633000Y-4241000D01*
X3683000Y-4141000D02*
X3683000Y-4241000D01*
X3633000Y-4191000D02*
X3733000Y-4191000D01*
X3887000Y-3887000D02*
X3987000Y-3987000D01*
X3987000Y-3887000D02*
X3887000Y-3987000D01*
X3937000Y-3887000D02*
X3937000Y-3987000D01*
X3887000Y-3937000D02*
X3987000Y-3937000D01*
X3887000Y-4141000D02*
X3987000Y-4241000D01*
X3987000Y-4141000D02*
X3887000Y-4241000D01*
X3937000Y-4141000D02*
X3937000Y-4241000D01*
X3887000Y-4191000D02*
X3987000Y-4191000D01*
X4141000Y-3887000D02*
X4241000Y-3987000D01*
X4241000Y-3887000D02*
X4141000Y-3987000D01*
X4191000Y-3887000D02*
X4191000Y-3987000D01*
X4141000Y-3937000D02*
X4241000Y-3937000D01*
X4141000Y-4141000D02*
X4241000Y-4241000D01*
X4241000Y-4141000D02*
X4141000Y-4241000D01*
X4191000Y-4141000D02*
X4191000Y-4241000D01*
X4141000Y-4191000D02*
X4241000Y-4191000D01*
X4395000Y-3887000D02*
X4495000Y-3987000D01*
X4495000Y-3887000D02*
X4395000Y-3987000D01*
X4445000Y-3887000D02*
X4445000Y-3987000D01*
X4395000Y-3937000D02*
X4495000Y-3937000D01*
X4395000Y-4141000D02*
X4495000Y-4241000D01*
X4495000Y-4141000D02*
X4395000Y-4241000D01*
X4445000Y-4141000D02*
X4445000Y-4241000D01*
X4395000Y-4191000D02*
X4495000Y-4191000D01*
X4649000Y-3887000D02*
X4749000Y-3987000D01*
X4749000Y-3887000D02*
X4649000Y-3987000D01*
X4699000Y-3887000D02*
X4699000Y-3987000D01*
X4649000Y-3937000D02*
X4749000Y-3937000D01*
X4649000Y-4141000D02*
X4749000Y-4241000D01*
X4749000Y-4141000D02*
X4649000Y-4241000D01*
X4699000Y-4141000D02*
X4699000Y-4241000D01*
X4649000Y-4191000D02*
X4749000Y-4191000D01*
X10554500Y-2872000D02*
X10654500Y-2972000D01*
X10654500Y-2872000D02*
X10554500Y-2972000D01*
X10604500Y-2872000D02*
X10604500Y-2972000D01*
X10554500Y-2922000D02*
X10654500Y-2922000D01*
X10554500Y-3126000D02*
X10654500Y-3226000D01*
X10654500Y-3126000D02*
X10554500Y-3226000D01*
X10604500Y-3126000D02*
X10604500Y-3226000D01*
X10554500Y-3176000D02*
X10654500Y-3176000D01*
X10554500Y-3380000D02*
X10654500Y-3480000D01*
X10654500Y-3380000D02*
X10554500Y-3480000D01*
X10604500Y-3380000D02*
X10604500Y-3480000D01*
X10554500Y-3430000D02*
X10654500Y-3430000D01*
X10554500Y-3634000D02*
X10654500Y-3734000D01*
X10654500Y-3634000D02*
X10554500Y-3734000D01*
X10604500Y-3634000D02*
X10604500Y-3734000D01*
X10554500Y-3684000D02*
X10654500Y-3684000D01*
X11189500Y-4395000D02*
X11289500Y-4495000D01*
X11289500Y-4395000D02*
X11189500Y-4495000D01*
X11239500Y-4395000D02*
X11239500Y-4495000D01*
X11189500Y-4445000D02*
X11289500Y-4445000D01*
X11443500Y-4395000D02*
X11543500Y-4495000D01*
X11543500Y-4395000D02*
X11443500Y-4495000D01*
X11493500Y-4395000D02*
X11493500Y-4495000D01*
X11443500Y-4445000D02*
X11543500Y-4445000D01*
X11697500Y-4395000D02*
X11797500Y-4495000D01*
X11797500Y-4395000D02*
X11697500Y-4495000D01*
X11747500Y-4395000D02*
X11747500Y-4495000D01*
X11697500Y-4445000D02*
X11797500Y-4445000D01*
X11951500Y-4395000D02*
X12051500Y-4495000D01*
X12051500Y-4395000D02*
X11951500Y-4495000D01*
X12001500Y-4395000D02*
X12001500Y-4495000D01*
X11951500Y-4445000D02*
X12051500Y-4445000D01*
D13*
X7537600Y-2957600D02*
X7667600Y-3087600D01*
X7667600Y-2957600D02*
X7537600Y-3087600D01*
X7648562Y-3068562D02*
X7648562Y-2976638D01*
X7556638Y-2976638D01*
X7556638Y-3068562D01*
X7648562Y-3068562D01*
X8037600Y-2957600D02*
X8167600Y-3087600D01*
X8167600Y-2957600D02*
X8037600Y-3087600D01*
X8148562Y-3068562D02*
X8148562Y-2976638D01*
X8056638Y-2976638D01*
X8056638Y-3068562D01*
X8148562Y-3068562D01*
D12*
X3049777Y-10285984D02*
X3049777Y-10085984D01*
X3049777Y-10085984D02*
X3097396Y-10085984D01*
X3097396Y-10085984D02*
X3125967Y-10095508D01*
X3125967Y-10095508D02*
X3145015Y-10114555D01*
X3145015Y-10114555D02*
X3154539Y-10133603D01*
X3154539Y-10133603D02*
X3164062Y-10171698D01*
X3164062Y-10171698D02*
X3164062Y-10200270D01*
X3164062Y-10200270D02*
X3154539Y-10238365D01*
X3154539Y-10238365D02*
X3145015Y-10257412D01*
X3145015Y-10257412D02*
X3125967Y-10276460D01*
X3125967Y-10276460D02*
X3097396Y-10285984D01*
X3097396Y-10285984D02*
X3049777Y-10285984D01*
X3249777Y-10285984D02*
X3249777Y-10152650D01*
X3249777Y-10190746D02*
X3259301Y-10171698D01*
X3259301Y-10171698D02*
X3268824Y-10162174D01*
X3268824Y-10162174D02*
X3287872Y-10152650D01*
X3287872Y-10152650D02*
X3306920Y-10152650D01*
X3373586Y-10285984D02*
X3373586Y-10152650D01*
X3373586Y-10085984D02*
X3364062Y-10095508D01*
X3364062Y-10095508D02*
X3373586Y-10105031D01*
X3373586Y-10105031D02*
X3383110Y-10095508D01*
X3383110Y-10095508D02*
X3373586Y-10085984D01*
X3373586Y-10085984D02*
X3373586Y-10105031D01*
X3497396Y-10285984D02*
X3478348Y-10276460D01*
X3478348Y-10276460D02*
X3468824Y-10257412D01*
X3468824Y-10257412D02*
X3468824Y-10085984D01*
X3602158Y-10285984D02*
X3583110Y-10276460D01*
X3583110Y-10276460D02*
X3573586Y-10257412D01*
X3573586Y-10257412D02*
X3573586Y-10085984D01*
X3830729Y-10285984D02*
X3830729Y-10085984D01*
X3830729Y-10085984D02*
X3897396Y-10228841D01*
X3897396Y-10228841D02*
X3964062Y-10085984D01*
X3964062Y-10085984D02*
X3964062Y-10285984D01*
X4145015Y-10285984D02*
X4145015Y-10181222D01*
X4145015Y-10181222D02*
X4135491Y-10162174D01*
X4135491Y-10162174D02*
X4116443Y-10152650D01*
X4116443Y-10152650D02*
X4078348Y-10152650D01*
X4078348Y-10152650D02*
X4059301Y-10162174D01*
X4145015Y-10276460D02*
X4125967Y-10285984D01*
X4125967Y-10285984D02*
X4078348Y-10285984D01*
X4078348Y-10285984D02*
X4059301Y-10276460D01*
X4059301Y-10276460D02*
X4049777Y-10257412D01*
X4049777Y-10257412D02*
X4049777Y-10238365D01*
X4049777Y-10238365D02*
X4059301Y-10219317D01*
X4059301Y-10219317D02*
X4078348Y-10209793D01*
X4078348Y-10209793D02*
X4125967Y-10209793D01*
X4125967Y-10209793D02*
X4145015Y-10200270D01*
X4240253Y-10152650D02*
X4240253Y-10352650D01*
X4240253Y-10162174D02*
X4259301Y-10152650D01*
X4259301Y-10152650D02*
X4297396Y-10152650D01*
X4297396Y-10152650D02*
X4316444Y-10162174D01*
X4316444Y-10162174D02*
X4325967Y-10171698D01*
X4325967Y-10171698D02*
X4335491Y-10190746D01*
X4335491Y-10190746D02*
X4335491Y-10247889D01*
X4335491Y-10247889D02*
X4325967Y-10266936D01*
X4325967Y-10266936D02*
X4316444Y-10276460D01*
X4316444Y-10276460D02*
X4297396Y-10285984D01*
X4297396Y-10285984D02*
X4259301Y-10285984D01*
X4259301Y-10285984D02*
X4240253Y-10276460D01*
X4421205Y-10266936D02*
X4430729Y-10276460D01*
X4430729Y-10276460D02*
X4421205Y-10285984D01*
X4421205Y-10285984D02*
X4411682Y-10276460D01*
X4411682Y-10276460D02*
X4421205Y-10266936D01*
X4421205Y-10266936D02*
X4421205Y-10285984D01*
X4421205Y-10162174D02*
X4430729Y-10171698D01*
X4430729Y-10171698D02*
X4421205Y-10181222D01*
X4421205Y-10181222D02*
X4411682Y-10171698D01*
X4411682Y-10171698D02*
X4421205Y-10162174D01*
X4421205Y-10162174D02*
X4421205Y-10181222D01*
D10*
X2749000Y-10594500D02*
X2789000Y-10634500D01*
X2789000Y-10594500D02*
X2749000Y-10634500D01*
D12*
X3087872Y-10505984D02*
X3106920Y-10505984D01*
X3106920Y-10505984D02*
X3125967Y-10515508D01*
X3125967Y-10515508D02*
X3135491Y-10525031D01*
X3135491Y-10525031D02*
X3145015Y-10544079D01*
X3145015Y-10544079D02*
X3154539Y-10582174D01*
X3154539Y-10582174D02*
X3154539Y-10629793D01*
X3154539Y-10629793D02*
X3145015Y-10667889D01*
X3145015Y-10667889D02*
X3135491Y-10686936D01*
X3135491Y-10686936D02*
X3125967Y-10696460D01*
X3125967Y-10696460D02*
X3106920Y-10705984D01*
X3106920Y-10705984D02*
X3087872Y-10705984D01*
X3087872Y-10705984D02*
X3068824Y-10696460D01*
X3068824Y-10696460D02*
X3059301Y-10686936D01*
X3059301Y-10686936D02*
X3049777Y-10667889D01*
X3049777Y-10667889D02*
X3040253Y-10629793D01*
X3040253Y-10629793D02*
X3040253Y-10582174D01*
X3040253Y-10582174D02*
X3049777Y-10544079D01*
X3049777Y-10544079D02*
X3059301Y-10525031D01*
X3059301Y-10525031D02*
X3068824Y-10515508D01*
X3068824Y-10515508D02*
X3087872Y-10505984D01*
X3240253Y-10686936D02*
X3249777Y-10696460D01*
X3249777Y-10696460D02*
X3240253Y-10705984D01*
X3240253Y-10705984D02*
X3230729Y-10696460D01*
X3230729Y-10696460D02*
X3240253Y-10686936D01*
X3240253Y-10686936D02*
X3240253Y-10705984D01*
X3421205Y-10572650D02*
X3421205Y-10705984D01*
X3373586Y-10496460D02*
X3325967Y-10639317D01*
X3325967Y-10639317D02*
X3449777Y-10639317D01*
X3564062Y-10505984D02*
X3583110Y-10505984D01*
X3583110Y-10505984D02*
X3602158Y-10515508D01*
X3602158Y-10515508D02*
X3611682Y-10525031D01*
X3611682Y-10525031D02*
X3621205Y-10544079D01*
X3621205Y-10544079D02*
X3630729Y-10582174D01*
X3630729Y-10582174D02*
X3630729Y-10629793D01*
X3630729Y-10629793D02*
X3621205Y-10667889D01*
X3621205Y-10667889D02*
X3611682Y-10686936D01*
X3611682Y-10686936D02*
X3602158Y-10696460D01*
X3602158Y-10696460D02*
X3583110Y-10705984D01*
X3583110Y-10705984D02*
X3564062Y-10705984D01*
X3564062Y-10705984D02*
X3545015Y-10696460D01*
X3545015Y-10696460D02*
X3535491Y-10686936D01*
X3535491Y-10686936D02*
X3525967Y-10667889D01*
X3525967Y-10667889D02*
X3516443Y-10629793D01*
X3516443Y-10629793D02*
X3516443Y-10582174D01*
X3516443Y-10582174D02*
X3525967Y-10544079D01*
X3525967Y-10544079D02*
X3535491Y-10525031D01*
X3535491Y-10525031D02*
X3545015Y-10515508D01*
X3545015Y-10515508D02*
X3564062Y-10505984D01*
X3754539Y-10505984D02*
X3773586Y-10505984D01*
X3773586Y-10505984D02*
X3792634Y-10515508D01*
X3792634Y-10515508D02*
X3802158Y-10525031D01*
X3802158Y-10525031D02*
X3811682Y-10544079D01*
X3811682Y-10544079D02*
X3821205Y-10582174D01*
X3821205Y-10582174D02*
X3821205Y-10629793D01*
X3821205Y-10629793D02*
X3811682Y-10667889D01*
X3811682Y-10667889D02*
X3802158Y-10686936D01*
X3802158Y-10686936D02*
X3792634Y-10696460D01*
X3792634Y-10696460D02*
X3773586Y-10705984D01*
X3773586Y-10705984D02*
X3754539Y-10705984D01*
X3754539Y-10705984D02*
X3735491Y-10696460D01*
X3735491Y-10696460D02*
X3725967Y-10686936D01*
X3725967Y-10686936D02*
X3716443Y-10667889D01*
X3716443Y-10667889D02*
X3706920Y-10629793D01*
X3706920Y-10629793D02*
X3706920Y-10582174D01*
X3706920Y-10582174D02*
X3716443Y-10544079D01*
X3716443Y-10544079D02*
X3725967Y-10525031D01*
X3725967Y-10525031D02*
X3735491Y-10515508D01*
X3735491Y-10515508D02*
X3754539Y-10505984D01*
X3906920Y-10705984D02*
X3906920Y-10572650D01*
X3906920Y-10591698D02*
X3916443Y-10582174D01*
X3916443Y-10582174D02*
X3935491Y-10572650D01*
X3935491Y-10572650D02*
X3964063Y-10572650D01*
X3964063Y-10572650D02*
X3983110Y-10582174D01*
X3983110Y-10582174D02*
X3992634Y-10601222D01*
X3992634Y-10601222D02*
X3992634Y-10705984D01*
X3992634Y-10601222D02*
X4002158Y-10582174D01*
X4002158Y-10582174D02*
X4021205Y-10572650D01*
X4021205Y-10572650D02*
X4049777Y-10572650D01*
X4049777Y-10572650D02*
X4068824Y-10582174D01*
X4068824Y-10582174D02*
X4078348Y-10601222D01*
X4078348Y-10601222D02*
X4078348Y-10705984D01*
X4173586Y-10705984D02*
X4173586Y-10572650D01*
X4173586Y-10591698D02*
X4183110Y-10582174D01*
X4183110Y-10582174D02*
X4202158Y-10572650D01*
X4202158Y-10572650D02*
X4230729Y-10572650D01*
X4230729Y-10572650D02*
X4249777Y-10582174D01*
X4249777Y-10582174D02*
X4259301Y-10601222D01*
X4259301Y-10601222D02*
X4259301Y-10705984D01*
X4259301Y-10601222D02*
X4268825Y-10582174D01*
X4268825Y-10582174D02*
X4287872Y-10572650D01*
X4287872Y-10572650D02*
X4316444Y-10572650D01*
X4316444Y-10572650D02*
X4335491Y-10582174D01*
X4335491Y-10582174D02*
X4345015Y-10601222D01*
X4345015Y-10601222D02*
X4345015Y-10705984D01*
X4735491Y-10496460D02*
X4564063Y-10753603D01*
X4992634Y-10505984D02*
X5011682Y-10505984D01*
X5011682Y-10505984D02*
X5030729Y-10515508D01*
X5030729Y-10515508D02*
X5040253Y-10525031D01*
X5040253Y-10525031D02*
X5049777Y-10544079D01*
X5049777Y-10544079D02*
X5059301Y-10582174D01*
X5059301Y-10582174D02*
X5059301Y-10629793D01*
X5059301Y-10629793D02*
X5049777Y-10667889D01*
X5049777Y-10667889D02*
X5040253Y-10686936D01*
X5040253Y-10686936D02*
X5030729Y-10696460D01*
X5030729Y-10696460D02*
X5011682Y-10705984D01*
X5011682Y-10705984D02*
X4992634Y-10705984D01*
X4992634Y-10705984D02*
X4973587Y-10696460D01*
X4973587Y-10696460D02*
X4964063Y-10686936D01*
X4964063Y-10686936D02*
X4954539Y-10667889D01*
X4954539Y-10667889D02*
X4945015Y-10629793D01*
X4945015Y-10629793D02*
X4945015Y-10582174D01*
X4945015Y-10582174D02*
X4954539Y-10544079D01*
X4954539Y-10544079D02*
X4964063Y-10525031D01*
X4964063Y-10525031D02*
X4973587Y-10515508D01*
X4973587Y-10515508D02*
X4992634Y-10505984D01*
X5145015Y-10686936D02*
X5154539Y-10696460D01*
X5154539Y-10696460D02*
X5145015Y-10705984D01*
X5145015Y-10705984D02*
X5135491Y-10696460D01*
X5135491Y-10696460D02*
X5145015Y-10686936D01*
X5145015Y-10686936D02*
X5145015Y-10705984D01*
X5278348Y-10505984D02*
X5297396Y-10505984D01*
X5297396Y-10505984D02*
X5316444Y-10515508D01*
X5316444Y-10515508D02*
X5325968Y-10525031D01*
X5325968Y-10525031D02*
X5335491Y-10544079D01*
X5335491Y-10544079D02*
X5345015Y-10582174D01*
X5345015Y-10582174D02*
X5345015Y-10629793D01*
X5345015Y-10629793D02*
X5335491Y-10667889D01*
X5335491Y-10667889D02*
X5325968Y-10686936D01*
X5325968Y-10686936D02*
X5316444Y-10696460D01*
X5316444Y-10696460D02*
X5297396Y-10705984D01*
X5297396Y-10705984D02*
X5278348Y-10705984D01*
X5278348Y-10705984D02*
X5259301Y-10696460D01*
X5259301Y-10696460D02*
X5249777Y-10686936D01*
X5249777Y-10686936D02*
X5240253Y-10667889D01*
X5240253Y-10667889D02*
X5230729Y-10629793D01*
X5230729Y-10629793D02*
X5230729Y-10582174D01*
X5230729Y-10582174D02*
X5240253Y-10544079D01*
X5240253Y-10544079D02*
X5249777Y-10525031D01*
X5249777Y-10525031D02*
X5259301Y-10515508D01*
X5259301Y-10515508D02*
X5278348Y-10505984D01*
X5535491Y-10705984D02*
X5421206Y-10705984D01*
X5478348Y-10705984D02*
X5478348Y-10505984D01*
X5478348Y-10505984D02*
X5459301Y-10534555D01*
X5459301Y-10534555D02*
X5440253Y-10553603D01*
X5440253Y-10553603D02*
X5421206Y-10563127D01*
X5716444Y-10505984D02*
X5621206Y-10505984D01*
X5621206Y-10505984D02*
X5611682Y-10601222D01*
X5611682Y-10601222D02*
X5621206Y-10591698D01*
X5621206Y-10591698D02*
X5640253Y-10582174D01*
X5640253Y-10582174D02*
X5687872Y-10582174D01*
X5687872Y-10582174D02*
X5706920Y-10591698D01*
X5706920Y-10591698D02*
X5716444Y-10601222D01*
X5716444Y-10601222D02*
X5725967Y-10620270D01*
X5725967Y-10620270D02*
X5725967Y-10667889D01*
X5725967Y-10667889D02*
X5716444Y-10686936D01*
X5716444Y-10686936D02*
X5706920Y-10696460D01*
X5706920Y-10696460D02*
X5687872Y-10705984D01*
X5687872Y-10705984D02*
X5640253Y-10705984D01*
X5640253Y-10705984D02*
X5621206Y-10696460D01*
X5621206Y-10696460D02*
X5611682Y-10686936D01*
X5792634Y-10505984D02*
X5925967Y-10505984D01*
X5925967Y-10505984D02*
X5840253Y-10705984D01*
X5992634Y-10505984D02*
X5992634Y-10544079D01*
X6068825Y-10505984D02*
X6068825Y-10544079D01*
X6364063Y-10782174D02*
X6354539Y-10772650D01*
X6354539Y-10772650D02*
X6335491Y-10744079D01*
X6335491Y-10744079D02*
X6325968Y-10725031D01*
X6325968Y-10725031D02*
X6316444Y-10696460D01*
X6316444Y-10696460D02*
X6306920Y-10648841D01*
X6306920Y-10648841D02*
X6306920Y-10610746D01*
X6306920Y-10610746D02*
X6316444Y-10563127D01*
X6316444Y-10563127D02*
X6325968Y-10534555D01*
X6325968Y-10534555D02*
X6335491Y-10515508D01*
X6335491Y-10515508D02*
X6354539Y-10486936D01*
X6354539Y-10486936D02*
X6364063Y-10477412D01*
X6545015Y-10705984D02*
X6430729Y-10705984D01*
X6487872Y-10705984D02*
X6487872Y-10505984D01*
X6487872Y-10505984D02*
X6468825Y-10534555D01*
X6468825Y-10534555D02*
X6449777Y-10553603D01*
X6449777Y-10553603D02*
X6430729Y-10563127D01*
X6735491Y-10705984D02*
X6621206Y-10705984D01*
X6678348Y-10705984D02*
X6678348Y-10505984D01*
X6678348Y-10505984D02*
X6659301Y-10534555D01*
X6659301Y-10534555D02*
X6640253Y-10553603D01*
X6640253Y-10553603D02*
X6621206Y-10563127D01*
X6802158Y-10505984D02*
X6935491Y-10505984D01*
X6935491Y-10505984D02*
X6849777Y-10705984D01*
X7164063Y-10705984D02*
X7164063Y-10505984D01*
X7249777Y-10705984D02*
X7249777Y-10601222D01*
X7249777Y-10601222D02*
X7240253Y-10582174D01*
X7240253Y-10582174D02*
X7221206Y-10572650D01*
X7221206Y-10572650D02*
X7192634Y-10572650D01*
X7192634Y-10572650D02*
X7173587Y-10582174D01*
X7173587Y-10582174D02*
X7164063Y-10591698D01*
X7373587Y-10705984D02*
X7354539Y-10696460D01*
X7354539Y-10696460D02*
X7345015Y-10686936D01*
X7345015Y-10686936D02*
X7335491Y-10667889D01*
X7335491Y-10667889D02*
X7335491Y-10610746D01*
X7335491Y-10610746D02*
X7345015Y-10591698D01*
X7345015Y-10591698D02*
X7354539Y-10582174D01*
X7354539Y-10582174D02*
X7373587Y-10572650D01*
X7373587Y-10572650D02*
X7402158Y-10572650D01*
X7402158Y-10572650D02*
X7421206Y-10582174D01*
X7421206Y-10582174D02*
X7430730Y-10591698D01*
X7430730Y-10591698D02*
X7440253Y-10610746D01*
X7440253Y-10610746D02*
X7440253Y-10667889D01*
X7440253Y-10667889D02*
X7430730Y-10686936D01*
X7430730Y-10686936D02*
X7421206Y-10696460D01*
X7421206Y-10696460D02*
X7402158Y-10705984D01*
X7402158Y-10705984D02*
X7373587Y-10705984D01*
X7554539Y-10705984D02*
X7535491Y-10696460D01*
X7535491Y-10696460D02*
X7525968Y-10677412D01*
X7525968Y-10677412D02*
X7525968Y-10505984D01*
X7706920Y-10696460D02*
X7687872Y-10705984D01*
X7687872Y-10705984D02*
X7649777Y-10705984D01*
X7649777Y-10705984D02*
X7630730Y-10696460D01*
X7630730Y-10696460D02*
X7621206Y-10677412D01*
X7621206Y-10677412D02*
X7621206Y-10601222D01*
X7621206Y-10601222D02*
X7630730Y-10582174D01*
X7630730Y-10582174D02*
X7649777Y-10572650D01*
X7649777Y-10572650D02*
X7687872Y-10572650D01*
X7687872Y-10572650D02*
X7706920Y-10582174D01*
X7706920Y-10582174D02*
X7716444Y-10601222D01*
X7716444Y-10601222D02*
X7716444Y-10620270D01*
X7716444Y-10620270D02*
X7621206Y-10639317D01*
X7792634Y-10696460D02*
X7811682Y-10705984D01*
X7811682Y-10705984D02*
X7849777Y-10705984D01*
X7849777Y-10705984D02*
X7868825Y-10696460D01*
X7868825Y-10696460D02*
X7878349Y-10677412D01*
X7878349Y-10677412D02*
X7878349Y-10667889D01*
X7878349Y-10667889D02*
X7868825Y-10648841D01*
X7868825Y-10648841D02*
X7849777Y-10639317D01*
X7849777Y-10639317D02*
X7821206Y-10639317D01*
X7821206Y-10639317D02*
X7802158Y-10629793D01*
X7802158Y-10629793D02*
X7792634Y-10610746D01*
X7792634Y-10610746D02*
X7792634Y-10601222D01*
X7792634Y-10601222D02*
X7802158Y-10582174D01*
X7802158Y-10582174D02*
X7821206Y-10572650D01*
X7821206Y-10572650D02*
X7849777Y-10572650D01*
X7849777Y-10572650D02*
X7868825Y-10582174D01*
X7945015Y-10782174D02*
X7954539Y-10772650D01*
X7954539Y-10772650D02*
X7973587Y-10744079D01*
X7973587Y-10744079D02*
X7983111Y-10725031D01*
X7983111Y-10725031D02*
X7992634Y-10696460D01*
X7992634Y-10696460D02*
X8002158Y-10648841D01*
X8002158Y-10648841D02*
X8002158Y-10610746D01*
X8002158Y-10610746D02*
X7992634Y-10563127D01*
X7992634Y-10563127D02*
X7983111Y-10534555D01*
X7983111Y-10534555D02*
X7973587Y-10515508D01*
X7973587Y-10515508D02*
X7954539Y-10486936D01*
X7954539Y-10486936D02*
X7945015Y-10477412D01*
D10*
X2789000Y-10878500D02*
G75*
G02*
X2749000Y-10878500I-20000J0D01*
G01*
X2749000Y-10878500D02*
G75*
G02*
X2789000Y-10878500I20000J0D01*
G01*
D12*
X3087872Y-10769984D02*
X3106920Y-10769984D01*
X3106920Y-10769984D02*
X3125967Y-10779508D01*
X3125967Y-10779508D02*
X3135491Y-10789031D01*
X3135491Y-10789031D02*
X3145015Y-10808079D01*
X3145015Y-10808079D02*
X3154539Y-10846174D01*
X3154539Y-10846174D02*
X3154539Y-10893793D01*
X3154539Y-10893793D02*
X3145015Y-10931889D01*
X3145015Y-10931889D02*
X3135491Y-10950936D01*
X3135491Y-10950936D02*
X3125967Y-10960460D01*
X3125967Y-10960460D02*
X3106920Y-10969984D01*
X3106920Y-10969984D02*
X3087872Y-10969984D01*
X3087872Y-10969984D02*
X3068824Y-10960460D01*
X3068824Y-10960460D02*
X3059301Y-10950936D01*
X3059301Y-10950936D02*
X3049777Y-10931889D01*
X3049777Y-10931889D02*
X3040253Y-10893793D01*
X3040253Y-10893793D02*
X3040253Y-10846174D01*
X3040253Y-10846174D02*
X3049777Y-10808079D01*
X3049777Y-10808079D02*
X3059301Y-10789031D01*
X3059301Y-10789031D02*
X3068824Y-10779508D01*
X3068824Y-10779508D02*
X3087872Y-10769984D01*
X3240253Y-10950936D02*
X3249777Y-10960460D01*
X3249777Y-10960460D02*
X3240253Y-10969984D01*
X3240253Y-10969984D02*
X3230729Y-10960460D01*
X3230729Y-10960460D02*
X3240253Y-10950936D01*
X3240253Y-10950936D02*
X3240253Y-10969984D01*
X3421205Y-10836650D02*
X3421205Y-10969984D01*
X3373586Y-10760460D02*
X3325967Y-10903317D01*
X3325967Y-10903317D02*
X3449777Y-10903317D01*
X3564062Y-10769984D02*
X3583110Y-10769984D01*
X3583110Y-10769984D02*
X3602158Y-10779508D01*
X3602158Y-10779508D02*
X3611682Y-10789031D01*
X3611682Y-10789031D02*
X3621205Y-10808079D01*
X3621205Y-10808079D02*
X3630729Y-10846174D01*
X3630729Y-10846174D02*
X3630729Y-10893793D01*
X3630729Y-10893793D02*
X3621205Y-10931889D01*
X3621205Y-10931889D02*
X3611682Y-10950936D01*
X3611682Y-10950936D02*
X3602158Y-10960460D01*
X3602158Y-10960460D02*
X3583110Y-10969984D01*
X3583110Y-10969984D02*
X3564062Y-10969984D01*
X3564062Y-10969984D02*
X3545015Y-10960460D01*
X3545015Y-10960460D02*
X3535491Y-10950936D01*
X3535491Y-10950936D02*
X3525967Y-10931889D01*
X3525967Y-10931889D02*
X3516443Y-10893793D01*
X3516443Y-10893793D02*
X3516443Y-10846174D01*
X3516443Y-10846174D02*
X3525967Y-10808079D01*
X3525967Y-10808079D02*
X3535491Y-10789031D01*
X3535491Y-10789031D02*
X3545015Y-10779508D01*
X3545015Y-10779508D02*
X3564062Y-10769984D01*
X3754539Y-10769984D02*
X3773586Y-10769984D01*
X3773586Y-10769984D02*
X3792634Y-10779508D01*
X3792634Y-10779508D02*
X3802158Y-10789031D01*
X3802158Y-10789031D02*
X3811682Y-10808079D01*
X3811682Y-10808079D02*
X3821205Y-10846174D01*
X3821205Y-10846174D02*
X3821205Y-10893793D01*
X3821205Y-10893793D02*
X3811682Y-10931889D01*
X3811682Y-10931889D02*
X3802158Y-10950936D01*
X3802158Y-10950936D02*
X3792634Y-10960460D01*
X3792634Y-10960460D02*
X3773586Y-10969984D01*
X3773586Y-10969984D02*
X3754539Y-10969984D01*
X3754539Y-10969984D02*
X3735491Y-10960460D01*
X3735491Y-10960460D02*
X3725967Y-10950936D01*
X3725967Y-10950936D02*
X3716443Y-10931889D01*
X3716443Y-10931889D02*
X3706920Y-10893793D01*
X3706920Y-10893793D02*
X3706920Y-10846174D01*
X3706920Y-10846174D02*
X3716443Y-10808079D01*
X3716443Y-10808079D02*
X3725967Y-10789031D01*
X3725967Y-10789031D02*
X3735491Y-10779508D01*
X3735491Y-10779508D02*
X3754539Y-10769984D01*
X3906920Y-10969984D02*
X3906920Y-10836650D01*
X3906920Y-10855698D02*
X3916443Y-10846174D01*
X3916443Y-10846174D02*
X3935491Y-10836650D01*
X3935491Y-10836650D02*
X3964063Y-10836650D01*
X3964063Y-10836650D02*
X3983110Y-10846174D01*
X3983110Y-10846174D02*
X3992634Y-10865222D01*
X3992634Y-10865222D02*
X3992634Y-10969984D01*
X3992634Y-10865222D02*
X4002158Y-10846174D01*
X4002158Y-10846174D02*
X4021205Y-10836650D01*
X4021205Y-10836650D02*
X4049777Y-10836650D01*
X4049777Y-10836650D02*
X4068824Y-10846174D01*
X4068824Y-10846174D02*
X4078348Y-10865222D01*
X4078348Y-10865222D02*
X4078348Y-10969984D01*
X4173586Y-10969984D02*
X4173586Y-10836650D01*
X4173586Y-10855698D02*
X4183110Y-10846174D01*
X4183110Y-10846174D02*
X4202158Y-10836650D01*
X4202158Y-10836650D02*
X4230729Y-10836650D01*
X4230729Y-10836650D02*
X4249777Y-10846174D01*
X4249777Y-10846174D02*
X4259301Y-10865222D01*
X4259301Y-10865222D02*
X4259301Y-10969984D01*
X4259301Y-10865222D02*
X4268825Y-10846174D01*
X4268825Y-10846174D02*
X4287872Y-10836650D01*
X4287872Y-10836650D02*
X4316444Y-10836650D01*
X4316444Y-10836650D02*
X4335491Y-10846174D01*
X4335491Y-10846174D02*
X4345015Y-10865222D01*
X4345015Y-10865222D02*
X4345015Y-10969984D01*
X4735491Y-10760460D02*
X4564063Y-11017603D01*
X4992634Y-10769984D02*
X5011682Y-10769984D01*
X5011682Y-10769984D02*
X5030729Y-10779508D01*
X5030729Y-10779508D02*
X5040253Y-10789031D01*
X5040253Y-10789031D02*
X5049777Y-10808079D01*
X5049777Y-10808079D02*
X5059301Y-10846174D01*
X5059301Y-10846174D02*
X5059301Y-10893793D01*
X5059301Y-10893793D02*
X5049777Y-10931889D01*
X5049777Y-10931889D02*
X5040253Y-10950936D01*
X5040253Y-10950936D02*
X5030729Y-10960460D01*
X5030729Y-10960460D02*
X5011682Y-10969984D01*
X5011682Y-10969984D02*
X4992634Y-10969984D01*
X4992634Y-10969984D02*
X4973587Y-10960460D01*
X4973587Y-10960460D02*
X4964063Y-10950936D01*
X4964063Y-10950936D02*
X4954539Y-10931889D01*
X4954539Y-10931889D02*
X4945015Y-10893793D01*
X4945015Y-10893793D02*
X4945015Y-10846174D01*
X4945015Y-10846174D02*
X4954539Y-10808079D01*
X4954539Y-10808079D02*
X4964063Y-10789031D01*
X4964063Y-10789031D02*
X4973587Y-10779508D01*
X4973587Y-10779508D02*
X4992634Y-10769984D01*
X5145015Y-10950936D02*
X5154539Y-10960460D01*
X5154539Y-10960460D02*
X5145015Y-10969984D01*
X5145015Y-10969984D02*
X5135491Y-10960460D01*
X5135491Y-10960460D02*
X5145015Y-10950936D01*
X5145015Y-10950936D02*
X5145015Y-10969984D01*
X5278348Y-10769984D02*
X5297396Y-10769984D01*
X5297396Y-10769984D02*
X5316444Y-10779508D01*
X5316444Y-10779508D02*
X5325968Y-10789031D01*
X5325968Y-10789031D02*
X5335491Y-10808079D01*
X5335491Y-10808079D02*
X5345015Y-10846174D01*
X5345015Y-10846174D02*
X5345015Y-10893793D01*
X5345015Y-10893793D02*
X5335491Y-10931889D01*
X5335491Y-10931889D02*
X5325968Y-10950936D01*
X5325968Y-10950936D02*
X5316444Y-10960460D01*
X5316444Y-10960460D02*
X5297396Y-10969984D01*
X5297396Y-10969984D02*
X5278348Y-10969984D01*
X5278348Y-10969984D02*
X5259301Y-10960460D01*
X5259301Y-10960460D02*
X5249777Y-10950936D01*
X5249777Y-10950936D02*
X5240253Y-10931889D01*
X5240253Y-10931889D02*
X5230729Y-10893793D01*
X5230729Y-10893793D02*
X5230729Y-10846174D01*
X5230729Y-10846174D02*
X5240253Y-10808079D01*
X5240253Y-10808079D02*
X5249777Y-10789031D01*
X5249777Y-10789031D02*
X5259301Y-10779508D01*
X5259301Y-10779508D02*
X5278348Y-10769984D01*
X5535491Y-10969984D02*
X5421206Y-10969984D01*
X5478348Y-10969984D02*
X5478348Y-10769984D01*
X5478348Y-10769984D02*
X5459301Y-10798555D01*
X5459301Y-10798555D02*
X5440253Y-10817603D01*
X5440253Y-10817603D02*
X5421206Y-10827127D01*
X5716444Y-10769984D02*
X5621206Y-10769984D01*
X5621206Y-10769984D02*
X5611682Y-10865222D01*
X5611682Y-10865222D02*
X5621206Y-10855698D01*
X5621206Y-10855698D02*
X5640253Y-10846174D01*
X5640253Y-10846174D02*
X5687872Y-10846174D01*
X5687872Y-10846174D02*
X5706920Y-10855698D01*
X5706920Y-10855698D02*
X5716444Y-10865222D01*
X5716444Y-10865222D02*
X5725967Y-10884270D01*
X5725967Y-10884270D02*
X5725967Y-10931889D01*
X5725967Y-10931889D02*
X5716444Y-10950936D01*
X5716444Y-10950936D02*
X5706920Y-10960460D01*
X5706920Y-10960460D02*
X5687872Y-10969984D01*
X5687872Y-10969984D02*
X5640253Y-10969984D01*
X5640253Y-10969984D02*
X5621206Y-10960460D01*
X5621206Y-10960460D02*
X5611682Y-10950936D01*
X5792634Y-10769984D02*
X5925967Y-10769984D01*
X5925967Y-10769984D02*
X5840253Y-10969984D01*
X5992634Y-10769984D02*
X5992634Y-10808079D01*
X6068825Y-10769984D02*
X6068825Y-10808079D01*
X6364063Y-11046174D02*
X6354539Y-11036650D01*
X6354539Y-11036650D02*
X6335491Y-11008079D01*
X6335491Y-11008079D02*
X6325968Y-10989031D01*
X6325968Y-10989031D02*
X6316444Y-10960460D01*
X6316444Y-10960460D02*
X6306920Y-10912841D01*
X6306920Y-10912841D02*
X6306920Y-10874746D01*
X6306920Y-10874746D02*
X6316444Y-10827127D01*
X6316444Y-10827127D02*
X6325968Y-10798555D01*
X6325968Y-10798555D02*
X6335491Y-10779508D01*
X6335491Y-10779508D02*
X6354539Y-10750936D01*
X6354539Y-10750936D02*
X6364063Y-10741412D01*
X6478348Y-10769984D02*
X6497396Y-10769984D01*
X6497396Y-10769984D02*
X6516444Y-10779508D01*
X6516444Y-10779508D02*
X6525968Y-10789031D01*
X6525968Y-10789031D02*
X6535491Y-10808079D01*
X6535491Y-10808079D02*
X6545015Y-10846174D01*
X6545015Y-10846174D02*
X6545015Y-10893793D01*
X6545015Y-10893793D02*
X6535491Y-10931889D01*
X6535491Y-10931889D02*
X6525968Y-10950936D01*
X6525968Y-10950936D02*
X6516444Y-10960460D01*
X6516444Y-10960460D02*
X6497396Y-10969984D01*
X6497396Y-10969984D02*
X6478348Y-10969984D01*
X6478348Y-10969984D02*
X6459301Y-10960460D01*
X6459301Y-10960460D02*
X6449777Y-10950936D01*
X6449777Y-10950936D02*
X6440253Y-10931889D01*
X6440253Y-10931889D02*
X6430729Y-10893793D01*
X6430729Y-10893793D02*
X6430729Y-10846174D01*
X6430729Y-10846174D02*
X6440253Y-10808079D01*
X6440253Y-10808079D02*
X6449777Y-10789031D01*
X6449777Y-10789031D02*
X6459301Y-10779508D01*
X6459301Y-10779508D02*
X6478348Y-10769984D01*
X6783110Y-10969984D02*
X6783110Y-10769984D01*
X6868825Y-10969984D02*
X6868825Y-10865222D01*
X6868825Y-10865222D02*
X6859301Y-10846174D01*
X6859301Y-10846174D02*
X6840253Y-10836650D01*
X6840253Y-10836650D02*
X6811682Y-10836650D01*
X6811682Y-10836650D02*
X6792634Y-10846174D01*
X6792634Y-10846174D02*
X6783110Y-10855698D01*
X6992634Y-10969984D02*
X6973587Y-10960460D01*
X6973587Y-10960460D02*
X6964063Y-10950936D01*
X6964063Y-10950936D02*
X6954539Y-10931889D01*
X6954539Y-10931889D02*
X6954539Y-10874746D01*
X6954539Y-10874746D02*
X6964063Y-10855698D01*
X6964063Y-10855698D02*
X6973587Y-10846174D01*
X6973587Y-10846174D02*
X6992634Y-10836650D01*
X6992634Y-10836650D02*
X7021206Y-10836650D01*
X7021206Y-10836650D02*
X7040253Y-10846174D01*
X7040253Y-10846174D02*
X7049777Y-10855698D01*
X7049777Y-10855698D02*
X7059301Y-10874746D01*
X7059301Y-10874746D02*
X7059301Y-10931889D01*
X7059301Y-10931889D02*
X7049777Y-10950936D01*
X7049777Y-10950936D02*
X7040253Y-10960460D01*
X7040253Y-10960460D02*
X7021206Y-10969984D01*
X7021206Y-10969984D02*
X6992634Y-10969984D01*
X7173587Y-10969984D02*
X7154539Y-10960460D01*
X7154539Y-10960460D02*
X7145015Y-10941412D01*
X7145015Y-10941412D02*
X7145015Y-10769984D01*
X7325968Y-10960460D02*
X7306920Y-10969984D01*
X7306920Y-10969984D02*
X7268825Y-10969984D01*
X7268825Y-10969984D02*
X7249777Y-10960460D01*
X7249777Y-10960460D02*
X7240253Y-10941412D01*
X7240253Y-10941412D02*
X7240253Y-10865222D01*
X7240253Y-10865222D02*
X7249777Y-10846174D01*
X7249777Y-10846174D02*
X7268825Y-10836650D01*
X7268825Y-10836650D02*
X7306920Y-10836650D01*
X7306920Y-10836650D02*
X7325968Y-10846174D01*
X7325968Y-10846174D02*
X7335491Y-10865222D01*
X7335491Y-10865222D02*
X7335491Y-10884270D01*
X7335491Y-10884270D02*
X7240253Y-10903317D01*
X7411682Y-10960460D02*
X7430730Y-10969984D01*
X7430730Y-10969984D02*
X7468825Y-10969984D01*
X7468825Y-10969984D02*
X7487872Y-10960460D01*
X7487872Y-10960460D02*
X7497396Y-10941412D01*
X7497396Y-10941412D02*
X7497396Y-10931889D01*
X7497396Y-10931889D02*
X7487872Y-10912841D01*
X7487872Y-10912841D02*
X7468825Y-10903317D01*
X7468825Y-10903317D02*
X7440253Y-10903317D01*
X7440253Y-10903317D02*
X7421206Y-10893793D01*
X7421206Y-10893793D02*
X7411682Y-10874746D01*
X7411682Y-10874746D02*
X7411682Y-10865222D01*
X7411682Y-10865222D02*
X7421206Y-10846174D01*
X7421206Y-10846174D02*
X7440253Y-10836650D01*
X7440253Y-10836650D02*
X7468825Y-10836650D01*
X7468825Y-10836650D02*
X7487872Y-10846174D01*
X7735492Y-10893793D02*
X7887873Y-10893793D01*
X7811682Y-10969984D02*
X7811682Y-10817603D01*
X8116444Y-10769984D02*
X8240253Y-10769984D01*
X8240253Y-10769984D02*
X8173587Y-10846174D01*
X8173587Y-10846174D02*
X8202158Y-10846174D01*
X8202158Y-10846174D02*
X8221206Y-10855698D01*
X8221206Y-10855698D02*
X8230730Y-10865222D01*
X8230730Y-10865222D02*
X8240253Y-10884270D01*
X8240253Y-10884270D02*
X8240253Y-10931889D01*
X8240253Y-10931889D02*
X8230730Y-10950936D01*
X8230730Y-10950936D02*
X8221206Y-10960460D01*
X8221206Y-10960460D02*
X8202158Y-10969984D01*
X8202158Y-10969984D02*
X8145015Y-10969984D01*
X8145015Y-10969984D02*
X8125968Y-10960460D01*
X8125968Y-10960460D02*
X8116444Y-10950936D01*
X8468825Y-10960460D02*
X8487873Y-10969984D01*
X8487873Y-10969984D02*
X8525968Y-10969984D01*
X8525968Y-10969984D02*
X8545016Y-10960460D01*
X8545016Y-10960460D02*
X8554539Y-10941412D01*
X8554539Y-10941412D02*
X8554539Y-10931889D01*
X8554539Y-10931889D02*
X8545016Y-10912841D01*
X8545016Y-10912841D02*
X8525968Y-10903317D01*
X8525968Y-10903317D02*
X8497396Y-10903317D01*
X8497396Y-10903317D02*
X8478349Y-10893793D01*
X8478349Y-10893793D02*
X8468825Y-10874746D01*
X8468825Y-10874746D02*
X8468825Y-10865222D01*
X8468825Y-10865222D02*
X8478349Y-10846174D01*
X8478349Y-10846174D02*
X8497396Y-10836650D01*
X8497396Y-10836650D02*
X8525968Y-10836650D01*
X8525968Y-10836650D02*
X8545016Y-10846174D01*
X8668825Y-10969984D02*
X8649777Y-10960460D01*
X8649777Y-10960460D02*
X8640254Y-10941412D01*
X8640254Y-10941412D02*
X8640254Y-10769984D01*
X8773587Y-10969984D02*
X8754539Y-10960460D01*
X8754539Y-10960460D02*
X8745016Y-10950936D01*
X8745016Y-10950936D02*
X8735492Y-10931889D01*
X8735492Y-10931889D02*
X8735492Y-10874746D01*
X8735492Y-10874746D02*
X8745016Y-10855698D01*
X8745016Y-10855698D02*
X8754539Y-10846174D01*
X8754539Y-10846174D02*
X8773587Y-10836650D01*
X8773587Y-10836650D02*
X8802158Y-10836650D01*
X8802158Y-10836650D02*
X8821206Y-10846174D01*
X8821206Y-10846174D02*
X8830730Y-10855698D01*
X8830730Y-10855698D02*
X8840254Y-10874746D01*
X8840254Y-10874746D02*
X8840254Y-10931889D01*
X8840254Y-10931889D02*
X8830730Y-10950936D01*
X8830730Y-10950936D02*
X8821206Y-10960460D01*
X8821206Y-10960460D02*
X8802158Y-10969984D01*
X8802158Y-10969984D02*
X8773587Y-10969984D01*
X8897397Y-10836650D02*
X8973587Y-10836650D01*
X8925968Y-10769984D02*
X8925968Y-10941412D01*
X8925968Y-10941412D02*
X8935492Y-10960460D01*
X8935492Y-10960460D02*
X8954539Y-10969984D01*
X8954539Y-10969984D02*
X8973587Y-10969984D01*
X9030730Y-10960460D02*
X9049777Y-10969984D01*
X9049777Y-10969984D02*
X9087873Y-10969984D01*
X9087873Y-10969984D02*
X9106920Y-10960460D01*
X9106920Y-10960460D02*
X9116444Y-10941412D01*
X9116444Y-10941412D02*
X9116444Y-10931889D01*
X9116444Y-10931889D02*
X9106920Y-10912841D01*
X9106920Y-10912841D02*
X9087873Y-10903317D01*
X9087873Y-10903317D02*
X9059301Y-10903317D01*
X9059301Y-10903317D02*
X9040254Y-10893793D01*
X9040254Y-10893793D02*
X9030730Y-10874746D01*
X9030730Y-10874746D02*
X9030730Y-10865222D01*
X9030730Y-10865222D02*
X9040254Y-10846174D01*
X9040254Y-10846174D02*
X9059301Y-10836650D01*
X9059301Y-10836650D02*
X9087873Y-10836650D01*
X9087873Y-10836650D02*
X9106920Y-10846174D01*
X9183111Y-11046174D02*
X9192635Y-11036650D01*
X9192635Y-11036650D02*
X9211682Y-11008079D01*
X9211682Y-11008079D02*
X9221206Y-10989031D01*
X9221206Y-10989031D02*
X9230730Y-10960460D01*
X9230730Y-10960460D02*
X9240254Y-10912841D01*
X9240254Y-10912841D02*
X9240254Y-10874746D01*
X9240254Y-10874746D02*
X9230730Y-10827127D01*
X9230730Y-10827127D02*
X9221206Y-10798555D01*
X9221206Y-10798555D02*
X9211682Y-10779508D01*
X9211682Y-10779508D02*
X9192635Y-10750936D01*
X9192635Y-10750936D02*
X9183111Y-10741412D01*
D10*
X2764000Y-11117500D02*
X2764000Y-11167500D01*
X2739000Y-11142500D02*
X2789000Y-11142500D01*
D12*
X3087872Y-11033984D02*
X3106920Y-11033984D01*
X3106920Y-11033984D02*
X3125967Y-11043508D01*
X3125967Y-11043508D02*
X3135491Y-11053031D01*
X3135491Y-11053031D02*
X3145015Y-11072079D01*
X3145015Y-11072079D02*
X3154539Y-11110174D01*
X3154539Y-11110174D02*
X3154539Y-11157793D01*
X3154539Y-11157793D02*
X3145015Y-11195888D01*
X3145015Y-11195888D02*
X3135491Y-11214936D01*
X3135491Y-11214936D02*
X3125967Y-11224460D01*
X3125967Y-11224460D02*
X3106920Y-11233984D01*
X3106920Y-11233984D02*
X3087872Y-11233984D01*
X3087872Y-11233984D02*
X3068824Y-11224460D01*
X3068824Y-11224460D02*
X3059301Y-11214936D01*
X3059301Y-11214936D02*
X3049777Y-11195888D01*
X3049777Y-11195888D02*
X3040253Y-11157793D01*
X3040253Y-11157793D02*
X3040253Y-11110174D01*
X3040253Y-11110174D02*
X3049777Y-11072079D01*
X3049777Y-11072079D02*
X3059301Y-11053031D01*
X3059301Y-11053031D02*
X3068824Y-11043508D01*
X3068824Y-11043508D02*
X3087872Y-11033984D01*
X3240253Y-11214936D02*
X3249777Y-11224460D01*
X3249777Y-11224460D02*
X3240253Y-11233984D01*
X3240253Y-11233984D02*
X3230729Y-11224460D01*
X3230729Y-11224460D02*
X3240253Y-11214936D01*
X3240253Y-11214936D02*
X3240253Y-11233984D01*
X3430729Y-11033984D02*
X3335491Y-11033984D01*
X3335491Y-11033984D02*
X3325967Y-11129222D01*
X3325967Y-11129222D02*
X3335491Y-11119698D01*
X3335491Y-11119698D02*
X3354539Y-11110174D01*
X3354539Y-11110174D02*
X3402158Y-11110174D01*
X3402158Y-11110174D02*
X3421205Y-11119698D01*
X3421205Y-11119698D02*
X3430729Y-11129222D01*
X3430729Y-11129222D02*
X3440253Y-11148270D01*
X3440253Y-11148270D02*
X3440253Y-11195888D01*
X3440253Y-11195888D02*
X3430729Y-11214936D01*
X3430729Y-11214936D02*
X3421205Y-11224460D01*
X3421205Y-11224460D02*
X3402158Y-11233984D01*
X3402158Y-11233984D02*
X3354539Y-11233984D01*
X3354539Y-11233984D02*
X3335491Y-11224460D01*
X3335491Y-11224460D02*
X3325967Y-11214936D01*
X3564062Y-11033984D02*
X3583110Y-11033984D01*
X3583110Y-11033984D02*
X3602158Y-11043508D01*
X3602158Y-11043508D02*
X3611682Y-11053031D01*
X3611682Y-11053031D02*
X3621205Y-11072079D01*
X3621205Y-11072079D02*
X3630729Y-11110174D01*
X3630729Y-11110174D02*
X3630729Y-11157793D01*
X3630729Y-11157793D02*
X3621205Y-11195888D01*
X3621205Y-11195888D02*
X3611682Y-11214936D01*
X3611682Y-11214936D02*
X3602158Y-11224460D01*
X3602158Y-11224460D02*
X3583110Y-11233984D01*
X3583110Y-11233984D02*
X3564062Y-11233984D01*
X3564062Y-11233984D02*
X3545015Y-11224460D01*
X3545015Y-11224460D02*
X3535491Y-11214936D01*
X3535491Y-11214936D02*
X3525967Y-11195888D01*
X3525967Y-11195888D02*
X3516443Y-11157793D01*
X3516443Y-11157793D02*
X3516443Y-11110174D01*
X3516443Y-11110174D02*
X3525967Y-11072079D01*
X3525967Y-11072079D02*
X3535491Y-11053031D01*
X3535491Y-11053031D02*
X3545015Y-11043508D01*
X3545015Y-11043508D02*
X3564062Y-11033984D01*
X3754539Y-11033984D02*
X3773586Y-11033984D01*
X3773586Y-11033984D02*
X3792634Y-11043508D01*
X3792634Y-11043508D02*
X3802158Y-11053031D01*
X3802158Y-11053031D02*
X3811682Y-11072079D01*
X3811682Y-11072079D02*
X3821205Y-11110174D01*
X3821205Y-11110174D02*
X3821205Y-11157793D01*
X3821205Y-11157793D02*
X3811682Y-11195888D01*
X3811682Y-11195888D02*
X3802158Y-11214936D01*
X3802158Y-11214936D02*
X3792634Y-11224460D01*
X3792634Y-11224460D02*
X3773586Y-11233984D01*
X3773586Y-11233984D02*
X3754539Y-11233984D01*
X3754539Y-11233984D02*
X3735491Y-11224460D01*
X3735491Y-11224460D02*
X3725967Y-11214936D01*
X3725967Y-11214936D02*
X3716443Y-11195888D01*
X3716443Y-11195888D02*
X3706920Y-11157793D01*
X3706920Y-11157793D02*
X3706920Y-11110174D01*
X3706920Y-11110174D02*
X3716443Y-11072079D01*
X3716443Y-11072079D02*
X3725967Y-11053031D01*
X3725967Y-11053031D02*
X3735491Y-11043508D01*
X3735491Y-11043508D02*
X3754539Y-11033984D01*
X3906920Y-11233984D02*
X3906920Y-11100650D01*
X3906920Y-11119698D02*
X3916443Y-11110174D01*
X3916443Y-11110174D02*
X3935491Y-11100650D01*
X3935491Y-11100650D02*
X3964063Y-11100650D01*
X3964063Y-11100650D02*
X3983110Y-11110174D01*
X3983110Y-11110174D02*
X3992634Y-11129222D01*
X3992634Y-11129222D02*
X3992634Y-11233984D01*
X3992634Y-11129222D02*
X4002158Y-11110174D01*
X4002158Y-11110174D02*
X4021205Y-11100650D01*
X4021205Y-11100650D02*
X4049777Y-11100650D01*
X4049777Y-11100650D02*
X4068824Y-11110174D01*
X4068824Y-11110174D02*
X4078348Y-11129222D01*
X4078348Y-11129222D02*
X4078348Y-11233984D01*
X4173586Y-11233984D02*
X4173586Y-11100650D01*
X4173586Y-11119698D02*
X4183110Y-11110174D01*
X4183110Y-11110174D02*
X4202158Y-11100650D01*
X4202158Y-11100650D02*
X4230729Y-11100650D01*
X4230729Y-11100650D02*
X4249777Y-11110174D01*
X4249777Y-11110174D02*
X4259301Y-11129222D01*
X4259301Y-11129222D02*
X4259301Y-11233984D01*
X4259301Y-11129222D02*
X4268825Y-11110174D01*
X4268825Y-11110174D02*
X4287872Y-11100650D01*
X4287872Y-11100650D02*
X4316444Y-11100650D01*
X4316444Y-11100650D02*
X4335491Y-11110174D01*
X4335491Y-11110174D02*
X4345015Y-11129222D01*
X4345015Y-11129222D02*
X4345015Y-11233984D01*
X4735491Y-11024460D02*
X4564063Y-11281603D01*
X4992634Y-11033984D02*
X5011682Y-11033984D01*
X5011682Y-11033984D02*
X5030729Y-11043508D01*
X5030729Y-11043508D02*
X5040253Y-11053031D01*
X5040253Y-11053031D02*
X5049777Y-11072079D01*
X5049777Y-11072079D02*
X5059301Y-11110174D01*
X5059301Y-11110174D02*
X5059301Y-11157793D01*
X5059301Y-11157793D02*
X5049777Y-11195888D01*
X5049777Y-11195888D02*
X5040253Y-11214936D01*
X5040253Y-11214936D02*
X5030729Y-11224460D01*
X5030729Y-11224460D02*
X5011682Y-11233984D01*
X5011682Y-11233984D02*
X4992634Y-11233984D01*
X4992634Y-11233984D02*
X4973587Y-11224460D01*
X4973587Y-11224460D02*
X4964063Y-11214936D01*
X4964063Y-11214936D02*
X4954539Y-11195888D01*
X4954539Y-11195888D02*
X4945015Y-11157793D01*
X4945015Y-11157793D02*
X4945015Y-11110174D01*
X4945015Y-11110174D02*
X4954539Y-11072079D01*
X4954539Y-11072079D02*
X4964063Y-11053031D01*
X4964063Y-11053031D02*
X4973587Y-11043508D01*
X4973587Y-11043508D02*
X4992634Y-11033984D01*
X5145015Y-11214936D02*
X5154539Y-11224460D01*
X5154539Y-11224460D02*
X5145015Y-11233984D01*
X5145015Y-11233984D02*
X5135491Y-11224460D01*
X5135491Y-11224460D02*
X5145015Y-11214936D01*
X5145015Y-11214936D02*
X5145015Y-11233984D01*
X5278348Y-11033984D02*
X5297396Y-11033984D01*
X5297396Y-11033984D02*
X5316444Y-11043508D01*
X5316444Y-11043508D02*
X5325968Y-11053031D01*
X5325968Y-11053031D02*
X5335491Y-11072079D01*
X5335491Y-11072079D02*
X5345015Y-11110174D01*
X5345015Y-11110174D02*
X5345015Y-11157793D01*
X5345015Y-11157793D02*
X5335491Y-11195888D01*
X5335491Y-11195888D02*
X5325968Y-11214936D01*
X5325968Y-11214936D02*
X5316444Y-11224460D01*
X5316444Y-11224460D02*
X5297396Y-11233984D01*
X5297396Y-11233984D02*
X5278348Y-11233984D01*
X5278348Y-11233984D02*
X5259301Y-11224460D01*
X5259301Y-11224460D02*
X5249777Y-11214936D01*
X5249777Y-11214936D02*
X5240253Y-11195888D01*
X5240253Y-11195888D02*
X5230729Y-11157793D01*
X5230729Y-11157793D02*
X5230729Y-11110174D01*
X5230729Y-11110174D02*
X5240253Y-11072079D01*
X5240253Y-11072079D02*
X5249777Y-11053031D01*
X5249777Y-11053031D02*
X5259301Y-11043508D01*
X5259301Y-11043508D02*
X5278348Y-11033984D01*
X5535491Y-11233984D02*
X5421206Y-11233984D01*
X5478348Y-11233984D02*
X5478348Y-11033984D01*
X5478348Y-11033984D02*
X5459301Y-11062555D01*
X5459301Y-11062555D02*
X5440253Y-11081603D01*
X5440253Y-11081603D02*
X5421206Y-11091127D01*
X5630729Y-11233984D02*
X5668825Y-11233984D01*
X5668825Y-11233984D02*
X5687872Y-11224460D01*
X5687872Y-11224460D02*
X5697396Y-11214936D01*
X5697396Y-11214936D02*
X5716444Y-11186365D01*
X5716444Y-11186365D02*
X5725967Y-11148270D01*
X5725967Y-11148270D02*
X5725967Y-11072079D01*
X5725967Y-11072079D02*
X5716444Y-11053031D01*
X5716444Y-11053031D02*
X5706920Y-11043508D01*
X5706920Y-11043508D02*
X5687872Y-11033984D01*
X5687872Y-11033984D02*
X5649777Y-11033984D01*
X5649777Y-11033984D02*
X5630729Y-11043508D01*
X5630729Y-11043508D02*
X5621206Y-11053031D01*
X5621206Y-11053031D02*
X5611682Y-11072079D01*
X5611682Y-11072079D02*
X5611682Y-11119698D01*
X5611682Y-11119698D02*
X5621206Y-11138746D01*
X5621206Y-11138746D02*
X5630729Y-11148270D01*
X5630729Y-11148270D02*
X5649777Y-11157793D01*
X5649777Y-11157793D02*
X5687872Y-11157793D01*
X5687872Y-11157793D02*
X5706920Y-11148270D01*
X5706920Y-11148270D02*
X5716444Y-11138746D01*
X5716444Y-11138746D02*
X5725967Y-11119698D01*
X5792634Y-11033984D02*
X5925967Y-11033984D01*
X5925967Y-11033984D02*
X5840253Y-11233984D01*
X5992634Y-11033984D02*
X5992634Y-11072079D01*
X6068825Y-11033984D02*
X6068825Y-11072079D01*
X6364063Y-11310174D02*
X6354539Y-11300650D01*
X6354539Y-11300650D02*
X6335491Y-11272079D01*
X6335491Y-11272079D02*
X6325968Y-11253031D01*
X6325968Y-11253031D02*
X6316444Y-11224460D01*
X6316444Y-11224460D02*
X6306920Y-11176841D01*
X6306920Y-11176841D02*
X6306920Y-11138746D01*
X6306920Y-11138746D02*
X6316444Y-11091127D01*
X6316444Y-11091127D02*
X6325968Y-11062555D01*
X6325968Y-11062555D02*
X6335491Y-11043508D01*
X6335491Y-11043508D02*
X6354539Y-11014936D01*
X6354539Y-11014936D02*
X6364063Y-11005412D01*
X6421206Y-11033984D02*
X6545015Y-11033984D01*
X6545015Y-11033984D02*
X6478348Y-11110174D01*
X6478348Y-11110174D02*
X6506920Y-11110174D01*
X6506920Y-11110174D02*
X6525968Y-11119698D01*
X6525968Y-11119698D02*
X6535491Y-11129222D01*
X6535491Y-11129222D02*
X6545015Y-11148270D01*
X6545015Y-11148270D02*
X6545015Y-11195888D01*
X6545015Y-11195888D02*
X6535491Y-11214936D01*
X6535491Y-11214936D02*
X6525968Y-11224460D01*
X6525968Y-11224460D02*
X6506920Y-11233984D01*
X6506920Y-11233984D02*
X6449777Y-11233984D01*
X6449777Y-11233984D02*
X6430729Y-11224460D01*
X6430729Y-11224460D02*
X6421206Y-11214936D01*
X6783110Y-11233984D02*
X6783110Y-11033984D01*
X6868825Y-11233984D02*
X6868825Y-11129222D01*
X6868825Y-11129222D02*
X6859301Y-11110174D01*
X6859301Y-11110174D02*
X6840253Y-11100650D01*
X6840253Y-11100650D02*
X6811682Y-11100650D01*
X6811682Y-11100650D02*
X6792634Y-11110174D01*
X6792634Y-11110174D02*
X6783110Y-11119698D01*
X6992634Y-11233984D02*
X6973587Y-11224460D01*
X6973587Y-11224460D02*
X6964063Y-11214936D01*
X6964063Y-11214936D02*
X6954539Y-11195888D01*
X6954539Y-11195888D02*
X6954539Y-11138746D01*
X6954539Y-11138746D02*
X6964063Y-11119698D01*
X6964063Y-11119698D02*
X6973587Y-11110174D01*
X6973587Y-11110174D02*
X6992634Y-11100650D01*
X6992634Y-11100650D02*
X7021206Y-11100650D01*
X7021206Y-11100650D02*
X7040253Y-11110174D01*
X7040253Y-11110174D02*
X7049777Y-11119698D01*
X7049777Y-11119698D02*
X7059301Y-11138746D01*
X7059301Y-11138746D02*
X7059301Y-11195888D01*
X7059301Y-11195888D02*
X7049777Y-11214936D01*
X7049777Y-11214936D02*
X7040253Y-11224460D01*
X7040253Y-11224460D02*
X7021206Y-11233984D01*
X7021206Y-11233984D02*
X6992634Y-11233984D01*
X7173587Y-11233984D02*
X7154539Y-11224460D01*
X7154539Y-11224460D02*
X7145015Y-11205412D01*
X7145015Y-11205412D02*
X7145015Y-11033984D01*
X7325968Y-11224460D02*
X7306920Y-11233984D01*
X7306920Y-11233984D02*
X7268825Y-11233984D01*
X7268825Y-11233984D02*
X7249777Y-11224460D01*
X7249777Y-11224460D02*
X7240253Y-11205412D01*
X7240253Y-11205412D02*
X7240253Y-11129222D01*
X7240253Y-11129222D02*
X7249777Y-11110174D01*
X7249777Y-11110174D02*
X7268825Y-11100650D01*
X7268825Y-11100650D02*
X7306920Y-11100650D01*
X7306920Y-11100650D02*
X7325968Y-11110174D01*
X7325968Y-11110174D02*
X7335491Y-11129222D01*
X7335491Y-11129222D02*
X7335491Y-11148270D01*
X7335491Y-11148270D02*
X7240253Y-11167317D01*
X7411682Y-11224460D02*
X7430730Y-11233984D01*
X7430730Y-11233984D02*
X7468825Y-11233984D01*
X7468825Y-11233984D02*
X7487872Y-11224460D01*
X7487872Y-11224460D02*
X7497396Y-11205412D01*
X7497396Y-11205412D02*
X7497396Y-11195888D01*
X7497396Y-11195888D02*
X7487872Y-11176841D01*
X7487872Y-11176841D02*
X7468825Y-11167317D01*
X7468825Y-11167317D02*
X7440253Y-11167317D01*
X7440253Y-11167317D02*
X7421206Y-11157793D01*
X7421206Y-11157793D02*
X7411682Y-11138746D01*
X7411682Y-11138746D02*
X7411682Y-11129222D01*
X7411682Y-11129222D02*
X7421206Y-11110174D01*
X7421206Y-11110174D02*
X7440253Y-11100650D01*
X7440253Y-11100650D02*
X7468825Y-11100650D01*
X7468825Y-11100650D02*
X7487872Y-11110174D01*
X7564063Y-11310174D02*
X7573587Y-11300650D01*
X7573587Y-11300650D02*
X7592634Y-11272079D01*
X7592634Y-11272079D02*
X7602158Y-11253031D01*
X7602158Y-11253031D02*
X7611682Y-11224460D01*
X7611682Y-11224460D02*
X7621206Y-11176841D01*
X7621206Y-11176841D02*
X7621206Y-11138746D01*
X7621206Y-11138746D02*
X7611682Y-11091127D01*
X7611682Y-11091127D02*
X7602158Y-11062555D01*
X7602158Y-11062555D02*
X7592634Y-11043508D01*
X7592634Y-11043508D02*
X7573587Y-11014936D01*
X7573587Y-11014936D02*
X7564063Y-11005412D01*
D10*
X2778749Y-11431249D02*
X2778749Y-11381751D01*
X2729251Y-11381751D01*
X2729251Y-11431249D01*
X2778749Y-11431249D01*
D12*
X3087872Y-11297984D02*
X3106920Y-11297984D01*
X3106920Y-11297984D02*
X3125967Y-11307508D01*
X3125967Y-11307508D02*
X3135491Y-11317031D01*
X3135491Y-11317031D02*
X3145015Y-11336079D01*
X3145015Y-11336079D02*
X3154539Y-11374174D01*
X3154539Y-11374174D02*
X3154539Y-11421793D01*
X3154539Y-11421793D02*
X3145015Y-11459888D01*
X3145015Y-11459888D02*
X3135491Y-11478936D01*
X3135491Y-11478936D02*
X3125967Y-11488460D01*
X3125967Y-11488460D02*
X3106920Y-11497984D01*
X3106920Y-11497984D02*
X3087872Y-11497984D01*
X3087872Y-11497984D02*
X3068824Y-11488460D01*
X3068824Y-11488460D02*
X3059301Y-11478936D01*
X3059301Y-11478936D02*
X3049777Y-11459888D01*
X3049777Y-11459888D02*
X3040253Y-11421793D01*
X3040253Y-11421793D02*
X3040253Y-11374174D01*
X3040253Y-11374174D02*
X3049777Y-11336079D01*
X3049777Y-11336079D02*
X3059301Y-11317031D01*
X3059301Y-11317031D02*
X3068824Y-11307508D01*
X3068824Y-11307508D02*
X3087872Y-11297984D01*
X3240253Y-11478936D02*
X3249777Y-11488460D01*
X3249777Y-11488460D02*
X3240253Y-11497984D01*
X3240253Y-11497984D02*
X3230729Y-11488460D01*
X3230729Y-11488460D02*
X3240253Y-11478936D01*
X3240253Y-11478936D02*
X3240253Y-11497984D01*
X3316443Y-11297984D02*
X3449777Y-11297984D01*
X3449777Y-11297984D02*
X3364062Y-11497984D01*
X3564062Y-11297984D02*
X3583110Y-11297984D01*
X3583110Y-11297984D02*
X3602158Y-11307508D01*
X3602158Y-11307508D02*
X3611682Y-11317031D01*
X3611682Y-11317031D02*
X3621205Y-11336079D01*
X3621205Y-11336079D02*
X3630729Y-11374174D01*
X3630729Y-11374174D02*
X3630729Y-11421793D01*
X3630729Y-11421793D02*
X3621205Y-11459888D01*
X3621205Y-11459888D02*
X3611682Y-11478936D01*
X3611682Y-11478936D02*
X3602158Y-11488460D01*
X3602158Y-11488460D02*
X3583110Y-11497984D01*
X3583110Y-11497984D02*
X3564062Y-11497984D01*
X3564062Y-11497984D02*
X3545015Y-11488460D01*
X3545015Y-11488460D02*
X3535491Y-11478936D01*
X3535491Y-11478936D02*
X3525967Y-11459888D01*
X3525967Y-11459888D02*
X3516443Y-11421793D01*
X3516443Y-11421793D02*
X3516443Y-11374174D01*
X3516443Y-11374174D02*
X3525967Y-11336079D01*
X3525967Y-11336079D02*
X3535491Y-11317031D01*
X3535491Y-11317031D02*
X3545015Y-11307508D01*
X3545015Y-11307508D02*
X3564062Y-11297984D01*
X3754539Y-11297984D02*
X3773586Y-11297984D01*
X3773586Y-11297984D02*
X3792634Y-11307508D01*
X3792634Y-11307508D02*
X3802158Y-11317031D01*
X3802158Y-11317031D02*
X3811682Y-11336079D01*
X3811682Y-11336079D02*
X3821205Y-11374174D01*
X3821205Y-11374174D02*
X3821205Y-11421793D01*
X3821205Y-11421793D02*
X3811682Y-11459888D01*
X3811682Y-11459888D02*
X3802158Y-11478936D01*
X3802158Y-11478936D02*
X3792634Y-11488460D01*
X3792634Y-11488460D02*
X3773586Y-11497984D01*
X3773586Y-11497984D02*
X3754539Y-11497984D01*
X3754539Y-11497984D02*
X3735491Y-11488460D01*
X3735491Y-11488460D02*
X3725967Y-11478936D01*
X3725967Y-11478936D02*
X3716443Y-11459888D01*
X3716443Y-11459888D02*
X3706920Y-11421793D01*
X3706920Y-11421793D02*
X3706920Y-11374174D01*
X3706920Y-11374174D02*
X3716443Y-11336079D01*
X3716443Y-11336079D02*
X3725967Y-11317031D01*
X3725967Y-11317031D02*
X3735491Y-11307508D01*
X3735491Y-11307508D02*
X3754539Y-11297984D01*
X3906920Y-11497984D02*
X3906920Y-11364650D01*
X3906920Y-11383698D02*
X3916443Y-11374174D01*
X3916443Y-11374174D02*
X3935491Y-11364650D01*
X3935491Y-11364650D02*
X3964063Y-11364650D01*
X3964063Y-11364650D02*
X3983110Y-11374174D01*
X3983110Y-11374174D02*
X3992634Y-11393222D01*
X3992634Y-11393222D02*
X3992634Y-11497984D01*
X3992634Y-11393222D02*
X4002158Y-11374174D01*
X4002158Y-11374174D02*
X4021205Y-11364650D01*
X4021205Y-11364650D02*
X4049777Y-11364650D01*
X4049777Y-11364650D02*
X4068824Y-11374174D01*
X4068824Y-11374174D02*
X4078348Y-11393222D01*
X4078348Y-11393222D02*
X4078348Y-11497984D01*
X4173586Y-11497984D02*
X4173586Y-11364650D01*
X4173586Y-11383698D02*
X4183110Y-11374174D01*
X4183110Y-11374174D02*
X4202158Y-11364650D01*
X4202158Y-11364650D02*
X4230729Y-11364650D01*
X4230729Y-11364650D02*
X4249777Y-11374174D01*
X4249777Y-11374174D02*
X4259301Y-11393222D01*
X4259301Y-11393222D02*
X4259301Y-11497984D01*
X4259301Y-11393222D02*
X4268825Y-11374174D01*
X4268825Y-11374174D02*
X4287872Y-11364650D01*
X4287872Y-11364650D02*
X4316444Y-11364650D01*
X4316444Y-11364650D02*
X4335491Y-11374174D01*
X4335491Y-11374174D02*
X4345015Y-11393222D01*
X4345015Y-11393222D02*
X4345015Y-11497984D01*
X4735491Y-11288460D02*
X4564063Y-11545603D01*
X4992634Y-11297984D02*
X5011682Y-11297984D01*
X5011682Y-11297984D02*
X5030729Y-11307508D01*
X5030729Y-11307508D02*
X5040253Y-11317031D01*
X5040253Y-11317031D02*
X5049777Y-11336079D01*
X5049777Y-11336079D02*
X5059301Y-11374174D01*
X5059301Y-11374174D02*
X5059301Y-11421793D01*
X5059301Y-11421793D02*
X5049777Y-11459888D01*
X5049777Y-11459888D02*
X5040253Y-11478936D01*
X5040253Y-11478936D02*
X5030729Y-11488460D01*
X5030729Y-11488460D02*
X5011682Y-11497984D01*
X5011682Y-11497984D02*
X4992634Y-11497984D01*
X4992634Y-11497984D02*
X4973587Y-11488460D01*
X4973587Y-11488460D02*
X4964063Y-11478936D01*
X4964063Y-11478936D02*
X4954539Y-11459888D01*
X4954539Y-11459888D02*
X4945015Y-11421793D01*
X4945015Y-11421793D02*
X4945015Y-11374174D01*
X4945015Y-11374174D02*
X4954539Y-11336079D01*
X4954539Y-11336079D02*
X4964063Y-11317031D01*
X4964063Y-11317031D02*
X4973587Y-11307508D01*
X4973587Y-11307508D02*
X4992634Y-11297984D01*
X5145015Y-11478936D02*
X5154539Y-11488460D01*
X5154539Y-11488460D02*
X5145015Y-11497984D01*
X5145015Y-11497984D02*
X5135491Y-11488460D01*
X5135491Y-11488460D02*
X5145015Y-11478936D01*
X5145015Y-11478936D02*
X5145015Y-11497984D01*
X5278348Y-11297984D02*
X5297396Y-11297984D01*
X5297396Y-11297984D02*
X5316444Y-11307508D01*
X5316444Y-11307508D02*
X5325968Y-11317031D01*
X5325968Y-11317031D02*
X5335491Y-11336079D01*
X5335491Y-11336079D02*
X5345015Y-11374174D01*
X5345015Y-11374174D02*
X5345015Y-11421793D01*
X5345015Y-11421793D02*
X5335491Y-11459888D01*
X5335491Y-11459888D02*
X5325968Y-11478936D01*
X5325968Y-11478936D02*
X5316444Y-11488460D01*
X5316444Y-11488460D02*
X5297396Y-11497984D01*
X5297396Y-11497984D02*
X5278348Y-11497984D01*
X5278348Y-11497984D02*
X5259301Y-11488460D01*
X5259301Y-11488460D02*
X5249777Y-11478936D01*
X5249777Y-11478936D02*
X5240253Y-11459888D01*
X5240253Y-11459888D02*
X5230729Y-11421793D01*
X5230729Y-11421793D02*
X5230729Y-11374174D01*
X5230729Y-11374174D02*
X5240253Y-11336079D01*
X5240253Y-11336079D02*
X5249777Y-11317031D01*
X5249777Y-11317031D02*
X5259301Y-11307508D01*
X5259301Y-11307508D02*
X5278348Y-11297984D01*
X5421206Y-11317031D02*
X5430729Y-11307508D01*
X5430729Y-11307508D02*
X5449777Y-11297984D01*
X5449777Y-11297984D02*
X5497396Y-11297984D01*
X5497396Y-11297984D02*
X5516444Y-11307508D01*
X5516444Y-11307508D02*
X5525968Y-11317031D01*
X5525968Y-11317031D02*
X5535491Y-11336079D01*
X5535491Y-11336079D02*
X5535491Y-11355127D01*
X5535491Y-11355127D02*
X5525968Y-11383698D01*
X5525968Y-11383698D02*
X5411682Y-11497984D01*
X5411682Y-11497984D02*
X5535491Y-11497984D01*
X5602158Y-11297984D02*
X5735491Y-11297984D01*
X5735491Y-11297984D02*
X5649777Y-11497984D01*
X5897396Y-11297984D02*
X5859301Y-11297984D01*
X5859301Y-11297984D02*
X5840253Y-11307508D01*
X5840253Y-11307508D02*
X5830729Y-11317031D01*
X5830729Y-11317031D02*
X5811682Y-11345603D01*
X5811682Y-11345603D02*
X5802158Y-11383698D01*
X5802158Y-11383698D02*
X5802158Y-11459888D01*
X5802158Y-11459888D02*
X5811682Y-11478936D01*
X5811682Y-11478936D02*
X5821206Y-11488460D01*
X5821206Y-11488460D02*
X5840253Y-11497984D01*
X5840253Y-11497984D02*
X5878348Y-11497984D01*
X5878348Y-11497984D02*
X5897396Y-11488460D01*
X5897396Y-11488460D02*
X5906920Y-11478936D01*
X5906920Y-11478936D02*
X5916444Y-11459888D01*
X5916444Y-11459888D02*
X5916444Y-11412269D01*
X5916444Y-11412269D02*
X5906920Y-11393222D01*
X5906920Y-11393222D02*
X5897396Y-11383698D01*
X5897396Y-11383698D02*
X5878348Y-11374174D01*
X5878348Y-11374174D02*
X5840253Y-11374174D01*
X5840253Y-11374174D02*
X5821206Y-11383698D01*
X5821206Y-11383698D02*
X5811682Y-11393222D01*
X5811682Y-11393222D02*
X5802158Y-11412269D01*
X5992634Y-11297984D02*
X5992634Y-11336079D01*
X6068825Y-11297984D02*
X6068825Y-11336079D01*
X6364063Y-11574174D02*
X6354539Y-11564650D01*
X6354539Y-11564650D02*
X6335491Y-11536079D01*
X6335491Y-11536079D02*
X6325968Y-11517031D01*
X6325968Y-11517031D02*
X6316444Y-11488460D01*
X6316444Y-11488460D02*
X6306920Y-11440841D01*
X6306920Y-11440841D02*
X6306920Y-11402746D01*
X6306920Y-11402746D02*
X6316444Y-11355127D01*
X6316444Y-11355127D02*
X6325968Y-11326555D01*
X6325968Y-11326555D02*
X6335491Y-11307508D01*
X6335491Y-11307508D02*
X6354539Y-11278936D01*
X6354539Y-11278936D02*
X6364063Y-11269412D01*
X6535491Y-11297984D02*
X6440253Y-11297984D01*
X6440253Y-11297984D02*
X6430729Y-11393222D01*
X6430729Y-11393222D02*
X6440253Y-11383698D01*
X6440253Y-11383698D02*
X6459301Y-11374174D01*
X6459301Y-11374174D02*
X6506920Y-11374174D01*
X6506920Y-11374174D02*
X6525968Y-11383698D01*
X6525968Y-11383698D02*
X6535491Y-11393222D01*
X6535491Y-11393222D02*
X6545015Y-11412269D01*
X6545015Y-11412269D02*
X6545015Y-11459888D01*
X6545015Y-11459888D02*
X6535491Y-11478936D01*
X6535491Y-11478936D02*
X6525968Y-11488460D01*
X6525968Y-11488460D02*
X6506920Y-11497984D01*
X6506920Y-11497984D02*
X6459301Y-11497984D01*
X6459301Y-11497984D02*
X6440253Y-11488460D01*
X6440253Y-11488460D02*
X6430729Y-11478936D01*
X6668825Y-11297984D02*
X6687872Y-11297984D01*
X6687872Y-11297984D02*
X6706920Y-11307508D01*
X6706920Y-11307508D02*
X6716444Y-11317031D01*
X6716444Y-11317031D02*
X6725968Y-11336079D01*
X6725968Y-11336079D02*
X6735491Y-11374174D01*
X6735491Y-11374174D02*
X6735491Y-11421793D01*
X6735491Y-11421793D02*
X6725968Y-11459888D01*
X6725968Y-11459888D02*
X6716444Y-11478936D01*
X6716444Y-11478936D02*
X6706920Y-11488460D01*
X6706920Y-11488460D02*
X6687872Y-11497984D01*
X6687872Y-11497984D02*
X6668825Y-11497984D01*
X6668825Y-11497984D02*
X6649777Y-11488460D01*
X6649777Y-11488460D02*
X6640253Y-11478936D01*
X6640253Y-11478936D02*
X6630729Y-11459888D01*
X6630729Y-11459888D02*
X6621206Y-11421793D01*
X6621206Y-11421793D02*
X6621206Y-11374174D01*
X6621206Y-11374174D02*
X6630729Y-11336079D01*
X6630729Y-11336079D02*
X6640253Y-11317031D01*
X6640253Y-11317031D02*
X6649777Y-11307508D01*
X6649777Y-11307508D02*
X6668825Y-11297984D01*
X6973587Y-11497984D02*
X6973587Y-11297984D01*
X7059301Y-11497984D02*
X7059301Y-11393222D01*
X7059301Y-11393222D02*
X7049777Y-11374174D01*
X7049777Y-11374174D02*
X7030730Y-11364650D01*
X7030730Y-11364650D02*
X7002158Y-11364650D01*
X7002158Y-11364650D02*
X6983110Y-11374174D01*
X6983110Y-11374174D02*
X6973587Y-11383698D01*
X7183110Y-11497984D02*
X7164063Y-11488460D01*
X7164063Y-11488460D02*
X7154539Y-11478936D01*
X7154539Y-11478936D02*
X7145015Y-11459888D01*
X7145015Y-11459888D02*
X7145015Y-11402746D01*
X7145015Y-11402746D02*
X7154539Y-11383698D01*
X7154539Y-11383698D02*
X7164063Y-11374174D01*
X7164063Y-11374174D02*
X7183110Y-11364650D01*
X7183110Y-11364650D02*
X7211682Y-11364650D01*
X7211682Y-11364650D02*
X7230730Y-11374174D01*
X7230730Y-11374174D02*
X7240253Y-11383698D01*
X7240253Y-11383698D02*
X7249777Y-11402746D01*
X7249777Y-11402746D02*
X7249777Y-11459888D01*
X7249777Y-11459888D02*
X7240253Y-11478936D01*
X7240253Y-11478936D02*
X7230730Y-11488460D01*
X7230730Y-11488460D02*
X7211682Y-11497984D01*
X7211682Y-11497984D02*
X7183110Y-11497984D01*
X7364063Y-11497984D02*
X7345015Y-11488460D01*
X7345015Y-11488460D02*
X7335491Y-11469412D01*
X7335491Y-11469412D02*
X7335491Y-11297984D01*
X7516444Y-11488460D02*
X7497396Y-11497984D01*
X7497396Y-11497984D02*
X7459301Y-11497984D01*
X7459301Y-11497984D02*
X7440253Y-11488460D01*
X7440253Y-11488460D02*
X7430730Y-11469412D01*
X7430730Y-11469412D02*
X7430730Y-11393222D01*
X7430730Y-11393222D02*
X7440253Y-11374174D01*
X7440253Y-11374174D02*
X7459301Y-11364650D01*
X7459301Y-11364650D02*
X7497396Y-11364650D01*
X7497396Y-11364650D02*
X7516444Y-11374174D01*
X7516444Y-11374174D02*
X7525968Y-11393222D01*
X7525968Y-11393222D02*
X7525968Y-11412269D01*
X7525968Y-11412269D02*
X7430730Y-11431317D01*
X7602158Y-11488460D02*
X7621206Y-11497984D01*
X7621206Y-11497984D02*
X7659301Y-11497984D01*
X7659301Y-11497984D02*
X7678349Y-11488460D01*
X7678349Y-11488460D02*
X7687872Y-11469412D01*
X7687872Y-11469412D02*
X7687872Y-11459888D01*
X7687872Y-11459888D02*
X7678349Y-11440841D01*
X7678349Y-11440841D02*
X7659301Y-11431317D01*
X7659301Y-11431317D02*
X7630730Y-11431317D01*
X7630730Y-11431317D02*
X7611682Y-11421793D01*
X7611682Y-11421793D02*
X7602158Y-11402746D01*
X7602158Y-11402746D02*
X7602158Y-11393222D01*
X7602158Y-11393222D02*
X7611682Y-11374174D01*
X7611682Y-11374174D02*
X7630730Y-11364650D01*
X7630730Y-11364650D02*
X7659301Y-11364650D01*
X7659301Y-11364650D02*
X7678349Y-11374174D01*
X7754539Y-11574174D02*
X7764063Y-11564650D01*
X7764063Y-11564650D02*
X7783111Y-11536079D01*
X7783111Y-11536079D02*
X7792634Y-11517031D01*
X7792634Y-11517031D02*
X7802158Y-11488460D01*
X7802158Y-11488460D02*
X7811682Y-11440841D01*
X7811682Y-11440841D02*
X7811682Y-11402746D01*
X7811682Y-11402746D02*
X7802158Y-11355127D01*
X7802158Y-11355127D02*
X7792634Y-11326555D01*
X7792634Y-11326555D02*
X7783111Y-11307508D01*
X7783111Y-11307508D02*
X7764063Y-11278936D01*
X7764063Y-11278936D02*
X7754539Y-11269412D01*
D10*
X2751500Y-11708000D02*
X2789000Y-11670500D01*
X2751500Y-11633000D01*
X2714000Y-11670500D01*
X2751500Y-11708000D01*
D12*
X3087872Y-11561984D02*
X3106920Y-11561984D01*
X3106920Y-11561984D02*
X3125967Y-11571508D01*
X3125967Y-11571508D02*
X3135491Y-11581031D01*
X3135491Y-11581031D02*
X3145015Y-11600079D01*
X3145015Y-11600079D02*
X3154539Y-11638174D01*
X3154539Y-11638174D02*
X3154539Y-11685793D01*
X3154539Y-11685793D02*
X3145015Y-11723888D01*
X3145015Y-11723888D02*
X3135491Y-11742936D01*
X3135491Y-11742936D02*
X3125967Y-11752460D01*
X3125967Y-11752460D02*
X3106920Y-11761984D01*
X3106920Y-11761984D02*
X3087872Y-11761984D01*
X3087872Y-11761984D02*
X3068824Y-11752460D01*
X3068824Y-11752460D02*
X3059301Y-11742936D01*
X3059301Y-11742936D02*
X3049777Y-11723888D01*
X3049777Y-11723888D02*
X3040253Y-11685793D01*
X3040253Y-11685793D02*
X3040253Y-11638174D01*
X3040253Y-11638174D02*
X3049777Y-11600079D01*
X3049777Y-11600079D02*
X3059301Y-11581031D01*
X3059301Y-11581031D02*
X3068824Y-11571508D01*
X3068824Y-11571508D02*
X3087872Y-11561984D01*
X3240253Y-11742936D02*
X3249777Y-11752460D01*
X3249777Y-11752460D02*
X3240253Y-11761984D01*
X3240253Y-11761984D02*
X3230729Y-11752460D01*
X3230729Y-11752460D02*
X3240253Y-11742936D01*
X3240253Y-11742936D02*
X3240253Y-11761984D01*
X3316443Y-11561984D02*
X3449777Y-11561984D01*
X3449777Y-11561984D02*
X3364062Y-11761984D01*
X3621205Y-11561984D02*
X3525967Y-11561984D01*
X3525967Y-11561984D02*
X3516443Y-11657222D01*
X3516443Y-11657222D02*
X3525967Y-11647698D01*
X3525967Y-11647698D02*
X3545015Y-11638174D01*
X3545015Y-11638174D02*
X3592634Y-11638174D01*
X3592634Y-11638174D02*
X3611682Y-11647698D01*
X3611682Y-11647698D02*
X3621205Y-11657222D01*
X3621205Y-11657222D02*
X3630729Y-11676269D01*
X3630729Y-11676269D02*
X3630729Y-11723888D01*
X3630729Y-11723888D02*
X3621205Y-11742936D01*
X3621205Y-11742936D02*
X3611682Y-11752460D01*
X3611682Y-11752460D02*
X3592634Y-11761984D01*
X3592634Y-11761984D02*
X3545015Y-11761984D01*
X3545015Y-11761984D02*
X3525967Y-11752460D01*
X3525967Y-11752460D02*
X3516443Y-11742936D01*
X3754539Y-11561984D02*
X3773586Y-11561984D01*
X3773586Y-11561984D02*
X3792634Y-11571508D01*
X3792634Y-11571508D02*
X3802158Y-11581031D01*
X3802158Y-11581031D02*
X3811682Y-11600079D01*
X3811682Y-11600079D02*
X3821205Y-11638174D01*
X3821205Y-11638174D02*
X3821205Y-11685793D01*
X3821205Y-11685793D02*
X3811682Y-11723888D01*
X3811682Y-11723888D02*
X3802158Y-11742936D01*
X3802158Y-11742936D02*
X3792634Y-11752460D01*
X3792634Y-11752460D02*
X3773586Y-11761984D01*
X3773586Y-11761984D02*
X3754539Y-11761984D01*
X3754539Y-11761984D02*
X3735491Y-11752460D01*
X3735491Y-11752460D02*
X3725967Y-11742936D01*
X3725967Y-11742936D02*
X3716443Y-11723888D01*
X3716443Y-11723888D02*
X3706920Y-11685793D01*
X3706920Y-11685793D02*
X3706920Y-11638174D01*
X3706920Y-11638174D02*
X3716443Y-11600079D01*
X3716443Y-11600079D02*
X3725967Y-11581031D01*
X3725967Y-11581031D02*
X3735491Y-11571508D01*
X3735491Y-11571508D02*
X3754539Y-11561984D01*
X3906920Y-11761984D02*
X3906920Y-11628650D01*
X3906920Y-11647698D02*
X3916443Y-11638174D01*
X3916443Y-11638174D02*
X3935491Y-11628650D01*
X3935491Y-11628650D02*
X3964063Y-11628650D01*
X3964063Y-11628650D02*
X3983110Y-11638174D01*
X3983110Y-11638174D02*
X3992634Y-11657222D01*
X3992634Y-11657222D02*
X3992634Y-11761984D01*
X3992634Y-11657222D02*
X4002158Y-11638174D01*
X4002158Y-11638174D02*
X4021205Y-11628650D01*
X4021205Y-11628650D02*
X4049777Y-11628650D01*
X4049777Y-11628650D02*
X4068824Y-11638174D01*
X4068824Y-11638174D02*
X4078348Y-11657222D01*
X4078348Y-11657222D02*
X4078348Y-11761984D01*
X4173586Y-11761984D02*
X4173586Y-11628650D01*
X4173586Y-11647698D02*
X4183110Y-11638174D01*
X4183110Y-11638174D02*
X4202158Y-11628650D01*
X4202158Y-11628650D02*
X4230729Y-11628650D01*
X4230729Y-11628650D02*
X4249777Y-11638174D01*
X4249777Y-11638174D02*
X4259301Y-11657222D01*
X4259301Y-11657222D02*
X4259301Y-11761984D01*
X4259301Y-11657222D02*
X4268825Y-11638174D01*
X4268825Y-11638174D02*
X4287872Y-11628650D01*
X4287872Y-11628650D02*
X4316444Y-11628650D01*
X4316444Y-11628650D02*
X4335491Y-11638174D01*
X4335491Y-11638174D02*
X4345015Y-11657222D01*
X4345015Y-11657222D02*
X4345015Y-11761984D01*
X4735491Y-11552460D02*
X4564063Y-11809603D01*
X4992634Y-11561984D02*
X5011682Y-11561984D01*
X5011682Y-11561984D02*
X5030729Y-11571508D01*
X5030729Y-11571508D02*
X5040253Y-11581031D01*
X5040253Y-11581031D02*
X5049777Y-11600079D01*
X5049777Y-11600079D02*
X5059301Y-11638174D01*
X5059301Y-11638174D02*
X5059301Y-11685793D01*
X5059301Y-11685793D02*
X5049777Y-11723888D01*
X5049777Y-11723888D02*
X5040253Y-11742936D01*
X5040253Y-11742936D02*
X5030729Y-11752460D01*
X5030729Y-11752460D02*
X5011682Y-11761984D01*
X5011682Y-11761984D02*
X4992634Y-11761984D01*
X4992634Y-11761984D02*
X4973587Y-11752460D01*
X4973587Y-11752460D02*
X4964063Y-11742936D01*
X4964063Y-11742936D02*
X4954539Y-11723888D01*
X4954539Y-11723888D02*
X4945015Y-11685793D01*
X4945015Y-11685793D02*
X4945015Y-11638174D01*
X4945015Y-11638174D02*
X4954539Y-11600079D01*
X4954539Y-11600079D02*
X4964063Y-11581031D01*
X4964063Y-11581031D02*
X4973587Y-11571508D01*
X4973587Y-11571508D02*
X4992634Y-11561984D01*
X5145015Y-11742936D02*
X5154539Y-11752460D01*
X5154539Y-11752460D02*
X5145015Y-11761984D01*
X5145015Y-11761984D02*
X5135491Y-11752460D01*
X5135491Y-11752460D02*
X5145015Y-11742936D01*
X5145015Y-11742936D02*
X5145015Y-11761984D01*
X5278348Y-11561984D02*
X5297396Y-11561984D01*
X5297396Y-11561984D02*
X5316444Y-11571508D01*
X5316444Y-11571508D02*
X5325968Y-11581031D01*
X5325968Y-11581031D02*
X5335491Y-11600079D01*
X5335491Y-11600079D02*
X5345015Y-11638174D01*
X5345015Y-11638174D02*
X5345015Y-11685793D01*
X5345015Y-11685793D02*
X5335491Y-11723888D01*
X5335491Y-11723888D02*
X5325968Y-11742936D01*
X5325968Y-11742936D02*
X5316444Y-11752460D01*
X5316444Y-11752460D02*
X5297396Y-11761984D01*
X5297396Y-11761984D02*
X5278348Y-11761984D01*
X5278348Y-11761984D02*
X5259301Y-11752460D01*
X5259301Y-11752460D02*
X5249777Y-11742936D01*
X5249777Y-11742936D02*
X5240253Y-11723888D01*
X5240253Y-11723888D02*
X5230729Y-11685793D01*
X5230729Y-11685793D02*
X5230729Y-11638174D01*
X5230729Y-11638174D02*
X5240253Y-11600079D01*
X5240253Y-11600079D02*
X5249777Y-11581031D01*
X5249777Y-11581031D02*
X5259301Y-11571508D01*
X5259301Y-11571508D02*
X5278348Y-11561984D01*
X5421206Y-11581031D02*
X5430729Y-11571508D01*
X5430729Y-11571508D02*
X5449777Y-11561984D01*
X5449777Y-11561984D02*
X5497396Y-11561984D01*
X5497396Y-11561984D02*
X5516444Y-11571508D01*
X5516444Y-11571508D02*
X5525968Y-11581031D01*
X5525968Y-11581031D02*
X5535491Y-11600079D01*
X5535491Y-11600079D02*
X5535491Y-11619127D01*
X5535491Y-11619127D02*
X5525968Y-11647698D01*
X5525968Y-11647698D02*
X5411682Y-11761984D01*
X5411682Y-11761984D02*
X5535491Y-11761984D01*
X5630729Y-11761984D02*
X5668825Y-11761984D01*
X5668825Y-11761984D02*
X5687872Y-11752460D01*
X5687872Y-11752460D02*
X5697396Y-11742936D01*
X5697396Y-11742936D02*
X5716444Y-11714365D01*
X5716444Y-11714365D02*
X5725967Y-11676269D01*
X5725967Y-11676269D02*
X5725967Y-11600079D01*
X5725967Y-11600079D02*
X5716444Y-11581031D01*
X5716444Y-11581031D02*
X5706920Y-11571508D01*
X5706920Y-11571508D02*
X5687872Y-11561984D01*
X5687872Y-11561984D02*
X5649777Y-11561984D01*
X5649777Y-11561984D02*
X5630729Y-11571508D01*
X5630729Y-11571508D02*
X5621206Y-11581031D01*
X5621206Y-11581031D02*
X5611682Y-11600079D01*
X5611682Y-11600079D02*
X5611682Y-11647698D01*
X5611682Y-11647698D02*
X5621206Y-11666746D01*
X5621206Y-11666746D02*
X5630729Y-11676269D01*
X5630729Y-11676269D02*
X5649777Y-11685793D01*
X5649777Y-11685793D02*
X5687872Y-11685793D01*
X5687872Y-11685793D02*
X5706920Y-11676269D01*
X5706920Y-11676269D02*
X5716444Y-11666746D01*
X5716444Y-11666746D02*
X5725967Y-11647698D01*
X5906920Y-11561984D02*
X5811682Y-11561984D01*
X5811682Y-11561984D02*
X5802158Y-11657222D01*
X5802158Y-11657222D02*
X5811682Y-11647698D01*
X5811682Y-11647698D02*
X5830729Y-11638174D01*
X5830729Y-11638174D02*
X5878348Y-11638174D01*
X5878348Y-11638174D02*
X5897396Y-11647698D01*
X5897396Y-11647698D02*
X5906920Y-11657222D01*
X5906920Y-11657222D02*
X5916444Y-11676269D01*
X5916444Y-11676269D02*
X5916444Y-11723888D01*
X5916444Y-11723888D02*
X5906920Y-11742936D01*
X5906920Y-11742936D02*
X5897396Y-11752460D01*
X5897396Y-11752460D02*
X5878348Y-11761984D01*
X5878348Y-11761984D02*
X5830729Y-11761984D01*
X5830729Y-11761984D02*
X5811682Y-11752460D01*
X5811682Y-11752460D02*
X5802158Y-11742936D01*
X5992634Y-11561984D02*
X5992634Y-11600079D01*
X6068825Y-11561984D02*
X6068825Y-11600079D01*
X6364063Y-11838174D02*
X6354539Y-11828650D01*
X6354539Y-11828650D02*
X6335491Y-11800079D01*
X6335491Y-11800079D02*
X6325968Y-11781031D01*
X6325968Y-11781031D02*
X6316444Y-11752460D01*
X6316444Y-11752460D02*
X6306920Y-11704841D01*
X6306920Y-11704841D02*
X6306920Y-11666746D01*
X6306920Y-11666746D02*
X6316444Y-11619127D01*
X6316444Y-11619127D02*
X6325968Y-11590555D01*
X6325968Y-11590555D02*
X6335491Y-11571508D01*
X6335491Y-11571508D02*
X6354539Y-11542936D01*
X6354539Y-11542936D02*
X6364063Y-11533412D01*
X6421206Y-11561984D02*
X6545015Y-11561984D01*
X6545015Y-11561984D02*
X6478348Y-11638174D01*
X6478348Y-11638174D02*
X6506920Y-11638174D01*
X6506920Y-11638174D02*
X6525968Y-11647698D01*
X6525968Y-11647698D02*
X6535491Y-11657222D01*
X6535491Y-11657222D02*
X6545015Y-11676269D01*
X6545015Y-11676269D02*
X6545015Y-11723888D01*
X6545015Y-11723888D02*
X6535491Y-11742936D01*
X6535491Y-11742936D02*
X6525968Y-11752460D01*
X6525968Y-11752460D02*
X6506920Y-11761984D01*
X6506920Y-11761984D02*
X6449777Y-11761984D01*
X6449777Y-11761984D02*
X6430729Y-11752460D01*
X6430729Y-11752460D02*
X6421206Y-11742936D01*
X6783110Y-11761984D02*
X6783110Y-11561984D01*
X6868825Y-11761984D02*
X6868825Y-11657222D01*
X6868825Y-11657222D02*
X6859301Y-11638174D01*
X6859301Y-11638174D02*
X6840253Y-11628650D01*
X6840253Y-11628650D02*
X6811682Y-11628650D01*
X6811682Y-11628650D02*
X6792634Y-11638174D01*
X6792634Y-11638174D02*
X6783110Y-11647698D01*
X6992634Y-11761984D02*
X6973587Y-11752460D01*
X6973587Y-11752460D02*
X6964063Y-11742936D01*
X6964063Y-11742936D02*
X6954539Y-11723888D01*
X6954539Y-11723888D02*
X6954539Y-11666746D01*
X6954539Y-11666746D02*
X6964063Y-11647698D01*
X6964063Y-11647698D02*
X6973587Y-11638174D01*
X6973587Y-11638174D02*
X6992634Y-11628650D01*
X6992634Y-11628650D02*
X7021206Y-11628650D01*
X7021206Y-11628650D02*
X7040253Y-11638174D01*
X7040253Y-11638174D02*
X7049777Y-11647698D01*
X7049777Y-11647698D02*
X7059301Y-11666746D01*
X7059301Y-11666746D02*
X7059301Y-11723888D01*
X7059301Y-11723888D02*
X7049777Y-11742936D01*
X7049777Y-11742936D02*
X7040253Y-11752460D01*
X7040253Y-11752460D02*
X7021206Y-11761984D01*
X7021206Y-11761984D02*
X6992634Y-11761984D01*
X7173587Y-11761984D02*
X7154539Y-11752460D01*
X7154539Y-11752460D02*
X7145015Y-11733412D01*
X7145015Y-11733412D02*
X7145015Y-11561984D01*
X7325968Y-11752460D02*
X7306920Y-11761984D01*
X7306920Y-11761984D02*
X7268825Y-11761984D01*
X7268825Y-11761984D02*
X7249777Y-11752460D01*
X7249777Y-11752460D02*
X7240253Y-11733412D01*
X7240253Y-11733412D02*
X7240253Y-11657222D01*
X7240253Y-11657222D02*
X7249777Y-11638174D01*
X7249777Y-11638174D02*
X7268825Y-11628650D01*
X7268825Y-11628650D02*
X7306920Y-11628650D01*
X7306920Y-11628650D02*
X7325968Y-11638174D01*
X7325968Y-11638174D02*
X7335491Y-11657222D01*
X7335491Y-11657222D02*
X7335491Y-11676269D01*
X7335491Y-11676269D02*
X7240253Y-11695317D01*
X7411682Y-11752460D02*
X7430730Y-11761984D01*
X7430730Y-11761984D02*
X7468825Y-11761984D01*
X7468825Y-11761984D02*
X7487872Y-11752460D01*
X7487872Y-11752460D02*
X7497396Y-11733412D01*
X7497396Y-11733412D02*
X7497396Y-11723888D01*
X7497396Y-11723888D02*
X7487872Y-11704841D01*
X7487872Y-11704841D02*
X7468825Y-11695317D01*
X7468825Y-11695317D02*
X7440253Y-11695317D01*
X7440253Y-11695317D02*
X7421206Y-11685793D01*
X7421206Y-11685793D02*
X7411682Y-11666746D01*
X7411682Y-11666746D02*
X7411682Y-11657222D01*
X7411682Y-11657222D02*
X7421206Y-11638174D01*
X7421206Y-11638174D02*
X7440253Y-11628650D01*
X7440253Y-11628650D02*
X7468825Y-11628650D01*
X7468825Y-11628650D02*
X7487872Y-11638174D01*
X7564063Y-11838174D02*
X7573587Y-11828650D01*
X7573587Y-11828650D02*
X7592634Y-11800079D01*
X7592634Y-11800079D02*
X7602158Y-11781031D01*
X7602158Y-11781031D02*
X7611682Y-11752460D01*
X7611682Y-11752460D02*
X7621206Y-11704841D01*
X7621206Y-11704841D02*
X7621206Y-11666746D01*
X7621206Y-11666746D02*
X7611682Y-11619127D01*
X7611682Y-11619127D02*
X7602158Y-11590555D01*
X7602158Y-11590555D02*
X7592634Y-11571508D01*
X7592634Y-11571508D02*
X7573587Y-11542936D01*
X7573587Y-11542936D02*
X7564063Y-11533412D01*
D10*
X2709000Y-11894500D02*
X2789000Y-11974500D01*
X2789000Y-11894500D02*
X2709000Y-11974500D01*
X2789000Y-11934500D02*
G75*
G02*
X2709000Y-11934500I-40000J0D01*
G01*
X2709000Y-11934500D02*
G75*
G02*
X2789000Y-11934500I40000J0D01*
G01*
D12*
X3087872Y-11825984D02*
X3106920Y-11825984D01*
X3106920Y-11825984D02*
X3125967Y-11835508D01*
X3125967Y-11835508D02*
X3135491Y-11845031D01*
X3135491Y-11845031D02*
X3145015Y-11864079D01*
X3145015Y-11864079D02*
X3154539Y-11902174D01*
X3154539Y-11902174D02*
X3154539Y-11949793D01*
X3154539Y-11949793D02*
X3145015Y-11987888D01*
X3145015Y-11987888D02*
X3135491Y-12006936D01*
X3135491Y-12006936D02*
X3125967Y-12016460D01*
X3125967Y-12016460D02*
X3106920Y-12025984D01*
X3106920Y-12025984D02*
X3087872Y-12025984D01*
X3087872Y-12025984D02*
X3068824Y-12016460D01*
X3068824Y-12016460D02*
X3059301Y-12006936D01*
X3059301Y-12006936D02*
X3049777Y-11987888D01*
X3049777Y-11987888D02*
X3040253Y-11949793D01*
X3040253Y-11949793D02*
X3040253Y-11902174D01*
X3040253Y-11902174D02*
X3049777Y-11864079D01*
X3049777Y-11864079D02*
X3059301Y-11845031D01*
X3059301Y-11845031D02*
X3068824Y-11835508D01*
X3068824Y-11835508D02*
X3087872Y-11825984D01*
X3240253Y-12006936D02*
X3249777Y-12016460D01*
X3249777Y-12016460D02*
X3240253Y-12025984D01*
X3240253Y-12025984D02*
X3230729Y-12016460D01*
X3230729Y-12016460D02*
X3240253Y-12006936D01*
X3240253Y-12006936D02*
X3240253Y-12025984D01*
X3364062Y-11911698D02*
X3345015Y-11902174D01*
X3345015Y-11902174D02*
X3335491Y-11892650D01*
X3335491Y-11892650D02*
X3325967Y-11873603D01*
X3325967Y-11873603D02*
X3325967Y-11864079D01*
X3325967Y-11864079D02*
X3335491Y-11845031D01*
X3335491Y-11845031D02*
X3345015Y-11835508D01*
X3345015Y-11835508D02*
X3364062Y-11825984D01*
X3364062Y-11825984D02*
X3402158Y-11825984D01*
X3402158Y-11825984D02*
X3421205Y-11835508D01*
X3421205Y-11835508D02*
X3430729Y-11845031D01*
X3430729Y-11845031D02*
X3440253Y-11864079D01*
X3440253Y-11864079D02*
X3440253Y-11873603D01*
X3440253Y-11873603D02*
X3430729Y-11892650D01*
X3430729Y-11892650D02*
X3421205Y-11902174D01*
X3421205Y-11902174D02*
X3402158Y-11911698D01*
X3402158Y-11911698D02*
X3364062Y-11911698D01*
X3364062Y-11911698D02*
X3345015Y-11921222D01*
X3345015Y-11921222D02*
X3335491Y-11930746D01*
X3335491Y-11930746D02*
X3325967Y-11949793D01*
X3325967Y-11949793D02*
X3325967Y-11987888D01*
X3325967Y-11987888D02*
X3335491Y-12006936D01*
X3335491Y-12006936D02*
X3345015Y-12016460D01*
X3345015Y-12016460D02*
X3364062Y-12025984D01*
X3364062Y-12025984D02*
X3402158Y-12025984D01*
X3402158Y-12025984D02*
X3421205Y-12016460D01*
X3421205Y-12016460D02*
X3430729Y-12006936D01*
X3430729Y-12006936D02*
X3440253Y-11987888D01*
X3440253Y-11987888D02*
X3440253Y-11949793D01*
X3440253Y-11949793D02*
X3430729Y-11930746D01*
X3430729Y-11930746D02*
X3421205Y-11921222D01*
X3421205Y-11921222D02*
X3402158Y-11911698D01*
X3564062Y-11825984D02*
X3583110Y-11825984D01*
X3583110Y-11825984D02*
X3602158Y-11835508D01*
X3602158Y-11835508D02*
X3611682Y-11845031D01*
X3611682Y-11845031D02*
X3621205Y-11864079D01*
X3621205Y-11864079D02*
X3630729Y-11902174D01*
X3630729Y-11902174D02*
X3630729Y-11949793D01*
X3630729Y-11949793D02*
X3621205Y-11987888D01*
X3621205Y-11987888D02*
X3611682Y-12006936D01*
X3611682Y-12006936D02*
X3602158Y-12016460D01*
X3602158Y-12016460D02*
X3583110Y-12025984D01*
X3583110Y-12025984D02*
X3564062Y-12025984D01*
X3564062Y-12025984D02*
X3545015Y-12016460D01*
X3545015Y-12016460D02*
X3535491Y-12006936D01*
X3535491Y-12006936D02*
X3525967Y-11987888D01*
X3525967Y-11987888D02*
X3516443Y-11949793D01*
X3516443Y-11949793D02*
X3516443Y-11902174D01*
X3516443Y-11902174D02*
X3525967Y-11864079D01*
X3525967Y-11864079D02*
X3535491Y-11845031D01*
X3535491Y-11845031D02*
X3545015Y-11835508D01*
X3545015Y-11835508D02*
X3564062Y-11825984D01*
X3754539Y-11825984D02*
X3773586Y-11825984D01*
X3773586Y-11825984D02*
X3792634Y-11835508D01*
X3792634Y-11835508D02*
X3802158Y-11845031D01*
X3802158Y-11845031D02*
X3811682Y-11864079D01*
X3811682Y-11864079D02*
X3821205Y-11902174D01*
X3821205Y-11902174D02*
X3821205Y-11949793D01*
X3821205Y-11949793D02*
X3811682Y-11987888D01*
X3811682Y-11987888D02*
X3802158Y-12006936D01*
X3802158Y-12006936D02*
X3792634Y-12016460D01*
X3792634Y-12016460D02*
X3773586Y-12025984D01*
X3773586Y-12025984D02*
X3754539Y-12025984D01*
X3754539Y-12025984D02*
X3735491Y-12016460D01*
X3735491Y-12016460D02*
X3725967Y-12006936D01*
X3725967Y-12006936D02*
X3716443Y-11987888D01*
X3716443Y-11987888D02*
X3706920Y-11949793D01*
X3706920Y-11949793D02*
X3706920Y-11902174D01*
X3706920Y-11902174D02*
X3716443Y-11864079D01*
X3716443Y-11864079D02*
X3725967Y-11845031D01*
X3725967Y-11845031D02*
X3735491Y-11835508D01*
X3735491Y-11835508D02*
X3754539Y-11825984D01*
X3906920Y-12025984D02*
X3906920Y-11892650D01*
X3906920Y-11911698D02*
X3916443Y-11902174D01*
X3916443Y-11902174D02*
X3935491Y-11892650D01*
X3935491Y-11892650D02*
X3964063Y-11892650D01*
X3964063Y-11892650D02*
X3983110Y-11902174D01*
X3983110Y-11902174D02*
X3992634Y-11921222D01*
X3992634Y-11921222D02*
X3992634Y-12025984D01*
X3992634Y-11921222D02*
X4002158Y-11902174D01*
X4002158Y-11902174D02*
X4021205Y-11892650D01*
X4021205Y-11892650D02*
X4049777Y-11892650D01*
X4049777Y-11892650D02*
X4068824Y-11902174D01*
X4068824Y-11902174D02*
X4078348Y-11921222D01*
X4078348Y-11921222D02*
X4078348Y-12025984D01*
X4173586Y-12025984D02*
X4173586Y-11892650D01*
X4173586Y-11911698D02*
X4183110Y-11902174D01*
X4183110Y-11902174D02*
X4202158Y-11892650D01*
X4202158Y-11892650D02*
X4230729Y-11892650D01*
X4230729Y-11892650D02*
X4249777Y-11902174D01*
X4249777Y-11902174D02*
X4259301Y-11921222D01*
X4259301Y-11921222D02*
X4259301Y-12025984D01*
X4259301Y-11921222D02*
X4268825Y-11902174D01*
X4268825Y-11902174D02*
X4287872Y-11892650D01*
X4287872Y-11892650D02*
X4316444Y-11892650D01*
X4316444Y-11892650D02*
X4335491Y-11902174D01*
X4335491Y-11902174D02*
X4345015Y-11921222D01*
X4345015Y-11921222D02*
X4345015Y-12025984D01*
X4735491Y-11816460D02*
X4564063Y-12073603D01*
X4992634Y-11825984D02*
X5011682Y-11825984D01*
X5011682Y-11825984D02*
X5030729Y-11835508D01*
X5030729Y-11835508D02*
X5040253Y-11845031D01*
X5040253Y-11845031D02*
X5049777Y-11864079D01*
X5049777Y-11864079D02*
X5059301Y-11902174D01*
X5059301Y-11902174D02*
X5059301Y-11949793D01*
X5059301Y-11949793D02*
X5049777Y-11987888D01*
X5049777Y-11987888D02*
X5040253Y-12006936D01*
X5040253Y-12006936D02*
X5030729Y-12016460D01*
X5030729Y-12016460D02*
X5011682Y-12025984D01*
X5011682Y-12025984D02*
X4992634Y-12025984D01*
X4992634Y-12025984D02*
X4973587Y-12016460D01*
X4973587Y-12016460D02*
X4964063Y-12006936D01*
X4964063Y-12006936D02*
X4954539Y-11987888D01*
X4954539Y-11987888D02*
X4945015Y-11949793D01*
X4945015Y-11949793D02*
X4945015Y-11902174D01*
X4945015Y-11902174D02*
X4954539Y-11864079D01*
X4954539Y-11864079D02*
X4964063Y-11845031D01*
X4964063Y-11845031D02*
X4973587Y-11835508D01*
X4973587Y-11835508D02*
X4992634Y-11825984D01*
X5145015Y-12006936D02*
X5154539Y-12016460D01*
X5154539Y-12016460D02*
X5145015Y-12025984D01*
X5145015Y-12025984D02*
X5135491Y-12016460D01*
X5135491Y-12016460D02*
X5145015Y-12006936D01*
X5145015Y-12006936D02*
X5145015Y-12025984D01*
X5278348Y-11825984D02*
X5297396Y-11825984D01*
X5297396Y-11825984D02*
X5316444Y-11835508D01*
X5316444Y-11835508D02*
X5325968Y-11845031D01*
X5325968Y-11845031D02*
X5335491Y-11864079D01*
X5335491Y-11864079D02*
X5345015Y-11902174D01*
X5345015Y-11902174D02*
X5345015Y-11949793D01*
X5345015Y-11949793D02*
X5335491Y-11987888D01*
X5335491Y-11987888D02*
X5325968Y-12006936D01*
X5325968Y-12006936D02*
X5316444Y-12016460D01*
X5316444Y-12016460D02*
X5297396Y-12025984D01*
X5297396Y-12025984D02*
X5278348Y-12025984D01*
X5278348Y-12025984D02*
X5259301Y-12016460D01*
X5259301Y-12016460D02*
X5249777Y-12006936D01*
X5249777Y-12006936D02*
X5240253Y-11987888D01*
X5240253Y-11987888D02*
X5230729Y-11949793D01*
X5230729Y-11949793D02*
X5230729Y-11902174D01*
X5230729Y-11902174D02*
X5240253Y-11864079D01*
X5240253Y-11864079D02*
X5249777Y-11845031D01*
X5249777Y-11845031D02*
X5259301Y-11835508D01*
X5259301Y-11835508D02*
X5278348Y-11825984D01*
X5411682Y-11825984D02*
X5535491Y-11825984D01*
X5535491Y-11825984D02*
X5468825Y-11902174D01*
X5468825Y-11902174D02*
X5497396Y-11902174D01*
X5497396Y-11902174D02*
X5516444Y-11911698D01*
X5516444Y-11911698D02*
X5525968Y-11921222D01*
X5525968Y-11921222D02*
X5535491Y-11940269D01*
X5535491Y-11940269D02*
X5535491Y-11987888D01*
X5535491Y-11987888D02*
X5525968Y-12006936D01*
X5525968Y-12006936D02*
X5516444Y-12016460D01*
X5516444Y-12016460D02*
X5497396Y-12025984D01*
X5497396Y-12025984D02*
X5440253Y-12025984D01*
X5440253Y-12025984D02*
X5421206Y-12016460D01*
X5421206Y-12016460D02*
X5411682Y-12006936D01*
X5725967Y-12025984D02*
X5611682Y-12025984D01*
X5668825Y-12025984D02*
X5668825Y-11825984D01*
X5668825Y-11825984D02*
X5649777Y-11854555D01*
X5649777Y-11854555D02*
X5630729Y-11873603D01*
X5630729Y-11873603D02*
X5611682Y-11883127D01*
X5906920Y-11825984D02*
X5811682Y-11825984D01*
X5811682Y-11825984D02*
X5802158Y-11921222D01*
X5802158Y-11921222D02*
X5811682Y-11911698D01*
X5811682Y-11911698D02*
X5830729Y-11902174D01*
X5830729Y-11902174D02*
X5878348Y-11902174D01*
X5878348Y-11902174D02*
X5897396Y-11911698D01*
X5897396Y-11911698D02*
X5906920Y-11921222D01*
X5906920Y-11921222D02*
X5916444Y-11940269D01*
X5916444Y-11940269D02*
X5916444Y-11987888D01*
X5916444Y-11987888D02*
X5906920Y-12006936D01*
X5906920Y-12006936D02*
X5897396Y-12016460D01*
X5897396Y-12016460D02*
X5878348Y-12025984D01*
X5878348Y-12025984D02*
X5830729Y-12025984D01*
X5830729Y-12025984D02*
X5811682Y-12016460D01*
X5811682Y-12016460D02*
X5802158Y-12006936D01*
X5992634Y-11825984D02*
X5992634Y-11864079D01*
X6068825Y-11825984D02*
X6068825Y-11864079D01*
X6364063Y-12102174D02*
X6354539Y-12092650D01*
X6354539Y-12092650D02*
X6335491Y-12064079D01*
X6335491Y-12064079D02*
X6325968Y-12045031D01*
X6325968Y-12045031D02*
X6316444Y-12016460D01*
X6316444Y-12016460D02*
X6306920Y-11968841D01*
X6306920Y-11968841D02*
X6306920Y-11930746D01*
X6306920Y-11930746D02*
X6316444Y-11883127D01*
X6316444Y-11883127D02*
X6325968Y-11854555D01*
X6325968Y-11854555D02*
X6335491Y-11835508D01*
X6335491Y-11835508D02*
X6354539Y-11806936D01*
X6354539Y-11806936D02*
X6364063Y-11797412D01*
X6545015Y-12025984D02*
X6430729Y-12025984D01*
X6487872Y-12025984D02*
X6487872Y-11825984D01*
X6487872Y-11825984D02*
X6468825Y-11854555D01*
X6468825Y-11854555D02*
X6449777Y-11873603D01*
X6449777Y-11873603D02*
X6430729Y-11883127D01*
X6716444Y-11825984D02*
X6678348Y-11825984D01*
X6678348Y-11825984D02*
X6659301Y-11835508D01*
X6659301Y-11835508D02*
X6649777Y-11845031D01*
X6649777Y-11845031D02*
X6630729Y-11873603D01*
X6630729Y-11873603D02*
X6621206Y-11911698D01*
X6621206Y-11911698D02*
X6621206Y-11987888D01*
X6621206Y-11987888D02*
X6630729Y-12006936D01*
X6630729Y-12006936D02*
X6640253Y-12016460D01*
X6640253Y-12016460D02*
X6659301Y-12025984D01*
X6659301Y-12025984D02*
X6697396Y-12025984D01*
X6697396Y-12025984D02*
X6716444Y-12016460D01*
X6716444Y-12016460D02*
X6725968Y-12006936D01*
X6725968Y-12006936D02*
X6735491Y-11987888D01*
X6735491Y-11987888D02*
X6735491Y-11940269D01*
X6735491Y-11940269D02*
X6725968Y-11921222D01*
X6725968Y-11921222D02*
X6716444Y-11911698D01*
X6716444Y-11911698D02*
X6697396Y-11902174D01*
X6697396Y-11902174D02*
X6659301Y-11902174D01*
X6659301Y-11902174D02*
X6640253Y-11911698D01*
X6640253Y-11911698D02*
X6630729Y-11921222D01*
X6630729Y-11921222D02*
X6621206Y-11940269D01*
X6859301Y-11825984D02*
X6878349Y-11825984D01*
X6878349Y-11825984D02*
X6897396Y-11835508D01*
X6897396Y-11835508D02*
X6906920Y-11845031D01*
X6906920Y-11845031D02*
X6916444Y-11864079D01*
X6916444Y-11864079D02*
X6925968Y-11902174D01*
X6925968Y-11902174D02*
X6925968Y-11949793D01*
X6925968Y-11949793D02*
X6916444Y-11987888D01*
X6916444Y-11987888D02*
X6906920Y-12006936D01*
X6906920Y-12006936D02*
X6897396Y-12016460D01*
X6897396Y-12016460D02*
X6878349Y-12025984D01*
X6878349Y-12025984D02*
X6859301Y-12025984D01*
X6859301Y-12025984D02*
X6840253Y-12016460D01*
X6840253Y-12016460D02*
X6830729Y-12006936D01*
X6830729Y-12006936D02*
X6821206Y-11987888D01*
X6821206Y-11987888D02*
X6811682Y-11949793D01*
X6811682Y-11949793D02*
X6811682Y-11902174D01*
X6811682Y-11902174D02*
X6821206Y-11864079D01*
X6821206Y-11864079D02*
X6830729Y-11845031D01*
X6830729Y-11845031D02*
X6840253Y-11835508D01*
X6840253Y-11835508D02*
X6859301Y-11825984D01*
X7164063Y-12025984D02*
X7164063Y-11825984D01*
X7249777Y-12025984D02*
X7249777Y-11921222D01*
X7249777Y-11921222D02*
X7240253Y-11902174D01*
X7240253Y-11902174D02*
X7221206Y-11892650D01*
X7221206Y-11892650D02*
X7192634Y-11892650D01*
X7192634Y-11892650D02*
X7173587Y-11902174D01*
X7173587Y-11902174D02*
X7164063Y-11911698D01*
X7373587Y-12025984D02*
X7354539Y-12016460D01*
X7354539Y-12016460D02*
X7345015Y-12006936D01*
X7345015Y-12006936D02*
X7335491Y-11987888D01*
X7335491Y-11987888D02*
X7335491Y-11930746D01*
X7335491Y-11930746D02*
X7345015Y-11911698D01*
X7345015Y-11911698D02*
X7354539Y-11902174D01*
X7354539Y-11902174D02*
X7373587Y-11892650D01*
X7373587Y-11892650D02*
X7402158Y-11892650D01*
X7402158Y-11892650D02*
X7421206Y-11902174D01*
X7421206Y-11902174D02*
X7430730Y-11911698D01*
X7430730Y-11911698D02*
X7440253Y-11930746D01*
X7440253Y-11930746D02*
X7440253Y-11987888D01*
X7440253Y-11987888D02*
X7430730Y-12006936D01*
X7430730Y-12006936D02*
X7421206Y-12016460D01*
X7421206Y-12016460D02*
X7402158Y-12025984D01*
X7402158Y-12025984D02*
X7373587Y-12025984D01*
X7554539Y-12025984D02*
X7535491Y-12016460D01*
X7535491Y-12016460D02*
X7525968Y-11997412D01*
X7525968Y-11997412D02*
X7525968Y-11825984D01*
X7706920Y-12016460D02*
X7687872Y-12025984D01*
X7687872Y-12025984D02*
X7649777Y-12025984D01*
X7649777Y-12025984D02*
X7630730Y-12016460D01*
X7630730Y-12016460D02*
X7621206Y-11997412D01*
X7621206Y-11997412D02*
X7621206Y-11921222D01*
X7621206Y-11921222D02*
X7630730Y-11902174D01*
X7630730Y-11902174D02*
X7649777Y-11892650D01*
X7649777Y-11892650D02*
X7687872Y-11892650D01*
X7687872Y-11892650D02*
X7706920Y-11902174D01*
X7706920Y-11902174D02*
X7716444Y-11921222D01*
X7716444Y-11921222D02*
X7716444Y-11940269D01*
X7716444Y-11940269D02*
X7621206Y-11959317D01*
X7792634Y-12016460D02*
X7811682Y-12025984D01*
X7811682Y-12025984D02*
X7849777Y-12025984D01*
X7849777Y-12025984D02*
X7868825Y-12016460D01*
X7868825Y-12016460D02*
X7878349Y-11997412D01*
X7878349Y-11997412D02*
X7878349Y-11987888D01*
X7878349Y-11987888D02*
X7868825Y-11968841D01*
X7868825Y-11968841D02*
X7849777Y-11959317D01*
X7849777Y-11959317D02*
X7821206Y-11959317D01*
X7821206Y-11959317D02*
X7802158Y-11949793D01*
X7802158Y-11949793D02*
X7792634Y-11930746D01*
X7792634Y-11930746D02*
X7792634Y-11921222D01*
X7792634Y-11921222D02*
X7802158Y-11902174D01*
X7802158Y-11902174D02*
X7821206Y-11892650D01*
X7821206Y-11892650D02*
X7849777Y-11892650D01*
X7849777Y-11892650D02*
X7868825Y-11902174D01*
X8116444Y-11949793D02*
X8268825Y-11949793D01*
X8192634Y-12025984D02*
X8192634Y-11873603D01*
X8506920Y-11845031D02*
X8516444Y-11835508D01*
X8516444Y-11835508D02*
X8535492Y-11825984D01*
X8535492Y-11825984D02*
X8583111Y-11825984D01*
X8583111Y-11825984D02*
X8602158Y-11835508D01*
X8602158Y-11835508D02*
X8611682Y-11845031D01*
X8611682Y-11845031D02*
X8621206Y-11864079D01*
X8621206Y-11864079D02*
X8621206Y-11883127D01*
X8621206Y-11883127D02*
X8611682Y-11911698D01*
X8611682Y-11911698D02*
X8497396Y-12025984D01*
X8497396Y-12025984D02*
X8621206Y-12025984D01*
X8849777Y-12016460D02*
X8868825Y-12025984D01*
X8868825Y-12025984D02*
X8906920Y-12025984D01*
X8906920Y-12025984D02*
X8925968Y-12016460D01*
X8925968Y-12016460D02*
X8935492Y-11997412D01*
X8935492Y-11997412D02*
X8935492Y-11987888D01*
X8935492Y-11987888D02*
X8925968Y-11968841D01*
X8925968Y-11968841D02*
X8906920Y-11959317D01*
X8906920Y-11959317D02*
X8878349Y-11959317D01*
X8878349Y-11959317D02*
X8859301Y-11949793D01*
X8859301Y-11949793D02*
X8849777Y-11930746D01*
X8849777Y-11930746D02*
X8849777Y-11921222D01*
X8849777Y-11921222D02*
X8859301Y-11902174D01*
X8859301Y-11902174D02*
X8878349Y-11892650D01*
X8878349Y-11892650D02*
X8906920Y-11892650D01*
X8906920Y-11892650D02*
X8925968Y-11902174D01*
X9049777Y-12025984D02*
X9030730Y-12016460D01*
X9030730Y-12016460D02*
X9021206Y-11997412D01*
X9021206Y-11997412D02*
X9021206Y-11825984D01*
X9154539Y-12025984D02*
X9135492Y-12016460D01*
X9135492Y-12016460D02*
X9125968Y-12006936D01*
X9125968Y-12006936D02*
X9116444Y-11987888D01*
X9116444Y-11987888D02*
X9116444Y-11930746D01*
X9116444Y-11930746D02*
X9125968Y-11911698D01*
X9125968Y-11911698D02*
X9135492Y-11902174D01*
X9135492Y-11902174D02*
X9154539Y-11892650D01*
X9154539Y-11892650D02*
X9183111Y-11892650D01*
X9183111Y-11892650D02*
X9202158Y-11902174D01*
X9202158Y-11902174D02*
X9211682Y-11911698D01*
X9211682Y-11911698D02*
X9221206Y-11930746D01*
X9221206Y-11930746D02*
X9221206Y-11987888D01*
X9221206Y-11987888D02*
X9211682Y-12006936D01*
X9211682Y-12006936D02*
X9202158Y-12016460D01*
X9202158Y-12016460D02*
X9183111Y-12025984D01*
X9183111Y-12025984D02*
X9154539Y-12025984D01*
X9278349Y-11892650D02*
X9354539Y-11892650D01*
X9306920Y-11825984D02*
X9306920Y-11997412D01*
X9306920Y-11997412D02*
X9316444Y-12016460D01*
X9316444Y-12016460D02*
X9335492Y-12025984D01*
X9335492Y-12025984D02*
X9354539Y-12025984D01*
X9411682Y-12016460D02*
X9430730Y-12025984D01*
X9430730Y-12025984D02*
X9468825Y-12025984D01*
X9468825Y-12025984D02*
X9487873Y-12016460D01*
X9487873Y-12016460D02*
X9497397Y-11997412D01*
X9497397Y-11997412D02*
X9497397Y-11987888D01*
X9497397Y-11987888D02*
X9487873Y-11968841D01*
X9487873Y-11968841D02*
X9468825Y-11959317D01*
X9468825Y-11959317D02*
X9440254Y-11959317D01*
X9440254Y-11959317D02*
X9421206Y-11949793D01*
X9421206Y-11949793D02*
X9411682Y-11930746D01*
X9411682Y-11930746D02*
X9411682Y-11921222D01*
X9411682Y-11921222D02*
X9421206Y-11902174D01*
X9421206Y-11902174D02*
X9440254Y-11892650D01*
X9440254Y-11892650D02*
X9468825Y-11892650D01*
X9468825Y-11892650D02*
X9487873Y-11902174D01*
X9564063Y-12102174D02*
X9573587Y-12092650D01*
X9573587Y-12092650D02*
X9592635Y-12064079D01*
X9592635Y-12064079D02*
X9602158Y-12045031D01*
X9602158Y-12045031D02*
X9611682Y-12016460D01*
X9611682Y-12016460D02*
X9621206Y-11968841D01*
X9621206Y-11968841D02*
X9621206Y-11930746D01*
X9621206Y-11930746D02*
X9611682Y-11883127D01*
X9611682Y-11883127D02*
X9602158Y-11854555D01*
X9602158Y-11854555D02*
X9592635Y-11835508D01*
X9592635Y-11835508D02*
X9573587Y-11806936D01*
X9573587Y-11806936D02*
X9564063Y-11797412D01*
D10*
X2689000Y-12148500D02*
X2789000Y-12248500D01*
X2789000Y-12148500D02*
X2689000Y-12248500D01*
X2739000Y-12148500D02*
X2739000Y-12248500D01*
X2689000Y-12198500D02*
X2789000Y-12198500D01*
D12*
X3154539Y-12289984D02*
X3040253Y-12289984D01*
X3097396Y-12289984D02*
X3097396Y-12089984D01*
X3097396Y-12089984D02*
X3078348Y-12118555D01*
X3078348Y-12118555D02*
X3059301Y-12137603D01*
X3059301Y-12137603D02*
X3040253Y-12147127D01*
X3240253Y-12270936D02*
X3249777Y-12280460D01*
X3249777Y-12280460D02*
X3240253Y-12289984D01*
X3240253Y-12289984D02*
X3230729Y-12280460D01*
X3230729Y-12280460D02*
X3240253Y-12270936D01*
X3240253Y-12270936D02*
X3240253Y-12289984D01*
X3373586Y-12089984D02*
X3392634Y-12089984D01*
X3392634Y-12089984D02*
X3411682Y-12099508D01*
X3411682Y-12099508D02*
X3421205Y-12109031D01*
X3421205Y-12109031D02*
X3430729Y-12128079D01*
X3430729Y-12128079D02*
X3440253Y-12166174D01*
X3440253Y-12166174D02*
X3440253Y-12213793D01*
X3440253Y-12213793D02*
X3430729Y-12251888D01*
X3430729Y-12251888D02*
X3421205Y-12270936D01*
X3421205Y-12270936D02*
X3411682Y-12280460D01*
X3411682Y-12280460D02*
X3392634Y-12289984D01*
X3392634Y-12289984D02*
X3373586Y-12289984D01*
X3373586Y-12289984D02*
X3354539Y-12280460D01*
X3354539Y-12280460D02*
X3345015Y-12270936D01*
X3345015Y-12270936D02*
X3335491Y-12251888D01*
X3335491Y-12251888D02*
X3325967Y-12213793D01*
X3325967Y-12213793D02*
X3325967Y-12166174D01*
X3325967Y-12166174D02*
X3335491Y-12128079D01*
X3335491Y-12128079D02*
X3345015Y-12109031D01*
X3345015Y-12109031D02*
X3354539Y-12099508D01*
X3354539Y-12099508D02*
X3373586Y-12089984D01*
X3564062Y-12089984D02*
X3583110Y-12089984D01*
X3583110Y-12089984D02*
X3602158Y-12099508D01*
X3602158Y-12099508D02*
X3611682Y-12109031D01*
X3611682Y-12109031D02*
X3621205Y-12128079D01*
X3621205Y-12128079D02*
X3630729Y-12166174D01*
X3630729Y-12166174D02*
X3630729Y-12213793D01*
X3630729Y-12213793D02*
X3621205Y-12251888D01*
X3621205Y-12251888D02*
X3611682Y-12270936D01*
X3611682Y-12270936D02*
X3602158Y-12280460D01*
X3602158Y-12280460D02*
X3583110Y-12289984D01*
X3583110Y-12289984D02*
X3564062Y-12289984D01*
X3564062Y-12289984D02*
X3545015Y-12280460D01*
X3545015Y-12280460D02*
X3535491Y-12270936D01*
X3535491Y-12270936D02*
X3525967Y-12251888D01*
X3525967Y-12251888D02*
X3516443Y-12213793D01*
X3516443Y-12213793D02*
X3516443Y-12166174D01*
X3516443Y-12166174D02*
X3525967Y-12128079D01*
X3525967Y-12128079D02*
X3535491Y-12109031D01*
X3535491Y-12109031D02*
X3545015Y-12099508D01*
X3545015Y-12099508D02*
X3564062Y-12089984D01*
X3754539Y-12089984D02*
X3773586Y-12089984D01*
X3773586Y-12089984D02*
X3792634Y-12099508D01*
X3792634Y-12099508D02*
X3802158Y-12109031D01*
X3802158Y-12109031D02*
X3811682Y-12128079D01*
X3811682Y-12128079D02*
X3821205Y-12166174D01*
X3821205Y-12166174D02*
X3821205Y-12213793D01*
X3821205Y-12213793D02*
X3811682Y-12251888D01*
X3811682Y-12251888D02*
X3802158Y-12270936D01*
X3802158Y-12270936D02*
X3792634Y-12280460D01*
X3792634Y-12280460D02*
X3773586Y-12289984D01*
X3773586Y-12289984D02*
X3754539Y-12289984D01*
X3754539Y-12289984D02*
X3735491Y-12280460D01*
X3735491Y-12280460D02*
X3725967Y-12270936D01*
X3725967Y-12270936D02*
X3716443Y-12251888D01*
X3716443Y-12251888D02*
X3706920Y-12213793D01*
X3706920Y-12213793D02*
X3706920Y-12166174D01*
X3706920Y-12166174D02*
X3716443Y-12128079D01*
X3716443Y-12128079D02*
X3725967Y-12109031D01*
X3725967Y-12109031D02*
X3735491Y-12099508D01*
X3735491Y-12099508D02*
X3754539Y-12089984D01*
X3906920Y-12289984D02*
X3906920Y-12156650D01*
X3906920Y-12175698D02*
X3916443Y-12166174D01*
X3916443Y-12166174D02*
X3935491Y-12156650D01*
X3935491Y-12156650D02*
X3964063Y-12156650D01*
X3964063Y-12156650D02*
X3983110Y-12166174D01*
X3983110Y-12166174D02*
X3992634Y-12185222D01*
X3992634Y-12185222D02*
X3992634Y-12289984D01*
X3992634Y-12185222D02*
X4002158Y-12166174D01*
X4002158Y-12166174D02*
X4021205Y-12156650D01*
X4021205Y-12156650D02*
X4049777Y-12156650D01*
X4049777Y-12156650D02*
X4068824Y-12166174D01*
X4068824Y-12166174D02*
X4078348Y-12185222D01*
X4078348Y-12185222D02*
X4078348Y-12289984D01*
X4173586Y-12289984D02*
X4173586Y-12156650D01*
X4173586Y-12175698D02*
X4183110Y-12166174D01*
X4183110Y-12166174D02*
X4202158Y-12156650D01*
X4202158Y-12156650D02*
X4230729Y-12156650D01*
X4230729Y-12156650D02*
X4249777Y-12166174D01*
X4249777Y-12166174D02*
X4259301Y-12185222D01*
X4259301Y-12185222D02*
X4259301Y-12289984D01*
X4259301Y-12185222D02*
X4268825Y-12166174D01*
X4268825Y-12166174D02*
X4287872Y-12156650D01*
X4287872Y-12156650D02*
X4316444Y-12156650D01*
X4316444Y-12156650D02*
X4335491Y-12166174D01*
X4335491Y-12166174D02*
X4345015Y-12185222D01*
X4345015Y-12185222D02*
X4345015Y-12289984D01*
X4735491Y-12080460D02*
X4564063Y-12337603D01*
X4992634Y-12089984D02*
X5011682Y-12089984D01*
X5011682Y-12089984D02*
X5030729Y-12099508D01*
X5030729Y-12099508D02*
X5040253Y-12109031D01*
X5040253Y-12109031D02*
X5049777Y-12128079D01*
X5049777Y-12128079D02*
X5059301Y-12166174D01*
X5059301Y-12166174D02*
X5059301Y-12213793D01*
X5059301Y-12213793D02*
X5049777Y-12251888D01*
X5049777Y-12251888D02*
X5040253Y-12270936D01*
X5040253Y-12270936D02*
X5030729Y-12280460D01*
X5030729Y-12280460D02*
X5011682Y-12289984D01*
X5011682Y-12289984D02*
X4992634Y-12289984D01*
X4992634Y-12289984D02*
X4973587Y-12280460D01*
X4973587Y-12280460D02*
X4964063Y-12270936D01*
X4964063Y-12270936D02*
X4954539Y-12251888D01*
X4954539Y-12251888D02*
X4945015Y-12213793D01*
X4945015Y-12213793D02*
X4945015Y-12166174D01*
X4945015Y-12166174D02*
X4954539Y-12128079D01*
X4954539Y-12128079D02*
X4964063Y-12109031D01*
X4964063Y-12109031D02*
X4973587Y-12099508D01*
X4973587Y-12099508D02*
X4992634Y-12089984D01*
X5145015Y-12270936D02*
X5154539Y-12280460D01*
X5154539Y-12280460D02*
X5145015Y-12289984D01*
X5145015Y-12289984D02*
X5135491Y-12280460D01*
X5135491Y-12280460D02*
X5145015Y-12270936D01*
X5145015Y-12270936D02*
X5145015Y-12289984D01*
X5278348Y-12089984D02*
X5297396Y-12089984D01*
X5297396Y-12089984D02*
X5316444Y-12099508D01*
X5316444Y-12099508D02*
X5325968Y-12109031D01*
X5325968Y-12109031D02*
X5335491Y-12128079D01*
X5335491Y-12128079D02*
X5345015Y-12166174D01*
X5345015Y-12166174D02*
X5345015Y-12213793D01*
X5345015Y-12213793D02*
X5335491Y-12251888D01*
X5335491Y-12251888D02*
X5325968Y-12270936D01*
X5325968Y-12270936D02*
X5316444Y-12280460D01*
X5316444Y-12280460D02*
X5297396Y-12289984D01*
X5297396Y-12289984D02*
X5278348Y-12289984D01*
X5278348Y-12289984D02*
X5259301Y-12280460D01*
X5259301Y-12280460D02*
X5249777Y-12270936D01*
X5249777Y-12270936D02*
X5240253Y-12251888D01*
X5240253Y-12251888D02*
X5230729Y-12213793D01*
X5230729Y-12213793D02*
X5230729Y-12166174D01*
X5230729Y-12166174D02*
X5240253Y-12128079D01*
X5240253Y-12128079D02*
X5249777Y-12109031D01*
X5249777Y-12109031D02*
X5259301Y-12099508D01*
X5259301Y-12099508D02*
X5278348Y-12089984D01*
X5411682Y-12089984D02*
X5535491Y-12089984D01*
X5535491Y-12089984D02*
X5468825Y-12166174D01*
X5468825Y-12166174D02*
X5497396Y-12166174D01*
X5497396Y-12166174D02*
X5516444Y-12175698D01*
X5516444Y-12175698D02*
X5525968Y-12185222D01*
X5525968Y-12185222D02*
X5535491Y-12204269D01*
X5535491Y-12204269D02*
X5535491Y-12251888D01*
X5535491Y-12251888D02*
X5525968Y-12270936D01*
X5525968Y-12270936D02*
X5516444Y-12280460D01*
X5516444Y-12280460D02*
X5497396Y-12289984D01*
X5497396Y-12289984D02*
X5440253Y-12289984D01*
X5440253Y-12289984D02*
X5421206Y-12280460D01*
X5421206Y-12280460D02*
X5411682Y-12270936D01*
X5630729Y-12289984D02*
X5668825Y-12289984D01*
X5668825Y-12289984D02*
X5687872Y-12280460D01*
X5687872Y-12280460D02*
X5697396Y-12270936D01*
X5697396Y-12270936D02*
X5716444Y-12242365D01*
X5716444Y-12242365D02*
X5725967Y-12204269D01*
X5725967Y-12204269D02*
X5725967Y-12128079D01*
X5725967Y-12128079D02*
X5716444Y-12109031D01*
X5716444Y-12109031D02*
X5706920Y-12099508D01*
X5706920Y-12099508D02*
X5687872Y-12089984D01*
X5687872Y-12089984D02*
X5649777Y-12089984D01*
X5649777Y-12089984D02*
X5630729Y-12099508D01*
X5630729Y-12099508D02*
X5621206Y-12109031D01*
X5621206Y-12109031D02*
X5611682Y-12128079D01*
X5611682Y-12128079D02*
X5611682Y-12175698D01*
X5611682Y-12175698D02*
X5621206Y-12194746D01*
X5621206Y-12194746D02*
X5630729Y-12204269D01*
X5630729Y-12204269D02*
X5649777Y-12213793D01*
X5649777Y-12213793D02*
X5687872Y-12213793D01*
X5687872Y-12213793D02*
X5706920Y-12204269D01*
X5706920Y-12204269D02*
X5716444Y-12194746D01*
X5716444Y-12194746D02*
X5725967Y-12175698D01*
X5897396Y-12156650D02*
X5897396Y-12289984D01*
X5849777Y-12080460D02*
X5802158Y-12223317D01*
X5802158Y-12223317D02*
X5925967Y-12223317D01*
X5992634Y-12089984D02*
X5992634Y-12128079D01*
X6068825Y-12089984D02*
X6068825Y-12128079D01*
X6364063Y-12366174D02*
X6354539Y-12356650D01*
X6354539Y-12356650D02*
X6335491Y-12328079D01*
X6335491Y-12328079D02*
X6325968Y-12309031D01*
X6325968Y-12309031D02*
X6316444Y-12280460D01*
X6316444Y-12280460D02*
X6306920Y-12232841D01*
X6306920Y-12232841D02*
X6306920Y-12194746D01*
X6306920Y-12194746D02*
X6316444Y-12147127D01*
X6316444Y-12147127D02*
X6325968Y-12118555D01*
X6325968Y-12118555D02*
X6335491Y-12099508D01*
X6335491Y-12099508D02*
X6354539Y-12070936D01*
X6354539Y-12070936D02*
X6364063Y-12061412D01*
X6545015Y-12289984D02*
X6430729Y-12289984D01*
X6487872Y-12289984D02*
X6487872Y-12089984D01*
X6487872Y-12089984D02*
X6468825Y-12118555D01*
X6468825Y-12118555D02*
X6449777Y-12137603D01*
X6449777Y-12137603D02*
X6430729Y-12147127D01*
X6659301Y-12175698D02*
X6640253Y-12166174D01*
X6640253Y-12166174D02*
X6630729Y-12156650D01*
X6630729Y-12156650D02*
X6621206Y-12137603D01*
X6621206Y-12137603D02*
X6621206Y-12128079D01*
X6621206Y-12128079D02*
X6630729Y-12109031D01*
X6630729Y-12109031D02*
X6640253Y-12099508D01*
X6640253Y-12099508D02*
X6659301Y-12089984D01*
X6659301Y-12089984D02*
X6697396Y-12089984D01*
X6697396Y-12089984D02*
X6716444Y-12099508D01*
X6716444Y-12099508D02*
X6725968Y-12109031D01*
X6725968Y-12109031D02*
X6735491Y-12128079D01*
X6735491Y-12128079D02*
X6735491Y-12137603D01*
X6735491Y-12137603D02*
X6725968Y-12156650D01*
X6725968Y-12156650D02*
X6716444Y-12166174D01*
X6716444Y-12166174D02*
X6697396Y-12175698D01*
X6697396Y-12175698D02*
X6659301Y-12175698D01*
X6659301Y-12175698D02*
X6640253Y-12185222D01*
X6640253Y-12185222D02*
X6630729Y-12194746D01*
X6630729Y-12194746D02*
X6621206Y-12213793D01*
X6621206Y-12213793D02*
X6621206Y-12251888D01*
X6621206Y-12251888D02*
X6630729Y-12270936D01*
X6630729Y-12270936D02*
X6640253Y-12280460D01*
X6640253Y-12280460D02*
X6659301Y-12289984D01*
X6659301Y-12289984D02*
X6697396Y-12289984D01*
X6697396Y-12289984D02*
X6716444Y-12280460D01*
X6716444Y-12280460D02*
X6725968Y-12270936D01*
X6725968Y-12270936D02*
X6735491Y-12251888D01*
X6735491Y-12251888D02*
X6735491Y-12213793D01*
X6735491Y-12213793D02*
X6725968Y-12194746D01*
X6725968Y-12194746D02*
X6716444Y-12185222D01*
X6716444Y-12185222D02*
X6697396Y-12175698D01*
X6973587Y-12289984D02*
X6973587Y-12089984D01*
X7059301Y-12289984D02*
X7059301Y-12185222D01*
X7059301Y-12185222D02*
X7049777Y-12166174D01*
X7049777Y-12166174D02*
X7030730Y-12156650D01*
X7030730Y-12156650D02*
X7002158Y-12156650D01*
X7002158Y-12156650D02*
X6983110Y-12166174D01*
X6983110Y-12166174D02*
X6973587Y-12175698D01*
X7183110Y-12289984D02*
X7164063Y-12280460D01*
X7164063Y-12280460D02*
X7154539Y-12270936D01*
X7154539Y-12270936D02*
X7145015Y-12251888D01*
X7145015Y-12251888D02*
X7145015Y-12194746D01*
X7145015Y-12194746D02*
X7154539Y-12175698D01*
X7154539Y-12175698D02*
X7164063Y-12166174D01*
X7164063Y-12166174D02*
X7183110Y-12156650D01*
X7183110Y-12156650D02*
X7211682Y-12156650D01*
X7211682Y-12156650D02*
X7230730Y-12166174D01*
X7230730Y-12166174D02*
X7240253Y-12175698D01*
X7240253Y-12175698D02*
X7249777Y-12194746D01*
X7249777Y-12194746D02*
X7249777Y-12251888D01*
X7249777Y-12251888D02*
X7240253Y-12270936D01*
X7240253Y-12270936D02*
X7230730Y-12280460D01*
X7230730Y-12280460D02*
X7211682Y-12289984D01*
X7211682Y-12289984D02*
X7183110Y-12289984D01*
X7364063Y-12289984D02*
X7345015Y-12280460D01*
X7345015Y-12280460D02*
X7335491Y-12261412D01*
X7335491Y-12261412D02*
X7335491Y-12089984D01*
X7516444Y-12280460D02*
X7497396Y-12289984D01*
X7497396Y-12289984D02*
X7459301Y-12289984D01*
X7459301Y-12289984D02*
X7440253Y-12280460D01*
X7440253Y-12280460D02*
X7430730Y-12261412D01*
X7430730Y-12261412D02*
X7430730Y-12185222D01*
X7430730Y-12185222D02*
X7440253Y-12166174D01*
X7440253Y-12166174D02*
X7459301Y-12156650D01*
X7459301Y-12156650D02*
X7497396Y-12156650D01*
X7497396Y-12156650D02*
X7516444Y-12166174D01*
X7516444Y-12166174D02*
X7525968Y-12185222D01*
X7525968Y-12185222D02*
X7525968Y-12204269D01*
X7525968Y-12204269D02*
X7430730Y-12223317D01*
X7602158Y-12280460D02*
X7621206Y-12289984D01*
X7621206Y-12289984D02*
X7659301Y-12289984D01*
X7659301Y-12289984D02*
X7678349Y-12280460D01*
X7678349Y-12280460D02*
X7687872Y-12261412D01*
X7687872Y-12261412D02*
X7687872Y-12251888D01*
X7687872Y-12251888D02*
X7678349Y-12232841D01*
X7678349Y-12232841D02*
X7659301Y-12223317D01*
X7659301Y-12223317D02*
X7630730Y-12223317D01*
X7630730Y-12223317D02*
X7611682Y-12213793D01*
X7611682Y-12213793D02*
X7602158Y-12194746D01*
X7602158Y-12194746D02*
X7602158Y-12185222D01*
X7602158Y-12185222D02*
X7611682Y-12166174D01*
X7611682Y-12166174D02*
X7630730Y-12156650D01*
X7630730Y-12156650D02*
X7659301Y-12156650D01*
X7659301Y-12156650D02*
X7678349Y-12166174D01*
X7754539Y-12366174D02*
X7764063Y-12356650D01*
X7764063Y-12356650D02*
X7783111Y-12328079D01*
X7783111Y-12328079D02*
X7792634Y-12309031D01*
X7792634Y-12309031D02*
X7802158Y-12280460D01*
X7802158Y-12280460D02*
X7811682Y-12232841D01*
X7811682Y-12232841D02*
X7811682Y-12194746D01*
X7811682Y-12194746D02*
X7802158Y-12147127D01*
X7802158Y-12147127D02*
X7792634Y-12118555D01*
X7792634Y-12118555D02*
X7783111Y-12099508D01*
X7783111Y-12099508D02*
X7764063Y-12070936D01*
X7764063Y-12070936D02*
X7754539Y-12061412D01*
D13*
X2659000Y-12397500D02*
X2789000Y-12527500D01*
X2789000Y-12397500D02*
X2659000Y-12527500D01*
X2769962Y-12508462D02*
X2769962Y-12416538D01*
X2678038Y-12416538D01*
X2678038Y-12508462D01*
X2769962Y-12508462D01*
D12*
X3154539Y-12553984D02*
X3040253Y-12553984D01*
X3097396Y-12553984D02*
X3097396Y-12353984D01*
X3097396Y-12353984D02*
X3078348Y-12382555D01*
X3078348Y-12382555D02*
X3059301Y-12401603D01*
X3059301Y-12401603D02*
X3040253Y-12411127D01*
X3240253Y-12534936D02*
X3249777Y-12544460D01*
X3249777Y-12544460D02*
X3240253Y-12553984D01*
X3240253Y-12553984D02*
X3230729Y-12544460D01*
X3230729Y-12544460D02*
X3240253Y-12534936D01*
X3240253Y-12534936D02*
X3240253Y-12553984D01*
X3316443Y-12353984D02*
X3440253Y-12353984D01*
X3440253Y-12353984D02*
X3373586Y-12430174D01*
X3373586Y-12430174D02*
X3402158Y-12430174D01*
X3402158Y-12430174D02*
X3421205Y-12439698D01*
X3421205Y-12439698D02*
X3430729Y-12449222D01*
X3430729Y-12449222D02*
X3440253Y-12468269D01*
X3440253Y-12468269D02*
X3440253Y-12515888D01*
X3440253Y-12515888D02*
X3430729Y-12534936D01*
X3430729Y-12534936D02*
X3421205Y-12544460D01*
X3421205Y-12544460D02*
X3402158Y-12553984D01*
X3402158Y-12553984D02*
X3345015Y-12553984D01*
X3345015Y-12553984D02*
X3325967Y-12544460D01*
X3325967Y-12544460D02*
X3316443Y-12534936D01*
X3564062Y-12353984D02*
X3583110Y-12353984D01*
X3583110Y-12353984D02*
X3602158Y-12363508D01*
X3602158Y-12363508D02*
X3611682Y-12373031D01*
X3611682Y-12373031D02*
X3621205Y-12392079D01*
X3621205Y-12392079D02*
X3630729Y-12430174D01*
X3630729Y-12430174D02*
X3630729Y-12477793D01*
X3630729Y-12477793D02*
X3621205Y-12515888D01*
X3621205Y-12515888D02*
X3611682Y-12534936D01*
X3611682Y-12534936D02*
X3602158Y-12544460D01*
X3602158Y-12544460D02*
X3583110Y-12553984D01*
X3583110Y-12553984D02*
X3564062Y-12553984D01*
X3564062Y-12553984D02*
X3545015Y-12544460D01*
X3545015Y-12544460D02*
X3535491Y-12534936D01*
X3535491Y-12534936D02*
X3525967Y-12515888D01*
X3525967Y-12515888D02*
X3516443Y-12477793D01*
X3516443Y-12477793D02*
X3516443Y-12430174D01*
X3516443Y-12430174D02*
X3525967Y-12392079D01*
X3525967Y-12392079D02*
X3535491Y-12373031D01*
X3535491Y-12373031D02*
X3545015Y-12363508D01*
X3545015Y-12363508D02*
X3564062Y-12353984D01*
X3754539Y-12353984D02*
X3773586Y-12353984D01*
X3773586Y-12353984D02*
X3792634Y-12363508D01*
X3792634Y-12363508D02*
X3802158Y-12373031D01*
X3802158Y-12373031D02*
X3811682Y-12392079D01*
X3811682Y-12392079D02*
X3821205Y-12430174D01*
X3821205Y-12430174D02*
X3821205Y-12477793D01*
X3821205Y-12477793D02*
X3811682Y-12515888D01*
X3811682Y-12515888D02*
X3802158Y-12534936D01*
X3802158Y-12534936D02*
X3792634Y-12544460D01*
X3792634Y-12544460D02*
X3773586Y-12553984D01*
X3773586Y-12553984D02*
X3754539Y-12553984D01*
X3754539Y-12553984D02*
X3735491Y-12544460D01*
X3735491Y-12544460D02*
X3725967Y-12534936D01*
X3725967Y-12534936D02*
X3716443Y-12515888D01*
X3716443Y-12515888D02*
X3706920Y-12477793D01*
X3706920Y-12477793D02*
X3706920Y-12430174D01*
X3706920Y-12430174D02*
X3716443Y-12392079D01*
X3716443Y-12392079D02*
X3725967Y-12373031D01*
X3725967Y-12373031D02*
X3735491Y-12363508D01*
X3735491Y-12363508D02*
X3754539Y-12353984D01*
X3906920Y-12553984D02*
X3906920Y-12420650D01*
X3906920Y-12439698D02*
X3916443Y-12430174D01*
X3916443Y-12430174D02*
X3935491Y-12420650D01*
X3935491Y-12420650D02*
X3964063Y-12420650D01*
X3964063Y-12420650D02*
X3983110Y-12430174D01*
X3983110Y-12430174D02*
X3992634Y-12449222D01*
X3992634Y-12449222D02*
X3992634Y-12553984D01*
X3992634Y-12449222D02*
X4002158Y-12430174D01*
X4002158Y-12430174D02*
X4021205Y-12420650D01*
X4021205Y-12420650D02*
X4049777Y-12420650D01*
X4049777Y-12420650D02*
X4068824Y-12430174D01*
X4068824Y-12430174D02*
X4078348Y-12449222D01*
X4078348Y-12449222D02*
X4078348Y-12553984D01*
X4173586Y-12553984D02*
X4173586Y-12420650D01*
X4173586Y-12439698D02*
X4183110Y-12430174D01*
X4183110Y-12430174D02*
X4202158Y-12420650D01*
X4202158Y-12420650D02*
X4230729Y-12420650D01*
X4230729Y-12420650D02*
X4249777Y-12430174D01*
X4249777Y-12430174D02*
X4259301Y-12449222D01*
X4259301Y-12449222D02*
X4259301Y-12553984D01*
X4259301Y-12449222D02*
X4268825Y-12430174D01*
X4268825Y-12430174D02*
X4287872Y-12420650D01*
X4287872Y-12420650D02*
X4316444Y-12420650D01*
X4316444Y-12420650D02*
X4335491Y-12430174D01*
X4335491Y-12430174D02*
X4345015Y-12449222D01*
X4345015Y-12449222D02*
X4345015Y-12553984D01*
X4735491Y-12344460D02*
X4564063Y-12601603D01*
X4992634Y-12353984D02*
X5011682Y-12353984D01*
X5011682Y-12353984D02*
X5030729Y-12363508D01*
X5030729Y-12363508D02*
X5040253Y-12373031D01*
X5040253Y-12373031D02*
X5049777Y-12392079D01*
X5049777Y-12392079D02*
X5059301Y-12430174D01*
X5059301Y-12430174D02*
X5059301Y-12477793D01*
X5059301Y-12477793D02*
X5049777Y-12515888D01*
X5049777Y-12515888D02*
X5040253Y-12534936D01*
X5040253Y-12534936D02*
X5030729Y-12544460D01*
X5030729Y-12544460D02*
X5011682Y-12553984D01*
X5011682Y-12553984D02*
X4992634Y-12553984D01*
X4992634Y-12553984D02*
X4973587Y-12544460D01*
X4973587Y-12544460D02*
X4964063Y-12534936D01*
X4964063Y-12534936D02*
X4954539Y-12515888D01*
X4954539Y-12515888D02*
X4945015Y-12477793D01*
X4945015Y-12477793D02*
X4945015Y-12430174D01*
X4945015Y-12430174D02*
X4954539Y-12392079D01*
X4954539Y-12392079D02*
X4964063Y-12373031D01*
X4964063Y-12373031D02*
X4973587Y-12363508D01*
X4973587Y-12363508D02*
X4992634Y-12353984D01*
X5145015Y-12534936D02*
X5154539Y-12544460D01*
X5154539Y-12544460D02*
X5145015Y-12553984D01*
X5145015Y-12553984D02*
X5135491Y-12544460D01*
X5135491Y-12544460D02*
X5145015Y-12534936D01*
X5145015Y-12534936D02*
X5145015Y-12553984D01*
X5278348Y-12353984D02*
X5297396Y-12353984D01*
X5297396Y-12353984D02*
X5316444Y-12363508D01*
X5316444Y-12363508D02*
X5325968Y-12373031D01*
X5325968Y-12373031D02*
X5335491Y-12392079D01*
X5335491Y-12392079D02*
X5345015Y-12430174D01*
X5345015Y-12430174D02*
X5345015Y-12477793D01*
X5345015Y-12477793D02*
X5335491Y-12515888D01*
X5335491Y-12515888D02*
X5325968Y-12534936D01*
X5325968Y-12534936D02*
X5316444Y-12544460D01*
X5316444Y-12544460D02*
X5297396Y-12553984D01*
X5297396Y-12553984D02*
X5278348Y-12553984D01*
X5278348Y-12553984D02*
X5259301Y-12544460D01*
X5259301Y-12544460D02*
X5249777Y-12534936D01*
X5249777Y-12534936D02*
X5240253Y-12515888D01*
X5240253Y-12515888D02*
X5230729Y-12477793D01*
X5230729Y-12477793D02*
X5230729Y-12430174D01*
X5230729Y-12430174D02*
X5240253Y-12392079D01*
X5240253Y-12392079D02*
X5249777Y-12373031D01*
X5249777Y-12373031D02*
X5259301Y-12363508D01*
X5259301Y-12363508D02*
X5278348Y-12353984D01*
X5525968Y-12353984D02*
X5430729Y-12353984D01*
X5430729Y-12353984D02*
X5421206Y-12449222D01*
X5421206Y-12449222D02*
X5430729Y-12439698D01*
X5430729Y-12439698D02*
X5449777Y-12430174D01*
X5449777Y-12430174D02*
X5497396Y-12430174D01*
X5497396Y-12430174D02*
X5516444Y-12439698D01*
X5516444Y-12439698D02*
X5525968Y-12449222D01*
X5525968Y-12449222D02*
X5535491Y-12468269D01*
X5535491Y-12468269D02*
X5535491Y-12515888D01*
X5535491Y-12515888D02*
X5525968Y-12534936D01*
X5525968Y-12534936D02*
X5516444Y-12544460D01*
X5516444Y-12544460D02*
X5497396Y-12553984D01*
X5497396Y-12553984D02*
X5449777Y-12553984D01*
X5449777Y-12553984D02*
X5430729Y-12544460D01*
X5430729Y-12544460D02*
X5421206Y-12534936D01*
X5725967Y-12553984D02*
X5611682Y-12553984D01*
X5668825Y-12553984D02*
X5668825Y-12353984D01*
X5668825Y-12353984D02*
X5649777Y-12382555D01*
X5649777Y-12382555D02*
X5630729Y-12401603D01*
X5630729Y-12401603D02*
X5611682Y-12411127D01*
X5802158Y-12373031D02*
X5811682Y-12363508D01*
X5811682Y-12363508D02*
X5830729Y-12353984D01*
X5830729Y-12353984D02*
X5878348Y-12353984D01*
X5878348Y-12353984D02*
X5897396Y-12363508D01*
X5897396Y-12363508D02*
X5906920Y-12373031D01*
X5906920Y-12373031D02*
X5916444Y-12392079D01*
X5916444Y-12392079D02*
X5916444Y-12411127D01*
X5916444Y-12411127D02*
X5906920Y-12439698D01*
X5906920Y-12439698D02*
X5792634Y-12553984D01*
X5792634Y-12553984D02*
X5916444Y-12553984D01*
X5992634Y-12353984D02*
X5992634Y-12392079D01*
X6068825Y-12353984D02*
X6068825Y-12392079D01*
X6364063Y-12630174D02*
X6354539Y-12620650D01*
X6354539Y-12620650D02*
X6335491Y-12592079D01*
X6335491Y-12592079D02*
X6325968Y-12573031D01*
X6325968Y-12573031D02*
X6316444Y-12544460D01*
X6316444Y-12544460D02*
X6306920Y-12496841D01*
X6306920Y-12496841D02*
X6306920Y-12458746D01*
X6306920Y-12458746D02*
X6316444Y-12411127D01*
X6316444Y-12411127D02*
X6325968Y-12382555D01*
X6325968Y-12382555D02*
X6335491Y-12363508D01*
X6335491Y-12363508D02*
X6354539Y-12334936D01*
X6354539Y-12334936D02*
X6364063Y-12325412D01*
X6430729Y-12373031D02*
X6440253Y-12363508D01*
X6440253Y-12363508D02*
X6459301Y-12353984D01*
X6459301Y-12353984D02*
X6506920Y-12353984D01*
X6506920Y-12353984D02*
X6525968Y-12363508D01*
X6525968Y-12363508D02*
X6535491Y-12373031D01*
X6535491Y-12373031D02*
X6545015Y-12392079D01*
X6545015Y-12392079D02*
X6545015Y-12411127D01*
X6545015Y-12411127D02*
X6535491Y-12439698D01*
X6535491Y-12439698D02*
X6421206Y-12553984D01*
X6421206Y-12553984D02*
X6545015Y-12553984D01*
X6783110Y-12553984D02*
X6783110Y-12353984D01*
X6868825Y-12553984D02*
X6868825Y-12449222D01*
X6868825Y-12449222D02*
X6859301Y-12430174D01*
X6859301Y-12430174D02*
X6840253Y-12420650D01*
X6840253Y-12420650D02*
X6811682Y-12420650D01*
X6811682Y-12420650D02*
X6792634Y-12430174D01*
X6792634Y-12430174D02*
X6783110Y-12439698D01*
X6992634Y-12553984D02*
X6973587Y-12544460D01*
X6973587Y-12544460D02*
X6964063Y-12534936D01*
X6964063Y-12534936D02*
X6954539Y-12515888D01*
X6954539Y-12515888D02*
X6954539Y-12458746D01*
X6954539Y-12458746D02*
X6964063Y-12439698D01*
X6964063Y-12439698D02*
X6973587Y-12430174D01*
X6973587Y-12430174D02*
X6992634Y-12420650D01*
X6992634Y-12420650D02*
X7021206Y-12420650D01*
X7021206Y-12420650D02*
X7040253Y-12430174D01*
X7040253Y-12430174D02*
X7049777Y-12439698D01*
X7049777Y-12439698D02*
X7059301Y-12458746D01*
X7059301Y-12458746D02*
X7059301Y-12515888D01*
X7059301Y-12515888D02*
X7049777Y-12534936D01*
X7049777Y-12534936D02*
X7040253Y-12544460D01*
X7040253Y-12544460D02*
X7021206Y-12553984D01*
X7021206Y-12553984D02*
X6992634Y-12553984D01*
X7173587Y-12553984D02*
X7154539Y-12544460D01*
X7154539Y-12544460D02*
X7145015Y-12525412D01*
X7145015Y-12525412D02*
X7145015Y-12353984D01*
X7325968Y-12544460D02*
X7306920Y-12553984D01*
X7306920Y-12553984D02*
X7268825Y-12553984D01*
X7268825Y-12553984D02*
X7249777Y-12544460D01*
X7249777Y-12544460D02*
X7240253Y-12525412D01*
X7240253Y-12525412D02*
X7240253Y-12449222D01*
X7240253Y-12449222D02*
X7249777Y-12430174D01*
X7249777Y-12430174D02*
X7268825Y-12420650D01*
X7268825Y-12420650D02*
X7306920Y-12420650D01*
X7306920Y-12420650D02*
X7325968Y-12430174D01*
X7325968Y-12430174D02*
X7335491Y-12449222D01*
X7335491Y-12449222D02*
X7335491Y-12468269D01*
X7335491Y-12468269D02*
X7240253Y-12487317D01*
X7411682Y-12544460D02*
X7430730Y-12553984D01*
X7430730Y-12553984D02*
X7468825Y-12553984D01*
X7468825Y-12553984D02*
X7487872Y-12544460D01*
X7487872Y-12544460D02*
X7497396Y-12525412D01*
X7497396Y-12525412D02*
X7497396Y-12515888D01*
X7497396Y-12515888D02*
X7487872Y-12496841D01*
X7487872Y-12496841D02*
X7468825Y-12487317D01*
X7468825Y-12487317D02*
X7440253Y-12487317D01*
X7440253Y-12487317D02*
X7421206Y-12477793D01*
X7421206Y-12477793D02*
X7411682Y-12458746D01*
X7411682Y-12458746D02*
X7411682Y-12449222D01*
X7411682Y-12449222D02*
X7421206Y-12430174D01*
X7421206Y-12430174D02*
X7440253Y-12420650D01*
X7440253Y-12420650D02*
X7468825Y-12420650D01*
X7468825Y-12420650D02*
X7487872Y-12430174D01*
X7564063Y-12630174D02*
X7573587Y-12620650D01*
X7573587Y-12620650D02*
X7592634Y-12592079D01*
X7592634Y-12592079D02*
X7602158Y-12573031D01*
X7602158Y-12573031D02*
X7611682Y-12544460D01*
X7611682Y-12544460D02*
X7621206Y-12496841D01*
X7621206Y-12496841D02*
X7621206Y-12458746D01*
X7621206Y-12458746D02*
X7611682Y-12411127D01*
X7611682Y-12411127D02*
X7602158Y-12382555D01*
X7602158Y-12382555D02*
X7592634Y-12363508D01*
X7592634Y-12363508D02*
X7573587Y-12334936D01*
X7573587Y-12334936D02*
X7564063Y-12325412D01*
M02*
