%TF.GenerationSoftware,KiCad,Pcbnew,(6.0.8)*%
%TF.CreationDate,2022-10-26T09:36:09+07:00*%
%TF.ProjectId,TS_Ext_EPM3032,54535f45-7874-45f4-9550-4d333033322e,1.1*%
%TF.SameCoordinates,Original*%
%TF.FileFunction,Profile,NP*%
%FSLAX46Y46*%
G04 Gerber Fmt 4.6, Leading zero omitted, Abs format (unit mm)*
G04 Created by KiCad (PCBNEW (6.0.8)) date 2022-10-26 09:36:09*
%MOMM*%
%LPD*%
G01*
G04 APERTURE LIST*
%TA.AperFunction,Profile*%
%ADD10C,0.100000*%
%TD*%
%TA.AperFunction,Profile*%
%ADD11C,0.120000*%
%TD*%
G04 APERTURE END LIST*
D10*
X34544000Y-90170000D02*
X34544000Y-99060000D01*
X27940000Y-90170000D02*
X34544000Y-90170000D01*
X115316000Y-90170000D02*
X121920000Y-90170000D01*
X112776000Y-90170000D02*
X112776000Y-99060000D01*
X113538000Y-99695000D02*
X114681000Y-99695000D01*
X115316000Y-90170000D02*
X115316000Y-99060000D01*
X114681000Y-99695000D02*
X115316000Y-99060000D01*
X112141000Y-99695000D02*
X112776000Y-99060000D01*
X112776000Y-90170000D02*
X113538000Y-90170000D01*
X27940000Y-25400000D02*
X27940000Y-90170000D01*
X121920000Y-25400000D02*
X121920000Y-26520000D01*
X35179000Y-99695000D02*
X112141000Y-99695000D01*
X35179000Y-99695000D02*
X34544000Y-99060000D01*
X121920000Y-90170000D02*
X121920000Y-39520000D01*
X27940000Y-25400000D02*
X121920000Y-25400000D01*
X113538000Y-90170000D02*
X113538000Y-99695000D01*
D11*
%TO.C,J5*%
X120920000Y-30820000D02*
X121920000Y-30820000D01*
X120520000Y-31220000D02*
X120520000Y-34820000D01*
X120920000Y-35220000D02*
X121920000Y-35220000D01*
X121920000Y-30820000D02*
X121920000Y-26520000D01*
X121920000Y-35220000D02*
X121920000Y-39520000D01*
X120920000Y-30820000D02*
G75*
G03*
X120520000Y-31220000I0J-400000D01*
G01*
X120520000Y-34820000D02*
G75*
G03*
X120920000Y-35220000I400002J2D01*
G01*
%TD*%
M02*
