M48
; DRILL file {KiCad (6.0.8)} date Sun Nov  6 06:38:13 2022
; FORMAT={-:-/ absolute / metric / decimal}
; #@! TF.CreationDate,2022-11-06T06:38:13+07:00
; #@! TF.GenerationSoftware,Kicad,Pcbnew,(6.0.8)
; #@! TF.FileFunction,Plated,1,2,PTH
FMAT,2
METRIC
; #@! TA.AperFunction,Plated,PTH,ViaDrill
T1C0.400
; #@! TA.AperFunction,Plated,PTH,ComponentDrill
T2C0.400
; #@! TA.AperFunction,Plated,PTH,ViaDrill
T3C0.500
; #@! TA.AperFunction,Plated,PTH,ComponentDrill
T4C0.700
; #@! TA.AperFunction,Plated,PTH,ComponentDrill
T5C0.750
; #@! TA.AperFunction,Plated,PTH,ComponentDrill
T6C0.800
; #@! TA.AperFunction,Plated,PTH,ComponentDrill
T7C1.000
; #@! TA.AperFunction,Plated,PTH,ComponentDrill
T8C1.300
%
G90
G05
T1
X29.083Y-80.645
X30.099Y-81.915
X30.48Y-29.21
X30.48Y-34.29
X30.48Y-87.63
X30.734Y-58.801
X30.734Y-60.96
X33.909Y-45.974
X36.703Y-89.789
X36.83Y-64.77
X37.719Y-58.42
X38.735Y-57.531
X39.37Y-88.9
X39.878Y-67.31
X40.005Y-58.547
X40.005Y-64.262
X40.132Y-50.292
X40.64Y-29.21
X40.64Y-34.29
X41.656Y-66.331
X42.672Y-44.577
X44.45Y-75.219
X45.72Y-59.69
X46.609Y-63.754
X50.8Y-29.21
X50.8Y-34.29
X53.086Y-79.375
X54.356Y-71.12
X54.737Y-72.39
X54.737Y-75.057
X55.88Y-80.137
X56.515Y-73.025
X56.896Y-90.678
X57.277Y-76.236
X58.293Y-58.039
X58.42Y-90.678
X58.674Y-52.705
X59.69Y-71.374
X60.96Y-29.21
X60.96Y-34.29
X60.96Y-39.37
X60.96Y-53.594
X60.96Y-69.977
X60.96Y-82.804
X62.103Y-46.482
X62.23Y-51.689
X62.23Y-71.882
X62.23Y-85.725
X62.23Y-90.805
X63.5Y-52.832
X63.5Y-61.976
X63.5Y-70.993
X63.5Y-81.915
X66.04Y-72.136
X67.31Y-77.089
X67.31Y-90.805
X68.58Y-51.816
X68.58Y-55.88
X68.58Y-87.122
X68.596Y-72.025
X68.596Y-77.105
X70.485Y-43.18
X71.12Y-29.21
X71.12Y-34.29
X71.12Y-39.37
X73.66Y-55.88
X73.66Y-86.36
X77.47Y-56.896
X77.47Y-72.009
X78.74Y-73.025
X79.121Y-56.896
X81.28Y-54.864
X81.28Y-66.04
X81.28Y-76.237
X81.28Y-86.36
X81.788Y-39.624
X82.55Y-70.485
X83.185Y-61.468
X85.09Y-59.182
X85.09Y-72.009
X85.09Y-90.805
X87.63Y-77.251
X88.9Y-73.025
X88.9Y-86.36
X90.17Y-70.485
X91.44Y-59.309
X91.44Y-66.167
X91.44Y-86.36
X92.71Y-70.485
X92.71Y-81.153
X93.98Y-59.055
X95.25Y-75.565
X95.758Y-51.816
X96.52Y-36.83
X96.52Y-86.36
X99.06Y-43.18
X99.06Y-80.645
X99.695Y-26.67
X99.822Y-30.988
X101.6Y-60.325
X101.6Y-86.36
X102.87Y-80.645
X103.251Y-66.294
X104.14Y-57.15
X104.775Y-51.435
X109.855Y-42.545
X109.855Y-48.26
X109.855Y-55.88
X110.363Y-54.229
X110.49Y-89.535
X114.3Y-68.58
X114.3Y-80.645
X119.38Y-50.8
X119.38Y-58.42
X119.38Y-73.66
X120.65Y-40.64
T3
X46.355Y-89.535
X64.731Y-89.496
X64.897Y-50.165
T4
X31.75Y-76.835
X31.75Y-84.455
X32.385Y-48.006
X40.005Y-48.006
X53.975Y-36.83
X53.975Y-44.45
X56.515Y-36.83
X56.515Y-44.45
X59.055Y-36.83
X59.055Y-44.45
X61.595Y-36.83
X61.595Y-44.45
X64.135Y-36.83
X64.135Y-44.45
X66.675Y-36.83
X66.675Y-44.45
X69.215Y-36.83
X69.215Y-44.45
X71.755Y-36.83
X71.755Y-44.45
X74.168Y-36.83
X74.168Y-44.45
X79.375Y-36.83
X79.375Y-44.45
X81.915Y-36.83
X81.915Y-44.45
X85.725Y-36.83
X85.725Y-44.45
X90.805Y-36.83
X90.805Y-44.45
X113.03Y-49.53
X113.03Y-52.07
X113.03Y-57.15
X113.03Y-59.69
X113.03Y-62.23
X113.03Y-64.77
X113.03Y-67.31
X113.03Y-69.85
X113.03Y-72.39
X113.03Y-75.057
X120.65Y-49.53
X120.65Y-52.07
X120.65Y-57.15
X120.65Y-59.69
X120.65Y-62.23
X120.65Y-64.77
X120.65Y-67.31
X120.65Y-69.85
X120.65Y-72.39
X120.65Y-75.057
T5
X36.83Y-84.455
X38.1Y-84.455
X39.37Y-84.455
T6
X29.845Y-43.815
X29.845Y-48.815
X33.02Y-55.88
X33.02Y-58.42
X33.02Y-60.96
X33.02Y-63.5
X33.02Y-66.04
X33.02Y-68.58
X35.56Y-53.34
X35.56Y-55.88
X35.56Y-58.42
X35.56Y-60.96
X35.56Y-63.5
X35.56Y-66.04
X35.56Y-68.58
X35.56Y-71.12
X37.545Y-76.2
X37.545Y-78.74
X38.1Y-53.34
X38.1Y-55.88
X38.1Y-68.58
X38.1Y-71.12
X40.64Y-53.34
X40.64Y-55.88
X40.64Y-68.58
X40.64Y-71.12
X42.545Y-76.2
X42.545Y-78.74
X43.18Y-48.006
X43.18Y-53.34
X43.18Y-55.88
X43.18Y-68.58
X43.18Y-71.12
X45.165Y-86.36
X45.72Y-53.34
X45.72Y-55.88
X45.72Y-68.58
X45.72Y-71.12
X48.18Y-48.006
X48.26Y-53.34
X48.26Y-55.88
X48.26Y-58.42
X48.26Y-60.96
X48.26Y-63.5
X48.26Y-66.04
X48.26Y-68.58
X48.26Y-71.12
X50.165Y-86.36
X50.8Y-55.88
X50.8Y-58.42
X50.8Y-60.96
X50.8Y-63.5
X50.8Y-66.04
X50.8Y-68.58
X57.15Y-48.26
X57.15Y-63.5
X57.15Y-68.58
X57.15Y-83.82
X59.69Y-48.26
X59.69Y-63.5
X59.69Y-68.58
X59.69Y-83.82
X62.23Y-48.26
X62.23Y-63.5
X62.23Y-68.58
X62.23Y-83.82
X64.77Y-48.26
X64.77Y-63.5
X64.77Y-68.58
X64.77Y-83.82
X67.31Y-48.26
X67.31Y-63.5
X67.31Y-68.58
X67.31Y-83.82
X69.85Y-48.26
X69.85Y-63.5
X69.85Y-68.58
X69.85Y-83.82
X72.39Y-48.26
X72.39Y-63.5
X72.39Y-68.58
X72.39Y-83.82
X74.93Y-48.26
X74.93Y-63.5
X74.93Y-68.58
X74.93Y-83.82
X76.835Y-38.18
X76.835Y-43.18
X77.47Y-48.26
X77.47Y-63.5
X77.47Y-68.58
X77.47Y-83.82
X80.01Y-48.26
X80.01Y-63.5
X80.01Y-68.58
X80.01Y-83.82
X82.55Y-48.26
X82.55Y-63.5
X82.55Y-68.58
X82.55Y-83.82
X85.09Y-48.26
X85.09Y-63.5
X85.09Y-68.58
X85.09Y-83.82
X86.868Y-28.931
X86.868Y-31.431
X87.63Y-48.26
X87.63Y-63.5
X87.63Y-68.58
X87.63Y-83.82
X88.265Y-38.1
X88.265Y-43.1
X90.17Y-48.26
X90.17Y-63.5
X90.17Y-68.58
X90.17Y-83.82
X91.44Y-27.893
X91.44Y-32.893
X92.71Y-48.26
X92.71Y-63.5
X92.71Y-68.58
X92.71Y-83.82
X93.726Y-35.56
X93.726Y-38.1
X93.726Y-40.64
X93.726Y-43.18
X95.25Y-48.26
X95.25Y-63.5
X95.25Y-68.58
X95.25Y-83.82
X96.52Y-29.21
X96.6Y-32.385
X97.79Y-48.26
X97.79Y-63.5
X97.79Y-68.58
X97.79Y-83.82
X100.33Y-48.26
X100.33Y-63.5
X100.33Y-68.58
X100.33Y-83.82
X101.346Y-35.56
X101.346Y-38.1
X101.346Y-40.64
X101.346Y-43.18
X101.52Y-29.21
X101.6Y-32.385
X102.87Y-48.26
X102.87Y-63.5
X102.87Y-68.58
X102.87Y-83.82
X105.41Y-48.26
X105.41Y-63.5
X105.41Y-68.58
X105.41Y-83.82
X108.585Y-58.5
X108.585Y-63.5
X108.585Y-78.82
X108.585Y-83.82
X114.38Y-54.61
X119.38Y-54.61
T7
X36.83Y-39.37
X36.83Y-41.91
X39.37Y-39.37
X39.37Y-41.91
X41.91Y-39.37
X41.91Y-41.91
X44.45Y-39.37
X44.45Y-41.91
X46.99Y-39.37
X46.99Y-41.91
X106.045Y-29.22
X106.045Y-31.76
X106.045Y-34.3
X106.045Y-36.84
X112.395Y-44.45
X114.935Y-44.45
X117.475Y-44.45
X120.015Y-44.45
T8
X76.026Y-30.226
X81.026Y-30.226
T2
X112.92Y-28.02G85X111.92Y-28.02
G05
X112.92Y-30.52G85X111.92Y-30.52
G05
X111.92Y-35.52G85X112.92Y-35.52
G05
X111.92Y-38.02G85X112.92Y-38.02
G05
X117.42Y-33.52G85X117.42Y-32.52
G05
T0
M30
