%TF.GenerationSoftware,KiCad,Pcbnew,(6.0.8)*%
%TF.CreationDate,2022-10-21T18:27:40+07:00*%
%TF.ProjectId,TS_Ext_EPM3032,54535f45-7874-45f4-9550-4d333033322e,1.0*%
%TF.SameCoordinates,Original*%
%TF.FileFunction,Drillmap*%
%TF.FilePolarity,Positive*%
%FSLAX45Y45*%
G04 Gerber Fmt 4.5, Leading zero omitted, Abs format (unit mm)*
G04 Created by KiCad (PCBNEW (6.0.8)) date 2022-10-21 18:27:40*
%MOMM*%
%LPD*%
G01*
G04 APERTURE LIST*
%ADD10C,0.100000*%
%ADD11C,0.200000*%
%ADD12C,0.040000*%
%ADD13C,0.050000*%
%ADD14C,0.070000*%
%ADD15C,0.075000*%
%ADD16C,0.080000*%
%ADD17C,0.130000*%
G04 APERTURE END LIST*
D10*
X3454400Y-9017000D02*
X3454400Y-9906000D01*
X2794000Y-9017000D02*
X3454400Y-9017000D01*
X11531600Y-9017000D02*
X12192000Y-9017000D01*
X11531600Y-9017000D02*
X11531600Y-9906000D01*
X11468100Y-9969500D02*
X11531600Y-9906000D01*
X2794000Y-2540000D02*
X2794000Y-9017000D01*
X12192000Y-2540000D02*
X12192000Y-2652000D01*
X3517900Y-9969500D02*
X11468100Y-9969500D01*
X3517900Y-9969500D02*
X3454400Y-9906000D01*
X12192000Y-9017000D02*
X12192000Y-3952000D01*
X2794000Y-2540000D02*
X12192000Y-2540000D01*
D11*
D12*
X2888300Y-8044500D02*
X2928300Y-8084500D01*
X2928300Y-8044500D02*
X2888300Y-8084500D01*
X2989900Y-8171500D02*
X3029900Y-8211500D01*
X3029900Y-8171500D02*
X2989900Y-8211500D01*
X3028000Y-2901000D02*
X3068000Y-2941000D01*
X3068000Y-2901000D02*
X3028000Y-2941000D01*
X3028000Y-3409000D02*
X3068000Y-3449000D01*
X3068000Y-3409000D02*
X3028000Y-3449000D01*
X3028000Y-8743000D02*
X3068000Y-8783000D01*
X3068000Y-8743000D02*
X3028000Y-8783000D01*
X3053400Y-5860100D02*
X3093400Y-5900100D01*
X3093400Y-5860100D02*
X3053400Y-5900100D01*
X3053400Y-6076000D02*
X3093400Y-6116000D01*
X3093400Y-6076000D02*
X3053400Y-6116000D01*
X3370900Y-4577400D02*
X3410900Y-4617400D01*
X3410900Y-4577400D02*
X3370900Y-4617400D01*
X3650300Y-8958900D02*
X3690300Y-8998900D01*
X3690300Y-8958900D02*
X3650300Y-8998900D01*
X3663000Y-6457000D02*
X3703000Y-6497000D01*
X3703000Y-6457000D02*
X3663000Y-6497000D01*
X3751900Y-5822000D02*
X3791900Y-5862000D01*
X3791900Y-5822000D02*
X3751900Y-5862000D01*
X3853500Y-5733100D02*
X3893500Y-5773100D01*
X3893500Y-5733100D02*
X3853500Y-5773100D01*
X3917000Y-8870000D02*
X3957000Y-8910000D01*
X3957000Y-8870000D02*
X3917000Y-8910000D01*
X3967800Y-6711000D02*
X4007800Y-6751000D01*
X4007800Y-6711000D02*
X3967800Y-6751000D01*
X3980500Y-5834700D02*
X4020500Y-5874700D01*
X4020500Y-5834700D02*
X3980500Y-5874700D01*
X3980500Y-6406200D02*
X4020500Y-6446200D01*
X4020500Y-6406200D02*
X3980500Y-6446200D01*
X3993200Y-5009200D02*
X4033200Y-5049200D01*
X4033200Y-5009200D02*
X3993200Y-5049200D01*
X4044000Y-2901000D02*
X4084000Y-2941000D01*
X4084000Y-2901000D02*
X4044000Y-2941000D01*
X4044000Y-3409000D02*
X4084000Y-3449000D01*
X4084000Y-3409000D02*
X4044000Y-3449000D01*
X4145600Y-6613150D02*
X4185600Y-6653150D01*
X4185600Y-6613150D02*
X4145600Y-6653150D01*
X4247200Y-4437700D02*
X4287200Y-4477700D01*
X4287200Y-4437700D02*
X4247200Y-4477700D01*
X4425000Y-7501950D02*
X4465000Y-7541950D01*
X4465000Y-7501950D02*
X4425000Y-7541950D01*
X4552000Y-5949000D02*
X4592000Y-5989000D01*
X4592000Y-5949000D02*
X4552000Y-5989000D01*
X5060000Y-2901000D02*
X5100000Y-2941000D01*
X5100000Y-2901000D02*
X5060000Y-2941000D01*
X5060000Y-3409000D02*
X5100000Y-3449000D01*
X5100000Y-3409000D02*
X5060000Y-3449000D01*
X5288600Y-7917500D02*
X5328600Y-7957500D01*
X5328600Y-7917500D02*
X5288600Y-7957500D01*
X5441000Y-6711000D02*
X5481000Y-6751000D01*
X5481000Y-6711000D02*
X5441000Y-6751000D01*
X5453700Y-7485700D02*
X5493700Y-7525700D01*
X5493700Y-7485700D02*
X5453700Y-7525700D01*
X5568000Y-7993700D02*
X5608000Y-8033700D01*
X5608000Y-7993700D02*
X5568000Y-8033700D01*
X5631500Y-7282500D02*
X5671500Y-7322500D01*
X5671500Y-7282500D02*
X5631500Y-7322500D01*
X5669600Y-9047800D02*
X5709600Y-9087800D01*
X5709600Y-9047800D02*
X5669600Y-9087800D01*
X5707700Y-7603550D02*
X5747700Y-7643550D01*
X5747700Y-7603550D02*
X5707700Y-7643550D01*
X5809300Y-5783900D02*
X5849300Y-5823900D01*
X5849300Y-5783900D02*
X5809300Y-5823900D01*
X5822000Y-9047800D02*
X5862000Y-9087800D01*
X5862000Y-9047800D02*
X5822000Y-9087800D01*
X5923600Y-5314000D02*
X5963600Y-5354000D01*
X5963600Y-5314000D02*
X5923600Y-5354000D01*
X5949000Y-7117400D02*
X5989000Y-7157400D01*
X5989000Y-7117400D02*
X5949000Y-7157400D01*
X6076000Y-2901000D02*
X6116000Y-2941000D01*
X6116000Y-2901000D02*
X6076000Y-2941000D01*
X6076000Y-3409000D02*
X6116000Y-3449000D01*
X6116000Y-3409000D02*
X6076000Y-3449000D01*
X6076000Y-3917000D02*
X6116000Y-3957000D01*
X6116000Y-3917000D02*
X6076000Y-3957000D01*
X6076000Y-6977700D02*
X6116000Y-7017700D01*
X6116000Y-6977700D02*
X6076000Y-7017700D01*
X6076000Y-8260400D02*
X6116000Y-8300400D01*
X6116000Y-8260400D02*
X6076000Y-8300400D01*
X6164900Y-5326700D02*
X6204900Y-5366700D01*
X6204900Y-5326700D02*
X6164900Y-5366700D01*
X6190300Y-4628200D02*
X6230300Y-4668200D01*
X6230300Y-4628200D02*
X6190300Y-4668200D01*
X6203000Y-7168200D02*
X6243000Y-7208200D01*
X6243000Y-7168200D02*
X6203000Y-7208200D01*
X6203000Y-8552500D02*
X6243000Y-8592500D01*
X6243000Y-8552500D02*
X6203000Y-8592500D01*
X6203000Y-9060500D02*
X6243000Y-9100500D01*
X6243000Y-9060500D02*
X6203000Y-9100500D01*
X6330000Y-5187000D02*
X6370000Y-5227000D01*
X6370000Y-5187000D02*
X6330000Y-5227000D01*
X6330000Y-6177600D02*
X6370000Y-6217600D01*
X6370000Y-6177600D02*
X6330000Y-6217600D01*
X6330000Y-7079300D02*
X6370000Y-7119300D01*
X6370000Y-7079300D02*
X6330000Y-7119300D01*
X6330000Y-8171500D02*
X6370000Y-8211500D01*
X6370000Y-8171500D02*
X6330000Y-8211500D01*
X6584000Y-7193600D02*
X6624000Y-7233600D01*
X6624000Y-7193600D02*
X6584000Y-7233600D01*
X6711000Y-7688900D02*
X6751000Y-7728900D01*
X6751000Y-7688900D02*
X6711000Y-7728900D01*
X6711000Y-9060500D02*
X6751000Y-9100500D01*
X6751000Y-9060500D02*
X6711000Y-9100500D01*
X6838000Y-5161600D02*
X6878000Y-5201600D01*
X6878000Y-5161600D02*
X6838000Y-5201600D01*
X6838000Y-5568000D02*
X6878000Y-5608000D01*
X6878000Y-5568000D02*
X6838000Y-5608000D01*
X6838000Y-8692200D02*
X6878000Y-8732200D01*
X6878000Y-8692200D02*
X6838000Y-8732200D01*
X6839600Y-7182500D02*
X6879600Y-7222500D01*
X6879600Y-7182500D02*
X6839600Y-7222500D01*
X6839600Y-7690500D02*
X6879600Y-7730500D01*
X6879600Y-7690500D02*
X6839600Y-7730500D01*
X7092000Y-2901000D02*
X7132000Y-2941000D01*
X7132000Y-2901000D02*
X7092000Y-2941000D01*
X7092000Y-3409000D02*
X7132000Y-3449000D01*
X7132000Y-3409000D02*
X7092000Y-3449000D01*
X7092000Y-3917000D02*
X7132000Y-3957000D01*
X7132000Y-3917000D02*
X7092000Y-3957000D01*
X7346000Y-5568000D02*
X7386000Y-5608000D01*
X7386000Y-5568000D02*
X7346000Y-5608000D01*
X7346000Y-8616000D02*
X7386000Y-8656000D01*
X7386000Y-8616000D02*
X7346000Y-8656000D01*
X7727000Y-5669600D02*
X7767000Y-5709600D01*
X7767000Y-5669600D02*
X7727000Y-5709600D01*
X7727000Y-7180900D02*
X7767000Y-7220900D01*
X7767000Y-7180900D02*
X7727000Y-7220900D01*
X7854000Y-7282500D02*
X7894000Y-7322500D01*
X7894000Y-7282500D02*
X7854000Y-7322500D01*
X7892100Y-5669600D02*
X7932100Y-5709600D01*
X7932100Y-5669600D02*
X7892100Y-5709600D01*
X8108000Y-5466400D02*
X8148000Y-5506400D01*
X8148000Y-5466400D02*
X8108000Y-5506400D01*
X8108000Y-6584000D02*
X8148000Y-6624000D01*
X8148000Y-6584000D02*
X8108000Y-6624000D01*
X8108000Y-7603750D02*
X8148000Y-7643750D01*
X8148000Y-7603750D02*
X8108000Y-7643750D01*
X8108000Y-8616000D02*
X8148000Y-8656000D01*
X8148000Y-8616000D02*
X8108000Y-8656000D01*
X8158800Y-3942400D02*
X8198800Y-3982400D01*
X8198800Y-3942400D02*
X8158800Y-3982400D01*
X8235000Y-7028500D02*
X8275000Y-7068500D01*
X8275000Y-7028500D02*
X8235000Y-7068500D01*
X8298500Y-6126800D02*
X8338500Y-6166800D01*
X8338500Y-6126800D02*
X8298500Y-6166800D01*
X8489000Y-5898200D02*
X8529000Y-5938200D01*
X8529000Y-5898200D02*
X8489000Y-5938200D01*
X8489000Y-7180900D02*
X8529000Y-7220900D01*
X8529000Y-7180900D02*
X8489000Y-7220900D01*
X8489000Y-9060500D02*
X8529000Y-9100500D01*
X8529000Y-9060500D02*
X8489000Y-9100500D01*
X8743000Y-7705150D02*
X8783000Y-7745150D01*
X8783000Y-7705150D02*
X8743000Y-7745150D01*
X8870000Y-7282500D02*
X8910000Y-7322500D01*
X8910000Y-7282500D02*
X8870000Y-7322500D01*
X8870000Y-8616000D02*
X8910000Y-8656000D01*
X8910000Y-8616000D02*
X8870000Y-8656000D01*
X8997000Y-7028500D02*
X9037000Y-7068500D01*
X9037000Y-7028500D02*
X8997000Y-7068500D01*
X9124000Y-5910900D02*
X9164000Y-5950900D01*
X9164000Y-5910900D02*
X9124000Y-5950900D01*
X9124000Y-6596700D02*
X9164000Y-6636700D01*
X9164000Y-6596700D02*
X9124000Y-6636700D01*
X9124000Y-8616000D02*
X9164000Y-8656000D01*
X9164000Y-8616000D02*
X9124000Y-8656000D01*
X9251000Y-7028500D02*
X9291000Y-7068500D01*
X9291000Y-7028500D02*
X9251000Y-7068500D01*
X9251000Y-8095300D02*
X9291000Y-8135300D01*
X9291000Y-8095300D02*
X9251000Y-8135300D01*
X9378000Y-5885500D02*
X9418000Y-5925500D01*
X9418000Y-5885500D02*
X9378000Y-5925500D01*
X9505000Y-7536500D02*
X9545000Y-7576500D01*
X9545000Y-7536500D02*
X9505000Y-7576500D01*
X9632000Y-3663000D02*
X9672000Y-3703000D01*
X9672000Y-3663000D02*
X9632000Y-3703000D01*
X9632000Y-8616000D02*
X9672000Y-8656000D01*
X9672000Y-8616000D02*
X9632000Y-8656000D01*
X9886000Y-4298000D02*
X9926000Y-4338000D01*
X9926000Y-4298000D02*
X9886000Y-4338000D01*
X9886000Y-5809300D02*
X9926000Y-5849300D01*
X9926000Y-5809300D02*
X9886000Y-5849300D01*
X9886000Y-8044500D02*
X9926000Y-8084500D01*
X9926000Y-8044500D02*
X9886000Y-8084500D01*
X9949500Y-2647000D02*
X9989500Y-2687000D01*
X9989500Y-2647000D02*
X9949500Y-2687000D01*
X9962200Y-3078800D02*
X10002200Y-3118800D01*
X10002200Y-3078800D02*
X9962200Y-3118800D01*
X10140000Y-5250500D02*
X10180000Y-5290500D01*
X10180000Y-5250500D02*
X10140000Y-5290500D01*
X10140000Y-8616000D02*
X10180000Y-8656000D01*
X10180000Y-8616000D02*
X10140000Y-8656000D01*
X10267000Y-8044500D02*
X10307000Y-8084500D01*
X10307000Y-8044500D02*
X10267000Y-8084500D01*
X10305100Y-6609400D02*
X10345100Y-6649400D01*
X10345100Y-6609400D02*
X10305100Y-6649400D01*
X10394000Y-5695000D02*
X10434000Y-5735000D01*
X10434000Y-5695000D02*
X10394000Y-5735000D01*
X10457500Y-5123500D02*
X10497500Y-5163500D01*
X10497500Y-5123500D02*
X10457500Y-5163500D01*
X10965500Y-4234500D02*
X11005500Y-4274500D01*
X11005500Y-4234500D02*
X10965500Y-4274500D01*
X10965500Y-4806000D02*
X11005500Y-4846000D01*
X11005500Y-4806000D02*
X10965500Y-4846000D01*
X10965500Y-5568000D02*
X11005500Y-5608000D01*
X11005500Y-5568000D02*
X10965500Y-5608000D01*
X11016300Y-5402900D02*
X11056300Y-5442900D01*
X11056300Y-5402900D02*
X11016300Y-5442900D01*
X11029000Y-8933500D02*
X11069000Y-8973500D01*
X11069000Y-8933500D02*
X11029000Y-8973500D01*
X11410000Y-6838000D02*
X11450000Y-6878000D01*
X11450000Y-6838000D02*
X11410000Y-6878000D01*
X11410000Y-8044500D02*
X11450000Y-8084500D01*
X11450000Y-8044500D02*
X11410000Y-8084500D01*
X11918000Y-5060000D02*
X11958000Y-5100000D01*
X11958000Y-5060000D02*
X11918000Y-5100000D01*
X11918000Y-5822000D02*
X11958000Y-5862000D01*
X11958000Y-5822000D02*
X11918000Y-5862000D01*
X11918000Y-7346000D02*
X11958000Y-7386000D01*
X11958000Y-7346000D02*
X11918000Y-7386000D01*
X12045000Y-4044000D02*
X12085000Y-4084000D01*
X12085000Y-4044000D02*
X12045000Y-4084000D01*
X11262000Y-2802000D02*
G75*
G03*
X11262000Y-2802000I-20000J0D01*
G01*
D11*
X11292000Y-2782000D02*
X11192000Y-2782000D01*
X11292000Y-2822000D02*
X11192000Y-2822000D01*
X11192000Y-2782000D02*
G75*
G03*
X11192000Y-2822000I0J-20000D01*
G01*
X11292000Y-2822000D02*
G75*
G03*
X11292000Y-2782000I0J20000D01*
G01*
D12*
X11262000Y-3052000D02*
G75*
G03*
X11262000Y-3052000I-20000J0D01*
G01*
D11*
X11292000Y-3032000D02*
X11192000Y-3032000D01*
X11292000Y-3072000D02*
X11192000Y-3072000D01*
X11192000Y-3032000D02*
G75*
G03*
X11192000Y-3072000I0J-20000D01*
G01*
X11292000Y-3072000D02*
G75*
G03*
X11292000Y-3032000I0J20000D01*
G01*
D12*
X11262000Y-3552000D02*
G75*
G03*
X11262000Y-3552000I-20000J0D01*
G01*
D11*
X11192000Y-3572000D02*
X11292000Y-3572000D01*
X11192000Y-3532000D02*
X11292000Y-3532000D01*
X11292000Y-3572000D02*
G75*
G03*
X11292000Y-3532000I0J20000D01*
G01*
X11192000Y-3532000D02*
G75*
G03*
X11192000Y-3572000I0J-20000D01*
G01*
D12*
X11262000Y-3802000D02*
G75*
G03*
X11262000Y-3802000I-20000J0D01*
G01*
D11*
X11192000Y-3822000D02*
X11292000Y-3822000D01*
X11192000Y-3782000D02*
X11292000Y-3782000D01*
X11292000Y-3822000D02*
G75*
G03*
X11292000Y-3782000I0J20000D01*
G01*
X11192000Y-3782000D02*
G75*
G03*
X11192000Y-3822000I0J-20000D01*
G01*
D12*
X11762000Y-3302000D02*
G75*
G03*
X11762000Y-3302000I-20000J0D01*
G01*
D11*
X11762000Y-3352000D02*
X11762000Y-3252000D01*
X11722000Y-3352000D02*
X11722000Y-3252000D01*
X11762000Y-3252000D02*
G75*
G03*
X11722000Y-3252000I-20000J0D01*
G01*
X11722000Y-3352000D02*
G75*
G03*
X11762000Y-3352000I20000J0D01*
G01*
D13*
X4635500Y-8928500D02*
X4635500Y-8978500D01*
X4610500Y-8953500D02*
X4660500Y-8953500D01*
X6473077Y-8924577D02*
X6473077Y-8974577D01*
X6448077Y-8949577D02*
X6498077Y-8949577D01*
X6489700Y-4991500D02*
X6489700Y-5041500D01*
X6464700Y-5016500D02*
X6514700Y-5016500D01*
D14*
X3199749Y-7708249D02*
X3199749Y-7658751D01*
X3150251Y-7658751D01*
X3150251Y-7708249D01*
X3199749Y-7708249D01*
X3199749Y-8470249D02*
X3199749Y-8420751D01*
X3150251Y-8420751D01*
X3150251Y-8470249D01*
X3199749Y-8470249D01*
X3263249Y-4825349D02*
X3263249Y-4775851D01*
X3213751Y-4775851D01*
X3213751Y-4825349D01*
X3263249Y-4825349D01*
X4025249Y-4825349D02*
X4025249Y-4775851D01*
X3975751Y-4775851D01*
X3975751Y-4825349D01*
X4025249Y-4825349D01*
X5422249Y-3707749D02*
X5422249Y-3658251D01*
X5372751Y-3658251D01*
X5372751Y-3707749D01*
X5422249Y-3707749D01*
X5422249Y-4469749D02*
X5422249Y-4420251D01*
X5372751Y-4420251D01*
X5372751Y-4469749D01*
X5422249Y-4469749D01*
X5676249Y-3707749D02*
X5676249Y-3658251D01*
X5626751Y-3658251D01*
X5626751Y-3707749D01*
X5676249Y-3707749D01*
X5676249Y-4469749D02*
X5676249Y-4420251D01*
X5626751Y-4420251D01*
X5626751Y-4469749D01*
X5676249Y-4469749D01*
X5930249Y-3707749D02*
X5930249Y-3658251D01*
X5880751Y-3658251D01*
X5880751Y-3707749D01*
X5930249Y-3707749D01*
X5930249Y-4469749D02*
X5930249Y-4420251D01*
X5880751Y-4420251D01*
X5880751Y-4469749D01*
X5930249Y-4469749D01*
X6184249Y-3707749D02*
X6184249Y-3658251D01*
X6134751Y-3658251D01*
X6134751Y-3707749D01*
X6184249Y-3707749D01*
X6184249Y-4469749D02*
X6184249Y-4420251D01*
X6134751Y-4420251D01*
X6134751Y-4469749D01*
X6184249Y-4469749D01*
X6438249Y-3707749D02*
X6438249Y-3658251D01*
X6388751Y-3658251D01*
X6388751Y-3707749D01*
X6438249Y-3707749D01*
X6438249Y-4469749D02*
X6438249Y-4420251D01*
X6388751Y-4420251D01*
X6388751Y-4469749D01*
X6438249Y-4469749D01*
X6692249Y-3707749D02*
X6692249Y-3658251D01*
X6642751Y-3658251D01*
X6642751Y-3707749D01*
X6692249Y-3707749D01*
X6692249Y-4469749D02*
X6692249Y-4420251D01*
X6642751Y-4420251D01*
X6642751Y-4469749D01*
X6692249Y-4469749D01*
X6946249Y-3707749D02*
X6946249Y-3658251D01*
X6896751Y-3658251D01*
X6896751Y-3707749D01*
X6946249Y-3707749D01*
X6946249Y-4469749D02*
X6946249Y-4420251D01*
X6896751Y-4420251D01*
X6896751Y-4469749D01*
X6946249Y-4469749D01*
X7200249Y-3707749D02*
X7200249Y-3658251D01*
X7150751Y-3658251D01*
X7150751Y-3707749D01*
X7200249Y-3707749D01*
X7200249Y-4469749D02*
X7200249Y-4420251D01*
X7150751Y-4420251D01*
X7150751Y-4469749D01*
X7200249Y-4469749D01*
X7441549Y-3707749D02*
X7441549Y-3658251D01*
X7392051Y-3658251D01*
X7392051Y-3707749D01*
X7441549Y-3707749D01*
X7441549Y-4469749D02*
X7441549Y-4420251D01*
X7392051Y-4420251D01*
X7392051Y-4469749D01*
X7441549Y-4469749D01*
X7962249Y-3707749D02*
X7962249Y-3658251D01*
X7912751Y-3658251D01*
X7912751Y-3707749D01*
X7962249Y-3707749D01*
X7962249Y-4469749D02*
X7962249Y-4420251D01*
X7912751Y-4420251D01*
X7912751Y-4469749D01*
X7962249Y-4469749D01*
X8216249Y-3707749D02*
X8216249Y-3658251D01*
X8166751Y-3658251D01*
X8166751Y-3707749D01*
X8216249Y-3707749D01*
X8216249Y-4469749D02*
X8216249Y-4420251D01*
X8166751Y-4420251D01*
X8166751Y-4469749D01*
X8216249Y-4469749D01*
X8597249Y-3707749D02*
X8597249Y-3658251D01*
X8547751Y-3658251D01*
X8547751Y-3707749D01*
X8597249Y-3707749D01*
X8597249Y-4469749D02*
X8597249Y-4420251D01*
X8547751Y-4420251D01*
X8547751Y-4469749D01*
X8597249Y-4469749D01*
X9105249Y-3707749D02*
X9105249Y-3658251D01*
X9055751Y-3658251D01*
X9055751Y-3707749D01*
X9105249Y-3707749D01*
X9105249Y-4469749D02*
X9105249Y-4420251D01*
X9055751Y-4420251D01*
X9055751Y-4469749D01*
X9105249Y-4469749D01*
X10883249Y-6755749D02*
X10883249Y-6706251D01*
X10833751Y-6706251D01*
X10833751Y-6755749D01*
X10883249Y-6755749D01*
X10883249Y-7517749D02*
X10883249Y-7468251D01*
X10833751Y-7468251D01*
X10833751Y-7517749D01*
X10883249Y-7517749D01*
X11200749Y-7771749D02*
X11200749Y-7722251D01*
X11151251Y-7722251D01*
X11151251Y-7771749D01*
X11200749Y-7771749D01*
X11200749Y-8533749D02*
X11200749Y-8484251D01*
X11151251Y-8484251D01*
X11151251Y-8533749D01*
X11200749Y-8533749D01*
X11327749Y-4977749D02*
X11327749Y-4928251D01*
X11278251Y-4928251D01*
X11278251Y-4977749D01*
X11327749Y-4977749D01*
X11327749Y-5231749D02*
X11327749Y-5182251D01*
X11278251Y-5182251D01*
X11278251Y-5231749D01*
X11327749Y-5231749D01*
X11327749Y-5739749D02*
X11327749Y-5690251D01*
X11278251Y-5690251D01*
X11278251Y-5739749D01*
X11327749Y-5739749D01*
X11327749Y-5993749D02*
X11327749Y-5944251D01*
X11278251Y-5944251D01*
X11278251Y-5993749D01*
X11327749Y-5993749D01*
X11327749Y-6247749D02*
X11327749Y-6198251D01*
X11278251Y-6198251D01*
X11278251Y-6247749D01*
X11327749Y-6247749D01*
X11327749Y-6501749D02*
X11327749Y-6452251D01*
X11278251Y-6452251D01*
X11278251Y-6501749D01*
X11327749Y-6501749D01*
X11327749Y-6755749D02*
X11327749Y-6706251D01*
X11278251Y-6706251D01*
X11278251Y-6755749D01*
X11327749Y-6755749D01*
X11327749Y-7009749D02*
X11327749Y-6960251D01*
X11278251Y-6960251D01*
X11278251Y-7009749D01*
X11327749Y-7009749D01*
X11327749Y-7263749D02*
X11327749Y-7214251D01*
X11278251Y-7214251D01*
X11278251Y-7263749D01*
X11327749Y-7263749D01*
X11327749Y-7530449D02*
X11327749Y-7480951D01*
X11278251Y-7480951D01*
X11278251Y-7530449D01*
X11327749Y-7530449D01*
X12089749Y-4977749D02*
X12089749Y-4928251D01*
X12040251Y-4928251D01*
X12040251Y-4977749D01*
X12089749Y-4977749D01*
X12089749Y-5231749D02*
X12089749Y-5182251D01*
X12040251Y-5182251D01*
X12040251Y-5231749D01*
X12089749Y-5231749D01*
X12089749Y-5739749D02*
X12089749Y-5690251D01*
X12040251Y-5690251D01*
X12040251Y-5739749D01*
X12089749Y-5739749D01*
X12089749Y-5993749D02*
X12089749Y-5944251D01*
X12040251Y-5944251D01*
X12040251Y-5993749D01*
X12089749Y-5993749D01*
X12089749Y-6247749D02*
X12089749Y-6198251D01*
X12040251Y-6198251D01*
X12040251Y-6247749D01*
X12089749Y-6247749D01*
X12089749Y-6501749D02*
X12089749Y-6452251D01*
X12040251Y-6452251D01*
X12040251Y-6501749D01*
X12089749Y-6501749D01*
X12089749Y-6755749D02*
X12089749Y-6706251D01*
X12040251Y-6706251D01*
X12040251Y-6755749D01*
X12089749Y-6755749D01*
X12089749Y-7009749D02*
X12089749Y-6960251D01*
X12040251Y-6960251D01*
X12040251Y-7009749D01*
X12089749Y-7009749D01*
X12089749Y-7263749D02*
X12089749Y-7214251D01*
X12040251Y-7214251D01*
X12040251Y-7263749D01*
X12089749Y-7263749D01*
X12089749Y-7530449D02*
X12089749Y-7480951D01*
X12040251Y-7480951D01*
X12040251Y-7530449D01*
X12089749Y-7530449D01*
D15*
X3683000Y-8483000D02*
X3720500Y-8445500D01*
X3683000Y-8408000D01*
X3645500Y-8445500D01*
X3683000Y-8483000D01*
X3810000Y-8483000D02*
X3847500Y-8445500D01*
X3810000Y-8408000D01*
X3772500Y-8445500D01*
X3810000Y-8483000D01*
X3937000Y-8483000D02*
X3974500Y-8445500D01*
X3937000Y-8408000D01*
X3899500Y-8445500D01*
X3937000Y-8483000D01*
X11775000Y-7848000D02*
X11812500Y-7810500D01*
X11775000Y-7773000D01*
X11737500Y-7810500D01*
X11775000Y-7848000D01*
X11775000Y-7975000D02*
X11812500Y-7937500D01*
X11775000Y-7900000D01*
X11737500Y-7937500D01*
X11775000Y-7975000D01*
X11775000Y-8102000D02*
X11812500Y-8064500D01*
X11775000Y-8027000D01*
X11737500Y-8064500D01*
X11775000Y-8102000D01*
X11775000Y-8419500D02*
X11812500Y-8382000D01*
X11775000Y-8344500D01*
X11737500Y-8382000D01*
X11775000Y-8419500D01*
X11775000Y-8546500D02*
X11812500Y-8509000D01*
X11775000Y-8471500D01*
X11737500Y-8509000D01*
X11775000Y-8546500D01*
X11775000Y-8673500D02*
X11812500Y-8636000D01*
X11775000Y-8598500D01*
X11737500Y-8636000D01*
X11775000Y-8673500D01*
D16*
X2944500Y-4341500D02*
X3024500Y-4421500D01*
X3024500Y-4341500D02*
X2944500Y-4421500D01*
X3024500Y-4381500D02*
G75*
G03*
X3024500Y-4381500I-40000J0D01*
G01*
X2944500Y-4841500D02*
X3024500Y-4921500D01*
X3024500Y-4841500D02*
X2944500Y-4921500D01*
X3024500Y-4881500D02*
G75*
G03*
X3024500Y-4881500I-40000J0D01*
G01*
X3262000Y-5548000D02*
X3342000Y-5628000D01*
X3342000Y-5548000D02*
X3262000Y-5628000D01*
X3342000Y-5588000D02*
G75*
G03*
X3342000Y-5588000I-40000J0D01*
G01*
X3262000Y-5802000D02*
X3342000Y-5882000D01*
X3342000Y-5802000D02*
X3262000Y-5882000D01*
X3342000Y-5842000D02*
G75*
G03*
X3342000Y-5842000I-40000J0D01*
G01*
X3262000Y-6056000D02*
X3342000Y-6136000D01*
X3342000Y-6056000D02*
X3262000Y-6136000D01*
X3342000Y-6096000D02*
G75*
G03*
X3342000Y-6096000I-40000J0D01*
G01*
X3262000Y-6310000D02*
X3342000Y-6390000D01*
X3342000Y-6310000D02*
X3262000Y-6390000D01*
X3342000Y-6350000D02*
G75*
G03*
X3342000Y-6350000I-40000J0D01*
G01*
X3262000Y-6564000D02*
X3342000Y-6644000D01*
X3342000Y-6564000D02*
X3262000Y-6644000D01*
X3342000Y-6604000D02*
G75*
G03*
X3342000Y-6604000I-40000J0D01*
G01*
X3262000Y-6818000D02*
X3342000Y-6898000D01*
X3342000Y-6818000D02*
X3262000Y-6898000D01*
X3342000Y-6858000D02*
G75*
G03*
X3342000Y-6858000I-40000J0D01*
G01*
X3516000Y-5294000D02*
X3596000Y-5374000D01*
X3596000Y-5294000D02*
X3516000Y-5374000D01*
X3596000Y-5334000D02*
G75*
G03*
X3596000Y-5334000I-40000J0D01*
G01*
X3516000Y-5548000D02*
X3596000Y-5628000D01*
X3596000Y-5548000D02*
X3516000Y-5628000D01*
X3596000Y-5588000D02*
G75*
G03*
X3596000Y-5588000I-40000J0D01*
G01*
X3516000Y-5802000D02*
X3596000Y-5882000D01*
X3596000Y-5802000D02*
X3516000Y-5882000D01*
X3596000Y-5842000D02*
G75*
G03*
X3596000Y-5842000I-40000J0D01*
G01*
X3516000Y-6056000D02*
X3596000Y-6136000D01*
X3596000Y-6056000D02*
X3516000Y-6136000D01*
X3596000Y-6096000D02*
G75*
G03*
X3596000Y-6096000I-40000J0D01*
G01*
X3516000Y-6310000D02*
X3596000Y-6390000D01*
X3596000Y-6310000D02*
X3516000Y-6390000D01*
X3596000Y-6350000D02*
G75*
G03*
X3596000Y-6350000I-40000J0D01*
G01*
X3516000Y-6564000D02*
X3596000Y-6644000D01*
X3596000Y-6564000D02*
X3516000Y-6644000D01*
X3596000Y-6604000D02*
G75*
G03*
X3596000Y-6604000I-40000J0D01*
G01*
X3516000Y-6818000D02*
X3596000Y-6898000D01*
X3596000Y-6818000D02*
X3516000Y-6898000D01*
X3596000Y-6858000D02*
G75*
G03*
X3596000Y-6858000I-40000J0D01*
G01*
X3516000Y-7072000D02*
X3596000Y-7152000D01*
X3596000Y-7072000D02*
X3516000Y-7152000D01*
X3596000Y-7112000D02*
G75*
G03*
X3596000Y-7112000I-40000J0D01*
G01*
X3714500Y-7580000D02*
X3794500Y-7660000D01*
X3794500Y-7580000D02*
X3714500Y-7660000D01*
X3794500Y-7620000D02*
G75*
G03*
X3794500Y-7620000I-40000J0D01*
G01*
X3714500Y-7834000D02*
X3794500Y-7914000D01*
X3794500Y-7834000D02*
X3714500Y-7914000D01*
X3794500Y-7874000D02*
G75*
G03*
X3794500Y-7874000I-40000J0D01*
G01*
X3770000Y-5294000D02*
X3850000Y-5374000D01*
X3850000Y-5294000D02*
X3770000Y-5374000D01*
X3850000Y-5334000D02*
G75*
G03*
X3850000Y-5334000I-40000J0D01*
G01*
X3770000Y-5548000D02*
X3850000Y-5628000D01*
X3850000Y-5548000D02*
X3770000Y-5628000D01*
X3850000Y-5588000D02*
G75*
G03*
X3850000Y-5588000I-40000J0D01*
G01*
X3770000Y-6818000D02*
X3850000Y-6898000D01*
X3850000Y-6818000D02*
X3770000Y-6898000D01*
X3850000Y-6858000D02*
G75*
G03*
X3850000Y-6858000I-40000J0D01*
G01*
X3770000Y-7072000D02*
X3850000Y-7152000D01*
X3850000Y-7072000D02*
X3770000Y-7152000D01*
X3850000Y-7112000D02*
G75*
G03*
X3850000Y-7112000I-40000J0D01*
G01*
X4024000Y-5294000D02*
X4104000Y-5374000D01*
X4104000Y-5294000D02*
X4024000Y-5374000D01*
X4104000Y-5334000D02*
G75*
G03*
X4104000Y-5334000I-40000J0D01*
G01*
X4024000Y-5548000D02*
X4104000Y-5628000D01*
X4104000Y-5548000D02*
X4024000Y-5628000D01*
X4104000Y-5588000D02*
G75*
G03*
X4104000Y-5588000I-40000J0D01*
G01*
X4024000Y-6818000D02*
X4104000Y-6898000D01*
X4104000Y-6818000D02*
X4024000Y-6898000D01*
X4104000Y-6858000D02*
G75*
G03*
X4104000Y-6858000I-40000J0D01*
G01*
X4024000Y-7072000D02*
X4104000Y-7152000D01*
X4104000Y-7072000D02*
X4024000Y-7152000D01*
X4104000Y-7112000D02*
G75*
G03*
X4104000Y-7112000I-40000J0D01*
G01*
X4214500Y-7580000D02*
X4294500Y-7660000D01*
X4294500Y-7580000D02*
X4214500Y-7660000D01*
X4294500Y-7620000D02*
G75*
G03*
X4294500Y-7620000I-40000J0D01*
G01*
X4214500Y-7834000D02*
X4294500Y-7914000D01*
X4294500Y-7834000D02*
X4214500Y-7914000D01*
X4294500Y-7874000D02*
G75*
G03*
X4294500Y-7874000I-40000J0D01*
G01*
X4278000Y-4760600D02*
X4358000Y-4840600D01*
X4358000Y-4760600D02*
X4278000Y-4840600D01*
X4358000Y-4800600D02*
G75*
G03*
X4358000Y-4800600I-40000J0D01*
G01*
X4278000Y-5294000D02*
X4358000Y-5374000D01*
X4358000Y-5294000D02*
X4278000Y-5374000D01*
X4358000Y-5334000D02*
G75*
G03*
X4358000Y-5334000I-40000J0D01*
G01*
X4278000Y-5548000D02*
X4358000Y-5628000D01*
X4358000Y-5548000D02*
X4278000Y-5628000D01*
X4358000Y-5588000D02*
G75*
G03*
X4358000Y-5588000I-40000J0D01*
G01*
X4278000Y-6818000D02*
X4358000Y-6898000D01*
X4358000Y-6818000D02*
X4278000Y-6898000D01*
X4358000Y-6858000D02*
G75*
G03*
X4358000Y-6858000I-40000J0D01*
G01*
X4278000Y-7072000D02*
X4358000Y-7152000D01*
X4358000Y-7072000D02*
X4278000Y-7152000D01*
X4358000Y-7112000D02*
G75*
G03*
X4358000Y-7112000I-40000J0D01*
G01*
X4476500Y-8596000D02*
X4556500Y-8676000D01*
X4556500Y-8596000D02*
X4476500Y-8676000D01*
X4556500Y-8636000D02*
G75*
G03*
X4556500Y-8636000I-40000J0D01*
G01*
X4532000Y-5294000D02*
X4612000Y-5374000D01*
X4612000Y-5294000D02*
X4532000Y-5374000D01*
X4612000Y-5334000D02*
G75*
G03*
X4612000Y-5334000I-40000J0D01*
G01*
X4532000Y-5548000D02*
X4612000Y-5628000D01*
X4612000Y-5548000D02*
X4532000Y-5628000D01*
X4612000Y-5588000D02*
G75*
G03*
X4612000Y-5588000I-40000J0D01*
G01*
X4532000Y-6818000D02*
X4612000Y-6898000D01*
X4612000Y-6818000D02*
X4532000Y-6898000D01*
X4612000Y-6858000D02*
G75*
G03*
X4612000Y-6858000I-40000J0D01*
G01*
X4532000Y-7072000D02*
X4612000Y-7152000D01*
X4612000Y-7072000D02*
X4532000Y-7152000D01*
X4612000Y-7112000D02*
G75*
G03*
X4612000Y-7112000I-40000J0D01*
G01*
X4778000Y-4760600D02*
X4858000Y-4840600D01*
X4858000Y-4760600D02*
X4778000Y-4840600D01*
X4858000Y-4800600D02*
G75*
G03*
X4858000Y-4800600I-40000J0D01*
G01*
X4786000Y-5294000D02*
X4866000Y-5374000D01*
X4866000Y-5294000D02*
X4786000Y-5374000D01*
X4866000Y-5334000D02*
G75*
G03*
X4866000Y-5334000I-40000J0D01*
G01*
X4786000Y-5548000D02*
X4866000Y-5628000D01*
X4866000Y-5548000D02*
X4786000Y-5628000D01*
X4866000Y-5588000D02*
G75*
G03*
X4866000Y-5588000I-40000J0D01*
G01*
X4786000Y-5802000D02*
X4866000Y-5882000D01*
X4866000Y-5802000D02*
X4786000Y-5882000D01*
X4866000Y-5842000D02*
G75*
G03*
X4866000Y-5842000I-40000J0D01*
G01*
X4786000Y-6056000D02*
X4866000Y-6136000D01*
X4866000Y-6056000D02*
X4786000Y-6136000D01*
X4866000Y-6096000D02*
G75*
G03*
X4866000Y-6096000I-40000J0D01*
G01*
X4786000Y-6310000D02*
X4866000Y-6390000D01*
X4866000Y-6310000D02*
X4786000Y-6390000D01*
X4866000Y-6350000D02*
G75*
G03*
X4866000Y-6350000I-40000J0D01*
G01*
X4786000Y-6564000D02*
X4866000Y-6644000D01*
X4866000Y-6564000D02*
X4786000Y-6644000D01*
X4866000Y-6604000D02*
G75*
G03*
X4866000Y-6604000I-40000J0D01*
G01*
X4786000Y-6818000D02*
X4866000Y-6898000D01*
X4866000Y-6818000D02*
X4786000Y-6898000D01*
X4866000Y-6858000D02*
G75*
G03*
X4866000Y-6858000I-40000J0D01*
G01*
X4786000Y-7072000D02*
X4866000Y-7152000D01*
X4866000Y-7072000D02*
X4786000Y-7152000D01*
X4866000Y-7112000D02*
G75*
G03*
X4866000Y-7112000I-40000J0D01*
G01*
X4976500Y-8596000D02*
X5056500Y-8676000D01*
X5056500Y-8596000D02*
X4976500Y-8676000D01*
X5056500Y-8636000D02*
G75*
G03*
X5056500Y-8636000I-40000J0D01*
G01*
X5040000Y-5548000D02*
X5120000Y-5628000D01*
X5120000Y-5548000D02*
X5040000Y-5628000D01*
X5120000Y-5588000D02*
G75*
G03*
X5120000Y-5588000I-40000J0D01*
G01*
X5040000Y-5802000D02*
X5120000Y-5882000D01*
X5120000Y-5802000D02*
X5040000Y-5882000D01*
X5120000Y-5842000D02*
G75*
G03*
X5120000Y-5842000I-40000J0D01*
G01*
X5040000Y-6056000D02*
X5120000Y-6136000D01*
X5120000Y-6056000D02*
X5040000Y-6136000D01*
X5120000Y-6096000D02*
G75*
G03*
X5120000Y-6096000I-40000J0D01*
G01*
X5040000Y-6310000D02*
X5120000Y-6390000D01*
X5120000Y-6310000D02*
X5040000Y-6390000D01*
X5120000Y-6350000D02*
G75*
G03*
X5120000Y-6350000I-40000J0D01*
G01*
X5040000Y-6564000D02*
X5120000Y-6644000D01*
X5120000Y-6564000D02*
X5040000Y-6644000D01*
X5120000Y-6604000D02*
G75*
G03*
X5120000Y-6604000I-40000J0D01*
G01*
X5040000Y-6818000D02*
X5120000Y-6898000D01*
X5120000Y-6818000D02*
X5040000Y-6898000D01*
X5120000Y-6858000D02*
G75*
G03*
X5120000Y-6858000I-40000J0D01*
G01*
X5675000Y-4786000D02*
X5755000Y-4866000D01*
X5755000Y-4786000D02*
X5675000Y-4866000D01*
X5755000Y-4826000D02*
G75*
G03*
X5755000Y-4826000I-40000J0D01*
G01*
X5675000Y-6310000D02*
X5755000Y-6390000D01*
X5755000Y-6310000D02*
X5675000Y-6390000D01*
X5755000Y-6350000D02*
G75*
G03*
X5755000Y-6350000I-40000J0D01*
G01*
X5675000Y-6818000D02*
X5755000Y-6898000D01*
X5755000Y-6818000D02*
X5675000Y-6898000D01*
X5755000Y-6858000D02*
G75*
G03*
X5755000Y-6858000I-40000J0D01*
G01*
X5675000Y-8342000D02*
X5755000Y-8422000D01*
X5755000Y-8342000D02*
X5675000Y-8422000D01*
X5755000Y-8382000D02*
G75*
G03*
X5755000Y-8382000I-40000J0D01*
G01*
X5929000Y-4786000D02*
X6009000Y-4866000D01*
X6009000Y-4786000D02*
X5929000Y-4866000D01*
X6009000Y-4826000D02*
G75*
G03*
X6009000Y-4826000I-40000J0D01*
G01*
X5929000Y-6310000D02*
X6009000Y-6390000D01*
X6009000Y-6310000D02*
X5929000Y-6390000D01*
X6009000Y-6350000D02*
G75*
G03*
X6009000Y-6350000I-40000J0D01*
G01*
X5929000Y-6818000D02*
X6009000Y-6898000D01*
X6009000Y-6818000D02*
X5929000Y-6898000D01*
X6009000Y-6858000D02*
G75*
G03*
X6009000Y-6858000I-40000J0D01*
G01*
X5929000Y-8342000D02*
X6009000Y-8422000D01*
X6009000Y-8342000D02*
X5929000Y-8422000D01*
X6009000Y-8382000D02*
G75*
G03*
X6009000Y-8382000I-40000J0D01*
G01*
X6183000Y-4786000D02*
X6263000Y-4866000D01*
X6263000Y-4786000D02*
X6183000Y-4866000D01*
X6263000Y-4826000D02*
G75*
G03*
X6263000Y-4826000I-40000J0D01*
G01*
X6183000Y-6310000D02*
X6263000Y-6390000D01*
X6263000Y-6310000D02*
X6183000Y-6390000D01*
X6263000Y-6350000D02*
G75*
G03*
X6263000Y-6350000I-40000J0D01*
G01*
X6183000Y-6818000D02*
X6263000Y-6898000D01*
X6263000Y-6818000D02*
X6183000Y-6898000D01*
X6263000Y-6858000D02*
G75*
G03*
X6263000Y-6858000I-40000J0D01*
G01*
X6183000Y-8342000D02*
X6263000Y-8422000D01*
X6263000Y-8342000D02*
X6183000Y-8422000D01*
X6263000Y-8382000D02*
G75*
G03*
X6263000Y-8382000I-40000J0D01*
G01*
X6437000Y-4786000D02*
X6517000Y-4866000D01*
X6517000Y-4786000D02*
X6437000Y-4866000D01*
X6517000Y-4826000D02*
G75*
G03*
X6517000Y-4826000I-40000J0D01*
G01*
X6437000Y-6310000D02*
X6517000Y-6390000D01*
X6517000Y-6310000D02*
X6437000Y-6390000D01*
X6517000Y-6350000D02*
G75*
G03*
X6517000Y-6350000I-40000J0D01*
G01*
X6437000Y-6818000D02*
X6517000Y-6898000D01*
X6517000Y-6818000D02*
X6437000Y-6898000D01*
X6517000Y-6858000D02*
G75*
G03*
X6517000Y-6858000I-40000J0D01*
G01*
X6437000Y-8342000D02*
X6517000Y-8422000D01*
X6517000Y-8342000D02*
X6437000Y-8422000D01*
X6517000Y-8382000D02*
G75*
G03*
X6517000Y-8382000I-40000J0D01*
G01*
X6691000Y-4786000D02*
X6771000Y-4866000D01*
X6771000Y-4786000D02*
X6691000Y-4866000D01*
X6771000Y-4826000D02*
G75*
G03*
X6771000Y-4826000I-40000J0D01*
G01*
X6691000Y-6310000D02*
X6771000Y-6390000D01*
X6771000Y-6310000D02*
X6691000Y-6390000D01*
X6771000Y-6350000D02*
G75*
G03*
X6771000Y-6350000I-40000J0D01*
G01*
X6691000Y-6818000D02*
X6771000Y-6898000D01*
X6771000Y-6818000D02*
X6691000Y-6898000D01*
X6771000Y-6858000D02*
G75*
G03*
X6771000Y-6858000I-40000J0D01*
G01*
X6691000Y-8342000D02*
X6771000Y-8422000D01*
X6771000Y-8342000D02*
X6691000Y-8422000D01*
X6771000Y-8382000D02*
G75*
G03*
X6771000Y-8382000I-40000J0D01*
G01*
X6945000Y-4786000D02*
X7025000Y-4866000D01*
X7025000Y-4786000D02*
X6945000Y-4866000D01*
X7025000Y-4826000D02*
G75*
G03*
X7025000Y-4826000I-40000J0D01*
G01*
X6945000Y-6310000D02*
X7025000Y-6390000D01*
X7025000Y-6310000D02*
X6945000Y-6390000D01*
X7025000Y-6350000D02*
G75*
G03*
X7025000Y-6350000I-40000J0D01*
G01*
X6945000Y-6818000D02*
X7025000Y-6898000D01*
X7025000Y-6818000D02*
X6945000Y-6898000D01*
X7025000Y-6858000D02*
G75*
G03*
X7025000Y-6858000I-40000J0D01*
G01*
X6945000Y-8342000D02*
X7025000Y-8422000D01*
X7025000Y-8342000D02*
X6945000Y-8422000D01*
X7025000Y-8382000D02*
G75*
G03*
X7025000Y-8382000I-40000J0D01*
G01*
X7199000Y-4786000D02*
X7279000Y-4866000D01*
X7279000Y-4786000D02*
X7199000Y-4866000D01*
X7279000Y-4826000D02*
G75*
G03*
X7279000Y-4826000I-40000J0D01*
G01*
X7199000Y-6310000D02*
X7279000Y-6390000D01*
X7279000Y-6310000D02*
X7199000Y-6390000D01*
X7279000Y-6350000D02*
G75*
G03*
X7279000Y-6350000I-40000J0D01*
G01*
X7199000Y-6818000D02*
X7279000Y-6898000D01*
X7279000Y-6818000D02*
X7199000Y-6898000D01*
X7279000Y-6858000D02*
G75*
G03*
X7279000Y-6858000I-40000J0D01*
G01*
X7199000Y-8342000D02*
X7279000Y-8422000D01*
X7279000Y-8342000D02*
X7199000Y-8422000D01*
X7279000Y-8382000D02*
G75*
G03*
X7279000Y-8382000I-40000J0D01*
G01*
X7453000Y-4786000D02*
X7533000Y-4866000D01*
X7533000Y-4786000D02*
X7453000Y-4866000D01*
X7533000Y-4826000D02*
G75*
G03*
X7533000Y-4826000I-40000J0D01*
G01*
X7453000Y-6310000D02*
X7533000Y-6390000D01*
X7533000Y-6310000D02*
X7453000Y-6390000D01*
X7533000Y-6350000D02*
G75*
G03*
X7533000Y-6350000I-40000J0D01*
G01*
X7453000Y-6818000D02*
X7533000Y-6898000D01*
X7533000Y-6818000D02*
X7453000Y-6898000D01*
X7533000Y-6858000D02*
G75*
G03*
X7533000Y-6858000I-40000J0D01*
G01*
X7453000Y-8342000D02*
X7533000Y-8422000D01*
X7533000Y-8342000D02*
X7453000Y-8422000D01*
X7533000Y-8382000D02*
G75*
G03*
X7533000Y-8382000I-40000J0D01*
G01*
X7643500Y-3778000D02*
X7723500Y-3858000D01*
X7723500Y-3778000D02*
X7643500Y-3858000D01*
X7723500Y-3818000D02*
G75*
G03*
X7723500Y-3818000I-40000J0D01*
G01*
X7643500Y-4278000D02*
X7723500Y-4358000D01*
X7723500Y-4278000D02*
X7643500Y-4358000D01*
X7723500Y-4318000D02*
G75*
G03*
X7723500Y-4318000I-40000J0D01*
G01*
X7707000Y-4786000D02*
X7787000Y-4866000D01*
X7787000Y-4786000D02*
X7707000Y-4866000D01*
X7787000Y-4826000D02*
G75*
G03*
X7787000Y-4826000I-40000J0D01*
G01*
X7707000Y-6310000D02*
X7787000Y-6390000D01*
X7787000Y-6310000D02*
X7707000Y-6390000D01*
X7787000Y-6350000D02*
G75*
G03*
X7787000Y-6350000I-40000J0D01*
G01*
X7707000Y-6818000D02*
X7787000Y-6898000D01*
X7787000Y-6818000D02*
X7707000Y-6898000D01*
X7787000Y-6858000D02*
G75*
G03*
X7787000Y-6858000I-40000J0D01*
G01*
X7707000Y-8342000D02*
X7787000Y-8422000D01*
X7787000Y-8342000D02*
X7707000Y-8422000D01*
X7787000Y-8382000D02*
G75*
G03*
X7787000Y-8382000I-40000J0D01*
G01*
X7961000Y-4786000D02*
X8041000Y-4866000D01*
X8041000Y-4786000D02*
X7961000Y-4866000D01*
X8041000Y-4826000D02*
G75*
G03*
X8041000Y-4826000I-40000J0D01*
G01*
X7961000Y-6310000D02*
X8041000Y-6390000D01*
X8041000Y-6310000D02*
X7961000Y-6390000D01*
X8041000Y-6350000D02*
G75*
G03*
X8041000Y-6350000I-40000J0D01*
G01*
X7961000Y-6818000D02*
X8041000Y-6898000D01*
X8041000Y-6818000D02*
X7961000Y-6898000D01*
X8041000Y-6858000D02*
G75*
G03*
X8041000Y-6858000I-40000J0D01*
G01*
X7961000Y-8342000D02*
X8041000Y-8422000D01*
X8041000Y-8342000D02*
X7961000Y-8422000D01*
X8041000Y-8382000D02*
G75*
G03*
X8041000Y-8382000I-40000J0D01*
G01*
X8215000Y-4786000D02*
X8295000Y-4866000D01*
X8295000Y-4786000D02*
X8215000Y-4866000D01*
X8295000Y-4826000D02*
G75*
G03*
X8295000Y-4826000I-40000J0D01*
G01*
X8215000Y-6310000D02*
X8295000Y-6390000D01*
X8295000Y-6310000D02*
X8215000Y-6390000D01*
X8295000Y-6350000D02*
G75*
G03*
X8295000Y-6350000I-40000J0D01*
G01*
X8215000Y-6818000D02*
X8295000Y-6898000D01*
X8295000Y-6818000D02*
X8215000Y-6898000D01*
X8295000Y-6858000D02*
G75*
G03*
X8295000Y-6858000I-40000J0D01*
G01*
X8215000Y-8342000D02*
X8295000Y-8422000D01*
X8295000Y-8342000D02*
X8215000Y-8422000D01*
X8295000Y-8382000D02*
G75*
G03*
X8295000Y-8382000I-40000J0D01*
G01*
X8469000Y-4786000D02*
X8549000Y-4866000D01*
X8549000Y-4786000D02*
X8469000Y-4866000D01*
X8549000Y-4826000D02*
G75*
G03*
X8549000Y-4826000I-40000J0D01*
G01*
X8469000Y-6310000D02*
X8549000Y-6390000D01*
X8549000Y-6310000D02*
X8469000Y-6390000D01*
X8549000Y-6350000D02*
G75*
G03*
X8549000Y-6350000I-40000J0D01*
G01*
X8469000Y-6818000D02*
X8549000Y-6898000D01*
X8549000Y-6818000D02*
X8469000Y-6898000D01*
X8549000Y-6858000D02*
G75*
G03*
X8549000Y-6858000I-40000J0D01*
G01*
X8469000Y-8342000D02*
X8549000Y-8422000D01*
X8549000Y-8342000D02*
X8469000Y-8422000D01*
X8549000Y-8382000D02*
G75*
G03*
X8549000Y-8382000I-40000J0D01*
G01*
X8646800Y-2853111D02*
X8726800Y-2933111D01*
X8726800Y-2853111D02*
X8646800Y-2933111D01*
X8726800Y-2893111D02*
G75*
G03*
X8726800Y-2893111I-40000J0D01*
G01*
X8646800Y-3103111D02*
X8726800Y-3183111D01*
X8726800Y-3103111D02*
X8646800Y-3183111D01*
X8726800Y-3143111D02*
G75*
G03*
X8726800Y-3143111I-40000J0D01*
G01*
X8723000Y-4786000D02*
X8803000Y-4866000D01*
X8803000Y-4786000D02*
X8723000Y-4866000D01*
X8803000Y-4826000D02*
G75*
G03*
X8803000Y-4826000I-40000J0D01*
G01*
X8723000Y-6310000D02*
X8803000Y-6390000D01*
X8803000Y-6310000D02*
X8723000Y-6390000D01*
X8803000Y-6350000D02*
G75*
G03*
X8803000Y-6350000I-40000J0D01*
G01*
X8723000Y-6818000D02*
X8803000Y-6898000D01*
X8803000Y-6818000D02*
X8723000Y-6898000D01*
X8803000Y-6858000D02*
G75*
G03*
X8803000Y-6858000I-40000J0D01*
G01*
X8723000Y-8342000D02*
X8803000Y-8422000D01*
X8803000Y-8342000D02*
X8723000Y-8422000D01*
X8803000Y-8382000D02*
G75*
G03*
X8803000Y-8382000I-40000J0D01*
G01*
X8786500Y-3770000D02*
X8866500Y-3850000D01*
X8866500Y-3770000D02*
X8786500Y-3850000D01*
X8866500Y-3810000D02*
G75*
G03*
X8866500Y-3810000I-40000J0D01*
G01*
X8786500Y-4270000D02*
X8866500Y-4350000D01*
X8866500Y-4270000D02*
X8786500Y-4350000D01*
X8866500Y-4310000D02*
G75*
G03*
X8866500Y-4310000I-40000J0D01*
G01*
X8977000Y-4786000D02*
X9057000Y-4866000D01*
X9057000Y-4786000D02*
X8977000Y-4866000D01*
X9057000Y-4826000D02*
G75*
G03*
X9057000Y-4826000I-40000J0D01*
G01*
X8977000Y-6310000D02*
X9057000Y-6390000D01*
X9057000Y-6310000D02*
X8977000Y-6390000D01*
X9057000Y-6350000D02*
G75*
G03*
X9057000Y-6350000I-40000J0D01*
G01*
X8977000Y-6818000D02*
X9057000Y-6898000D01*
X9057000Y-6818000D02*
X8977000Y-6898000D01*
X9057000Y-6858000D02*
G75*
G03*
X9057000Y-6858000I-40000J0D01*
G01*
X8977000Y-8342000D02*
X9057000Y-8422000D01*
X9057000Y-8342000D02*
X8977000Y-8422000D01*
X9057000Y-8382000D02*
G75*
G03*
X9057000Y-8382000I-40000J0D01*
G01*
X9104000Y-2749300D02*
X9184000Y-2829300D01*
X9184000Y-2749300D02*
X9104000Y-2829300D01*
X9184000Y-2789300D02*
G75*
G03*
X9184000Y-2789300I-40000J0D01*
G01*
X9104000Y-3249300D02*
X9184000Y-3329300D01*
X9184000Y-3249300D02*
X9104000Y-3329300D01*
X9184000Y-3289300D02*
G75*
G03*
X9184000Y-3289300I-40000J0D01*
G01*
X9231000Y-4786000D02*
X9311000Y-4866000D01*
X9311000Y-4786000D02*
X9231000Y-4866000D01*
X9311000Y-4826000D02*
G75*
G03*
X9311000Y-4826000I-40000J0D01*
G01*
X9231000Y-6310000D02*
X9311000Y-6390000D01*
X9311000Y-6310000D02*
X9231000Y-6390000D01*
X9311000Y-6350000D02*
G75*
G03*
X9311000Y-6350000I-40000J0D01*
G01*
X9231000Y-6818000D02*
X9311000Y-6898000D01*
X9311000Y-6818000D02*
X9231000Y-6898000D01*
X9311000Y-6858000D02*
G75*
G03*
X9311000Y-6858000I-40000J0D01*
G01*
X9231000Y-8342000D02*
X9311000Y-8422000D01*
X9311000Y-8342000D02*
X9231000Y-8422000D01*
X9311000Y-8382000D02*
G75*
G03*
X9311000Y-8382000I-40000J0D01*
G01*
X9332600Y-3516000D02*
X9412600Y-3596000D01*
X9412600Y-3516000D02*
X9332600Y-3596000D01*
X9412600Y-3556000D02*
G75*
G03*
X9412600Y-3556000I-40000J0D01*
G01*
X9332600Y-3770000D02*
X9412600Y-3850000D01*
X9412600Y-3770000D02*
X9332600Y-3850000D01*
X9412600Y-3810000D02*
G75*
G03*
X9412600Y-3810000I-40000J0D01*
G01*
X9332600Y-4024000D02*
X9412600Y-4104000D01*
X9412600Y-4024000D02*
X9332600Y-4104000D01*
X9412600Y-4064000D02*
G75*
G03*
X9412600Y-4064000I-40000J0D01*
G01*
X9332600Y-4278000D02*
X9412600Y-4358000D01*
X9412600Y-4278000D02*
X9332600Y-4358000D01*
X9412600Y-4318000D02*
G75*
G03*
X9412600Y-4318000I-40000J0D01*
G01*
X9485000Y-4786000D02*
X9565000Y-4866000D01*
X9565000Y-4786000D02*
X9485000Y-4866000D01*
X9565000Y-4826000D02*
G75*
G03*
X9565000Y-4826000I-40000J0D01*
G01*
X9485000Y-6310000D02*
X9565000Y-6390000D01*
X9565000Y-6310000D02*
X9485000Y-6390000D01*
X9565000Y-6350000D02*
G75*
G03*
X9565000Y-6350000I-40000J0D01*
G01*
X9485000Y-6818000D02*
X9565000Y-6898000D01*
X9565000Y-6818000D02*
X9485000Y-6898000D01*
X9565000Y-6858000D02*
G75*
G03*
X9565000Y-6858000I-40000J0D01*
G01*
X9485000Y-8342000D02*
X9565000Y-8422000D01*
X9565000Y-8342000D02*
X9485000Y-8422000D01*
X9565000Y-8382000D02*
G75*
G03*
X9565000Y-8382000I-40000J0D01*
G01*
X9612000Y-2881000D02*
X9692000Y-2961000D01*
X9692000Y-2881000D02*
X9612000Y-2961000D01*
X9692000Y-2921000D02*
G75*
G03*
X9692000Y-2921000I-40000J0D01*
G01*
X9620000Y-3198500D02*
X9700000Y-3278500D01*
X9700000Y-3198500D02*
X9620000Y-3278500D01*
X9700000Y-3238500D02*
G75*
G03*
X9700000Y-3238500I-40000J0D01*
G01*
X9739000Y-4786000D02*
X9819000Y-4866000D01*
X9819000Y-4786000D02*
X9739000Y-4866000D01*
X9819000Y-4826000D02*
G75*
G03*
X9819000Y-4826000I-40000J0D01*
G01*
X9739000Y-6310000D02*
X9819000Y-6390000D01*
X9819000Y-6310000D02*
X9739000Y-6390000D01*
X9819000Y-6350000D02*
G75*
G03*
X9819000Y-6350000I-40000J0D01*
G01*
X9739000Y-6818000D02*
X9819000Y-6898000D01*
X9819000Y-6818000D02*
X9739000Y-6898000D01*
X9819000Y-6858000D02*
G75*
G03*
X9819000Y-6858000I-40000J0D01*
G01*
X9739000Y-8342000D02*
X9819000Y-8422000D01*
X9819000Y-8342000D02*
X9739000Y-8422000D01*
X9819000Y-8382000D02*
G75*
G03*
X9819000Y-8382000I-40000J0D01*
G01*
X9993000Y-4786000D02*
X10073000Y-4866000D01*
X10073000Y-4786000D02*
X9993000Y-4866000D01*
X10073000Y-4826000D02*
G75*
G03*
X10073000Y-4826000I-40000J0D01*
G01*
X9993000Y-6310000D02*
X10073000Y-6390000D01*
X10073000Y-6310000D02*
X9993000Y-6390000D01*
X10073000Y-6350000D02*
G75*
G03*
X10073000Y-6350000I-40000J0D01*
G01*
X9993000Y-6818000D02*
X10073000Y-6898000D01*
X10073000Y-6818000D02*
X9993000Y-6898000D01*
X10073000Y-6858000D02*
G75*
G03*
X10073000Y-6858000I-40000J0D01*
G01*
X9993000Y-8342000D02*
X10073000Y-8422000D01*
X10073000Y-8342000D02*
X9993000Y-8422000D01*
X10073000Y-8382000D02*
G75*
G03*
X10073000Y-8382000I-40000J0D01*
G01*
X10094600Y-3516000D02*
X10174600Y-3596000D01*
X10174600Y-3516000D02*
X10094600Y-3596000D01*
X10174600Y-3556000D02*
G75*
G03*
X10174600Y-3556000I-40000J0D01*
G01*
X10094600Y-3770000D02*
X10174600Y-3850000D01*
X10174600Y-3770000D02*
X10094600Y-3850000D01*
X10174600Y-3810000D02*
G75*
G03*
X10174600Y-3810000I-40000J0D01*
G01*
X10094600Y-4024000D02*
X10174600Y-4104000D01*
X10174600Y-4024000D02*
X10094600Y-4104000D01*
X10174600Y-4064000D02*
G75*
G03*
X10174600Y-4064000I-40000J0D01*
G01*
X10094600Y-4278000D02*
X10174600Y-4358000D01*
X10174600Y-4278000D02*
X10094600Y-4358000D01*
X10174600Y-4318000D02*
G75*
G03*
X10174600Y-4318000I-40000J0D01*
G01*
X10112000Y-2881000D02*
X10192000Y-2961000D01*
X10192000Y-2881000D02*
X10112000Y-2961000D01*
X10192000Y-2921000D02*
G75*
G03*
X10192000Y-2921000I-40000J0D01*
G01*
X10120000Y-3198500D02*
X10200000Y-3278500D01*
X10200000Y-3198500D02*
X10120000Y-3278500D01*
X10200000Y-3238500D02*
G75*
G03*
X10200000Y-3238500I-40000J0D01*
G01*
X10247000Y-4786000D02*
X10327000Y-4866000D01*
X10327000Y-4786000D02*
X10247000Y-4866000D01*
X10327000Y-4826000D02*
G75*
G03*
X10327000Y-4826000I-40000J0D01*
G01*
X10247000Y-6310000D02*
X10327000Y-6390000D01*
X10327000Y-6310000D02*
X10247000Y-6390000D01*
X10327000Y-6350000D02*
G75*
G03*
X10327000Y-6350000I-40000J0D01*
G01*
X10247000Y-6818000D02*
X10327000Y-6898000D01*
X10327000Y-6818000D02*
X10247000Y-6898000D01*
X10327000Y-6858000D02*
G75*
G03*
X10327000Y-6858000I-40000J0D01*
G01*
X10247000Y-8342000D02*
X10327000Y-8422000D01*
X10327000Y-8342000D02*
X10247000Y-8422000D01*
X10327000Y-8382000D02*
G75*
G03*
X10327000Y-8382000I-40000J0D01*
G01*
X10501000Y-4786000D02*
X10581000Y-4866000D01*
X10581000Y-4786000D02*
X10501000Y-4866000D01*
X10581000Y-4826000D02*
G75*
G03*
X10581000Y-4826000I-40000J0D01*
G01*
X10501000Y-6310000D02*
X10581000Y-6390000D01*
X10581000Y-6310000D02*
X10501000Y-6390000D01*
X10581000Y-6350000D02*
G75*
G03*
X10581000Y-6350000I-40000J0D01*
G01*
X10501000Y-6818000D02*
X10581000Y-6898000D01*
X10581000Y-6818000D02*
X10501000Y-6898000D01*
X10581000Y-6858000D02*
G75*
G03*
X10581000Y-6858000I-40000J0D01*
G01*
X10501000Y-8342000D02*
X10581000Y-8422000D01*
X10581000Y-8342000D02*
X10501000Y-8422000D01*
X10581000Y-8382000D02*
G75*
G03*
X10581000Y-8382000I-40000J0D01*
G01*
X10818500Y-5810000D02*
X10898500Y-5890000D01*
X10898500Y-5810000D02*
X10818500Y-5890000D01*
X10898500Y-5850000D02*
G75*
G03*
X10898500Y-5850000I-40000J0D01*
G01*
X10818500Y-6310000D02*
X10898500Y-6390000D01*
X10898500Y-6310000D02*
X10818500Y-6390000D01*
X10898500Y-6350000D02*
G75*
G03*
X10898500Y-6350000I-40000J0D01*
G01*
X10818500Y-7842000D02*
X10898500Y-7922000D01*
X10898500Y-7842000D02*
X10818500Y-7922000D01*
X10898500Y-7882000D02*
G75*
G03*
X10898500Y-7882000I-40000J0D01*
G01*
X10818500Y-8342000D02*
X10898500Y-8422000D01*
X10898500Y-8342000D02*
X10818500Y-8422000D01*
X10898500Y-8382000D02*
G75*
G03*
X10898500Y-8382000I-40000J0D01*
G01*
X11398000Y-5421000D02*
X11478000Y-5501000D01*
X11478000Y-5421000D02*
X11398000Y-5501000D01*
X11478000Y-5461000D02*
G75*
G03*
X11478000Y-5461000I-40000J0D01*
G01*
X11898000Y-5421000D02*
X11978000Y-5501000D01*
X11978000Y-5421000D02*
X11898000Y-5501000D01*
X11978000Y-5461000D02*
G75*
G03*
X11978000Y-5461000I-40000J0D01*
G01*
D10*
X3633000Y-3887000D02*
X3733000Y-3987000D01*
X3733000Y-3887000D02*
X3633000Y-3987000D01*
X3683000Y-3887000D02*
X3683000Y-3987000D01*
X3633000Y-3937000D02*
X3733000Y-3937000D01*
X3633000Y-4141000D02*
X3733000Y-4241000D01*
X3733000Y-4141000D02*
X3633000Y-4241000D01*
X3683000Y-4141000D02*
X3683000Y-4241000D01*
X3633000Y-4191000D02*
X3733000Y-4191000D01*
X3887000Y-3887000D02*
X3987000Y-3987000D01*
X3987000Y-3887000D02*
X3887000Y-3987000D01*
X3937000Y-3887000D02*
X3937000Y-3987000D01*
X3887000Y-3937000D02*
X3987000Y-3937000D01*
X3887000Y-4141000D02*
X3987000Y-4241000D01*
X3987000Y-4141000D02*
X3887000Y-4241000D01*
X3937000Y-4141000D02*
X3937000Y-4241000D01*
X3887000Y-4191000D02*
X3987000Y-4191000D01*
X4141000Y-3887000D02*
X4241000Y-3987000D01*
X4241000Y-3887000D02*
X4141000Y-3987000D01*
X4191000Y-3887000D02*
X4191000Y-3987000D01*
X4141000Y-3937000D02*
X4241000Y-3937000D01*
X4141000Y-4141000D02*
X4241000Y-4241000D01*
X4241000Y-4141000D02*
X4141000Y-4241000D01*
X4191000Y-4141000D02*
X4191000Y-4241000D01*
X4141000Y-4191000D02*
X4241000Y-4191000D01*
X4395000Y-3887000D02*
X4495000Y-3987000D01*
X4495000Y-3887000D02*
X4395000Y-3987000D01*
X4445000Y-3887000D02*
X4445000Y-3987000D01*
X4395000Y-3937000D02*
X4495000Y-3937000D01*
X4395000Y-4141000D02*
X4495000Y-4241000D01*
X4495000Y-4141000D02*
X4395000Y-4241000D01*
X4445000Y-4141000D02*
X4445000Y-4241000D01*
X4395000Y-4191000D02*
X4495000Y-4191000D01*
X4649000Y-3887000D02*
X4749000Y-3987000D01*
X4749000Y-3887000D02*
X4649000Y-3987000D01*
X4699000Y-3887000D02*
X4699000Y-3987000D01*
X4649000Y-3937000D02*
X4749000Y-3937000D01*
X4649000Y-4141000D02*
X4749000Y-4241000D01*
X4749000Y-4141000D02*
X4649000Y-4241000D01*
X4699000Y-4141000D02*
X4699000Y-4241000D01*
X4649000Y-4191000D02*
X4749000Y-4191000D01*
X10554500Y-2872000D02*
X10654500Y-2972000D01*
X10654500Y-2872000D02*
X10554500Y-2972000D01*
X10604500Y-2872000D02*
X10604500Y-2972000D01*
X10554500Y-2922000D02*
X10654500Y-2922000D01*
X10554500Y-3126000D02*
X10654500Y-3226000D01*
X10654500Y-3126000D02*
X10554500Y-3226000D01*
X10604500Y-3126000D02*
X10604500Y-3226000D01*
X10554500Y-3176000D02*
X10654500Y-3176000D01*
X10554500Y-3380000D02*
X10654500Y-3480000D01*
X10654500Y-3380000D02*
X10554500Y-3480000D01*
X10604500Y-3380000D02*
X10604500Y-3480000D01*
X10554500Y-3430000D02*
X10654500Y-3430000D01*
X10554500Y-3634000D02*
X10654500Y-3734000D01*
X10654500Y-3634000D02*
X10554500Y-3734000D01*
X10604500Y-3634000D02*
X10604500Y-3734000D01*
X10554500Y-3684000D02*
X10654500Y-3684000D01*
X11189500Y-4395000D02*
X11289500Y-4495000D01*
X11289500Y-4395000D02*
X11189500Y-4495000D01*
X11239500Y-4395000D02*
X11239500Y-4495000D01*
X11189500Y-4445000D02*
X11289500Y-4445000D01*
X11443500Y-4395000D02*
X11543500Y-4495000D01*
X11543500Y-4395000D02*
X11443500Y-4495000D01*
X11493500Y-4395000D02*
X11493500Y-4495000D01*
X11443500Y-4445000D02*
X11543500Y-4445000D01*
X11697500Y-4395000D02*
X11797500Y-4495000D01*
X11797500Y-4395000D02*
X11697500Y-4495000D01*
X11747500Y-4395000D02*
X11747500Y-4495000D01*
X11697500Y-4445000D02*
X11797500Y-4445000D01*
X11951500Y-4395000D02*
X12051500Y-4495000D01*
X12051500Y-4395000D02*
X11951500Y-4495000D01*
X12001500Y-4395000D02*
X12001500Y-4495000D01*
X11951500Y-4445000D02*
X12051500Y-4445000D01*
D17*
X7537600Y-2957600D02*
X7667600Y-3087600D01*
X7667600Y-2957600D02*
X7537600Y-3087600D01*
X7648562Y-3068562D02*
X7648562Y-2976638D01*
X7556638Y-2976638D01*
X7556638Y-3068562D01*
X7648562Y-3068562D01*
X8037600Y-2957600D02*
X8167600Y-3087600D01*
X8167600Y-2957600D02*
X8037600Y-3087600D01*
X8148562Y-3068562D02*
X8148562Y-2976638D01*
X8056638Y-2976638D01*
X8056638Y-3068562D01*
X8148562Y-3068562D01*
D11*
X3046619Y-10284976D02*
X3046619Y-10084976D01*
X3094238Y-10084976D01*
X3122809Y-10094500D01*
X3141857Y-10113548D01*
X3151381Y-10132595D01*
X3160905Y-10170690D01*
X3160905Y-10199262D01*
X3151381Y-10237357D01*
X3141857Y-10256405D01*
X3122809Y-10275452D01*
X3094238Y-10284976D01*
X3046619Y-10284976D01*
X3246619Y-10284976D02*
X3246619Y-10151643D01*
X3246619Y-10189738D02*
X3256143Y-10170690D01*
X3265667Y-10161167D01*
X3284714Y-10151643D01*
X3303762Y-10151643D01*
X3370428Y-10284976D02*
X3370428Y-10151643D01*
X3370428Y-10084976D02*
X3360905Y-10094500D01*
X3370428Y-10104024D01*
X3379952Y-10094500D01*
X3370428Y-10084976D01*
X3370428Y-10104024D01*
X3494238Y-10284976D02*
X3475190Y-10275452D01*
X3465667Y-10256405D01*
X3465667Y-10084976D01*
X3599000Y-10284976D02*
X3579952Y-10275452D01*
X3570428Y-10256405D01*
X3570428Y-10084976D01*
X3827571Y-10284976D02*
X3827571Y-10084976D01*
X3894238Y-10227833D01*
X3960905Y-10084976D01*
X3960905Y-10284976D01*
X4141857Y-10284976D02*
X4141857Y-10180214D01*
X4132333Y-10161167D01*
X4113286Y-10151643D01*
X4075190Y-10151643D01*
X4056143Y-10161167D01*
X4141857Y-10275452D02*
X4122809Y-10284976D01*
X4075190Y-10284976D01*
X4056143Y-10275452D01*
X4046619Y-10256405D01*
X4046619Y-10237357D01*
X4056143Y-10218310D01*
X4075190Y-10208786D01*
X4122809Y-10208786D01*
X4141857Y-10199262D01*
X4237095Y-10151643D02*
X4237095Y-10351643D01*
X4237095Y-10161167D02*
X4256143Y-10151643D01*
X4294238Y-10151643D01*
X4313286Y-10161167D01*
X4322810Y-10170690D01*
X4332333Y-10189738D01*
X4332333Y-10246881D01*
X4322810Y-10265929D01*
X4313286Y-10275452D01*
X4294238Y-10284976D01*
X4256143Y-10284976D01*
X4237095Y-10275452D01*
X4418048Y-10265929D02*
X4427571Y-10275452D01*
X4418048Y-10284976D01*
X4408524Y-10275452D01*
X4418048Y-10265929D01*
X4418048Y-10284976D01*
X4418048Y-10161167D02*
X4427571Y-10170690D01*
X4418048Y-10180214D01*
X4408524Y-10170690D01*
X4418048Y-10161167D01*
X4418048Y-10180214D01*
D12*
X2749000Y-10594500D02*
X2789000Y-10634500D01*
X2789000Y-10594500D02*
X2749000Y-10634500D01*
D11*
X3084714Y-10504976D02*
X3103762Y-10504976D01*
X3122809Y-10514500D01*
X3132333Y-10524024D01*
X3141857Y-10543071D01*
X3151381Y-10581167D01*
X3151381Y-10628786D01*
X3141857Y-10666881D01*
X3132333Y-10685929D01*
X3122809Y-10695452D01*
X3103762Y-10704976D01*
X3084714Y-10704976D01*
X3065667Y-10695452D01*
X3056143Y-10685929D01*
X3046619Y-10666881D01*
X3037095Y-10628786D01*
X3037095Y-10581167D01*
X3046619Y-10543071D01*
X3056143Y-10524024D01*
X3065667Y-10514500D01*
X3084714Y-10504976D01*
X3237095Y-10685929D02*
X3246619Y-10695452D01*
X3237095Y-10704976D01*
X3227571Y-10695452D01*
X3237095Y-10685929D01*
X3237095Y-10704976D01*
X3418048Y-10571643D02*
X3418048Y-10704976D01*
X3370428Y-10495452D02*
X3322809Y-10638310D01*
X3446619Y-10638310D01*
X3560905Y-10504976D02*
X3579952Y-10504976D01*
X3599000Y-10514500D01*
X3608524Y-10524024D01*
X3618048Y-10543071D01*
X3627571Y-10581167D01*
X3627571Y-10628786D01*
X3618048Y-10666881D01*
X3608524Y-10685929D01*
X3599000Y-10695452D01*
X3579952Y-10704976D01*
X3560905Y-10704976D01*
X3541857Y-10695452D01*
X3532333Y-10685929D01*
X3522809Y-10666881D01*
X3513286Y-10628786D01*
X3513286Y-10581167D01*
X3522809Y-10543071D01*
X3532333Y-10524024D01*
X3541857Y-10514500D01*
X3560905Y-10504976D01*
X3751381Y-10504976D02*
X3770428Y-10504976D01*
X3789476Y-10514500D01*
X3799000Y-10524024D01*
X3808524Y-10543071D01*
X3818048Y-10581167D01*
X3818048Y-10628786D01*
X3808524Y-10666881D01*
X3799000Y-10685929D01*
X3789476Y-10695452D01*
X3770428Y-10704976D01*
X3751381Y-10704976D01*
X3732333Y-10695452D01*
X3722809Y-10685929D01*
X3713286Y-10666881D01*
X3703762Y-10628786D01*
X3703762Y-10581167D01*
X3713286Y-10543071D01*
X3722809Y-10524024D01*
X3732333Y-10514500D01*
X3751381Y-10504976D01*
X3903762Y-10704976D02*
X3903762Y-10571643D01*
X3903762Y-10590690D02*
X3913286Y-10581167D01*
X3932333Y-10571643D01*
X3960905Y-10571643D01*
X3979952Y-10581167D01*
X3989476Y-10600214D01*
X3989476Y-10704976D01*
X3989476Y-10600214D02*
X3999000Y-10581167D01*
X4018048Y-10571643D01*
X4046619Y-10571643D01*
X4065667Y-10581167D01*
X4075190Y-10600214D01*
X4075190Y-10704976D01*
X4170428Y-10704976D02*
X4170428Y-10571643D01*
X4170428Y-10590690D02*
X4179952Y-10581167D01*
X4199000Y-10571643D01*
X4227571Y-10571643D01*
X4246619Y-10581167D01*
X4256143Y-10600214D01*
X4256143Y-10704976D01*
X4256143Y-10600214D02*
X4265667Y-10581167D01*
X4284714Y-10571643D01*
X4313286Y-10571643D01*
X4332333Y-10581167D01*
X4341857Y-10600214D01*
X4341857Y-10704976D01*
X4732333Y-10495452D02*
X4560905Y-10752595D01*
X4989476Y-10504976D02*
X5008524Y-10504976D01*
X5027571Y-10514500D01*
X5037095Y-10524024D01*
X5046619Y-10543071D01*
X5056143Y-10581167D01*
X5056143Y-10628786D01*
X5046619Y-10666881D01*
X5037095Y-10685929D01*
X5027571Y-10695452D01*
X5008524Y-10704976D01*
X4989476Y-10704976D01*
X4970429Y-10695452D01*
X4960905Y-10685929D01*
X4951381Y-10666881D01*
X4941857Y-10628786D01*
X4941857Y-10581167D01*
X4951381Y-10543071D01*
X4960905Y-10524024D01*
X4970429Y-10514500D01*
X4989476Y-10504976D01*
X5141857Y-10685929D02*
X5151381Y-10695452D01*
X5141857Y-10704976D01*
X5132333Y-10695452D01*
X5141857Y-10685929D01*
X5141857Y-10704976D01*
X5275190Y-10504976D02*
X5294238Y-10504976D01*
X5313286Y-10514500D01*
X5322810Y-10524024D01*
X5332333Y-10543071D01*
X5341857Y-10581167D01*
X5341857Y-10628786D01*
X5332333Y-10666881D01*
X5322810Y-10685929D01*
X5313286Y-10695452D01*
X5294238Y-10704976D01*
X5275190Y-10704976D01*
X5256143Y-10695452D01*
X5246619Y-10685929D01*
X5237095Y-10666881D01*
X5227571Y-10628786D01*
X5227571Y-10581167D01*
X5237095Y-10543071D01*
X5246619Y-10524024D01*
X5256143Y-10514500D01*
X5275190Y-10504976D01*
X5532333Y-10704976D02*
X5418048Y-10704976D01*
X5475190Y-10704976D02*
X5475190Y-10504976D01*
X5456143Y-10533548D01*
X5437095Y-10552595D01*
X5418048Y-10562119D01*
X5713286Y-10504976D02*
X5618048Y-10504976D01*
X5608524Y-10600214D01*
X5618048Y-10590690D01*
X5637095Y-10581167D01*
X5684714Y-10581167D01*
X5703762Y-10590690D01*
X5713286Y-10600214D01*
X5722809Y-10619262D01*
X5722809Y-10666881D01*
X5713286Y-10685929D01*
X5703762Y-10695452D01*
X5684714Y-10704976D01*
X5637095Y-10704976D01*
X5618048Y-10695452D01*
X5608524Y-10685929D01*
X5789476Y-10504976D02*
X5922809Y-10504976D01*
X5837095Y-10704976D01*
X5989476Y-10504976D02*
X5989476Y-10543071D01*
X6065667Y-10504976D02*
X6065667Y-10543071D01*
X6360905Y-10781167D02*
X6351381Y-10771643D01*
X6332333Y-10743071D01*
X6322809Y-10724024D01*
X6313286Y-10695452D01*
X6303762Y-10647833D01*
X6303762Y-10609738D01*
X6313286Y-10562119D01*
X6322809Y-10533548D01*
X6332333Y-10514500D01*
X6351381Y-10485929D01*
X6360905Y-10476405D01*
X6541857Y-10704976D02*
X6427571Y-10704976D01*
X6484714Y-10704976D02*
X6484714Y-10504976D01*
X6465667Y-10533548D01*
X6446619Y-10552595D01*
X6427571Y-10562119D01*
X6732333Y-10704976D02*
X6618048Y-10704976D01*
X6675190Y-10704976D02*
X6675190Y-10504976D01*
X6656143Y-10533548D01*
X6637095Y-10552595D01*
X6618048Y-10562119D01*
X6808524Y-10524024D02*
X6818048Y-10514500D01*
X6837095Y-10504976D01*
X6884714Y-10504976D01*
X6903762Y-10514500D01*
X6913286Y-10524024D01*
X6922809Y-10543071D01*
X6922809Y-10562119D01*
X6913286Y-10590690D01*
X6799000Y-10704976D01*
X6922809Y-10704976D01*
X7160905Y-10704976D02*
X7160905Y-10504976D01*
X7246619Y-10704976D02*
X7246619Y-10600214D01*
X7237095Y-10581167D01*
X7218048Y-10571643D01*
X7189476Y-10571643D01*
X7170428Y-10581167D01*
X7160905Y-10590690D01*
X7370428Y-10704976D02*
X7351381Y-10695452D01*
X7341857Y-10685929D01*
X7332333Y-10666881D01*
X7332333Y-10609738D01*
X7341857Y-10590690D01*
X7351381Y-10581167D01*
X7370428Y-10571643D01*
X7399000Y-10571643D01*
X7418048Y-10581167D01*
X7427571Y-10590690D01*
X7437095Y-10609738D01*
X7437095Y-10666881D01*
X7427571Y-10685929D01*
X7418048Y-10695452D01*
X7399000Y-10704976D01*
X7370428Y-10704976D01*
X7551381Y-10704976D02*
X7532333Y-10695452D01*
X7522809Y-10676405D01*
X7522809Y-10504976D01*
X7703762Y-10695452D02*
X7684714Y-10704976D01*
X7646619Y-10704976D01*
X7627571Y-10695452D01*
X7618048Y-10676405D01*
X7618048Y-10600214D01*
X7627571Y-10581167D01*
X7646619Y-10571643D01*
X7684714Y-10571643D01*
X7703762Y-10581167D01*
X7713286Y-10600214D01*
X7713286Y-10619262D01*
X7618048Y-10638310D01*
X7789476Y-10695452D02*
X7808524Y-10704976D01*
X7846619Y-10704976D01*
X7865667Y-10695452D01*
X7875190Y-10676405D01*
X7875190Y-10666881D01*
X7865667Y-10647833D01*
X7846619Y-10638310D01*
X7818048Y-10638310D01*
X7799000Y-10628786D01*
X7789476Y-10609738D01*
X7789476Y-10600214D01*
X7799000Y-10581167D01*
X7818048Y-10571643D01*
X7846619Y-10571643D01*
X7865667Y-10581167D01*
X7941857Y-10781167D02*
X7951381Y-10771643D01*
X7970428Y-10743071D01*
X7979952Y-10724024D01*
X7989476Y-10695452D01*
X7999000Y-10647833D01*
X7999000Y-10609738D01*
X7989476Y-10562119D01*
X7979952Y-10533548D01*
X7970428Y-10514500D01*
X7951381Y-10485929D01*
X7941857Y-10476405D01*
D12*
X2789000Y-10878500D02*
G75*
G03*
X2789000Y-10878500I-20000J0D01*
G01*
D11*
X3084714Y-10768976D02*
X3103762Y-10768976D01*
X3122809Y-10778500D01*
X3132333Y-10788024D01*
X3141857Y-10807071D01*
X3151381Y-10845167D01*
X3151381Y-10892786D01*
X3141857Y-10930881D01*
X3132333Y-10949929D01*
X3122809Y-10959452D01*
X3103762Y-10968976D01*
X3084714Y-10968976D01*
X3065667Y-10959452D01*
X3056143Y-10949929D01*
X3046619Y-10930881D01*
X3037095Y-10892786D01*
X3037095Y-10845167D01*
X3046619Y-10807071D01*
X3056143Y-10788024D01*
X3065667Y-10778500D01*
X3084714Y-10768976D01*
X3237095Y-10949929D02*
X3246619Y-10959452D01*
X3237095Y-10968976D01*
X3227571Y-10959452D01*
X3237095Y-10949929D01*
X3237095Y-10968976D01*
X3418048Y-10835643D02*
X3418048Y-10968976D01*
X3370428Y-10759452D02*
X3322809Y-10902310D01*
X3446619Y-10902310D01*
X3560905Y-10768976D02*
X3579952Y-10768976D01*
X3599000Y-10778500D01*
X3608524Y-10788024D01*
X3618048Y-10807071D01*
X3627571Y-10845167D01*
X3627571Y-10892786D01*
X3618048Y-10930881D01*
X3608524Y-10949929D01*
X3599000Y-10959452D01*
X3579952Y-10968976D01*
X3560905Y-10968976D01*
X3541857Y-10959452D01*
X3532333Y-10949929D01*
X3522809Y-10930881D01*
X3513286Y-10892786D01*
X3513286Y-10845167D01*
X3522809Y-10807071D01*
X3532333Y-10788024D01*
X3541857Y-10778500D01*
X3560905Y-10768976D01*
X3751381Y-10768976D02*
X3770428Y-10768976D01*
X3789476Y-10778500D01*
X3799000Y-10788024D01*
X3808524Y-10807071D01*
X3818048Y-10845167D01*
X3818048Y-10892786D01*
X3808524Y-10930881D01*
X3799000Y-10949929D01*
X3789476Y-10959452D01*
X3770428Y-10968976D01*
X3751381Y-10968976D01*
X3732333Y-10959452D01*
X3722809Y-10949929D01*
X3713286Y-10930881D01*
X3703762Y-10892786D01*
X3703762Y-10845167D01*
X3713286Y-10807071D01*
X3722809Y-10788024D01*
X3732333Y-10778500D01*
X3751381Y-10768976D01*
X3903762Y-10968976D02*
X3903762Y-10835643D01*
X3903762Y-10854690D02*
X3913286Y-10845167D01*
X3932333Y-10835643D01*
X3960905Y-10835643D01*
X3979952Y-10845167D01*
X3989476Y-10864214D01*
X3989476Y-10968976D01*
X3989476Y-10864214D02*
X3999000Y-10845167D01*
X4018048Y-10835643D01*
X4046619Y-10835643D01*
X4065667Y-10845167D01*
X4075190Y-10864214D01*
X4075190Y-10968976D01*
X4170428Y-10968976D02*
X4170428Y-10835643D01*
X4170428Y-10854690D02*
X4179952Y-10845167D01*
X4199000Y-10835643D01*
X4227571Y-10835643D01*
X4246619Y-10845167D01*
X4256143Y-10864214D01*
X4256143Y-10968976D01*
X4256143Y-10864214D02*
X4265667Y-10845167D01*
X4284714Y-10835643D01*
X4313286Y-10835643D01*
X4332333Y-10845167D01*
X4341857Y-10864214D01*
X4341857Y-10968976D01*
X4732333Y-10759452D02*
X4560905Y-11016595D01*
X4989476Y-10768976D02*
X5008524Y-10768976D01*
X5027571Y-10778500D01*
X5037095Y-10788024D01*
X5046619Y-10807071D01*
X5056143Y-10845167D01*
X5056143Y-10892786D01*
X5046619Y-10930881D01*
X5037095Y-10949929D01*
X5027571Y-10959452D01*
X5008524Y-10968976D01*
X4989476Y-10968976D01*
X4970429Y-10959452D01*
X4960905Y-10949929D01*
X4951381Y-10930881D01*
X4941857Y-10892786D01*
X4941857Y-10845167D01*
X4951381Y-10807071D01*
X4960905Y-10788024D01*
X4970429Y-10778500D01*
X4989476Y-10768976D01*
X5141857Y-10949929D02*
X5151381Y-10959452D01*
X5141857Y-10968976D01*
X5132333Y-10959452D01*
X5141857Y-10949929D01*
X5141857Y-10968976D01*
X5275190Y-10768976D02*
X5294238Y-10768976D01*
X5313286Y-10778500D01*
X5322810Y-10788024D01*
X5332333Y-10807071D01*
X5341857Y-10845167D01*
X5341857Y-10892786D01*
X5332333Y-10930881D01*
X5322810Y-10949929D01*
X5313286Y-10959452D01*
X5294238Y-10968976D01*
X5275190Y-10968976D01*
X5256143Y-10959452D01*
X5246619Y-10949929D01*
X5237095Y-10930881D01*
X5227571Y-10892786D01*
X5227571Y-10845167D01*
X5237095Y-10807071D01*
X5246619Y-10788024D01*
X5256143Y-10778500D01*
X5275190Y-10768976D01*
X5532333Y-10968976D02*
X5418048Y-10968976D01*
X5475190Y-10968976D02*
X5475190Y-10768976D01*
X5456143Y-10797548D01*
X5437095Y-10816595D01*
X5418048Y-10826119D01*
X5713286Y-10768976D02*
X5618048Y-10768976D01*
X5608524Y-10864214D01*
X5618048Y-10854690D01*
X5637095Y-10845167D01*
X5684714Y-10845167D01*
X5703762Y-10854690D01*
X5713286Y-10864214D01*
X5722809Y-10883262D01*
X5722809Y-10930881D01*
X5713286Y-10949929D01*
X5703762Y-10959452D01*
X5684714Y-10968976D01*
X5637095Y-10968976D01*
X5618048Y-10959452D01*
X5608524Y-10949929D01*
X5789476Y-10768976D02*
X5922809Y-10768976D01*
X5837095Y-10968976D01*
X5989476Y-10768976D02*
X5989476Y-10807071D01*
X6065667Y-10768976D02*
X6065667Y-10807071D01*
X6360905Y-11045167D02*
X6351381Y-11035643D01*
X6332333Y-11007071D01*
X6322809Y-10988024D01*
X6313286Y-10959452D01*
X6303762Y-10911833D01*
X6303762Y-10873738D01*
X6313286Y-10826119D01*
X6322809Y-10797548D01*
X6332333Y-10778500D01*
X6351381Y-10749929D01*
X6360905Y-10740405D01*
X6475190Y-10768976D02*
X6494238Y-10768976D01*
X6513286Y-10778500D01*
X6522809Y-10788024D01*
X6532333Y-10807071D01*
X6541857Y-10845167D01*
X6541857Y-10892786D01*
X6532333Y-10930881D01*
X6522809Y-10949929D01*
X6513286Y-10959452D01*
X6494238Y-10968976D01*
X6475190Y-10968976D01*
X6456143Y-10959452D01*
X6446619Y-10949929D01*
X6437095Y-10930881D01*
X6427571Y-10892786D01*
X6427571Y-10845167D01*
X6437095Y-10807071D01*
X6446619Y-10788024D01*
X6456143Y-10778500D01*
X6475190Y-10768976D01*
X6779952Y-10968976D02*
X6779952Y-10768976D01*
X6865667Y-10968976D02*
X6865667Y-10864214D01*
X6856143Y-10845167D01*
X6837095Y-10835643D01*
X6808524Y-10835643D01*
X6789476Y-10845167D01*
X6779952Y-10854690D01*
X6989476Y-10968976D02*
X6970428Y-10959452D01*
X6960905Y-10949929D01*
X6951381Y-10930881D01*
X6951381Y-10873738D01*
X6960905Y-10854690D01*
X6970428Y-10845167D01*
X6989476Y-10835643D01*
X7018048Y-10835643D01*
X7037095Y-10845167D01*
X7046619Y-10854690D01*
X7056143Y-10873738D01*
X7056143Y-10930881D01*
X7046619Y-10949929D01*
X7037095Y-10959452D01*
X7018048Y-10968976D01*
X6989476Y-10968976D01*
X7170428Y-10968976D02*
X7151381Y-10959452D01*
X7141857Y-10940405D01*
X7141857Y-10768976D01*
X7322809Y-10959452D02*
X7303762Y-10968976D01*
X7265667Y-10968976D01*
X7246619Y-10959452D01*
X7237095Y-10940405D01*
X7237095Y-10864214D01*
X7246619Y-10845167D01*
X7265667Y-10835643D01*
X7303762Y-10835643D01*
X7322809Y-10845167D01*
X7332333Y-10864214D01*
X7332333Y-10883262D01*
X7237095Y-10902310D01*
X7408524Y-10959452D02*
X7427571Y-10968976D01*
X7465667Y-10968976D01*
X7484714Y-10959452D01*
X7494238Y-10940405D01*
X7494238Y-10930881D01*
X7484714Y-10911833D01*
X7465667Y-10902310D01*
X7437095Y-10902310D01*
X7418048Y-10892786D01*
X7408524Y-10873738D01*
X7408524Y-10864214D01*
X7418048Y-10845167D01*
X7437095Y-10835643D01*
X7465667Y-10835643D01*
X7484714Y-10845167D01*
X7732333Y-10892786D02*
X7884714Y-10892786D01*
X7808524Y-10968976D02*
X7808524Y-10816595D01*
X8227571Y-10768976D02*
X8132333Y-10768976D01*
X8122809Y-10864214D01*
X8132333Y-10854690D01*
X8151381Y-10845167D01*
X8199000Y-10845167D01*
X8218048Y-10854690D01*
X8227571Y-10864214D01*
X8237095Y-10883262D01*
X8237095Y-10930881D01*
X8227571Y-10949929D01*
X8218048Y-10959452D01*
X8199000Y-10968976D01*
X8151381Y-10968976D01*
X8132333Y-10959452D01*
X8122809Y-10949929D01*
X8465667Y-10959452D02*
X8484714Y-10968976D01*
X8522810Y-10968976D01*
X8541857Y-10959452D01*
X8551381Y-10940405D01*
X8551381Y-10930881D01*
X8541857Y-10911833D01*
X8522810Y-10902310D01*
X8494238Y-10902310D01*
X8475190Y-10892786D01*
X8465667Y-10873738D01*
X8465667Y-10864214D01*
X8475190Y-10845167D01*
X8494238Y-10835643D01*
X8522810Y-10835643D01*
X8541857Y-10845167D01*
X8665667Y-10968976D02*
X8646619Y-10959452D01*
X8637095Y-10940405D01*
X8637095Y-10768976D01*
X8770429Y-10968976D02*
X8751381Y-10959452D01*
X8741857Y-10949929D01*
X8732333Y-10930881D01*
X8732333Y-10873738D01*
X8741857Y-10854690D01*
X8751381Y-10845167D01*
X8770429Y-10835643D01*
X8799000Y-10835643D01*
X8818048Y-10845167D01*
X8827571Y-10854690D01*
X8837095Y-10873738D01*
X8837095Y-10930881D01*
X8827571Y-10949929D01*
X8818048Y-10959452D01*
X8799000Y-10968976D01*
X8770429Y-10968976D01*
X8894238Y-10835643D02*
X8970429Y-10835643D01*
X8922810Y-10768976D02*
X8922810Y-10940405D01*
X8932333Y-10959452D01*
X8951381Y-10968976D01*
X8970429Y-10968976D01*
X9027571Y-10959452D02*
X9046619Y-10968976D01*
X9084714Y-10968976D01*
X9103762Y-10959452D01*
X9113286Y-10940405D01*
X9113286Y-10930881D01*
X9103762Y-10911833D01*
X9084714Y-10902310D01*
X9056143Y-10902310D01*
X9037095Y-10892786D01*
X9027571Y-10873738D01*
X9027571Y-10864214D01*
X9037095Y-10845167D01*
X9056143Y-10835643D01*
X9084714Y-10835643D01*
X9103762Y-10845167D01*
X9179952Y-11045167D02*
X9189476Y-11035643D01*
X9208524Y-11007071D01*
X9218048Y-10988024D01*
X9227571Y-10959452D01*
X9237095Y-10911833D01*
X9237095Y-10873738D01*
X9227571Y-10826119D01*
X9218048Y-10797548D01*
X9208524Y-10778500D01*
X9189476Y-10749929D01*
X9179952Y-10740405D01*
D13*
X2764000Y-11117500D02*
X2764000Y-11167500D01*
X2739000Y-11142500D02*
X2789000Y-11142500D01*
D11*
X3084714Y-11032976D02*
X3103762Y-11032976D01*
X3122809Y-11042500D01*
X3132333Y-11052024D01*
X3141857Y-11071071D01*
X3151381Y-11109167D01*
X3151381Y-11156786D01*
X3141857Y-11194881D01*
X3132333Y-11213928D01*
X3122809Y-11223452D01*
X3103762Y-11232976D01*
X3084714Y-11232976D01*
X3065667Y-11223452D01*
X3056143Y-11213928D01*
X3046619Y-11194881D01*
X3037095Y-11156786D01*
X3037095Y-11109167D01*
X3046619Y-11071071D01*
X3056143Y-11052024D01*
X3065667Y-11042500D01*
X3084714Y-11032976D01*
X3237095Y-11213928D02*
X3246619Y-11223452D01*
X3237095Y-11232976D01*
X3227571Y-11223452D01*
X3237095Y-11213928D01*
X3237095Y-11232976D01*
X3427571Y-11032976D02*
X3332333Y-11032976D01*
X3322809Y-11128214D01*
X3332333Y-11118690D01*
X3351381Y-11109167D01*
X3399000Y-11109167D01*
X3418048Y-11118690D01*
X3427571Y-11128214D01*
X3437095Y-11147262D01*
X3437095Y-11194881D01*
X3427571Y-11213928D01*
X3418048Y-11223452D01*
X3399000Y-11232976D01*
X3351381Y-11232976D01*
X3332333Y-11223452D01*
X3322809Y-11213928D01*
X3560905Y-11032976D02*
X3579952Y-11032976D01*
X3599000Y-11042500D01*
X3608524Y-11052024D01*
X3618048Y-11071071D01*
X3627571Y-11109167D01*
X3627571Y-11156786D01*
X3618048Y-11194881D01*
X3608524Y-11213928D01*
X3599000Y-11223452D01*
X3579952Y-11232976D01*
X3560905Y-11232976D01*
X3541857Y-11223452D01*
X3532333Y-11213928D01*
X3522809Y-11194881D01*
X3513286Y-11156786D01*
X3513286Y-11109167D01*
X3522809Y-11071071D01*
X3532333Y-11052024D01*
X3541857Y-11042500D01*
X3560905Y-11032976D01*
X3751381Y-11032976D02*
X3770428Y-11032976D01*
X3789476Y-11042500D01*
X3799000Y-11052024D01*
X3808524Y-11071071D01*
X3818048Y-11109167D01*
X3818048Y-11156786D01*
X3808524Y-11194881D01*
X3799000Y-11213928D01*
X3789476Y-11223452D01*
X3770428Y-11232976D01*
X3751381Y-11232976D01*
X3732333Y-11223452D01*
X3722809Y-11213928D01*
X3713286Y-11194881D01*
X3703762Y-11156786D01*
X3703762Y-11109167D01*
X3713286Y-11071071D01*
X3722809Y-11052024D01*
X3732333Y-11042500D01*
X3751381Y-11032976D01*
X3903762Y-11232976D02*
X3903762Y-11099643D01*
X3903762Y-11118690D02*
X3913286Y-11109167D01*
X3932333Y-11099643D01*
X3960905Y-11099643D01*
X3979952Y-11109167D01*
X3989476Y-11128214D01*
X3989476Y-11232976D01*
X3989476Y-11128214D02*
X3999000Y-11109167D01*
X4018048Y-11099643D01*
X4046619Y-11099643D01*
X4065667Y-11109167D01*
X4075190Y-11128214D01*
X4075190Y-11232976D01*
X4170428Y-11232976D02*
X4170428Y-11099643D01*
X4170428Y-11118690D02*
X4179952Y-11109167D01*
X4199000Y-11099643D01*
X4227571Y-11099643D01*
X4246619Y-11109167D01*
X4256143Y-11128214D01*
X4256143Y-11232976D01*
X4256143Y-11128214D02*
X4265667Y-11109167D01*
X4284714Y-11099643D01*
X4313286Y-11099643D01*
X4332333Y-11109167D01*
X4341857Y-11128214D01*
X4341857Y-11232976D01*
X4732333Y-11023452D02*
X4560905Y-11280595D01*
X4989476Y-11032976D02*
X5008524Y-11032976D01*
X5027571Y-11042500D01*
X5037095Y-11052024D01*
X5046619Y-11071071D01*
X5056143Y-11109167D01*
X5056143Y-11156786D01*
X5046619Y-11194881D01*
X5037095Y-11213928D01*
X5027571Y-11223452D01*
X5008524Y-11232976D01*
X4989476Y-11232976D01*
X4970429Y-11223452D01*
X4960905Y-11213928D01*
X4951381Y-11194881D01*
X4941857Y-11156786D01*
X4941857Y-11109167D01*
X4951381Y-11071071D01*
X4960905Y-11052024D01*
X4970429Y-11042500D01*
X4989476Y-11032976D01*
X5141857Y-11213928D02*
X5151381Y-11223452D01*
X5141857Y-11232976D01*
X5132333Y-11223452D01*
X5141857Y-11213928D01*
X5141857Y-11232976D01*
X5275190Y-11032976D02*
X5294238Y-11032976D01*
X5313286Y-11042500D01*
X5322810Y-11052024D01*
X5332333Y-11071071D01*
X5341857Y-11109167D01*
X5341857Y-11156786D01*
X5332333Y-11194881D01*
X5322810Y-11213928D01*
X5313286Y-11223452D01*
X5294238Y-11232976D01*
X5275190Y-11232976D01*
X5256143Y-11223452D01*
X5246619Y-11213928D01*
X5237095Y-11194881D01*
X5227571Y-11156786D01*
X5227571Y-11109167D01*
X5237095Y-11071071D01*
X5246619Y-11052024D01*
X5256143Y-11042500D01*
X5275190Y-11032976D01*
X5532333Y-11232976D02*
X5418048Y-11232976D01*
X5475190Y-11232976D02*
X5475190Y-11032976D01*
X5456143Y-11061548D01*
X5437095Y-11080595D01*
X5418048Y-11090119D01*
X5627571Y-11232976D02*
X5665667Y-11232976D01*
X5684714Y-11223452D01*
X5694238Y-11213928D01*
X5713286Y-11185357D01*
X5722809Y-11147262D01*
X5722809Y-11071071D01*
X5713286Y-11052024D01*
X5703762Y-11042500D01*
X5684714Y-11032976D01*
X5646619Y-11032976D01*
X5627571Y-11042500D01*
X5618048Y-11052024D01*
X5608524Y-11071071D01*
X5608524Y-11118690D01*
X5618048Y-11137738D01*
X5627571Y-11147262D01*
X5646619Y-11156786D01*
X5684714Y-11156786D01*
X5703762Y-11147262D01*
X5713286Y-11137738D01*
X5722809Y-11118690D01*
X5789476Y-11032976D02*
X5922809Y-11032976D01*
X5837095Y-11232976D01*
X5989476Y-11032976D02*
X5989476Y-11071071D01*
X6065667Y-11032976D02*
X6065667Y-11071071D01*
X6360905Y-11309167D02*
X6351381Y-11299643D01*
X6332333Y-11271071D01*
X6322809Y-11252024D01*
X6313286Y-11223452D01*
X6303762Y-11175833D01*
X6303762Y-11137738D01*
X6313286Y-11090119D01*
X6322809Y-11061548D01*
X6332333Y-11042500D01*
X6351381Y-11013929D01*
X6360905Y-11004405D01*
X6418048Y-11032976D02*
X6541857Y-11032976D01*
X6475190Y-11109167D01*
X6503762Y-11109167D01*
X6522809Y-11118690D01*
X6532333Y-11128214D01*
X6541857Y-11147262D01*
X6541857Y-11194881D01*
X6532333Y-11213928D01*
X6522809Y-11223452D01*
X6503762Y-11232976D01*
X6446619Y-11232976D01*
X6427571Y-11223452D01*
X6418048Y-11213928D01*
X6779952Y-11232976D02*
X6779952Y-11032976D01*
X6865667Y-11232976D02*
X6865667Y-11128214D01*
X6856143Y-11109167D01*
X6837095Y-11099643D01*
X6808524Y-11099643D01*
X6789476Y-11109167D01*
X6779952Y-11118690D01*
X6989476Y-11232976D02*
X6970428Y-11223452D01*
X6960905Y-11213928D01*
X6951381Y-11194881D01*
X6951381Y-11137738D01*
X6960905Y-11118690D01*
X6970428Y-11109167D01*
X6989476Y-11099643D01*
X7018048Y-11099643D01*
X7037095Y-11109167D01*
X7046619Y-11118690D01*
X7056143Y-11137738D01*
X7056143Y-11194881D01*
X7046619Y-11213928D01*
X7037095Y-11223452D01*
X7018048Y-11232976D01*
X6989476Y-11232976D01*
X7170428Y-11232976D02*
X7151381Y-11223452D01*
X7141857Y-11204405D01*
X7141857Y-11032976D01*
X7322809Y-11223452D02*
X7303762Y-11232976D01*
X7265667Y-11232976D01*
X7246619Y-11223452D01*
X7237095Y-11204405D01*
X7237095Y-11128214D01*
X7246619Y-11109167D01*
X7265667Y-11099643D01*
X7303762Y-11099643D01*
X7322809Y-11109167D01*
X7332333Y-11128214D01*
X7332333Y-11147262D01*
X7237095Y-11166310D01*
X7408524Y-11223452D02*
X7427571Y-11232976D01*
X7465667Y-11232976D01*
X7484714Y-11223452D01*
X7494238Y-11204405D01*
X7494238Y-11194881D01*
X7484714Y-11175833D01*
X7465667Y-11166310D01*
X7437095Y-11166310D01*
X7418048Y-11156786D01*
X7408524Y-11137738D01*
X7408524Y-11128214D01*
X7418048Y-11109167D01*
X7437095Y-11099643D01*
X7465667Y-11099643D01*
X7484714Y-11109167D01*
X7560905Y-11309167D02*
X7570428Y-11299643D01*
X7589476Y-11271071D01*
X7599000Y-11252024D01*
X7608524Y-11223452D01*
X7618048Y-11175833D01*
X7618048Y-11137738D01*
X7608524Y-11090119D01*
X7599000Y-11061548D01*
X7589476Y-11042500D01*
X7570428Y-11013929D01*
X7560905Y-11004405D01*
D14*
X2778749Y-11431249D02*
X2778749Y-11381751D01*
X2729251Y-11381751D01*
X2729251Y-11431249D01*
X2778749Y-11431249D01*
D11*
X3084714Y-11296976D02*
X3103762Y-11296976D01*
X3122809Y-11306500D01*
X3132333Y-11316024D01*
X3141857Y-11335071D01*
X3151381Y-11373167D01*
X3151381Y-11420786D01*
X3141857Y-11458881D01*
X3132333Y-11477928D01*
X3122809Y-11487452D01*
X3103762Y-11496976D01*
X3084714Y-11496976D01*
X3065667Y-11487452D01*
X3056143Y-11477928D01*
X3046619Y-11458881D01*
X3037095Y-11420786D01*
X3037095Y-11373167D01*
X3046619Y-11335071D01*
X3056143Y-11316024D01*
X3065667Y-11306500D01*
X3084714Y-11296976D01*
X3237095Y-11477928D02*
X3246619Y-11487452D01*
X3237095Y-11496976D01*
X3227571Y-11487452D01*
X3237095Y-11477928D01*
X3237095Y-11496976D01*
X3313286Y-11296976D02*
X3446619Y-11296976D01*
X3360905Y-11496976D01*
X3560905Y-11296976D02*
X3579952Y-11296976D01*
X3599000Y-11306500D01*
X3608524Y-11316024D01*
X3618048Y-11335071D01*
X3627571Y-11373167D01*
X3627571Y-11420786D01*
X3618048Y-11458881D01*
X3608524Y-11477928D01*
X3599000Y-11487452D01*
X3579952Y-11496976D01*
X3560905Y-11496976D01*
X3541857Y-11487452D01*
X3532333Y-11477928D01*
X3522809Y-11458881D01*
X3513286Y-11420786D01*
X3513286Y-11373167D01*
X3522809Y-11335071D01*
X3532333Y-11316024D01*
X3541857Y-11306500D01*
X3560905Y-11296976D01*
X3751381Y-11296976D02*
X3770428Y-11296976D01*
X3789476Y-11306500D01*
X3799000Y-11316024D01*
X3808524Y-11335071D01*
X3818048Y-11373167D01*
X3818048Y-11420786D01*
X3808524Y-11458881D01*
X3799000Y-11477928D01*
X3789476Y-11487452D01*
X3770428Y-11496976D01*
X3751381Y-11496976D01*
X3732333Y-11487452D01*
X3722809Y-11477928D01*
X3713286Y-11458881D01*
X3703762Y-11420786D01*
X3703762Y-11373167D01*
X3713286Y-11335071D01*
X3722809Y-11316024D01*
X3732333Y-11306500D01*
X3751381Y-11296976D01*
X3903762Y-11496976D02*
X3903762Y-11363643D01*
X3903762Y-11382690D02*
X3913286Y-11373167D01*
X3932333Y-11363643D01*
X3960905Y-11363643D01*
X3979952Y-11373167D01*
X3989476Y-11392214D01*
X3989476Y-11496976D01*
X3989476Y-11392214D02*
X3999000Y-11373167D01*
X4018048Y-11363643D01*
X4046619Y-11363643D01*
X4065667Y-11373167D01*
X4075190Y-11392214D01*
X4075190Y-11496976D01*
X4170428Y-11496976D02*
X4170428Y-11363643D01*
X4170428Y-11382690D02*
X4179952Y-11373167D01*
X4199000Y-11363643D01*
X4227571Y-11363643D01*
X4246619Y-11373167D01*
X4256143Y-11392214D01*
X4256143Y-11496976D01*
X4256143Y-11392214D02*
X4265667Y-11373167D01*
X4284714Y-11363643D01*
X4313286Y-11363643D01*
X4332333Y-11373167D01*
X4341857Y-11392214D01*
X4341857Y-11496976D01*
X4732333Y-11287452D02*
X4560905Y-11544595D01*
X4989476Y-11296976D02*
X5008524Y-11296976D01*
X5027571Y-11306500D01*
X5037095Y-11316024D01*
X5046619Y-11335071D01*
X5056143Y-11373167D01*
X5056143Y-11420786D01*
X5046619Y-11458881D01*
X5037095Y-11477928D01*
X5027571Y-11487452D01*
X5008524Y-11496976D01*
X4989476Y-11496976D01*
X4970429Y-11487452D01*
X4960905Y-11477928D01*
X4951381Y-11458881D01*
X4941857Y-11420786D01*
X4941857Y-11373167D01*
X4951381Y-11335071D01*
X4960905Y-11316024D01*
X4970429Y-11306500D01*
X4989476Y-11296976D01*
X5141857Y-11477928D02*
X5151381Y-11487452D01*
X5141857Y-11496976D01*
X5132333Y-11487452D01*
X5141857Y-11477928D01*
X5141857Y-11496976D01*
X5275190Y-11296976D02*
X5294238Y-11296976D01*
X5313286Y-11306500D01*
X5322810Y-11316024D01*
X5332333Y-11335071D01*
X5341857Y-11373167D01*
X5341857Y-11420786D01*
X5332333Y-11458881D01*
X5322810Y-11477928D01*
X5313286Y-11487452D01*
X5294238Y-11496976D01*
X5275190Y-11496976D01*
X5256143Y-11487452D01*
X5246619Y-11477928D01*
X5237095Y-11458881D01*
X5227571Y-11420786D01*
X5227571Y-11373167D01*
X5237095Y-11335071D01*
X5246619Y-11316024D01*
X5256143Y-11306500D01*
X5275190Y-11296976D01*
X5418048Y-11316024D02*
X5427571Y-11306500D01*
X5446619Y-11296976D01*
X5494238Y-11296976D01*
X5513286Y-11306500D01*
X5522810Y-11316024D01*
X5532333Y-11335071D01*
X5532333Y-11354119D01*
X5522810Y-11382690D01*
X5408524Y-11496976D01*
X5532333Y-11496976D01*
X5599000Y-11296976D02*
X5732333Y-11296976D01*
X5646619Y-11496976D01*
X5894238Y-11296976D02*
X5856143Y-11296976D01*
X5837095Y-11306500D01*
X5827571Y-11316024D01*
X5808524Y-11344595D01*
X5799000Y-11382690D01*
X5799000Y-11458881D01*
X5808524Y-11477928D01*
X5818048Y-11487452D01*
X5837095Y-11496976D01*
X5875190Y-11496976D01*
X5894238Y-11487452D01*
X5903762Y-11477928D01*
X5913286Y-11458881D01*
X5913286Y-11411262D01*
X5903762Y-11392214D01*
X5894238Y-11382690D01*
X5875190Y-11373167D01*
X5837095Y-11373167D01*
X5818048Y-11382690D01*
X5808524Y-11392214D01*
X5799000Y-11411262D01*
X5989476Y-11296976D02*
X5989476Y-11335071D01*
X6065667Y-11296976D02*
X6065667Y-11335071D01*
X6360905Y-11573167D02*
X6351381Y-11563643D01*
X6332333Y-11535071D01*
X6322809Y-11516024D01*
X6313286Y-11487452D01*
X6303762Y-11439833D01*
X6303762Y-11401738D01*
X6313286Y-11354119D01*
X6322809Y-11325548D01*
X6332333Y-11306500D01*
X6351381Y-11277928D01*
X6360905Y-11268405D01*
X6532333Y-11296976D02*
X6437095Y-11296976D01*
X6427571Y-11392214D01*
X6437095Y-11382690D01*
X6456143Y-11373167D01*
X6503762Y-11373167D01*
X6522809Y-11382690D01*
X6532333Y-11392214D01*
X6541857Y-11411262D01*
X6541857Y-11458881D01*
X6532333Y-11477928D01*
X6522809Y-11487452D01*
X6503762Y-11496976D01*
X6456143Y-11496976D01*
X6437095Y-11487452D01*
X6427571Y-11477928D01*
X6713286Y-11363643D02*
X6713286Y-11496976D01*
X6665667Y-11287452D02*
X6618048Y-11430309D01*
X6741857Y-11430309D01*
X6970428Y-11496976D02*
X6970428Y-11296976D01*
X7056143Y-11496976D02*
X7056143Y-11392214D01*
X7046619Y-11373167D01*
X7027571Y-11363643D01*
X6999000Y-11363643D01*
X6979952Y-11373167D01*
X6970428Y-11382690D01*
X7179952Y-11496976D02*
X7160905Y-11487452D01*
X7151381Y-11477928D01*
X7141857Y-11458881D01*
X7141857Y-11401738D01*
X7151381Y-11382690D01*
X7160905Y-11373167D01*
X7179952Y-11363643D01*
X7208524Y-11363643D01*
X7227571Y-11373167D01*
X7237095Y-11382690D01*
X7246619Y-11401738D01*
X7246619Y-11458881D01*
X7237095Y-11477928D01*
X7227571Y-11487452D01*
X7208524Y-11496976D01*
X7179952Y-11496976D01*
X7360905Y-11496976D02*
X7341857Y-11487452D01*
X7332333Y-11468405D01*
X7332333Y-11296976D01*
X7513286Y-11487452D02*
X7494238Y-11496976D01*
X7456143Y-11496976D01*
X7437095Y-11487452D01*
X7427571Y-11468405D01*
X7427571Y-11392214D01*
X7437095Y-11373167D01*
X7456143Y-11363643D01*
X7494238Y-11363643D01*
X7513286Y-11373167D01*
X7522809Y-11392214D01*
X7522809Y-11411262D01*
X7427571Y-11430309D01*
X7599000Y-11487452D02*
X7618048Y-11496976D01*
X7656143Y-11496976D01*
X7675190Y-11487452D01*
X7684714Y-11468405D01*
X7684714Y-11458881D01*
X7675190Y-11439833D01*
X7656143Y-11430309D01*
X7627571Y-11430309D01*
X7608524Y-11420786D01*
X7599000Y-11401738D01*
X7599000Y-11392214D01*
X7608524Y-11373167D01*
X7627571Y-11363643D01*
X7656143Y-11363643D01*
X7675190Y-11373167D01*
X7751381Y-11573167D02*
X7760905Y-11563643D01*
X7779952Y-11535071D01*
X7789476Y-11516024D01*
X7799000Y-11487452D01*
X7808524Y-11439833D01*
X7808524Y-11401738D01*
X7799000Y-11354119D01*
X7789476Y-11325548D01*
X7779952Y-11306500D01*
X7760905Y-11277928D01*
X7751381Y-11268405D01*
D15*
X2751500Y-11708000D02*
X2789000Y-11670500D01*
X2751500Y-11633000D01*
X2714000Y-11670500D01*
X2751500Y-11708000D01*
D11*
X3084714Y-11560976D02*
X3103762Y-11560976D01*
X3122809Y-11570500D01*
X3132333Y-11580024D01*
X3141857Y-11599071D01*
X3151381Y-11637167D01*
X3151381Y-11684786D01*
X3141857Y-11722881D01*
X3132333Y-11741928D01*
X3122809Y-11751452D01*
X3103762Y-11760976D01*
X3084714Y-11760976D01*
X3065667Y-11751452D01*
X3056143Y-11741928D01*
X3046619Y-11722881D01*
X3037095Y-11684786D01*
X3037095Y-11637167D01*
X3046619Y-11599071D01*
X3056143Y-11580024D01*
X3065667Y-11570500D01*
X3084714Y-11560976D01*
X3237095Y-11741928D02*
X3246619Y-11751452D01*
X3237095Y-11760976D01*
X3227571Y-11751452D01*
X3237095Y-11741928D01*
X3237095Y-11760976D01*
X3313286Y-11560976D02*
X3446619Y-11560976D01*
X3360905Y-11760976D01*
X3618048Y-11560976D02*
X3522809Y-11560976D01*
X3513286Y-11656214D01*
X3522809Y-11646690D01*
X3541857Y-11637167D01*
X3589476Y-11637167D01*
X3608524Y-11646690D01*
X3618048Y-11656214D01*
X3627571Y-11675262D01*
X3627571Y-11722881D01*
X3618048Y-11741928D01*
X3608524Y-11751452D01*
X3589476Y-11760976D01*
X3541857Y-11760976D01*
X3522809Y-11751452D01*
X3513286Y-11741928D01*
X3751381Y-11560976D02*
X3770428Y-11560976D01*
X3789476Y-11570500D01*
X3799000Y-11580024D01*
X3808524Y-11599071D01*
X3818048Y-11637167D01*
X3818048Y-11684786D01*
X3808524Y-11722881D01*
X3799000Y-11741928D01*
X3789476Y-11751452D01*
X3770428Y-11760976D01*
X3751381Y-11760976D01*
X3732333Y-11751452D01*
X3722809Y-11741928D01*
X3713286Y-11722881D01*
X3703762Y-11684786D01*
X3703762Y-11637167D01*
X3713286Y-11599071D01*
X3722809Y-11580024D01*
X3732333Y-11570500D01*
X3751381Y-11560976D01*
X3903762Y-11760976D02*
X3903762Y-11627643D01*
X3903762Y-11646690D02*
X3913286Y-11637167D01*
X3932333Y-11627643D01*
X3960905Y-11627643D01*
X3979952Y-11637167D01*
X3989476Y-11656214D01*
X3989476Y-11760976D01*
X3989476Y-11656214D02*
X3999000Y-11637167D01*
X4018048Y-11627643D01*
X4046619Y-11627643D01*
X4065667Y-11637167D01*
X4075190Y-11656214D01*
X4075190Y-11760976D01*
X4170428Y-11760976D02*
X4170428Y-11627643D01*
X4170428Y-11646690D02*
X4179952Y-11637167D01*
X4199000Y-11627643D01*
X4227571Y-11627643D01*
X4246619Y-11637167D01*
X4256143Y-11656214D01*
X4256143Y-11760976D01*
X4256143Y-11656214D02*
X4265667Y-11637167D01*
X4284714Y-11627643D01*
X4313286Y-11627643D01*
X4332333Y-11637167D01*
X4341857Y-11656214D01*
X4341857Y-11760976D01*
X4732333Y-11551452D02*
X4560905Y-11808595D01*
X4989476Y-11560976D02*
X5008524Y-11560976D01*
X5027571Y-11570500D01*
X5037095Y-11580024D01*
X5046619Y-11599071D01*
X5056143Y-11637167D01*
X5056143Y-11684786D01*
X5046619Y-11722881D01*
X5037095Y-11741928D01*
X5027571Y-11751452D01*
X5008524Y-11760976D01*
X4989476Y-11760976D01*
X4970429Y-11751452D01*
X4960905Y-11741928D01*
X4951381Y-11722881D01*
X4941857Y-11684786D01*
X4941857Y-11637167D01*
X4951381Y-11599071D01*
X4960905Y-11580024D01*
X4970429Y-11570500D01*
X4989476Y-11560976D01*
X5141857Y-11741928D02*
X5151381Y-11751452D01*
X5141857Y-11760976D01*
X5132333Y-11751452D01*
X5141857Y-11741928D01*
X5141857Y-11760976D01*
X5275190Y-11560976D02*
X5294238Y-11560976D01*
X5313286Y-11570500D01*
X5322810Y-11580024D01*
X5332333Y-11599071D01*
X5341857Y-11637167D01*
X5341857Y-11684786D01*
X5332333Y-11722881D01*
X5322810Y-11741928D01*
X5313286Y-11751452D01*
X5294238Y-11760976D01*
X5275190Y-11760976D01*
X5256143Y-11751452D01*
X5246619Y-11741928D01*
X5237095Y-11722881D01*
X5227571Y-11684786D01*
X5227571Y-11637167D01*
X5237095Y-11599071D01*
X5246619Y-11580024D01*
X5256143Y-11570500D01*
X5275190Y-11560976D01*
X5418048Y-11580024D02*
X5427571Y-11570500D01*
X5446619Y-11560976D01*
X5494238Y-11560976D01*
X5513286Y-11570500D01*
X5522810Y-11580024D01*
X5532333Y-11599071D01*
X5532333Y-11618119D01*
X5522810Y-11646690D01*
X5408524Y-11760976D01*
X5532333Y-11760976D01*
X5627571Y-11760976D02*
X5665667Y-11760976D01*
X5684714Y-11751452D01*
X5694238Y-11741928D01*
X5713286Y-11713357D01*
X5722809Y-11675262D01*
X5722809Y-11599071D01*
X5713286Y-11580024D01*
X5703762Y-11570500D01*
X5684714Y-11560976D01*
X5646619Y-11560976D01*
X5627571Y-11570500D01*
X5618048Y-11580024D01*
X5608524Y-11599071D01*
X5608524Y-11646690D01*
X5618048Y-11665738D01*
X5627571Y-11675262D01*
X5646619Y-11684786D01*
X5684714Y-11684786D01*
X5703762Y-11675262D01*
X5713286Y-11665738D01*
X5722809Y-11646690D01*
X5903762Y-11560976D02*
X5808524Y-11560976D01*
X5799000Y-11656214D01*
X5808524Y-11646690D01*
X5827571Y-11637167D01*
X5875190Y-11637167D01*
X5894238Y-11646690D01*
X5903762Y-11656214D01*
X5913286Y-11675262D01*
X5913286Y-11722881D01*
X5903762Y-11741928D01*
X5894238Y-11751452D01*
X5875190Y-11760976D01*
X5827571Y-11760976D01*
X5808524Y-11751452D01*
X5799000Y-11741928D01*
X5989476Y-11560976D02*
X5989476Y-11599071D01*
X6065667Y-11560976D02*
X6065667Y-11599071D01*
X6360905Y-11837167D02*
X6351381Y-11827643D01*
X6332333Y-11799071D01*
X6322809Y-11780024D01*
X6313286Y-11751452D01*
X6303762Y-11703833D01*
X6303762Y-11665738D01*
X6313286Y-11618119D01*
X6322809Y-11589548D01*
X6332333Y-11570500D01*
X6351381Y-11541928D01*
X6360905Y-11532405D01*
X6446619Y-11760976D02*
X6484714Y-11760976D01*
X6503762Y-11751452D01*
X6513286Y-11741928D01*
X6532333Y-11713357D01*
X6541857Y-11675262D01*
X6541857Y-11599071D01*
X6532333Y-11580024D01*
X6522809Y-11570500D01*
X6503762Y-11560976D01*
X6465667Y-11560976D01*
X6446619Y-11570500D01*
X6437095Y-11580024D01*
X6427571Y-11599071D01*
X6427571Y-11646690D01*
X6437095Y-11665738D01*
X6446619Y-11675262D01*
X6465667Y-11684786D01*
X6503762Y-11684786D01*
X6522809Y-11675262D01*
X6532333Y-11665738D01*
X6541857Y-11646690D01*
X6779952Y-11760976D02*
X6779952Y-11560976D01*
X6865667Y-11760976D02*
X6865667Y-11656214D01*
X6856143Y-11637167D01*
X6837095Y-11627643D01*
X6808524Y-11627643D01*
X6789476Y-11637167D01*
X6779952Y-11646690D01*
X6989476Y-11760976D02*
X6970428Y-11751452D01*
X6960905Y-11741928D01*
X6951381Y-11722881D01*
X6951381Y-11665738D01*
X6960905Y-11646690D01*
X6970428Y-11637167D01*
X6989476Y-11627643D01*
X7018048Y-11627643D01*
X7037095Y-11637167D01*
X7046619Y-11646690D01*
X7056143Y-11665738D01*
X7056143Y-11722881D01*
X7046619Y-11741928D01*
X7037095Y-11751452D01*
X7018048Y-11760976D01*
X6989476Y-11760976D01*
X7170428Y-11760976D02*
X7151381Y-11751452D01*
X7141857Y-11732405D01*
X7141857Y-11560976D01*
X7322809Y-11751452D02*
X7303762Y-11760976D01*
X7265667Y-11760976D01*
X7246619Y-11751452D01*
X7237095Y-11732405D01*
X7237095Y-11656214D01*
X7246619Y-11637167D01*
X7265667Y-11627643D01*
X7303762Y-11627643D01*
X7322809Y-11637167D01*
X7332333Y-11656214D01*
X7332333Y-11675262D01*
X7237095Y-11694309D01*
X7408524Y-11751452D02*
X7427571Y-11760976D01*
X7465667Y-11760976D01*
X7484714Y-11751452D01*
X7494238Y-11732405D01*
X7494238Y-11722881D01*
X7484714Y-11703833D01*
X7465667Y-11694309D01*
X7437095Y-11694309D01*
X7418048Y-11684786D01*
X7408524Y-11665738D01*
X7408524Y-11656214D01*
X7418048Y-11637167D01*
X7437095Y-11627643D01*
X7465667Y-11627643D01*
X7484714Y-11637167D01*
X7560905Y-11837167D02*
X7570428Y-11827643D01*
X7589476Y-11799071D01*
X7599000Y-11780024D01*
X7608524Y-11751452D01*
X7618048Y-11703833D01*
X7618048Y-11665738D01*
X7608524Y-11618119D01*
X7599000Y-11589548D01*
X7589476Y-11570500D01*
X7570428Y-11541928D01*
X7560905Y-11532405D01*
D16*
X2709000Y-11894500D02*
X2789000Y-11974500D01*
X2789000Y-11894500D02*
X2709000Y-11974500D01*
X2789000Y-11934500D02*
G75*
G03*
X2789000Y-11934500I-40000J0D01*
G01*
D11*
X3084714Y-11824976D02*
X3103762Y-11824976D01*
X3122809Y-11834500D01*
X3132333Y-11844024D01*
X3141857Y-11863071D01*
X3151381Y-11901167D01*
X3151381Y-11948786D01*
X3141857Y-11986881D01*
X3132333Y-12005928D01*
X3122809Y-12015452D01*
X3103762Y-12024976D01*
X3084714Y-12024976D01*
X3065667Y-12015452D01*
X3056143Y-12005928D01*
X3046619Y-11986881D01*
X3037095Y-11948786D01*
X3037095Y-11901167D01*
X3046619Y-11863071D01*
X3056143Y-11844024D01*
X3065667Y-11834500D01*
X3084714Y-11824976D01*
X3237095Y-12005928D02*
X3246619Y-12015452D01*
X3237095Y-12024976D01*
X3227571Y-12015452D01*
X3237095Y-12005928D01*
X3237095Y-12024976D01*
X3360905Y-11910690D02*
X3341857Y-11901167D01*
X3332333Y-11891643D01*
X3322809Y-11872595D01*
X3322809Y-11863071D01*
X3332333Y-11844024D01*
X3341857Y-11834500D01*
X3360905Y-11824976D01*
X3399000Y-11824976D01*
X3418048Y-11834500D01*
X3427571Y-11844024D01*
X3437095Y-11863071D01*
X3437095Y-11872595D01*
X3427571Y-11891643D01*
X3418048Y-11901167D01*
X3399000Y-11910690D01*
X3360905Y-11910690D01*
X3341857Y-11920214D01*
X3332333Y-11929738D01*
X3322809Y-11948786D01*
X3322809Y-11986881D01*
X3332333Y-12005928D01*
X3341857Y-12015452D01*
X3360905Y-12024976D01*
X3399000Y-12024976D01*
X3418048Y-12015452D01*
X3427571Y-12005928D01*
X3437095Y-11986881D01*
X3437095Y-11948786D01*
X3427571Y-11929738D01*
X3418048Y-11920214D01*
X3399000Y-11910690D01*
X3560905Y-11824976D02*
X3579952Y-11824976D01*
X3599000Y-11834500D01*
X3608524Y-11844024D01*
X3618048Y-11863071D01*
X3627571Y-11901167D01*
X3627571Y-11948786D01*
X3618048Y-11986881D01*
X3608524Y-12005928D01*
X3599000Y-12015452D01*
X3579952Y-12024976D01*
X3560905Y-12024976D01*
X3541857Y-12015452D01*
X3532333Y-12005928D01*
X3522809Y-11986881D01*
X3513286Y-11948786D01*
X3513286Y-11901167D01*
X3522809Y-11863071D01*
X3532333Y-11844024D01*
X3541857Y-11834500D01*
X3560905Y-11824976D01*
X3751381Y-11824976D02*
X3770428Y-11824976D01*
X3789476Y-11834500D01*
X3799000Y-11844024D01*
X3808524Y-11863071D01*
X3818048Y-11901167D01*
X3818048Y-11948786D01*
X3808524Y-11986881D01*
X3799000Y-12005928D01*
X3789476Y-12015452D01*
X3770428Y-12024976D01*
X3751381Y-12024976D01*
X3732333Y-12015452D01*
X3722809Y-12005928D01*
X3713286Y-11986881D01*
X3703762Y-11948786D01*
X3703762Y-11901167D01*
X3713286Y-11863071D01*
X3722809Y-11844024D01*
X3732333Y-11834500D01*
X3751381Y-11824976D01*
X3903762Y-12024976D02*
X3903762Y-11891643D01*
X3903762Y-11910690D02*
X3913286Y-11901167D01*
X3932333Y-11891643D01*
X3960905Y-11891643D01*
X3979952Y-11901167D01*
X3989476Y-11920214D01*
X3989476Y-12024976D01*
X3989476Y-11920214D02*
X3999000Y-11901167D01*
X4018048Y-11891643D01*
X4046619Y-11891643D01*
X4065667Y-11901167D01*
X4075190Y-11920214D01*
X4075190Y-12024976D01*
X4170428Y-12024976D02*
X4170428Y-11891643D01*
X4170428Y-11910690D02*
X4179952Y-11901167D01*
X4199000Y-11891643D01*
X4227571Y-11891643D01*
X4246619Y-11901167D01*
X4256143Y-11920214D01*
X4256143Y-12024976D01*
X4256143Y-11920214D02*
X4265667Y-11901167D01*
X4284714Y-11891643D01*
X4313286Y-11891643D01*
X4332333Y-11901167D01*
X4341857Y-11920214D01*
X4341857Y-12024976D01*
X4732333Y-11815452D02*
X4560905Y-12072595D01*
X4989476Y-11824976D02*
X5008524Y-11824976D01*
X5027571Y-11834500D01*
X5037095Y-11844024D01*
X5046619Y-11863071D01*
X5056143Y-11901167D01*
X5056143Y-11948786D01*
X5046619Y-11986881D01*
X5037095Y-12005928D01*
X5027571Y-12015452D01*
X5008524Y-12024976D01*
X4989476Y-12024976D01*
X4970429Y-12015452D01*
X4960905Y-12005928D01*
X4951381Y-11986881D01*
X4941857Y-11948786D01*
X4941857Y-11901167D01*
X4951381Y-11863071D01*
X4960905Y-11844024D01*
X4970429Y-11834500D01*
X4989476Y-11824976D01*
X5141857Y-12005928D02*
X5151381Y-12015452D01*
X5141857Y-12024976D01*
X5132333Y-12015452D01*
X5141857Y-12005928D01*
X5141857Y-12024976D01*
X5275190Y-11824976D02*
X5294238Y-11824976D01*
X5313286Y-11834500D01*
X5322810Y-11844024D01*
X5332333Y-11863071D01*
X5341857Y-11901167D01*
X5341857Y-11948786D01*
X5332333Y-11986881D01*
X5322810Y-12005928D01*
X5313286Y-12015452D01*
X5294238Y-12024976D01*
X5275190Y-12024976D01*
X5256143Y-12015452D01*
X5246619Y-12005928D01*
X5237095Y-11986881D01*
X5227571Y-11948786D01*
X5227571Y-11901167D01*
X5237095Y-11863071D01*
X5246619Y-11844024D01*
X5256143Y-11834500D01*
X5275190Y-11824976D01*
X5408524Y-11824976D02*
X5532333Y-11824976D01*
X5465667Y-11901167D01*
X5494238Y-11901167D01*
X5513286Y-11910690D01*
X5522810Y-11920214D01*
X5532333Y-11939262D01*
X5532333Y-11986881D01*
X5522810Y-12005928D01*
X5513286Y-12015452D01*
X5494238Y-12024976D01*
X5437095Y-12024976D01*
X5418048Y-12015452D01*
X5408524Y-12005928D01*
X5722809Y-12024976D02*
X5608524Y-12024976D01*
X5665667Y-12024976D02*
X5665667Y-11824976D01*
X5646619Y-11853548D01*
X5627571Y-11872595D01*
X5608524Y-11882119D01*
X5903762Y-11824976D02*
X5808524Y-11824976D01*
X5799000Y-11920214D01*
X5808524Y-11910690D01*
X5827571Y-11901167D01*
X5875190Y-11901167D01*
X5894238Y-11910690D01*
X5903762Y-11920214D01*
X5913286Y-11939262D01*
X5913286Y-11986881D01*
X5903762Y-12005928D01*
X5894238Y-12015452D01*
X5875190Y-12024976D01*
X5827571Y-12024976D01*
X5808524Y-12015452D01*
X5799000Y-12005928D01*
X5989476Y-11824976D02*
X5989476Y-11863071D01*
X6065667Y-11824976D02*
X6065667Y-11863071D01*
X6360905Y-12101167D02*
X6351381Y-12091643D01*
X6332333Y-12063071D01*
X6322809Y-12044024D01*
X6313286Y-12015452D01*
X6303762Y-11967833D01*
X6303762Y-11929738D01*
X6313286Y-11882119D01*
X6322809Y-11853548D01*
X6332333Y-11834500D01*
X6351381Y-11805928D01*
X6360905Y-11796405D01*
X6541857Y-12024976D02*
X6427571Y-12024976D01*
X6484714Y-12024976D02*
X6484714Y-11824976D01*
X6465667Y-11853548D01*
X6446619Y-11872595D01*
X6427571Y-11882119D01*
X6713286Y-11824976D02*
X6675190Y-11824976D01*
X6656143Y-11834500D01*
X6646619Y-11844024D01*
X6627571Y-11872595D01*
X6618048Y-11910690D01*
X6618048Y-11986881D01*
X6627571Y-12005928D01*
X6637095Y-12015452D01*
X6656143Y-12024976D01*
X6694238Y-12024976D01*
X6713286Y-12015452D01*
X6722809Y-12005928D01*
X6732333Y-11986881D01*
X6732333Y-11939262D01*
X6722809Y-11920214D01*
X6713286Y-11910690D01*
X6694238Y-11901167D01*
X6656143Y-11901167D01*
X6637095Y-11910690D01*
X6627571Y-11920214D01*
X6618048Y-11939262D01*
X6856143Y-11824976D02*
X6875190Y-11824976D01*
X6894238Y-11834500D01*
X6903762Y-11844024D01*
X6913286Y-11863071D01*
X6922809Y-11901167D01*
X6922809Y-11948786D01*
X6913286Y-11986881D01*
X6903762Y-12005928D01*
X6894238Y-12015452D01*
X6875190Y-12024976D01*
X6856143Y-12024976D01*
X6837095Y-12015452D01*
X6827571Y-12005928D01*
X6818048Y-11986881D01*
X6808524Y-11948786D01*
X6808524Y-11901167D01*
X6818048Y-11863071D01*
X6827571Y-11844024D01*
X6837095Y-11834500D01*
X6856143Y-11824976D01*
X7160905Y-12024976D02*
X7160905Y-11824976D01*
X7246619Y-12024976D02*
X7246619Y-11920214D01*
X7237095Y-11901167D01*
X7218048Y-11891643D01*
X7189476Y-11891643D01*
X7170428Y-11901167D01*
X7160905Y-11910690D01*
X7370428Y-12024976D02*
X7351381Y-12015452D01*
X7341857Y-12005928D01*
X7332333Y-11986881D01*
X7332333Y-11929738D01*
X7341857Y-11910690D01*
X7351381Y-11901167D01*
X7370428Y-11891643D01*
X7399000Y-11891643D01*
X7418048Y-11901167D01*
X7427571Y-11910690D01*
X7437095Y-11929738D01*
X7437095Y-11986881D01*
X7427571Y-12005928D01*
X7418048Y-12015452D01*
X7399000Y-12024976D01*
X7370428Y-12024976D01*
X7551381Y-12024976D02*
X7532333Y-12015452D01*
X7522809Y-11996405D01*
X7522809Y-11824976D01*
X7703762Y-12015452D02*
X7684714Y-12024976D01*
X7646619Y-12024976D01*
X7627571Y-12015452D01*
X7618048Y-11996405D01*
X7618048Y-11920214D01*
X7627571Y-11901167D01*
X7646619Y-11891643D01*
X7684714Y-11891643D01*
X7703762Y-11901167D01*
X7713286Y-11920214D01*
X7713286Y-11939262D01*
X7618048Y-11958309D01*
X7789476Y-12015452D02*
X7808524Y-12024976D01*
X7846619Y-12024976D01*
X7865667Y-12015452D01*
X7875190Y-11996405D01*
X7875190Y-11986881D01*
X7865667Y-11967833D01*
X7846619Y-11958309D01*
X7818048Y-11958309D01*
X7799000Y-11948786D01*
X7789476Y-11929738D01*
X7789476Y-11920214D01*
X7799000Y-11901167D01*
X7818048Y-11891643D01*
X7846619Y-11891643D01*
X7865667Y-11901167D01*
X7941857Y-12101167D02*
X7951381Y-12091643D01*
X7970428Y-12063071D01*
X7979952Y-12044024D01*
X7989476Y-12015452D01*
X7999000Y-11967833D01*
X7999000Y-11929738D01*
X7989476Y-11882119D01*
X7979952Y-11853548D01*
X7970428Y-11834500D01*
X7951381Y-11805928D01*
X7941857Y-11796405D01*
D10*
X2689000Y-12148500D02*
X2789000Y-12248500D01*
X2789000Y-12148500D02*
X2689000Y-12248500D01*
X2739000Y-12148500D02*
X2739000Y-12248500D01*
X2689000Y-12198500D02*
X2789000Y-12198500D01*
D11*
X3151381Y-12288976D02*
X3037095Y-12288976D01*
X3094238Y-12288976D02*
X3094238Y-12088976D01*
X3075190Y-12117548D01*
X3056143Y-12136595D01*
X3037095Y-12146119D01*
X3237095Y-12269928D02*
X3246619Y-12279452D01*
X3237095Y-12288976D01*
X3227571Y-12279452D01*
X3237095Y-12269928D01*
X3237095Y-12288976D01*
X3370428Y-12088976D02*
X3389476Y-12088976D01*
X3408524Y-12098500D01*
X3418048Y-12108024D01*
X3427571Y-12127071D01*
X3437095Y-12165167D01*
X3437095Y-12212786D01*
X3427571Y-12250881D01*
X3418048Y-12269928D01*
X3408524Y-12279452D01*
X3389476Y-12288976D01*
X3370428Y-12288976D01*
X3351381Y-12279452D01*
X3341857Y-12269928D01*
X3332333Y-12250881D01*
X3322809Y-12212786D01*
X3322809Y-12165167D01*
X3332333Y-12127071D01*
X3341857Y-12108024D01*
X3351381Y-12098500D01*
X3370428Y-12088976D01*
X3560905Y-12088976D02*
X3579952Y-12088976D01*
X3599000Y-12098500D01*
X3608524Y-12108024D01*
X3618048Y-12127071D01*
X3627571Y-12165167D01*
X3627571Y-12212786D01*
X3618048Y-12250881D01*
X3608524Y-12269928D01*
X3599000Y-12279452D01*
X3579952Y-12288976D01*
X3560905Y-12288976D01*
X3541857Y-12279452D01*
X3532333Y-12269928D01*
X3522809Y-12250881D01*
X3513286Y-12212786D01*
X3513286Y-12165167D01*
X3522809Y-12127071D01*
X3532333Y-12108024D01*
X3541857Y-12098500D01*
X3560905Y-12088976D01*
X3751381Y-12088976D02*
X3770428Y-12088976D01*
X3789476Y-12098500D01*
X3799000Y-12108024D01*
X3808524Y-12127071D01*
X3818048Y-12165167D01*
X3818048Y-12212786D01*
X3808524Y-12250881D01*
X3799000Y-12269928D01*
X3789476Y-12279452D01*
X3770428Y-12288976D01*
X3751381Y-12288976D01*
X3732333Y-12279452D01*
X3722809Y-12269928D01*
X3713286Y-12250881D01*
X3703762Y-12212786D01*
X3703762Y-12165167D01*
X3713286Y-12127071D01*
X3722809Y-12108024D01*
X3732333Y-12098500D01*
X3751381Y-12088976D01*
X3903762Y-12288976D02*
X3903762Y-12155643D01*
X3903762Y-12174690D02*
X3913286Y-12165167D01*
X3932333Y-12155643D01*
X3960905Y-12155643D01*
X3979952Y-12165167D01*
X3989476Y-12184214D01*
X3989476Y-12288976D01*
X3989476Y-12184214D02*
X3999000Y-12165167D01*
X4018048Y-12155643D01*
X4046619Y-12155643D01*
X4065667Y-12165167D01*
X4075190Y-12184214D01*
X4075190Y-12288976D01*
X4170428Y-12288976D02*
X4170428Y-12155643D01*
X4170428Y-12174690D02*
X4179952Y-12165167D01*
X4199000Y-12155643D01*
X4227571Y-12155643D01*
X4246619Y-12165167D01*
X4256143Y-12184214D01*
X4256143Y-12288976D01*
X4256143Y-12184214D02*
X4265667Y-12165167D01*
X4284714Y-12155643D01*
X4313286Y-12155643D01*
X4332333Y-12165167D01*
X4341857Y-12184214D01*
X4341857Y-12288976D01*
X4732333Y-12079452D02*
X4560905Y-12336595D01*
X4989476Y-12088976D02*
X5008524Y-12088976D01*
X5027571Y-12098500D01*
X5037095Y-12108024D01*
X5046619Y-12127071D01*
X5056143Y-12165167D01*
X5056143Y-12212786D01*
X5046619Y-12250881D01*
X5037095Y-12269928D01*
X5027571Y-12279452D01*
X5008524Y-12288976D01*
X4989476Y-12288976D01*
X4970429Y-12279452D01*
X4960905Y-12269928D01*
X4951381Y-12250881D01*
X4941857Y-12212786D01*
X4941857Y-12165167D01*
X4951381Y-12127071D01*
X4960905Y-12108024D01*
X4970429Y-12098500D01*
X4989476Y-12088976D01*
X5141857Y-12269928D02*
X5151381Y-12279452D01*
X5141857Y-12288976D01*
X5132333Y-12279452D01*
X5141857Y-12269928D01*
X5141857Y-12288976D01*
X5275190Y-12088976D02*
X5294238Y-12088976D01*
X5313286Y-12098500D01*
X5322810Y-12108024D01*
X5332333Y-12127071D01*
X5341857Y-12165167D01*
X5341857Y-12212786D01*
X5332333Y-12250881D01*
X5322810Y-12269928D01*
X5313286Y-12279452D01*
X5294238Y-12288976D01*
X5275190Y-12288976D01*
X5256143Y-12279452D01*
X5246619Y-12269928D01*
X5237095Y-12250881D01*
X5227571Y-12212786D01*
X5227571Y-12165167D01*
X5237095Y-12127071D01*
X5246619Y-12108024D01*
X5256143Y-12098500D01*
X5275190Y-12088976D01*
X5408524Y-12088976D02*
X5532333Y-12088976D01*
X5465667Y-12165167D01*
X5494238Y-12165167D01*
X5513286Y-12174690D01*
X5522810Y-12184214D01*
X5532333Y-12203262D01*
X5532333Y-12250881D01*
X5522810Y-12269928D01*
X5513286Y-12279452D01*
X5494238Y-12288976D01*
X5437095Y-12288976D01*
X5418048Y-12279452D01*
X5408524Y-12269928D01*
X5627571Y-12288976D02*
X5665667Y-12288976D01*
X5684714Y-12279452D01*
X5694238Y-12269928D01*
X5713286Y-12241357D01*
X5722809Y-12203262D01*
X5722809Y-12127071D01*
X5713286Y-12108024D01*
X5703762Y-12098500D01*
X5684714Y-12088976D01*
X5646619Y-12088976D01*
X5627571Y-12098500D01*
X5618048Y-12108024D01*
X5608524Y-12127071D01*
X5608524Y-12174690D01*
X5618048Y-12193738D01*
X5627571Y-12203262D01*
X5646619Y-12212786D01*
X5684714Y-12212786D01*
X5703762Y-12203262D01*
X5713286Y-12193738D01*
X5722809Y-12174690D01*
X5894238Y-12155643D02*
X5894238Y-12288976D01*
X5846619Y-12079452D02*
X5799000Y-12222309D01*
X5922809Y-12222309D01*
X5989476Y-12088976D02*
X5989476Y-12127071D01*
X6065667Y-12088976D02*
X6065667Y-12127071D01*
X6360905Y-12365167D02*
X6351381Y-12355643D01*
X6332333Y-12327071D01*
X6322809Y-12308024D01*
X6313286Y-12279452D01*
X6303762Y-12231833D01*
X6303762Y-12193738D01*
X6313286Y-12146119D01*
X6322809Y-12117548D01*
X6332333Y-12098500D01*
X6351381Y-12069928D01*
X6360905Y-12060405D01*
X6541857Y-12288976D02*
X6427571Y-12288976D01*
X6484714Y-12288976D02*
X6484714Y-12088976D01*
X6465667Y-12117548D01*
X6446619Y-12136595D01*
X6427571Y-12146119D01*
X6656143Y-12174690D02*
X6637095Y-12165167D01*
X6627571Y-12155643D01*
X6618048Y-12136595D01*
X6618048Y-12127071D01*
X6627571Y-12108024D01*
X6637095Y-12098500D01*
X6656143Y-12088976D01*
X6694238Y-12088976D01*
X6713286Y-12098500D01*
X6722809Y-12108024D01*
X6732333Y-12127071D01*
X6732333Y-12136595D01*
X6722809Y-12155643D01*
X6713286Y-12165167D01*
X6694238Y-12174690D01*
X6656143Y-12174690D01*
X6637095Y-12184214D01*
X6627571Y-12193738D01*
X6618048Y-12212786D01*
X6618048Y-12250881D01*
X6627571Y-12269928D01*
X6637095Y-12279452D01*
X6656143Y-12288976D01*
X6694238Y-12288976D01*
X6713286Y-12279452D01*
X6722809Y-12269928D01*
X6732333Y-12250881D01*
X6732333Y-12212786D01*
X6722809Y-12193738D01*
X6713286Y-12184214D01*
X6694238Y-12174690D01*
X6970428Y-12288976D02*
X6970428Y-12088976D01*
X7056143Y-12288976D02*
X7056143Y-12184214D01*
X7046619Y-12165167D01*
X7027571Y-12155643D01*
X6999000Y-12155643D01*
X6979952Y-12165167D01*
X6970428Y-12174690D01*
X7179952Y-12288976D02*
X7160905Y-12279452D01*
X7151381Y-12269928D01*
X7141857Y-12250881D01*
X7141857Y-12193738D01*
X7151381Y-12174690D01*
X7160905Y-12165167D01*
X7179952Y-12155643D01*
X7208524Y-12155643D01*
X7227571Y-12165167D01*
X7237095Y-12174690D01*
X7246619Y-12193738D01*
X7246619Y-12250881D01*
X7237095Y-12269928D01*
X7227571Y-12279452D01*
X7208524Y-12288976D01*
X7179952Y-12288976D01*
X7360905Y-12288976D02*
X7341857Y-12279452D01*
X7332333Y-12260405D01*
X7332333Y-12088976D01*
X7513286Y-12279452D02*
X7494238Y-12288976D01*
X7456143Y-12288976D01*
X7437095Y-12279452D01*
X7427571Y-12260405D01*
X7427571Y-12184214D01*
X7437095Y-12165167D01*
X7456143Y-12155643D01*
X7494238Y-12155643D01*
X7513286Y-12165167D01*
X7522809Y-12184214D01*
X7522809Y-12203262D01*
X7427571Y-12222309D01*
X7599000Y-12279452D02*
X7618048Y-12288976D01*
X7656143Y-12288976D01*
X7675190Y-12279452D01*
X7684714Y-12260405D01*
X7684714Y-12250881D01*
X7675190Y-12231833D01*
X7656143Y-12222309D01*
X7627571Y-12222309D01*
X7608524Y-12212786D01*
X7599000Y-12193738D01*
X7599000Y-12184214D01*
X7608524Y-12165167D01*
X7627571Y-12155643D01*
X7656143Y-12155643D01*
X7675190Y-12165167D01*
X7751381Y-12365167D02*
X7760905Y-12355643D01*
X7779952Y-12327071D01*
X7789476Y-12308024D01*
X7799000Y-12279452D01*
X7808524Y-12231833D01*
X7808524Y-12193738D01*
X7799000Y-12146119D01*
X7789476Y-12117548D01*
X7779952Y-12098500D01*
X7760905Y-12069928D01*
X7751381Y-12060405D01*
D17*
X2659000Y-12397500D02*
X2789000Y-12527500D01*
X2789000Y-12397500D02*
X2659000Y-12527500D01*
X2769962Y-12508462D02*
X2769962Y-12416538D01*
X2678038Y-12416538D01*
X2678038Y-12508462D01*
X2769962Y-12508462D01*
D11*
X3151381Y-12552976D02*
X3037095Y-12552976D01*
X3094238Y-12552976D02*
X3094238Y-12352976D01*
X3075190Y-12381548D01*
X3056143Y-12400595D01*
X3037095Y-12410119D01*
X3237095Y-12533928D02*
X3246619Y-12543452D01*
X3237095Y-12552976D01*
X3227571Y-12543452D01*
X3237095Y-12533928D01*
X3237095Y-12552976D01*
X3313286Y-12352976D02*
X3437095Y-12352976D01*
X3370428Y-12429167D01*
X3399000Y-12429167D01*
X3418048Y-12438690D01*
X3427571Y-12448214D01*
X3437095Y-12467262D01*
X3437095Y-12514881D01*
X3427571Y-12533928D01*
X3418048Y-12543452D01*
X3399000Y-12552976D01*
X3341857Y-12552976D01*
X3322809Y-12543452D01*
X3313286Y-12533928D01*
X3560905Y-12352976D02*
X3579952Y-12352976D01*
X3599000Y-12362500D01*
X3608524Y-12372024D01*
X3618048Y-12391071D01*
X3627571Y-12429167D01*
X3627571Y-12476786D01*
X3618048Y-12514881D01*
X3608524Y-12533928D01*
X3599000Y-12543452D01*
X3579952Y-12552976D01*
X3560905Y-12552976D01*
X3541857Y-12543452D01*
X3532333Y-12533928D01*
X3522809Y-12514881D01*
X3513286Y-12476786D01*
X3513286Y-12429167D01*
X3522809Y-12391071D01*
X3532333Y-12372024D01*
X3541857Y-12362500D01*
X3560905Y-12352976D01*
X3751381Y-12352976D02*
X3770428Y-12352976D01*
X3789476Y-12362500D01*
X3799000Y-12372024D01*
X3808524Y-12391071D01*
X3818048Y-12429167D01*
X3818048Y-12476786D01*
X3808524Y-12514881D01*
X3799000Y-12533928D01*
X3789476Y-12543452D01*
X3770428Y-12552976D01*
X3751381Y-12552976D01*
X3732333Y-12543452D01*
X3722809Y-12533928D01*
X3713286Y-12514881D01*
X3703762Y-12476786D01*
X3703762Y-12429167D01*
X3713286Y-12391071D01*
X3722809Y-12372024D01*
X3732333Y-12362500D01*
X3751381Y-12352976D01*
X3903762Y-12552976D02*
X3903762Y-12419643D01*
X3903762Y-12438690D02*
X3913286Y-12429167D01*
X3932333Y-12419643D01*
X3960905Y-12419643D01*
X3979952Y-12429167D01*
X3989476Y-12448214D01*
X3989476Y-12552976D01*
X3989476Y-12448214D02*
X3999000Y-12429167D01*
X4018048Y-12419643D01*
X4046619Y-12419643D01*
X4065667Y-12429167D01*
X4075190Y-12448214D01*
X4075190Y-12552976D01*
X4170428Y-12552976D02*
X4170428Y-12419643D01*
X4170428Y-12438690D02*
X4179952Y-12429167D01*
X4199000Y-12419643D01*
X4227571Y-12419643D01*
X4246619Y-12429167D01*
X4256143Y-12448214D01*
X4256143Y-12552976D01*
X4256143Y-12448214D02*
X4265667Y-12429167D01*
X4284714Y-12419643D01*
X4313286Y-12419643D01*
X4332333Y-12429167D01*
X4341857Y-12448214D01*
X4341857Y-12552976D01*
X4732333Y-12343452D02*
X4560905Y-12600595D01*
X4989476Y-12352976D02*
X5008524Y-12352976D01*
X5027571Y-12362500D01*
X5037095Y-12372024D01*
X5046619Y-12391071D01*
X5056143Y-12429167D01*
X5056143Y-12476786D01*
X5046619Y-12514881D01*
X5037095Y-12533928D01*
X5027571Y-12543452D01*
X5008524Y-12552976D01*
X4989476Y-12552976D01*
X4970429Y-12543452D01*
X4960905Y-12533928D01*
X4951381Y-12514881D01*
X4941857Y-12476786D01*
X4941857Y-12429167D01*
X4951381Y-12391071D01*
X4960905Y-12372024D01*
X4970429Y-12362500D01*
X4989476Y-12352976D01*
X5141857Y-12533928D02*
X5151381Y-12543452D01*
X5141857Y-12552976D01*
X5132333Y-12543452D01*
X5141857Y-12533928D01*
X5141857Y-12552976D01*
X5275190Y-12352976D02*
X5294238Y-12352976D01*
X5313286Y-12362500D01*
X5322810Y-12372024D01*
X5332333Y-12391071D01*
X5341857Y-12429167D01*
X5341857Y-12476786D01*
X5332333Y-12514881D01*
X5322810Y-12533928D01*
X5313286Y-12543452D01*
X5294238Y-12552976D01*
X5275190Y-12552976D01*
X5256143Y-12543452D01*
X5246619Y-12533928D01*
X5237095Y-12514881D01*
X5227571Y-12476786D01*
X5227571Y-12429167D01*
X5237095Y-12391071D01*
X5246619Y-12372024D01*
X5256143Y-12362500D01*
X5275190Y-12352976D01*
X5522810Y-12352976D02*
X5427571Y-12352976D01*
X5418048Y-12448214D01*
X5427571Y-12438690D01*
X5446619Y-12429167D01*
X5494238Y-12429167D01*
X5513286Y-12438690D01*
X5522810Y-12448214D01*
X5532333Y-12467262D01*
X5532333Y-12514881D01*
X5522810Y-12533928D01*
X5513286Y-12543452D01*
X5494238Y-12552976D01*
X5446619Y-12552976D01*
X5427571Y-12543452D01*
X5418048Y-12533928D01*
X5722809Y-12552976D02*
X5608524Y-12552976D01*
X5665667Y-12552976D02*
X5665667Y-12352976D01*
X5646619Y-12381548D01*
X5627571Y-12400595D01*
X5608524Y-12410119D01*
X5799000Y-12372024D02*
X5808524Y-12362500D01*
X5827571Y-12352976D01*
X5875190Y-12352976D01*
X5894238Y-12362500D01*
X5903762Y-12372024D01*
X5913286Y-12391071D01*
X5913286Y-12410119D01*
X5903762Y-12438690D01*
X5789476Y-12552976D01*
X5913286Y-12552976D01*
X5989476Y-12352976D02*
X5989476Y-12391071D01*
X6065667Y-12352976D02*
X6065667Y-12391071D01*
X6360905Y-12629167D02*
X6351381Y-12619643D01*
X6332333Y-12591071D01*
X6322809Y-12572024D01*
X6313286Y-12543452D01*
X6303762Y-12495833D01*
X6303762Y-12457738D01*
X6313286Y-12410119D01*
X6322809Y-12381548D01*
X6332333Y-12362500D01*
X6351381Y-12333928D01*
X6360905Y-12324405D01*
X6427571Y-12372024D02*
X6437095Y-12362500D01*
X6456143Y-12352976D01*
X6503762Y-12352976D01*
X6522809Y-12362500D01*
X6532333Y-12372024D01*
X6541857Y-12391071D01*
X6541857Y-12410119D01*
X6532333Y-12438690D01*
X6418048Y-12552976D01*
X6541857Y-12552976D01*
X6779952Y-12552976D02*
X6779952Y-12352976D01*
X6865667Y-12552976D02*
X6865667Y-12448214D01*
X6856143Y-12429167D01*
X6837095Y-12419643D01*
X6808524Y-12419643D01*
X6789476Y-12429167D01*
X6779952Y-12438690D01*
X6989476Y-12552976D02*
X6970428Y-12543452D01*
X6960905Y-12533928D01*
X6951381Y-12514881D01*
X6951381Y-12457738D01*
X6960905Y-12438690D01*
X6970428Y-12429167D01*
X6989476Y-12419643D01*
X7018048Y-12419643D01*
X7037095Y-12429167D01*
X7046619Y-12438690D01*
X7056143Y-12457738D01*
X7056143Y-12514881D01*
X7046619Y-12533928D01*
X7037095Y-12543452D01*
X7018048Y-12552976D01*
X6989476Y-12552976D01*
X7170428Y-12552976D02*
X7151381Y-12543452D01*
X7141857Y-12524405D01*
X7141857Y-12352976D01*
X7322809Y-12543452D02*
X7303762Y-12552976D01*
X7265667Y-12552976D01*
X7246619Y-12543452D01*
X7237095Y-12524405D01*
X7237095Y-12448214D01*
X7246619Y-12429167D01*
X7265667Y-12419643D01*
X7303762Y-12419643D01*
X7322809Y-12429167D01*
X7332333Y-12448214D01*
X7332333Y-12467262D01*
X7237095Y-12486309D01*
X7408524Y-12543452D02*
X7427571Y-12552976D01*
X7465667Y-12552976D01*
X7484714Y-12543452D01*
X7494238Y-12524405D01*
X7494238Y-12514881D01*
X7484714Y-12495833D01*
X7465667Y-12486309D01*
X7437095Y-12486309D01*
X7418048Y-12476786D01*
X7408524Y-12457738D01*
X7408524Y-12448214D01*
X7418048Y-12429167D01*
X7437095Y-12419643D01*
X7465667Y-12419643D01*
X7484714Y-12429167D01*
X7560905Y-12629167D02*
X7570428Y-12619643D01*
X7589476Y-12591071D01*
X7599000Y-12572024D01*
X7608524Y-12543452D01*
X7618048Y-12495833D01*
X7618048Y-12457738D01*
X7608524Y-12410119D01*
X7599000Y-12381548D01*
X7589476Y-12362500D01*
X7570428Y-12333928D01*
X7560905Y-12324405D01*
M02*
